<?xml version="1.0" encoding="UTF-8"?>
<svg width="400px" height="81px" viewBox="0 0 400 81" version="1.1" xmlns="http://www.w3.org/2000/svg" xmlns:xlink="http://www.w3.org/1999/xlink">
    <!-- Generator: Sketch 53.2 (72643) - https://sketchapp.com -->
    <title>Kontakt</title>
    <desc>Created with Sketch.</desc>
    <g id="WWW" stroke="none" stroke-width="1" fill="none" fill-rule="evenodd" opacity="0.500623431">
        <g id="Artboard-Copy-2" transform="translate(-556.000000, -355.000000)" fill="#FFFFFF" fill-rule="nonzero">
            <path d="M573.415471,360.357485 C575.822082,360.357485 578.55859,360.299261 581.625078,360.182812 C584.691566,360.066363 587.311627,359.891693 589.48534,359.658795 C589.718238,359.969325 589.854093,360.6486 589.892909,361.69664 C589.931725,362.744681 589.79587,363.462771 589.48534,363.850934 C589.019544,363.850934 588.223822,363.909158 587.098149,364.025607 C585.972476,364.142056 584.924452,364.336134 583.954044,364.607849 C582.983637,364.879563 582.381993,365.287128 582.149095,365.830556 C581.760932,366.83978 581.528038,368.120699 581.450405,369.673351 C581.372773,371.226003 581.333957,373.011526 581.333957,375.029974 L581.333957,396.572914 C586.380076,392.613651 590.300464,389.159052 593.095238,386.209013 C595.424216,383.880035 597.38441,381.900433 598.975878,380.270148 C600.567347,378.639864 602.061752,377.048419 603.459139,375.495767 C604.856526,373.943115 606.331523,372.118776 607.884175,370.022696 C608.505236,369.24637 608.854578,368.528279 608.93221,367.868402 C609.009843,367.208525 609.048659,366.684512 609.048659,366.296349 C609.048659,365.442391 608.621686,364.840747 607.767727,364.4914 C606.913768,364.142054 605.982191,363.928567 604.972967,363.850934 C603.963743,363.773302 603.187429,363.734486 602.644001,363.734486 C602.33347,363.268691 602.178207,362.608823 602.178207,361.754865 C602.178207,360.900906 602.255839,360.202223 602.411104,359.658795 C604.507184,359.736427 606.971983,359.872282 609.805573,360.066364 C612.639163,360.260445 615.103961,360.357485 617.200041,360.357485 C622.401426,360.357485 627.098128,360.12459 631.290289,359.658795 C631.445554,360.046958 631.523186,360.706825 631.523186,361.638416 C631.523186,362.570008 631.367923,363.229875 631.057392,363.618038 C630.746862,363.618038 629.815285,363.753893 628.262632,364.025607 C626.70998,364.297321 625.002089,364.782518 623.138906,365.481211 C621.275724,366.179905 619.645463,367.227929 618.248076,368.625316 L616.152006,370.77961 C614.75462,372.215813 612.949689,374.05956 610.737159,376.310905 C608.52463,378.562251 606.176279,380.949418 603.692036,383.472477 C601.207792,385.995537 598.917665,388.382704 596.821584,390.634049 C596.278156,391.332743 596.161709,391.953794 596.472239,392.497223 C598.56832,395.291997 600.800224,398.280807 603.168018,401.463744 C605.535813,404.646681 607.767717,407.654899 609.863797,410.488489 C611.959877,413.322079 613.667769,415.631615 614.987523,417.417164 L616.967145,420.095476 C619.761919,423.666576 622.55665,426.228413 625.351424,427.781066 C628.146198,429.333718 630.513957,430.284703 632.454772,430.634049 C634.395587,430.983396 635.521243,431.158067 635.831774,431.158067 C636.142304,431.54623 636.239343,432.303137 636.122894,433.428809 C636.006445,434.554482 635.909406,435.194941 635.831774,435.350207 C634.201489,435.427839 631.891954,435.524879 628.903098,435.641328 C625.914243,435.757776 623.255366,435.816 620.926388,435.816 C616.578962,435.816 612.949692,434.884423 610.038469,433.02124 C607.127247,431.158058 604.972974,429.256087 603.575587,427.315272 C602.876894,426.306048 601.673606,424.675788 599.965689,422.424443 C598.257772,420.173097 596.375209,417.669483 594.317945,414.913525 C592.260681,412.157568 590.261672,409.498691 588.320857,406.936815 C586.380041,404.374939 584.788597,402.240075 583.546475,400.532157 C583.235945,400.221627 582.847788,400.066364 582.381992,400.066364 C581.916196,400.066364 581.566855,400.299258 581.333957,400.765054 L581.333957,419.862579 C581.333957,421.881027 581.372773,423.66655 581.450405,425.219202 C581.528038,426.771854 581.760932,428.052773 582.149095,429.061997 C582.381993,429.527793 582.983637,429.91595 583.954044,430.22648 C584.924452,430.537011 585.972476,430.750497 587.098149,430.866946 C588.223822,430.983395 589.019544,431.080434 589.48534,431.158067 C589.79587,431.54623 589.931725,432.244913 589.892909,433.254137 C589.854093,434.263361 589.718238,434.962044 589.48534,435.350207 C587.311627,435.117309 584.65275,434.92323 581.508629,434.767965 C578.364509,434.6127 575.589185,434.535068 573.182574,434.535068 C570.775963,434.535068 568.058863,434.6127 565.031191,434.767965 C562.00352,434.92323 559.364051,435.117309 557.112705,435.350207 C556.879807,434.962044 556.743952,434.263361 556.705136,433.254137 C556.66632,432.244913 556.802175,431.54623 557.112705,431.158067 C557.656133,431.080434 558.471264,430.983395 559.55812,430.866946 C560.644977,430.750497 561.693001,430.537011 562.702225,430.22648 C563.711449,429.91595 564.293685,429.527793 564.44895,429.061997 C564.914745,427.897508 565.186455,426.422511 565.264088,424.636961 C565.341721,422.851411 565.380536,420.755362 565.380536,418.348751 L565.380536,376.543802 C565.380536,374.059559 565.341721,371.944102 565.264088,370.197368 C565.186455,368.450635 564.914745,366.995045 564.44895,365.830556 C564.293685,365.287128 563.711449,364.879563 562.702225,364.607849 C561.693001,364.336134 560.644977,364.142056 559.55812,364.025607 C558.471264,363.909158 557.656133,363.850934 557.112705,363.850934 C556.802175,363.462771 556.66632,362.744681 556.705136,361.69664 C556.743952,360.6486 556.879807,359.969325 557.112705,359.658795 C559.364051,359.891693 562.042335,360.066363 565.14764,360.182812 C568.252944,360.299261 571.00886,360.357485 573.415471,360.357485 Z M660.518819,383.996495 C665.797836,383.996495 670.436314,385.102743 674.434394,387.315272 C678.432473,389.527801 681.557138,392.53602 683.808484,396.340017 C686.059829,400.144015 687.185485,404.45256 687.185485,409.265782 C687.185485,414.001371 686.021014,418.387547 683.692036,422.424443 C681.363057,426.461338 678.218984,429.683043 674.259721,432.089654 C670.300458,434.496264 665.797835,435.699552 660.751715,435.699552 C655.472698,435.699552 650.814812,434.573896 646.777916,432.32255 C642.741021,430.071205 639.596947,427.004763 637.345602,423.123132 C635.094256,419.241502 633.9686,414.932957 633.9686,410.197368 C633.9686,405.384147 635.15248,400.99797 637.520274,397.038707 C639.888069,393.079445 643.070958,389.915963 647.069037,387.548169 C651.067116,385.180374 655.550332,383.996495 660.518819,383.996495 Z M659.237887,388.770876 C657.141807,388.770876 655.492139,389.37252 654.288833,390.575825 C653.085528,391.779131 652.192766,393.351167 651.610522,395.291983 C651.028277,397.232798 650.64012,399.309439 650.446039,401.521968 C650.251957,403.734497 650.154918,405.88877 650.154918,407.98485 C650.154918,410.469093 650.387812,413.050339 650.853608,415.728664 C651.319403,418.406989 652.018086,420.891195 652.949678,423.181357 C653.881269,425.471518 655.084556,427.334673 656.559576,428.770876 C658.034595,430.207079 659.820118,430.92517 661.916199,430.92517 C664.012279,430.92517 665.661947,430.323527 666.865252,429.120221 C668.068558,427.916916 668.980727,426.364287 669.601788,424.462288 C670.222849,422.560289 670.630414,420.503056 670.824496,418.290527 C671.018577,416.077998 671.115616,413.962541 671.115616,411.944093 C671.115616,409.382217 670.882722,406.762156 670.416926,404.083831 C669.951131,401.405506 669.23304,398.901892 668.262632,396.572914 C667.292225,394.243936 666.06953,392.361374 664.59451,390.92517 C663.119491,389.488967 661.333967,388.770876 659.237887,388.770876 Z M733.997712,384.112943 C738.345138,384.112943 741.625067,385.102744 743.837596,387.082376 C746.050125,389.062007 747.544531,392.050817 748.320857,396.048897 C749.097183,400.046976 749.48534,405.034796 749.48534,411.012507 L749.48534,418.348751 C749.48534,420.755362 749.524156,422.851411 749.601788,424.636961 C749.679421,426.422511 749.951131,427.897508 750.416926,429.061997 C750.649824,429.527793 751.251468,429.91595 752.221875,430.22648 C753.192283,430.537011 754.240308,430.750497 755.36598,430.866946 C756.491653,430.983395 757.287375,431.080434 757.753171,431.158067 C758.063701,431.54623 758.199556,432.244913 758.16074,433.254137 C758.121924,434.263361 757.986069,434.962044 757.753171,435.350207 C755.579458,435.117309 753.037028,434.92323 750.125806,434.767965 C747.214583,434.6127 744.555706,434.535068 742.149095,434.535068 C739.742485,434.535068 737.33591,434.6127 734.929299,434.767965 C732.522688,434.92323 730.193745,435.117309 727.9424,435.350207 C727.709502,434.962044 727.573647,434.263361 727.53483,433.254137 C727.496014,432.244913 727.631869,431.54623 727.9424,431.158067 C728.718726,431.080434 729.824974,430.905764 731.261177,430.634049 C732.69738,430.362335 733.570734,429.838323 733.881264,429.061997 C734.269427,428.052773 734.502321,426.771854 734.579954,425.219202 C734.657587,423.66655 734.696402,421.881027 734.696402,419.862579 L734.696402,409.38223 C734.696402,406.665089 734.482916,404.083843 734.055937,401.638416 C733.628957,399.192989 732.872051,397.213387 731.785194,395.699552 C730.698338,394.185716 729.145709,393.428809 727.127261,393.428809 C725.652242,393.428809 724.138429,393.797559 722.585777,394.535068 C721.033124,395.272578 719.732798,396.126524 718.684758,397.096932 C717.636717,398.067339 717.112705,398.940693 717.112705,399.717019 L717.112705,418.348751 C717.112705,420.444831 717.151521,422.463249 717.229154,424.404064 C717.306786,426.344879 717.578496,427.897508 718.044292,429.061997 C718.27719,429.527793 718.801202,429.91595 719.616344,430.22648 C720.431487,430.537011 721.324248,430.750497 722.294656,430.866946 C723.265063,430.983395 723.983154,431.080434 724.44895,431.158067 C724.75948,431.54623 724.895335,432.244913 724.856519,433.254137 C724.817703,434.263361 724.681848,434.962044 724.44895,435.350207 C722.275237,435.117309 719.868662,434.92323 717.229154,434.767965 C714.589645,434.6127 712.066623,434.535068 709.660012,434.535068 C707.253402,434.535068 704.63334,434.6127 701.79975,434.767965 C698.96616,434.92323 696.423731,435.117309 694.172385,435.350207 C693.939487,434.962044 693.803632,434.263361 693.764816,433.254137 C693.726,432.244913 693.861855,431.54623 694.172385,431.158067 C694.715813,431.080434 695.511535,430.983395 696.559576,430.866946 C697.607616,430.750497 698.636232,430.537011 699.645456,430.22648 C700.65468,429.91595 701.236916,429.527793 701.392181,429.061997 C701.857977,427.897508 702.129687,426.422511 702.207319,424.636961 C702.284952,422.851411 702.323768,420.755362 702.323768,418.348751 L702.323768,405.306539 C702.323768,404.918376 702.30436,404.083838 702.265544,402.8029 C702.226727,401.521962 702.129688,400.202227 701.974423,398.843656 C701.819158,397.485086 701.586263,396.534101 701.275733,395.990672 C700.965202,395.369612 700.285927,394.903823 699.237887,394.593293 C698.189847,394.282762 697.16123,394.049868 696.152006,393.894603 C695.142783,393.739337 694.482915,393.661706 694.172385,393.661706 C694.094752,393.584073 694.017121,393.25414 693.939488,392.671895 C693.861856,392.089651 693.861856,391.526823 693.939488,390.983394 C694.017121,390.439966 694.133568,390.168256 694.288833,390.168256 C697.16124,389.935358 700.014195,389.46957 702.847785,388.770876 C705.681375,388.072183 708.301436,387.295868 710.708047,386.44191 C713.114658,385.587951 715.016628,384.811637 716.414015,384.112943 C716.802178,384.112943 717.229151,384.365245 717.694947,384.869857 C718.160742,385.374469 718.393637,385.782034 718.393637,386.092565 C718.316004,386.403095 718.180149,387.08237 717.986068,388.13041 C717.791986,389.178451 717.617315,390.168252 717.46205,391.099843 C717.306785,392.031434 717.229154,392.536038 717.229154,392.613671 C717.229154,393.001834 717.267969,393.234728 717.345602,393.312361 C717.500867,393.312361 717.772577,393.118282 718.16074,392.730119 C719.247597,391.487998 720.703186,390.207079 722.527552,388.887325 C724.351919,387.56757 726.292705,386.441914 728.349969,385.510323 C730.407233,384.578732 732.289795,384.112943 733.997712,384.112943 Z M782.673113,386.209013 L795.598877,386.209013 C795.831775,386.209013 796.006445,386.383684 796.122894,386.733031 C796.239343,387.082377 796.297567,387.412311 796.297567,387.722841 C796.297567,388.26627 796.025857,388.945545 795.482429,389.760687 C794.939,390.575829 794.356765,391.177473 793.735704,391.565636 L782.673113,391.565636 L782.673113,419.746131 C782.673113,422.773803 783.177717,424.966891 784.186941,426.325461 C785.196165,427.684032 786.748794,428.363307 788.844874,428.363307 C790.164628,428.363307 791.464955,427.955742 792.745893,427.1406 C794.026831,426.325457 794.744922,425.840261 794.900187,425.684996 C795.055452,425.762628 795.210715,425.976115 795.36598,426.325461 C795.521245,426.674808 795.598877,427.004742 795.598877,427.315272 C795.598877,427.625803 795.501838,428.01396 795.307756,428.479755 C795.113675,428.945551 794.939004,429.256077 794.783739,429.411342 C794.473208,429.799505 793.73571,430.498188 792.57122,431.507412 C791.406731,432.516636 789.97055,433.467621 788.262632,434.360396 C786.554715,435.253171 784.69156,435.699552 782.673113,435.699552 C780.344135,435.699552 778.034599,435.194947 775.744437,434.185723 C773.454275,433.1765 771.571713,431.4492 770.096694,429.003773 C768.621674,426.558346 767.884175,423.239602 767.884175,419.047441 L767.884175,391.565636 L759.849241,391.565636 C759.53871,391.410371 759.36404,391.177477 759.325223,390.866946 C759.286407,390.556416 759.266999,390.284706 759.266999,390.051808 C759.88806,389.197849 760.470296,388.479758 761.013724,387.897514 C761.557152,387.315269 762.178204,386.752441 762.876897,386.209013 L767.884175,386.209013 L767.884175,380.1537 C770.057888,378.36815 772.173345,376.349733 774.230609,374.098387 C776.287873,371.847042 778.170436,369.86744 779.878353,368.159523 C780.499414,367.77136 781.101057,367.577281 781.683302,367.577281 C782.265547,367.577281 782.59548,367.77136 782.673113,368.159523 L782.673113,386.209013 Z M825.526097,383.880047 C828.709034,383.880047 831.581397,384.617545 834.143273,386.092565 C836.705149,387.567584 838.762382,389.60541 840.315034,392.206102 C841.867686,394.806794 842.644001,397.815013 842.644001,401.230847 L842.644001,422.540891 C842.644001,424.01591 842.896303,425.160974 843.400915,425.976116 C843.905527,426.791259 844.545986,427.198824 845.322312,427.198824 C846.176271,427.198824 846.874954,427.024153 847.418382,426.674806 C847.96181,426.32546 848.349967,426.111973 848.582865,426.034341 C849.126294,426.267238 849.398004,426.88829 849.398004,427.897514 C849.398004,428.518575 849.242741,429.10081 848.93221,429.644239 C848.388782,430.110034 847.49602,430.828125 846.253899,431.798533 C845.011777,432.76894 843.614411,433.642294 842.061759,434.41862 C840.509107,435.194946 838.917662,435.583103 837.287378,435.583103 C835.424195,435.583103 833.65808,434.962052 831.988979,433.71993 C830.319878,432.477808 829.21363,431.19689 828.670202,429.877135 C828.359671,430.187666 827.408686,430.828125 825.817218,431.798533 C824.225749,432.76894 822.49845,433.68111 820.635267,434.535068 C818.772085,435.389027 817.141824,435.816 815.744437,435.816 C812.872031,435.816 810.310193,435.136725 808.058848,433.778154 C805.807502,432.419584 804.041387,430.672876 802.760449,428.53798 C801.479511,426.403083 800.839052,424.209995 800.839052,421.958649 C800.839052,419.707304 801.460103,417.74711 802.702225,416.078009 C803.944347,414.408908 805.302897,413.341475 806.777916,412.87568 C808.252936,412.409884 810.271353,411.672385 812.833229,410.663162 C815.395105,409.653938 818.053982,408.605913 820.80994,407.519057 C823.565897,406.4322 825.914248,405.539439 827.855063,404.840745 L827.855063,399.484122 C827.855063,396.611716 827.234012,394.011063 825.99189,391.682084 C824.749768,389.353106 823.119508,388.188635 821.10106,388.188635 C818.927347,388.188635 817.432942,389.13962 816.6178,391.041619 C815.802657,392.943617 815.084567,395.175521 814.463506,397.737397 C814.152975,398.979519 813.531924,400.124583 812.600333,401.172623 C811.668741,402.220663 810.193744,402.744675 808.175296,402.744675 C806.700277,402.744675 805.341726,402.220663 804.099605,401.172623 C802.857483,400.124583 802.236432,398.824256 802.236432,397.271604 C802.236432,396.495278 802.391694,395.718964 802.702225,394.942638 C803.012755,394.166311 803.400912,393.389997 803.866708,392.613671 C804.254871,392.225508 805.128225,391.565641 806.486795,390.634049 C807.845366,389.702458 809.53385,388.712657 811.552298,387.664617 C813.570745,386.616577 815.783241,385.723815 818.189852,384.986306 C820.596463,384.248796 823.041853,383.880047 825.526097,383.880047 Z M823.19713,427.781066 C824.594517,427.781066 825.720173,427.47054 826.574132,426.849479 C827.42809,426.228418 827.855063,425.762629 827.855063,425.452099 L827.855063,409.498678 C826.690574,410.042107 825.429063,410.585527 824.070493,411.128955 C822.711922,411.672383 821.450411,412.33225 820.285922,413.108576 C818.73327,414.1178 817.64643,415.340495 817.025369,416.776699 C816.404308,418.212902 816.132598,419.552044 816.210231,420.794166 C816.287863,423.200777 817.102993,424.966892 818.655645,426.092565 C820.208298,427.218238 821.722111,427.781066 823.19713,427.781066 Z M875.715325,418.348751 C875.715325,420.755362 875.754141,422.851411 875.831774,424.636961 C875.909406,426.422511 876.181116,427.897508 876.646912,429.061997 C876.87981,429.527793 877.481453,429.91595 878.451861,430.22648 C879.422268,430.537011 880.470293,430.750497 881.595966,430.866946 C882.721639,430.983395 883.517361,431.080434 883.983156,431.158067 C884.293687,431.54623 884.429542,432.244913 884.390726,433.254137 C884.351909,434.263361 884.216054,434.962044 883.983156,435.350207 C881.809443,435.117309 879.267014,434.92323 876.355791,434.767965 C873.444568,434.6127 870.785691,434.535068 868.379081,434.535068 C865.97247,434.535068 863.333001,434.6127 860.460595,434.767965 C857.588188,434.92323 855.026351,435.117309 852.775005,435.350207 C852.542107,434.962044 852.406252,434.263361 852.367436,433.254137 C852.32862,432.244913 852.464475,431.54623 852.775005,431.158067 C853.318433,431.080434 854.133563,430.983395 855.22042,430.866946 C856.307276,430.750497 857.355301,430.537011 858.364525,430.22648 C859.373749,429.91595 859.955984,429.527793 860.11125,429.061997 C860.499413,428.052773 860.732307,426.771854 860.80994,425.219202 C860.887572,423.66655 860.926388,421.881027 860.926388,419.862579 L860.926388,371.420076 C860.926388,370.410852 860.887572,369.498682 860.80994,368.68354 C860.732307,367.868398 860.499413,366.956228 860.11125,365.947004 C859.955984,365.481209 859.412564,365.093052 858.480973,364.782521 C857.549382,364.471991 856.578989,364.258504 855.569765,364.142055 C854.560541,364.025606 853.823042,363.967383 853.357247,363.967383 C853.124349,363.967383 852.988494,363.404555 852.949678,362.278882 C852.910861,361.153209 853.046716,360.473934 853.357247,360.241036 C857.62704,359.852873 861.372757,359.309453 864.59451,358.61076 C867.816263,357.912066 870.378101,357.271607 872.2801,356.689362 C874.182098,356.107118 875.171899,355.816 875.249532,355.816 C875.637695,355.893633 876.006444,356.165343 876.355791,356.631138 C876.705138,357.096934 876.918624,357.485091 876.996257,357.795622 L876.705136,359.775243 C876.511055,361.094997 876.297568,362.647626 876.06467,364.433176 C875.831772,366.218726 875.715325,367.887802 875.715325,369.440454 L875.598877,408.101298 C876.608101,407.713135 877.811388,407.072676 879.208775,406.179901 C880.606162,405.287126 882.275238,403.986799 884.216053,402.278882 C888.175316,398.863047 890.814785,396.398249 892.134539,394.884413 C893.454294,393.370578 894.114161,392.186698 894.114161,391.332739 C894.114161,390.866944 893.66778,390.439971 892.775005,390.051808 C891.88223,389.663645 890.853613,389.353119 889.689124,389.120221 C888.524635,388.887323 887.593058,388.770876 886.894365,388.770876 C886.739099,388.227448 886.661468,387.470541 886.661468,386.500134 C886.661468,385.529726 886.816731,385.005714 887.127261,384.928082 L888.757538,384.986306 C889.844394,385.025122 891.183537,385.083346 892.775005,385.160978 C894.366473,385.238611 896.016142,385.296834 897.724059,385.335651 C899.431976,385.374467 900.868158,385.393875 902.032647,385.393875 C904.051095,385.393875 906.011289,385.316243 907.913287,385.160978 C909.815286,385.005713 912.04719,384.889266 914.609066,384.811633 C914.997229,385.355061 915.133084,386.111968 915.016635,387.082376 C914.900186,388.052783 914.647884,388.615611 914.259721,388.770876 C912.551804,388.926141 910.630426,389.294891 908.495529,389.877135 C906.360632,390.45938 904.555701,391.293918 903.080682,392.380774 C901.83856,393.234733 899.897774,394.903809 897.258266,397.388052 C894.618757,399.872296 891.552315,402.667028 888.058848,405.772332 C890.077296,408.10131 891.765779,410.022688 893.12435,411.536524 C894.482921,413.05036 895.686208,414.389502 896.734248,415.553991 C897.782288,416.71848 898.869128,417.921768 899.994801,419.163889 C901.120474,420.406011 902.498432,421.919824 904.128717,423.705374 C906.224797,426.034352 908.068544,427.68402 909.660012,428.654428 C911.251481,429.624836 912.70707,430.226479 914.026825,430.459377 C915.346579,430.692275 916.588682,430.808722 917.753171,430.808722 C918.141334,431.429783 918.257781,432.109058 918.102516,432.846568 C917.947251,433.584077 917.830804,434.030458 917.753171,434.185723 C916.82158,434.496254 915.210727,434.80678 912.920565,435.11731 C910.630404,435.42784 908.3985,435.583103 906.224787,435.583103 C902.886585,435.583103 899.878366,434.942644 897.200041,433.661706 C894.521717,432.380768 892.328628,430.769916 890.620711,428.8291 L888.466417,426.44191 C887.030214,424.850441 885.264098,422.87084 883.168018,420.503045 C881.071938,418.135251 879.092336,415.7869 877.229154,413.457921 C876.996256,413.069758 876.68573,412.739825 876.297567,412.468111 L875.715325,412.060541 L875.715325,418.348751 Z M942.090871,386.209013 L955.016635,386.209013 C955.249533,386.209013 955.424204,386.383684 955.540653,386.733031 C955.657102,387.082377 955.715325,387.412311 955.715325,387.722841 C955.715325,388.26627 955.443615,388.945545 954.900187,389.760687 C954.356759,390.575829 953.774523,391.177473 953.153462,391.565636 L942.090871,391.565636 L942.090871,419.746131 C942.090871,422.773803 942.595475,424.966891 943.604699,426.325461 C944.613923,427.684032 946.166552,428.363307 948.262632,428.363307 C949.582387,428.363307 950.882713,427.955742 952.163651,427.1406 C953.444589,426.325457 954.16268,425.840261 954.317945,425.684996 C954.473211,425.762628 954.628473,425.976115 954.783739,426.325461 C954.939004,426.674808 955.016635,427.004742 955.016635,427.315272 C955.016635,427.625803 954.919596,428.01396 954.725514,428.479755 C954.531433,428.945551 954.356762,429.256077 954.201497,429.411342 C953.890967,429.799505 953.153468,430.498188 951.988979,431.507412 C950.82449,432.516636 949.388308,433.467621 947.680391,434.360396 C945.972473,435.253171 944.109319,435.699552 942.090871,435.699552 C939.761893,435.699552 937.452358,435.194947 935.162196,434.185723 C932.872034,433.1765 930.989471,431.4492 929.514452,429.003773 C928.039432,426.558346 927.301934,423.239602 927.301934,419.047441 L927.301934,391.565636 L919.266999,391.565636 C918.956469,391.410371 918.781798,391.177477 918.742982,390.866946 C918.704165,390.556416 918.684758,390.284706 918.684758,390.051808 C919.305818,389.197849 919.888054,388.479758 920.431482,387.897514 C920.974911,387.315269 921.595962,386.752441 922.294656,386.209013 L927.301934,386.209013 L927.301934,380.1537 C929.475647,378.36815 931.591103,376.349733 933.648367,374.098387 C935.705632,371.847042 937.588194,369.86744 939.296111,368.159523 C939.917172,367.77136 940.518816,367.577281 941.10106,367.577281 C941.683305,367.577281 942.013239,367.77136 942.090871,368.159523 L942.090871,386.209013 Z" id="Kontakt"></path>
        </g>
    </g>
</svg>