<?xml version="1.0" encoding="UTF-8"?>
<svg width="657px" height="90px" viewBox="0 0 657 90" version="1.1" xmlns="http://www.w3.org/2000/svg" xmlns:xlink="http://www.w3.org/1999/xlink">
    <!-- Generator: Sketch 53.2 (72643) - https://sketchapp.com -->
    <title>MichaelJordan</title>
    <desc>Created with Sketch.</desc>
    <g id="WWW" stroke="none" stroke-width="1" fill="none" fill-rule="evenodd" opacity="0.352617536">
        <g id="Artboard-Copy" transform="translate(-407.000000, -364.000000)" fill="#FFFFFF" fill-rule="nonzero">
            <path d="M422.134529,367.834081 C423.816152,367.834081 425.480933,367.766817 427.128924,367.632287 C428.776914,367.497757 430.576223,367.396861 432.526906,367.329596 C433.26682,368.876689 434.292594,371.13003 435.60426,374.089686 C436.915926,377.049342 438.412548,380.446169 440.09417,384.280269 C441.775793,388.114369 443.575103,392.167019 445.492152,396.438341 C447.409202,400.709663 449.275776,404.930472 451.091928,409.100897 L451.243274,409.201794 C451.344171,409.269059 451.428251,409.302691 451.495516,409.302691 C451.562781,409.302691 451.64686,409.218611 451.747758,409.050448 C451.848655,408.882286 451.899103,408.764574 451.899103,408.697309 L453.109865,405.720852 C453.917044,403.736537 454.926003,401.197325 456.136771,398.103139 C457.34754,395.008953 458.608738,391.746654 459.920404,388.316143 C461.232069,384.885633 462.426004,381.690598 463.502242,378.730942 C464.040361,377.318379 464.561657,375.754493 465.066143,374.039238 C465.57063,372.323982 465.99103,370.827361 466.327354,369.549327 L466.831839,367.632287 C467.168163,367.632287 468.05941,367.665919 469.505605,367.733184 C470.951801,367.800449 472.482055,367.850897 474.096413,367.884529 C475.71077,367.918162 476.820625,367.934978 477.426009,367.934978 C479.107632,367.934978 480.957389,367.850898 482.975336,367.682735 C484.993284,367.514573 486.977569,367.396861 488.928251,367.329596 C489.130046,367.531391 489.315022,368.103134 489.483184,369.044843 C489.651346,369.986552 489.600898,370.659191 489.331839,371.06278 C488.928249,371.06278 488.104266,371.14686 486.859865,371.315022 C485.615465,371.483185 484.724218,371.735424 484.186099,372.071749 C483.715244,372.408073 483.362109,372.828473 483.126682,373.33296 C482.891254,373.837446 482.807175,374.762325 482.874439,376.107623 C482.941704,377.789246 483.025784,380.294826 483.126682,383.624439 C483.227579,386.954053 483.345291,390.636751 483.479821,394.672646 L483.883408,406.780269 C484.017938,410.816164 484.152466,414.414782 484.286996,417.576233 C484.421525,419.459651 484.556053,421.25896 484.690583,422.974215 C484.825113,424.68947 485.1278,426.186092 485.598655,427.464126 C485.800449,427.93498 486.355377,428.304931 487.263453,428.573991 C488.171529,428.843051 489.096408,429.028026 490.038117,429.128924 C490.979825,429.229821 491.5852,429.280269 491.85426,429.280269 C492.392379,430.423773 492.459643,431.634523 492.056054,432.912556 C490.105371,432.778026 487.919295,432.609866 485.497758,432.408072 C483.076221,432.206277 480.789248,432.105381 478.636771,432.105381 C476.349764,432.105381 473.760104,432.206277 470.867713,432.408072 C467.975322,432.609866 465.385662,432.778026 463.098655,432.912556 C462.89686,432.710761 462.779148,432.155834 462.745516,431.247758 C462.711883,430.339682 462.762331,429.683859 462.896861,429.280269 C463.30045,429.280269 464.006721,429.213005 465.015695,429.078475 C466.024669,428.943946 467.016811,428.742154 467.992152,428.473094 C468.967494,428.204035 469.589685,427.834083 469.858744,427.363229 C470.127804,426.959639 470.329596,426.404712 470.464126,425.69843 C470.598655,424.992149 470.665919,424.40359 470.665919,423.932735 L470.665919,421.158072 C470.665919,419.846406 470.632287,418.753368 470.565022,417.878924 L469.556054,383.573991 C469.556054,383.439461 469.522422,382.968614 469.455157,382.161435 C469.387892,381.354256 469.1861,380.950673 468.849776,380.950673 C468.715246,380.950673 468.547086,381.186096 468.345291,381.656951 L450.991031,428.573991 C450.923766,428.843051 450.654711,429.313898 450.183857,429.986547 C449.713002,430.659196 449.174891,431.281387 448.569507,431.853139 C447.964123,432.424891 447.358747,432.710762 446.753363,432.710762 C446.551568,432.710762 446.248881,432.643498 445.845291,432.508969 L423.950673,380.950673 C423.816143,385.053832 423.698431,388.534739 423.597534,391.393498 C423.496636,394.252256 423.412556,396.741021 423.345291,398.859865 C423.278027,400.97871 423.210763,403.013443 423.143498,404.964126 C423.076233,406.914808 423.008969,409.016805 422.941704,411.270179 C422.874439,413.523554 422.773543,416.197294 422.639013,419.29148 C422.571749,420.367718 422.60538,421.69618 422.73991,423.276906 C422.87444,424.857631 422.975336,425.816142 423.042601,426.152466 C423.177131,426.690586 423.647978,427.161433 424.455157,427.565022 C425.262336,427.968612 426.187215,428.288115 427.229821,428.523543 C428.272427,428.75897 429.214121,428.943946 430.054933,429.078475 C430.895744,429.213005 431.417039,429.280269 431.618834,429.280269 C431.753364,429.616594 431.85426,430.171521 431.921525,430.945067 C431.98879,431.718614 431.955158,432.374437 431.820628,432.912556 C429.869945,432.778026 427.88566,432.609866 425.867713,432.408072 C423.849766,432.206277 421.764585,432.105381 419.612108,432.105381 C417.325101,432.105381 415.273552,432.206277 413.457399,432.408072 C411.641247,432.609866 409.589698,432.778026 407.302691,432.912556 C407.100896,432.576232 407,432.021304 407,431.247758 C407,430.474211 407.067264,429.85202 407.201794,429.381166 C407.605383,429.381166 408.41255,429.263454 409.623318,429.028027 C410.834087,428.7926 412.044837,428.405832 413.255605,427.867713 C414.466374,427.329594 415.239909,426.656955 415.576233,425.849776 C415.710763,425.513451 415.862107,424.756732 416.030269,423.579596 C416.198431,422.40246 416.349775,421.174894 416.484305,419.896861 C416.618835,418.618828 416.686099,417.710765 416.686099,417.172646 C416.820628,414.885639 416.955156,412.127819 417.089686,408.899103 C417.224216,405.670387 417.358744,402.307192 417.493274,398.809417 C417.627803,395.311642 417.762331,391.948447 417.896861,388.719731 C418.031391,385.491015 418.132287,382.682747 418.199552,380.294843 C418.266816,377.906939 418.33408,376.242157 418.401345,375.300448 C418.401345,374.964124 418.384529,374.594172 418.350897,374.190583 C418.317264,373.786993 418.165921,373.417042 417.896861,373.080717 C417.493272,372.542598 416.551577,372.054935 415.071749,371.617713 C413.591921,371.180491 412.414803,370.961883 411.540359,370.961883 C411.271299,370.558294 411.187219,369.868839 411.288117,368.893498 C411.389014,367.918157 411.473094,367.396861 411.540359,367.329596 C413.087452,367.396861 414.34865,367.464125 415.323991,367.53139 C416.299332,367.598655 417.308291,367.665919 418.350897,367.733184 C419.393503,367.800449 420.654701,367.834081 422.134529,367.834081 Z M517.381166,399.515695 L517.381166,418.181614 C517.381166,419.997767 517.414798,421.746628 517.482063,423.428251 C517.549328,425.109874 517.784751,426.455152 518.188341,427.464126 C518.390136,427.867715 518.844167,428.204035 519.550448,428.473094 C520.25673,428.742154 521.030265,428.92713 521.871076,429.028027 C522.711888,429.128924 523.334079,429.213004 523.737668,429.280269 C524.006728,429.616594 524.12444,430.221969 524.090807,431.096413 C524.057175,431.970856 523.939463,432.576232 523.737668,432.912556 C521.854251,432.710761 519.76907,432.542602 517.482063,432.408072 C515.195056,432.273542 513.008979,432.206278 510.923767,432.206278 C508.838555,432.206278 506.568398,432.273542 504.113229,432.408072 C501.658059,432.542602 499.455167,432.710761 497.504484,432.912556 C497.30269,432.576232 497.184978,431.970856 497.151345,431.096413 C497.117713,430.221969 497.235425,429.616594 497.504484,429.280269 C497.975339,429.213004 498.664794,429.128924 499.57287,429.028027 C500.480946,428.92713 501.372193,428.742154 502.246637,428.473094 C503.121081,428.204035 503.62556,427.867715 503.76009,427.464126 C504.163679,426.455152 504.399103,425.177138 504.466368,423.630045 C504.533633,422.082952 504.567265,420.266827 504.567265,418.181614 L504.567265,406.881166 C504.567265,406.544841 504.550449,405.821754 504.516816,404.711883 C504.483184,403.602012 504.399104,402.458526 504.264574,401.28139 C504.130044,400.104254 503.928252,399.280271 503.659193,398.809417 C503.390133,398.271298 502.801574,397.867714 501.893498,397.598655 C500.985421,397.329595 500.094175,397.127803 499.219731,396.993274 C498.345287,396.858744 497.773544,396.79148 497.504484,396.79148 C497.437219,396.724215 497.369955,396.438343 497.302691,395.933857 C497.235426,395.42937 497.235426,394.941706 497.302691,394.470852 C497.369955,393.999998 497.470851,393.764574 497.605381,393.764574 C500.094183,393.562779 502.566131,393.159196 505.0213,392.553812 C507.47647,391.948427 509.746626,391.275788 511.831839,390.535874 C513.917051,389.79596 515.565016,389.123321 516.775785,388.517937 C517.112109,388.585202 517.482061,388.854258 517.88565,389.325112 C518.28924,389.795966 518.491031,390.098654 518.491031,390.233184 C518.356502,390.636773 518.171526,391.494388 517.936099,392.806054 C517.700671,394.11772 517.549328,395.143494 517.482063,395.883408 C517.414798,396.959647 517.381166,398.170397 517.381166,399.515695 Z M502.852018,371.769058 C502.852018,369.818376 503.558289,368.153594 504.970852,366.774664 C506.383415,365.395733 508.065013,364.706278 510.015695,364.706278 C511.966377,364.706278 513.647975,365.395733 515.060538,366.774664 C516.473101,368.153594 517.179372,369.818376 517.179372,371.769058 C517.179372,373.719741 516.473101,375.401338 515.060538,376.813901 C513.647975,378.226464 511.966377,378.932735 510.015695,378.932735 C508.065013,378.932735 506.383415,378.226464 504.970852,376.813901 C503.558289,375.401338 502.852018,373.719741 502.852018,371.769058 Z M565.811659,394.874439 C565.811659,396.287003 565.30718,397.665913 564.298206,399.011211 C563.289233,400.356509 561.910323,401.029148 560.161435,401.029148 C558.883402,401.029148 557.773547,400.507853 556.831839,399.465247 C555.89013,398.422641 555.015699,397.46413 554.20852,396.589686 C552.325103,394.504474 550.105394,393.461883 547.549327,393.461883 C546.136764,393.461883 544.909198,394.168154 543.866592,395.580717 C542.823986,396.993281 542.016819,398.758958 541.445067,400.877803 C540.873316,402.996647 540.587444,405.065012 540.587444,407.08296 C540.587444,411.656974 541.344163,415.272408 542.857623,417.929372 C544.371084,420.586336 546.220841,422.452909 548.406951,423.529148 C550.59306,424.605387 552.728689,425.143498 554.813901,425.143498 C557.706292,425.143498 559.993265,424.588571 561.674888,423.4787 C563.356511,422.368829 564.735421,421.27579 565.811659,420.199552 C566.147984,420.266816 566.433855,420.50224 566.669283,420.90583 C566.90471,421.309419 567.022422,421.679371 567.022422,422.015695 C567.022422,422.890139 566.921526,423.495514 566.719731,423.831839 C566.114347,424.706282 565.004492,425.917033 563.390135,427.464126 C561.775777,429.011218 559.741044,430.390128 557.285874,431.600897 C554.830705,432.811665 552.022437,433.41704 548.860987,433.41704 C545.228681,433.41704 541.831854,432.593058 538.670404,430.945067 C535.508953,429.297077 532.969741,426.94284 531.052691,423.882287 C529.135641,420.821734 528.17713,417.139035 528.17713,412.834081 C528.17713,409.80716 528.866585,406.847548 530.245516,403.955157 C531.624446,401.062766 533.524652,398.439474 535.946188,396.085202 C538.367725,393.73093 541.108729,391.847541 544.169283,390.434978 C547.229836,389.022414 550.475319,388.316143 553.90583,388.316143 C556.663691,388.316143 558.8834,388.534751 560.565022,388.971973 C562.246645,389.409195 563.3565,389.795962 563.894619,390.132287 C564.365473,390.603141 564.802689,391.191701 565.206278,391.897982 C565.609867,392.604264 565.811659,393.596406 565.811659,394.874439 Z M605.363229,388.517937 C609.130064,388.517937 611.971964,389.375552 613.889013,391.090807 C615.806063,392.806062 617.100893,395.395723 617.773543,398.859865 C618.446192,402.324008 618.782511,406.645714 618.782511,411.825112 L618.782511,419.493274 C618.782511,421.242161 618.816143,422.789231 618.883408,424.134529 C618.950673,425.479827 619.152465,426.589682 619.488789,427.464126 C619.690584,427.867715 620.211879,428.204035 621.052691,428.473094 C621.893502,428.742154 622.801565,428.92713 623.776906,429.028027 C624.752247,429.128924 625.441702,429.213004 625.845291,429.280269 C626.114351,429.616594 626.232063,430.221969 626.19843,431.096413 C626.164798,431.970856 626.047086,432.576232 625.845291,432.912556 C623.961874,432.710761 621.758981,432.542602 619.236547,432.408072 C616.714113,432.273542 614.410324,432.206278 612.325112,432.206278 C610.2399,432.206278 608.154719,432.273542 606.069507,432.408072 C603.984295,432.542602 601.966377,432.710761 600.015695,432.912556 C599.8139,432.576232 599.696189,431.970856 599.662556,431.096413 C599.628924,430.221969 599.746635,429.616594 600.015695,429.280269 C600.688344,429.213004 601.646855,429.06166 602.891256,428.826233 C604.135656,428.590806 604.892375,428.136775 605.161435,427.464126 C605.565024,426.455152 605.800448,425.177138 605.867713,423.630045 C605.934978,422.082952 605.96861,420.266827 605.96861,418.181614 L605.96861,410.412556 C605.96861,408.058284 605.783634,405.821759 605.413677,403.702915 C605.04372,401.58407 604.371081,399.868841 603.39574,398.557175 C602.420399,397.245509 601.058305,396.589686 599.309417,396.589686 C598.031384,396.589686 596.719738,396.90919 595.374439,397.548206 C594.029141,398.187223 592.902471,398.927126 591.994395,399.767937 C591.086318,400.608749 590.632287,401.365467 590.632287,402.038117 L590.632287,418.181614 C590.632287,419.997767 590.665919,421.746628 590.733184,423.428251 C590.800449,425.109874 591.035872,426.455152 591.439462,427.464126 C591.641257,427.867715 592.112104,428.204035 592.852018,428.473094 C593.591932,428.742154 594.382283,428.92713 595.223094,429.028027 C596.063906,429.128924 596.686097,429.213004 597.089686,429.280269 C597.358746,429.616594 597.476458,430.221969 597.442825,431.096413 C597.409193,431.970856 597.291481,432.576232 597.089686,432.912556 C595.206269,432.710761 593.121088,432.542602 590.834081,432.408072 C588.547074,432.273542 586.360997,432.206278 584.275785,432.206278 C582.190573,432.206278 579.9036,432.273542 577.414798,432.408072 C574.925997,432.542602 572.706288,432.710761 570.755605,432.912556 C570.553811,432.576232 570.436099,431.970856 570.402466,431.096413 C570.368834,430.221969 570.486546,429.616594 570.755605,429.280269 C571.22646,429.213004 571.932731,429.128924 572.874439,429.028027 C573.816148,428.92713 574.724211,428.742154 575.598655,428.473094 C576.473099,428.204035 576.977578,427.867715 577.112108,427.464126 C577.448432,426.589682 577.650224,425.479827 577.717489,424.134529 C577.784754,422.789231 577.818386,421.242161 577.818386,419.493274 L577.818386,377.520179 C577.818386,376.645736 577.784754,375.855385 577.717489,375.149103 C577.650224,374.442822 577.448432,373.652471 577.112108,372.778027 C576.977578,372.374437 576.50673,372.038118 575.699552,371.769058 C574.892373,371.499999 574.051574,371.315023 573.17713,371.214126 C572.302686,371.113228 571.663679,371.06278 571.26009,371.06278 C571.058295,371.06278 570.940583,370.575117 570.906951,369.599776 C570.873318,368.624435 570.99103,368.035875 571.26009,367.834081 C574.95966,367.497756 578.205143,367.026909 580.996637,366.421525 C583.788131,365.81614 586.007839,365.261213 587.65583,364.756726 C589.30382,364.25224 590.161435,364 590.2287,364 C590.565024,364.067265 590.884528,364.302689 591.18722,364.706278 C591.489912,365.109867 591.674888,365.446187 591.742152,365.715247 L591.48991,367.430493 C591.321748,368.573997 591.136772,369.919275 590.934978,371.466368 C590.733183,373.013461 590.632287,374.459635 590.632287,375.804933 L590.632287,395.883408 C590.632287,396.219733 590.665919,396.421524 590.733184,396.488789 C590.867714,396.488789 591.103137,396.320629 591.439462,395.984305 C592.381171,394.908066 593.659185,393.798212 595.273543,392.654709 C596.8879,391.511205 598.60313,390.535878 600.419283,389.7287 C602.235435,388.921521 603.883401,388.517937 605.363229,388.517937 Z M650.96861,388.316143 C653.726471,388.316143 656.215236,388.955151 658.434978,390.233184 C660.65472,391.511217 662.437213,393.276895 663.782511,395.530269 C665.127809,397.783644 665.800448,400.39012 665.800448,403.349776 L665.800448,421.813901 C665.800448,423.091935 666.019056,424.084077 666.456278,424.790359 C666.8935,425.49664 667.448427,425.849776 668.121076,425.849776 C668.86099,425.849776 669.466365,425.698432 669.93722,425.39574 C670.408074,425.093048 670.744394,424.908072 670.946188,424.840807 C671.417043,425.042602 671.652466,425.580713 671.652466,426.455157 C671.652466,426.993276 671.517939,427.497755 671.248879,427.96861 C670.778025,428.372199 670.00449,428.99439 668.928251,429.835202 C667.852013,430.676013 666.641262,431.432732 665.295964,432.105381 C663.950666,432.77803 662.571756,433.11435 661.159193,433.11435 C659.544835,433.11435 658.014581,432.576239 656.568386,431.5 C655.12219,430.423761 654.163679,429.313907 653.692825,428.170404 C653.423765,428.439463 652.599783,428.99439 651.220852,429.835202 C649.841921,430.676013 648.3453,431.466364 646.730942,432.206278 C645.116584,432.946192 643.704042,433.316143 642.493274,433.316143 C640.004472,433.316143 637.784763,432.727584 635.834081,431.550448 C633.883398,430.373313 632.353145,428.859875 631.243274,427.01009 C630.133403,425.160305 629.578475,423.260099 629.578475,421.309417 C629.578475,419.358735 630.116587,417.660321 631.192825,416.214126 C632.269064,414.76793 633.446182,413.843051 634.724215,413.439462 C636.002249,413.035872 637.75111,412.396865 639.970852,411.522422 C642.190594,410.647978 644.494383,409.739915 646.882287,408.798206 C649.270191,407.856498 651.304924,407.082963 652.986547,406.477578 L652.986547,401.836323 C652.986547,399.347521 652.448436,397.09418 651.372197,395.076233 C650.295959,393.058286 648.883417,392.049327 647.134529,392.049327 C645.251112,392.049327 643.956282,392.87331 643.25,394.5213 C642.543718,396.169291 641.921527,398.103128 641.383408,400.32287 C641.114348,401.399109 640.576237,402.391251 639.769058,403.299327 C638.961879,404.207404 637.683865,404.661435 635.934978,404.661435 C634.656944,404.661435 633.479826,404.207404 632.403587,403.299327 C631.327349,402.391251 630.789238,401.264581 630.789238,399.919283 C630.789238,399.246633 630.923765,398.573994 631.192825,397.901345 C631.461885,397.228696 631.798204,396.556057 632.201794,395.883408 C632.538118,395.547084 633.294837,394.97534 634.471973,394.168161 C635.649109,393.360983 637.112099,392.503368 638.860987,391.595291 C640.609874,390.687215 642.526895,389.91368 644.612108,389.274664 C646.69732,388.635647 648.816133,388.316143 650.96861,388.316143 Z M648.950673,426.35426 C650.161441,426.35426 651.136768,426.085204 651.876682,425.547085 C652.616596,425.008966 652.986547,424.605383 652.986547,424.336323 L652.986547,410.513453 C651.977573,410.984307 650.884535,411.455155 649.707399,411.926009 C648.530263,412.396863 647.437225,412.968607 646.428251,413.641256 C645.082953,414.515699 644.141258,415.575106 643.603139,416.819507 C643.06502,418.063908 642.829596,419.22421 642.896861,420.300448 C642.964126,422.385661 643.670397,423.915914 645.015695,424.891256 C646.360993,425.866597 647.672639,426.35426 648.950673,426.35426 Z M688.90583,408.697309 C688.90583,412.12782 689.410309,414.936088 690.419283,417.122197 C691.428256,419.308307 692.672638,420.973088 694.152466,422.116592 C695.632294,423.260095 697.162548,424.050446 698.743274,424.487668 C700.323999,424.92489 701.652461,425.143498 702.7287,425.143498 C705.621091,425.143498 707.908063,424.588571 709.589686,423.4787 C711.271309,422.368829 712.650219,421.27579 713.726457,420.199552 C714.062782,420.266816 714.348654,420.50224 714.584081,420.90583 C714.819508,421.309419 714.93722,421.679371 714.93722,422.015695 C714.93722,422.890139 714.836324,423.495514 714.634529,423.831839 C714.029145,424.706282 712.919291,425.917033 711.304933,427.464126 C709.690575,429.011218 707.655842,430.390128 705.200673,431.600897 C702.745503,432.811665 699.937236,433.41704 696.775785,433.41704 C693.14348,433.41704 689.746653,432.593058 686.585202,430.945067 C683.423751,429.297077 680.884539,426.94284 678.967489,423.882287 C677.050439,420.821734 676.091928,417.139035 676.091928,412.834081 C676.091928,409.739895 676.697303,406.729835 677.908072,403.803812 C679.11884,400.877788 680.74999,398.254496 682.80157,395.933857 C684.853149,393.613217 687.19057,391.780276 689.813901,390.434978 C692.437233,389.089679 695.161421,388.41704 697.986547,388.41704 C701.215263,388.41704 703.939451,388.92152 706.159193,389.930493 C708.378935,390.939467 710.144612,392.217481 711.456278,393.764574 C712.767944,395.311667 713.726454,396.942817 714.331839,398.658072 C714.937223,400.373327 715.23991,401.937213 715.23991,403.349776 C715.23991,404.426014 714.987671,405.367709 714.483184,406.174888 C713.978697,406.982067 713.356506,407.419282 712.616592,407.486547 C710.39685,407.688342 707.908086,407.873318 705.150224,408.04148 C702.392363,408.209642 699.600911,408.34417 696.775785,408.445067 C693.950659,408.545965 691.327366,408.630045 688.90583,408.697309 Z M689.006726,404.762332 C689.208521,404.762332 689.864344,404.745516 690.974215,404.711883 C692.084086,404.678251 693.3621,404.610987 694.808296,404.51009 C696.254492,404.409192 697.616586,404.308296 698.894619,404.207399 C700.172652,404.106502 701.114347,404.022422 701.719731,403.955157 C702.325115,403.887892 702.695067,403.669284 702.829596,403.299327 C702.964126,402.92937 703.03139,402.609867 703.03139,402.340807 C703.03139,400.793714 702.829598,399.280276 702.426009,397.800448 C702.02242,396.32062 701.383412,395.076238 700.508969,394.067265 C699.634525,393.058291 698.457407,392.553812 696.977578,392.553812 C695.49775,392.553812 694.253368,393.024659 693.244395,393.966368 C692.235421,394.908076 691.411438,396.051563 690.772422,397.396861 C690.133405,398.742159 689.679374,400.104253 689.410314,401.483184 C689.141254,402.862115 689.006726,403.955153 689.006726,404.762332 Z M726.943946,377.520179 C726.943946,376.645736 726.910314,375.855385 726.843049,375.149103 C726.775784,374.442822 726.573993,373.652471 726.237668,372.778027 C726.103138,372.374437 725.632291,372.038118 724.825112,371.769058 C724.017933,371.499999 723.177134,371.315023 722.302691,371.214126 C721.428247,371.113228 720.78924,371.06278 720.38565,371.06278 C720.183855,371.06278 720.066144,370.575117 720.032511,369.599776 C719.998879,368.624435 720.116591,368.035875 720.38565,367.834081 C724.08522,367.497756 727.330704,367.026909 730.122197,366.421525 C732.913691,365.81614 735.1334,365.261213 736.78139,364.756726 C738.42938,364.25224 739.286995,364 739.35426,364 C739.690585,364.067265 740.010088,364.302689 740.31278,364.706278 C740.615472,365.109867 740.800448,365.446187 740.867713,365.715247 L740.615471,367.430493 C740.447309,368.573997 740.262333,369.919275 740.060538,371.466368 C739.858743,373.013461 739.757848,374.459635 739.757848,375.804933 L739.757848,418.181614 C739.757848,420.266827 739.791479,422.082952 739.858744,423.630045 C739.926009,425.177138 740.161433,426.455152 740.565022,427.464126 C740.766817,427.867715 741.288112,428.204035 742.128924,428.473094 C742.969735,428.742154 743.877798,428.92713 744.853139,429.028027 C745.82848,429.128924 746.517935,429.213004 746.921525,429.280269 C747.190584,429.616594 747.308296,430.221969 747.274664,431.096413 C747.241031,431.970856 747.123319,432.576232 746.921525,432.912556 C745.038107,432.710761 742.835214,432.542602 740.31278,432.408072 C737.790346,432.273542 735.486558,432.206278 733.401345,432.206278 C731.316133,432.206278 729.02916,432.273542 726.540359,432.408072 C724.051557,432.542602 721.831848,432.710761 719.881166,432.912556 C719.679371,432.576232 719.561659,431.970856 719.528027,431.096413 C719.494394,430.221969 719.612106,429.616594 719.881166,429.280269 C720.35202,429.213004 721.058291,429.128924 722,429.028027 C722.941709,428.92713 723.849771,428.742154 724.724215,428.473094 C725.598659,428.204035 726.103138,427.867715 726.237668,427.464126 C726.573993,426.589682 726.775784,425.479827 726.843049,424.134529 C726.910314,422.789231 726.943946,421.242161 726.943946,419.493274 L726.943946,377.520179 Z M795.049327,367.934978 C797.13454,367.934978 799.505592,367.88453 802.162556,367.783632 C804.81952,367.682735 807.089677,367.531391 808.973094,367.329596 C809.174889,367.598656 809.292601,368.187215 809.326233,369.095291 C809.359866,370.003368 809.242154,370.625559 808.973094,370.961883 C808.569505,370.961883 807.88005,371.012331 806.904709,371.113229 C805.929367,371.214126 805.021305,371.382286 804.180493,371.617713 C803.339682,371.85314 802.818387,372.206276 802.616592,372.67713 C802.213002,373.686104 801.977579,374.947302 801.910314,376.460762 C801.843049,377.974223 801.809417,379.807164 801.809417,381.959641 L801.809417,418.383408 C801.809417,425.849813 800.632299,432.239884 798.278027,437.553812 C795.923755,442.86774 792.56056,446.937206 788.188341,449.762332 C783.816122,452.587458 778.636801,454 772.650224,454 C771.708515,454 770.665925,453.781392 769.522422,453.34417 C768.378918,452.906948 767.571751,452.520181 767.100897,452.183857 C766.764572,451.645737 766.411437,451.073994 766.04148,450.46861 C765.671523,449.863226 765.486547,449.022427 765.486547,447.946188 C765.486547,446.264566 766.091922,444.751128 767.302691,443.40583 C768.513459,442.060531 769.892369,441.387892 771.439462,441.387892 C772.582965,441.387892 773.591924,441.724212 774.466368,442.396861 C775.340812,443.06951 776.18161,443.809413 776.988789,444.616592 C777.795968,445.423771 778.586319,446.18049 779.359865,446.886771 C780.133412,447.593053 780.890131,447.946188 781.630045,447.946188 C783.715257,447.946188 785.211879,446.68499 786.119955,444.162556 C787.028031,441.640122 787.582959,438.209663 787.784753,433.871076 C787.986548,429.53249 788.087444,424.639041 788.087444,419.190583 L788.087444,381.959641 C788.087444,379.807164 788.053812,377.974223 787.986547,376.460762 C787.919282,374.947302 787.683859,373.686104 787.280269,372.67713 C787.145739,372.206276 786.64126,371.85314 785.766816,371.617713 C784.892372,371.382286 783.98431,371.214126 783.042601,371.113229 C782.100892,371.012331 781.394621,370.961883 780.923767,370.961883 C780.654707,370.625559 780.536995,370.003368 780.570628,369.095291 C780.60426,368.187215 780.721972,367.598656 780.923767,367.329596 C782.874449,367.531391 785.195054,367.682735 787.88565,367.783632 C790.576247,367.88453 792.964115,367.934978 795.049327,367.934978 Z M835.811659,388.41704 C840.385673,388.41704 844.404691,389.375551 847.868834,391.292601 C851.332977,393.209651 854.040349,395.816127 855.991031,399.112108 C857.941714,402.408088 858.91704,406.141235 858.91704,410.311659 C858.91704,414.414819 857.908082,418.215229 855.890135,421.713004 C853.872187,425.21078 851.147999,428.002232 847.717489,430.087444 C844.286978,432.172656 840.385672,433.215247 836.013453,433.215247 C831.439439,433.215247 827.403605,432.23992 823.90583,430.289238 C820.408054,428.338555 817.683866,425.681631 815.733184,422.318386 C813.782501,418.95514 812.807175,415.221994 812.807175,411.118834 C812.807175,406.94841 813.832949,403.147999 815.884529,399.717489 C817.936109,396.286978 820.693929,393.545974 824.158072,391.494395 C827.622215,389.442815 831.506705,388.41704 835.811659,388.41704 Z M834.701794,392.553812 C832.885641,392.553812 831.456283,393.075107 830.413677,394.117713 C829.371071,395.160319 828.597536,396.522413 828.093049,398.204036 C827.588563,399.885659 827.252243,401.684968 827.084081,403.602018 C826.915918,405.519068 826.831839,407.385641 826.831839,409.201794 C826.831839,411.354271 827.03363,413.590796 827.43722,415.911435 C827.840809,418.232074 828.446184,420.384519 829.253363,422.368834 C830.060542,424.353149 831.103133,425.967483 832.381166,427.211883 C833.659199,428.456284 835.206269,429.078475 837.022422,429.078475 C838.838574,429.078475 840.267932,428.55718 841.310538,427.514574 C842.353144,426.471968 843.143495,425.12669 843.681614,423.4787 C844.219734,421.830709 844.572869,420.048216 844.741031,418.131166 C844.909194,416.214116 844.993274,414.381175 844.993274,412.632287 C844.993274,410.412545 844.791482,408.142388 844.387892,405.821749 C843.984303,403.501109 843.362112,401.331849 842.5213,399.313901 C841.680489,397.295954 840.621083,395.664804 839.343049,394.420404 C838.065016,393.176003 836.517946,392.553812 834.701794,392.553812 Z M897.863229,388.41704 C899.141262,388.41704 900.31838,388.551568 901.394619,388.820628 C902.470857,389.089687 903.345288,389.526903 904.017937,390.132287 C904.219732,390.401347 904.455156,391.006722 904.724215,391.94843 C904.993275,392.890139 905.127803,393.899098 905.127803,394.975336 C905.127803,396.051575 904.875563,397.195061 904.371076,398.40583 C903.866589,399.616598 903.177134,400.642372 902.302691,401.483184 C901.428247,402.323995 900.419288,402.744395 899.275785,402.744395 C898.401341,402.744395 897.627806,402.458523 896.955157,401.886771 C896.282508,401.31502 895.643501,400.793724 895.038117,400.32287 C894.499997,399.784751 893.978702,399.297087 893.474215,398.859865 C892.969728,398.422644 892.280273,398.204036 891.40583,398.204036 C890.060531,398.204036 888.900229,398.725331 887.924888,399.767937 C886.949547,400.810543 886.192828,401.95403 885.654709,403.19843 C885.116589,404.442831 884.847534,405.434974 884.847534,406.174888 L884.847534,418.181614 C884.847534,419.997767 884.881166,421.746628 884.94843,423.428251 C885.015695,425.109874 885.251119,426.455152 885.654709,427.464126 C885.856503,427.867715 886.461878,428.204035 887.470852,428.473094 C888.479826,428.742154 889.539232,428.92713 890.649103,429.028027 C891.758974,429.128924 892.515693,429.213004 892.919283,429.280269 C893.188342,429.616594 893.306054,430.221969 893.272422,431.096413 C893.238789,431.970856 893.121077,432.576232 892.919283,432.912556 C891.035865,432.710761 888.664813,432.542602 885.806054,432.408072 C882.947295,432.273542 880.475347,432.206278 878.390135,432.206278 C876.304922,432.206278 874.034766,432.273542 871.579596,432.408072 C869.124427,432.542602 866.921534,432.710761 864.970852,432.912556 C864.769057,432.576232 864.651345,431.970856 864.617713,431.096413 C864.584081,430.221969 864.701792,429.616594 864.970852,429.280269 C865.441706,429.213004 866.131161,429.128924 867.039238,429.028027 C867.947314,428.92713 868.838561,428.742154 869.713004,428.473094 C870.587448,428.204035 871.091928,427.867715 871.226457,427.464126 C871.630047,426.455152 871.865471,425.177138 871.932735,423.630045 C872,422.082952 872.033632,420.266827 872.033632,418.181614 L872.033632,406.881166 C872.033632,406.544841 872.016816,405.821754 871.983184,404.711883 C871.949551,403.602012 871.865472,402.458526 871.730942,401.28139 C871.596412,400.104254 871.39462,399.280271 871.125561,398.809417 C870.856501,398.271298 870.267942,397.867714 869.359865,397.598655 C868.451789,397.329595 867.560542,397.127803 866.686099,396.993274 C865.811655,396.858744 865.239912,396.79148 864.970852,396.79148 C864.903587,396.724215 864.836323,396.438343 864.769058,395.933857 C864.701793,395.42937 864.701793,394.941706 864.769058,394.470852 C864.836323,393.999998 864.937219,393.764574 865.071749,393.764574 C867.560551,393.562779 870.032499,393.159196 872.487668,392.553812 C874.942837,391.948427 877.212994,391.275788 879.298206,390.535874 C881.383418,389.79596 883.031384,389.123321 884.242152,388.517937 C884.578477,388.585202 884.948428,388.854258 885.352018,389.325112 C885.755607,389.795966 885.957399,390.098654 885.957399,390.233184 C885.890134,390.502243 885.772422,391.174883 885.60426,392.251121 C885.436098,393.32736 885.284754,394.437214 885.150224,395.580717 C885.015694,396.724221 884.94843,397.531388 884.94843,398.002242 C884.94843,398.271302 885.03251,398.40583 885.200673,398.40583 C885.368835,398.40583 885.486547,398.372198 885.553812,398.304933 C886.360991,396.89237 887.319501,395.412564 888.429372,393.865471 C889.539243,392.318378 890.867705,391.023548 892.414798,389.980942 C893.961891,388.938336 895.778016,388.41704 897.863229,388.41704 Z M934.186099,388.517937 C935.262337,388.517937 936.08632,388.534753 936.658072,388.568386 C937.229823,388.602018 937.717487,388.652466 938.121076,388.719731 C938.322871,388.719731 938.457399,388.450675 938.524664,387.912556 C938.591929,387.374437 938.625561,386.903589 938.625561,386.5 L938.625561,377.520179 C938.625561,376.578471 938.591929,375.771304 938.524664,375.098655 C938.457399,374.426006 938.255607,373.652471 937.919283,372.778027 C937.784753,372.374437 937.313905,372.038118 936.506726,371.769058 C935.699548,371.499999 934.858749,371.315023 933.984305,371.214126 C933.109861,371.113228 932.470854,371.06278 932.067265,371.06278 C931.86547,371.06278 931.747758,370.575117 931.714126,369.599776 C931.680493,368.624435 931.798205,368.035875 932.067265,367.834081 C935.766835,367.497756 939.012318,367.026909 941.803812,366.421525 C944.595305,365.81614 946.815014,365.261213 948.463004,364.756726 C950.110995,364.25224 950.96861,364 951.035874,364 C951.372199,364.067265 951.691703,364.302689 951.994395,364.706278 C952.297087,365.109867 952.482062,365.446187 952.549327,365.715247 L951.994395,368.641256 C951.624438,370.591938 951.439462,372.946175 951.439462,375.704036 L951.439462,421.914798 C951.439462,422.654712 951.473094,423.327351 951.540359,423.932735 C951.607624,424.53812 951.876679,425.109863 952.347534,425.647982 C952.751123,426.118836 953.423762,426.387892 954.365471,426.455157 C955.30718,426.522422 956.047083,426.556054 956.585202,426.556054 L956.786996,426.556054 C956.98879,426.757849 957.089686,427.195064 957.089686,427.867713 C957.089686,428.540362 956.887894,429.179369 956.484305,429.784753 C955.004477,429.919283 953.373327,430.171523 951.590807,430.54148 C949.808287,430.911437 948.059426,431.298204 946.34417,431.701794 C944.628915,432.105383 943.149109,432.458519 941.904709,432.761211 C940.660308,433.063903 939.869957,433.215247 939.533632,433.215247 C938.928248,433.215247 938.625561,432.40808 938.625561,430.793722 L938.625561,429.280269 C938.625561,429.145739 938.608745,428.994395 938.575112,428.826233 C938.54148,428.658071 938.4574,428.641255 938.32287,428.775785 C937.784751,429.112109 936.893504,429.650221 935.649103,430.390135 C934.404702,431.130049 932.958528,431.802688 931.310538,432.408072 C929.662548,433.013456 927.964134,433.316143 926.215247,433.316143 C923.053796,433.316143 920.111,432.408081 917.386771,430.591928 C914.662542,428.775776 912.476466,426.320643 910.828475,423.226457 C909.180485,420.132272 908.356502,416.668181 908.356502,412.834081 C908.356502,408.663656 909.264565,405.048222 911.080717,401.987668 C912.89687,398.927115 915.183843,396.404718 917.941704,394.420404 C920.699565,392.436089 923.541465,390.956283 926.467489,389.980942 C929.393512,389.005601 931.966357,388.517937 934.186099,388.517937 Z M930.957399,393.56278 C928.872187,393.56278 927.207405,394.269051 925.963004,395.681614 C924.718604,397.094177 923.810541,398.943935 923.238789,401.230942 C922.667038,403.517949 922.381166,405.973081 922.381166,408.596413 C922.381166,413.977605 923.272413,418.383391 925.054933,421.813901 C926.837453,425.244412 929.275769,426.959641 932.369955,426.959641 C933.311664,426.959641 934.253359,426.741034 935.195067,426.303812 C936.136776,425.86659 936.943943,425.36211 937.616592,424.790359 C938.289241,424.218607 938.625561,423.730944 938.625561,423.327354 L938.625561,398.002242 C938.625561,397.060533 937.868842,396.085207 936.355381,395.076233 C934.841921,394.06726 933.042611,393.56278 930.957399,393.56278 Z M983.524664,388.316143 C986.282525,388.316143 988.771289,388.955151 990.991031,390.233184 C993.210773,391.511217 994.993267,393.276895 996.338565,395.530269 C997.683863,397.783644 998.356502,400.39012 998.356502,403.349776 L998.356502,421.813901 C998.356502,423.091935 998.57511,424.084077 999.012332,424.790359 C999.449554,425.49664 1000.00448,425.849776 1000.67713,425.849776 C1001.41704,425.849776 1002.02242,425.698432 1002.49327,425.39574 C1002.96413,425.093048 1003.30045,424.908072 1003.50224,424.840807 C1003.9731,425.042602 1004.20852,425.580713 1004.20852,426.455157 C1004.20852,426.993276 1004.07399,427.497755 1003.80493,427.96861 C1003.33408,428.372199 1002.56054,428.99439 1001.4843,429.835202 C1000.40807,430.676013 999.197316,431.432732 997.852018,432.105381 C996.50672,432.77803 995.12781,433.11435 993.715247,433.11435 C992.100889,433.11435 990.570635,432.576239 989.124439,431.5 C987.678244,430.423761 986.719733,429.313907 986.248879,428.170404 C985.979819,428.439463 985.155836,428.99439 983.776906,429.835202 C982.397975,430.676013 980.901353,431.466364 979.286996,432.206278 C977.672638,432.946192 976.260096,433.316143 975.049327,433.316143 C972.560526,433.316143 970.340817,432.727584 968.390135,431.550448 C966.439452,430.373313 964.909198,428.859875 963.799327,427.01009 C962.689456,425.160305 962.134529,423.260099 962.134529,421.309417 C962.134529,419.358735 962.67264,417.660321 963.748879,416.214126 C964.825117,414.76793 966.002236,413.843051 967.280269,413.439462 C968.558302,413.035872 970.307164,412.396865 972.526906,411.522422 C974.746648,410.647978 977.050436,409.739915 979.438341,408.798206 C981.826245,407.856498 983.860978,407.082963 985.542601,406.477578 L985.542601,401.836323 C985.542601,399.347521 985.00449,397.09418 983.928251,395.076233 C982.852013,393.058286 981.439471,392.049327 979.690583,392.049327 C977.807165,392.049327 976.512335,392.87331 975.806054,394.5213 C975.099772,396.169291 974.477581,398.103128 973.939462,400.32287 C973.670402,401.399109 973.132291,402.391251 972.325112,403.299327 C971.517933,404.207404 970.239919,404.661435 968.491031,404.661435 C967.212998,404.661435 966.03588,404.207404 964.959641,403.299327 C963.883403,402.391251 963.345291,401.264581 963.345291,399.919283 C963.345291,399.246633 963.479819,398.573994 963.748879,397.901345 C964.017939,397.228696 964.354258,396.556057 964.757848,395.883408 C965.094172,395.547084 965.850891,394.97534 967.028027,394.168161 C968.205163,393.360983 969.668153,392.503368 971.41704,391.595291 C973.165928,390.687215 975.082949,389.91368 977.168161,389.274664 C979.253374,388.635647 981.372187,388.316143 983.524664,388.316143 Z M981.506726,426.35426 C982.717495,426.35426 983.692821,426.085204 984.432735,425.547085 C985.172649,425.008966 985.542601,424.605383 985.542601,424.336323 L985.542601,410.513453 C984.533627,410.984307 983.440589,411.455155 982.263453,411.926009 C981.086317,412.396863 979.993279,412.968607 978.984305,413.641256 C977.639007,414.515699 976.697312,415.575106 976.159193,416.819507 C975.621074,418.063908 975.38565,419.22421 975.452915,420.300448 C975.52018,422.385661 976.226451,423.915914 977.571749,424.891256 C978.917047,425.866597 980.228693,426.35426 981.506726,426.35426 Z M1042.95291,388.517937 C1046.71975,388.517937 1049.56165,389.375552 1051.4787,391.090807 C1053.39575,392.806062 1054.69058,395.395723 1055.36323,398.859865 C1056.03588,402.324008 1056.3722,406.645714 1056.3722,411.825112 L1056.3722,418.181614 C1056.3722,420.266827 1056.40583,422.082952 1056.47309,423.630045 C1056.54036,425.177138 1056.77578,426.455152 1057.17937,427.464126 C1057.38117,427.867715 1057.90246,428.204035 1058.74327,428.473094 C1059.58408,428.742154 1060.49215,428.92713 1061.46749,429.028027 C1062.44283,429.128924 1063.13228,429.213004 1063.53587,429.280269 C1063.80493,429.616594 1063.92265,430.221969 1063.88901,431.096413 C1063.85538,431.970856 1063.73767,432.576232 1063.53587,432.912556 C1061.65246,432.710761 1059.44956,432.542602 1056.92713,432.408072 C1054.4047,432.273542 1052.10091,432.206278 1050.0157,432.206278 C1047.93048,432.206278 1045.8453,432.273542 1043.76009,432.408072 C1041.67488,432.542602 1039.65696,432.710761 1037.70628,432.912556 C1037.50448,432.576232 1037.38677,431.970856 1037.35314,431.096413 C1037.31951,430.221969 1037.43722,429.616594 1037.70628,429.280269 C1038.37893,429.213004 1039.33744,429.06166 1040.58184,428.826233 C1041.82624,428.590806 1042.58296,428.136775 1042.85202,427.464126 C1043.18834,426.589682 1043.39013,425.479827 1043.4574,424.134529 C1043.52466,422.789231 1043.5583,421.242161 1043.5583,419.493274 L1043.5583,410.412556 C1043.5583,408.058284 1043.37332,405.821759 1043.00336,403.702915 C1042.63341,401.58407 1041.97758,399.868841 1041.03587,398.557175 C1040.09417,397.245509 1038.74889,396.589686 1037,396.589686 C1035.72197,396.589686 1034.41032,396.90919 1033.06502,397.548206 C1031.71972,398.187223 1030.59305,398.927126 1029.68498,399.767937 C1028.7769,400.608749 1028.32287,401.365467 1028.32287,402.038117 L1028.32287,418.181614 C1028.32287,419.997767 1028.3565,421.746628 1028.42377,423.428251 C1028.49103,425.109874 1028.72646,426.455152 1029.13004,427.464126 C1029.33184,427.867715 1029.78587,428.204035 1030.49215,428.473094 C1031.19843,428.742154 1031.97197,428.92713 1032.81278,429.028027 C1033.65359,429.128924 1034.27578,429.213004 1034.67937,429.280269 C1034.94843,429.616594 1035.06614,430.221969 1035.03251,431.096413 C1034.99888,431.970856 1034.88117,432.576232 1034.67937,432.912556 C1032.79595,432.710761 1030.71077,432.542602 1028.42377,432.408072 C1026.13676,432.273542 1023.95068,432.206278 1021.86547,432.206278 C1019.78026,432.206278 1017.5101,432.273542 1015.05493,432.408072 C1012.59976,432.542602 1010.39687,432.710761 1008.44619,432.912556 C1008.24439,432.576232 1008.12668,431.970856 1008.09305,431.096413 C1008.05942,430.221969 1008.17713,429.616594 1008.44619,429.280269 C1008.91704,429.213004 1009.6065,429.128924 1010.51457,429.028027 C1011.42265,428.92713 1012.3139,428.742154 1013.18834,428.473094 C1014.06278,428.204035 1014.56726,427.867715 1014.70179,427.464126 C1015.10538,426.455152 1015.34081,425.177138 1015.40807,423.630045 C1015.47534,422.082952 1015.50897,420.266827 1015.50897,418.181614 L1015.50897,406.881166 C1015.50897,406.544841 1015.49215,405.821754 1015.45852,404.711883 C1015.42489,403.602012 1015.34081,402.458526 1015.20628,401.28139 C1015.07175,400.104254 1014.86996,399.280271 1014.6009,398.809417 C1014.33184,398.271298 1013.74328,397.867714 1012.8352,397.598655 C1011.92713,397.329595 1011.03588,397.127803 1010.16143,396.993274 C1009.28699,396.858744 1008.71525,396.79148 1008.44619,396.79148 C1008.37892,396.724215 1008.31166,396.438343 1008.24439,395.933857 C1008.17713,395.42937 1008.17713,394.941706 1008.24439,394.470852 C1008.31166,393.999998 1008.41256,393.764574 1008.54709,393.764574 C1011.03589,393.562779 1013.50784,393.159196 1015.963,392.553812 C1018.41817,391.948427 1020.68833,391.275788 1022.77354,390.535874 C1024.85875,389.79596 1026.50672,389.123321 1027.71749,388.517937 C1028.05381,388.517937 1028.42376,388.736545 1028.82735,389.173767 C1029.23094,389.610989 1029.43274,389.964124 1029.43274,390.233184 C1029.36547,390.502243 1029.24776,391.090803 1029.0796,391.998879 C1028.91143,392.906955 1028.76009,393.76457 1028.62556,394.571749 C1028.49103,395.378928 1028.42377,395.816143 1028.42377,395.883408 C1028.42377,396.219733 1028.4574,396.421524 1028.52466,396.488789 C1028.65919,396.488789 1028.89462,396.320629 1029.23094,395.984305 C1030.17265,394.908066 1031.43385,393.798212 1033.01457,392.654709 C1034.5953,391.511205 1036.2769,390.535878 1038.05942,389.7287 C1039.84194,388.921521 1041.47309,388.517937 1042.95291,388.517937 Z" id="MichaelJordan"></path>
        </g>
    </g>
</svg>