<?xml version="1.0" encoding="UTF-8"?>
<svg width="500px" height="500px" viewBox="0 0 500 500" version="1.1" xmlns="http://www.w3.org/2000/svg" xmlns:xlink="http://www.w3.org/1999/xlink">
    <!-- Generator: Sketch 53.2 (72643) - https://sketchapp.com -->
    <title>Artboard</title>
    <desc>Created with Sketch.</desc>
    <defs>
        <linearGradient x1="0%" y1="0%" x2="100%" y2="100%" id="linearGradient-1">
            <stop stop-color="#612CB8" offset="0%"></stop>
            <stop stop-color="#11A8DB" offset="65.2100372%"></stop>
            <stop stop-color="#11DBB4" offset="100%"></stop>
        </linearGradient>
    </defs>
    <g id="Artboard" stroke="none" stroke-width="1" fill="none" fill-rule="evenodd">
        <rect id="Rectangle" fill="url(#linearGradient-1)" x="0" y="0" width="500" height="500" rx="30"></rect>
        <g id="Group-5" transform="translate(115.000000, 62.000000)" fill="#FFFFFF" fill-rule="nonzero" opacity="0.6">
            <g id="Group-2" transform="translate(86.000000, 0.000000)">
                <rect id="Rectangle" x="0" y="0" width="48" height="48"></rect>
                <rect id="Rectangle-Copy" x="52" y="0" width="48" height="48"></rect>
                <rect id="Rectangle-Copy-2" x="0" y="52" width="48" height="48"></rect>
                <rect id="Rectangle-Copy-3" x="52" y="52" width="48" height="48"></rect>
            </g>
            <path d="M33.421875,148 L28.3515624,148 L28.3515624,128.0625 C28.3515624,126.429679 28.451822,124.431652 28.6523438,122.068359 L28.5664062,122.068359 C28.2513006,123.41472 27.9720064,124.381507 27.7285156,124.96875 L18.5332032,148 L15.0097656,148 L5.79296876,125.140625 C5.53515496,124.467445 5.26302226,123.443366 4.9765625,122.068359 L4.890625,122.068359 C5.0052089,123.300136 5.0625,125.312486 5.0625,128.105469 L5.0625,148 L0.3359375,148 L0.3359375,117.191406 L7.53320312,117.191406 L15.6328125,137.708984 C16.248701,139.284513 16.6497386,140.458981 16.8359376,141.232422 L16.9433594,141.232422 C17.47331,139.613924 17.9029932,138.410811 18.2324218,137.623047 L26.4824218,117.191406 L33.421875,117.191406 L33.421875,148 Z M42.9609376,121.380859 C42.1445272,121.380859 41.446292,121.115888 40.866211,120.585938 C40.28613,120.055987 39.9960938,119.382817 39.9960938,118.566406 C39.9960938,117.749996 40.28613,117.069664 40.866211,116.525391 C41.446292,115.981117 42.1445272,115.708984 42.9609376,115.708984 C43.8059938,115.708984 44.5221324,115.981117 45.109375,116.525391 C45.6966176,117.069664 45.9902344,117.749996 45.9902344,118.566406 C45.9902344,119.339848 45.6966176,120.002276 45.109375,120.553711 C44.5221324,121.105146 43.8059938,121.380859 42.9609376,121.380859 Z M45.4316406,148 L40.4472656,148 L40.4472656,126 L45.4316406,126 L45.4316406,148 Z M67.6894532,146.990234 C65.9277256,148.007167 63.843762,148.515625 61.4375,148.515625 C58.1718586,148.515625 55.5364684,147.495127 53.53125,145.454102 C51.5260316,143.413076 50.5234376,140.766943 50.5234376,137.515625 C50.5234376,133.891909 51.6012262,130.980805 53.756836,128.782227 C55.9124456,126.583648 58.7949038,125.484375 62.4042968,125.484375 C64.4095152,125.484375 66.1783778,125.835283 67.7109376,126.537109 L67.7109376,131.177734 C66.1783778,130.031895 64.5455816,129.458984 62.8125,129.458984 C60.7070208,129.458984 58.9811266,130.171542 57.6347656,131.59668 C56.2884048,133.021817 55.6152344,134.887358 55.6152344,137.193359 C55.6152344,139.470715 56.249017,141.268223 57.5166016,142.585938 C58.784186,143.903652 60.4850154,144.5625 62.6191406,144.5625 C64.4095142,144.5625 66.0996014,143.925137 67.6894532,142.650391 L67.6894532,146.990234 Z M85.3925782,130.748047 C84.7910126,130.275388 83.9244848,130.039062 82.7929688,130.039062 C81.317701,130.039062 80.0859424,130.705071 79.0976562,132.037109 C78.10937,133.369147 77.6152344,135.180978 77.6152344,137.472656 L77.6152344,148 L72.6308594,148 L72.6308594,126 L77.6152344,126 L77.6152344,130.533203 L77.7011718,130.533203 C78.1881534,128.98632 78.9365184,127.779627 79.946289,126.913086 C80.9560598,126.046545 82.0839782,125.613281 83.3300782,125.613281 C84.2324264,125.613281 84.9199196,125.749348 85.3925782,126.021484 L85.3925782,130.748047 Z M98.2832032,148.515625 C94.888655,148.515625 92.17807,147.487966 90.1513672,145.432617 C88.1246644,143.377268 87.1113282,140.652361 87.1113282,137.257812 C87.1113282,133.562482 88.1676326,130.676443 90.2802734,128.599609 C92.3929142,126.522776 95.2395654,125.484375 98.8203124,125.484375 C102.25783,125.484375 104.936188,126.494131 106.855469,128.513672 C108.774749,130.533213 109.734375,133.333315 109.734375,136.914062 C109.734375,140.423195 108.699555,143.234039 106.629883,145.34668 C104.560211,147.45932 101.778012,148.515625 98.2832032,148.515625 Z M98.5195312,129.458984 C96.5716048,129.458984 95.0319066,130.139316 93.9003906,131.5 C92.7688746,132.860684 92.203125,134.736967 92.203125,137.128906 C92.203125,139.434907 92.776036,141.250319 93.921875,142.575195 C95.067714,143.900072 96.6002508,144.5625 98.5195312,144.5625 C100.481781,144.5625 101.989253,143.910814 103.041992,142.607422 C104.094732,141.30403 104.621094,139.449231 104.621094,137.042969 C104.621094,134.622384 104.094732,132.753262 103.041992,131.435547 C101.989253,130.117832 100.481781,129.458984 98.5195312,129.458984 Z M113.429688,147.3125 L113.429688,142.693359 C115.291676,144.111335 117.346994,144.820312 119.595703,144.820312 C122.603531,144.820312 124.107422,143.932301 124.107422,142.15625 C124.107422,141.654945 123.978517,141.228843 123.720703,140.87793 C123.462889,140.527016 123.115562,140.215496 122.678711,139.943359 C122.24186,139.671223 121.72624,139.427735 121.131836,139.212891 C120.537432,138.998046 119.875004,138.754559 119.144531,138.482422 C118.242183,138.124347 117.429366,137.744794 116.706055,137.34375 C115.982744,136.942706 115.381187,136.487958 114.901367,135.979492 C114.421547,135.471026 114.059897,134.894534 113.816406,134.25 C113.572915,133.605466 113.451172,132.85352 113.451172,131.994141 C113.451172,130.934239 113.70182,129.999679 114.203125,129.19043 C114.70443,128.381181 115.3776,127.700849 116.222656,127.149414 C117.067713,126.597979 118.027338,126.182619 119.101562,125.90332 C120.175787,125.624022 121.285802,125.484375 122.431641,125.484375 C124.465505,125.484375 126.284497,125.792315 127.888672,126.408203 L127.888672,130.769531 C126.341789,129.70963 124.565765,129.179688 122.560547,129.179688 C121.930335,129.179688 121.361005,129.24414 120.852539,129.373047 C120.344073,129.501954 119.910809,129.680988 119.552734,129.910156 C119.19466,130.139324 118.915366,130.415037 118.714844,130.737305 C118.514322,131.059572 118.414062,131.414061 118.414062,131.800781 C118.414062,132.27344 118.514322,132.674478 118.714844,133.003906 C118.915366,133.333335 119.212563,133.623371 119.606445,133.874023 C120.000327,134.124676 120.472979,134.35384 121.024414,134.561523 C121.575849,134.769207 122.209632,134.99479 122.925781,135.238281 C123.871098,135.625002 124.719723,136.018878 125.47168,136.419922 C126.223637,136.820966 126.864581,137.275714 127.394531,137.78418 C127.924482,138.292646 128.332681,138.879879 128.619141,139.545898 C128.9056,140.211917 129.048828,141.003251 129.048828,141.919922 C129.048828,143.037115 128.791018,144.011064 128.275391,144.841797 C127.759763,145.67253 127.07227,146.360023 126.212891,146.904297 C125.353511,147.44857 124.361659,147.853189 123.237305,148.118164 C122.11295,148.383139 120.927741,148.515625 119.681641,148.515625 C117.275379,148.515625 115.191415,148.114587 113.429688,147.3125 Z M143.529297,148.515625 C140.134749,148.515625 137.424164,147.487966 135.397461,145.432617 C133.370758,143.377268 132.357422,140.652361 132.357422,137.257812 C132.357422,133.562482 133.413726,130.676443 135.526367,128.599609 C137.639008,126.522776 140.485659,125.484375 144.066406,125.484375 C147.503923,125.484375 150.182282,126.494131 152.101562,128.513672 C154.020843,130.533213 154.980469,133.333315 154.980469,136.914062 C154.980469,140.423195 153.945648,143.234039 151.875977,145.34668 C149.806305,147.45932 147.024106,148.515625 143.529297,148.515625 Z M143.765625,129.458984 C141.817699,129.458984 140.278,130.139316 139.146484,131.5 C138.014968,132.860684 137.449219,134.736967 137.449219,137.128906 C137.449219,139.434907 138.02213,141.250319 139.167969,142.575195 C140.313808,143.900072 141.846345,144.5625 143.765625,144.5625 C145.727874,144.5625 147.235346,143.910814 148.288086,142.607422 C149.340826,141.30403 149.867188,139.449231 149.867188,137.042969 C149.867188,134.622384 149.340826,132.753262 148.288086,131.435547 C147.235346,130.117832 145.727874,129.458984 143.765625,129.458984 Z M171.759766,119.490234 C171.086585,119.103514 170.320317,118.910156 169.460938,118.910156 C167.040352,118.910156 165.830078,120.277981 165.830078,123.013672 L165.830078,126 L170.943359,126 L170.943359,129.910156 L165.851562,129.910156 L165.851562,148 L160.867188,148 L160.867188,129.910156 L157.107422,129.910156 L157.107422,126 L160.867188,126 L160.867188,122.433594 C160.867188,120.11327 161.626294,118.283535 163.144531,116.944336 C164.662768,115.605137 166.560535,114.935547 168.837891,114.935547 C170.069668,114.935547 171.043616,115.071613 171.759766,115.34375 L171.759766,119.490234 Z M186.90625,147.763672 C185.932287,148.250653 184.650399,148.494141 183.060547,148.494141 C178.792296,148.494141 176.658203,146.445984 176.658203,142.349609 L176.658203,129.910156 L172.984375,129.910156 L172.984375,126 L176.658203,126 L176.658203,120.908203 L181.642578,119.490234 L181.642578,126 L186.90625,126 L186.90625,129.910156 L181.642578,129.910156 L181.642578,140.910156 C181.642578,142.213548 181.878904,143.144528 182.351562,143.703125 C182.824221,144.261722 183.611974,144.541016 184.714844,144.541016 C185.5599,144.541016 186.290362,144.297528 186.90625,143.810547 L186.90625,147.763672 Z M202.697266,146.861328 L202.697266,142.177734 C204.702484,143.767586 206.965482,144.5625 209.486328,144.5625 C211.534516,144.5625 213.170892,144.09701 214.395508,143.166016 C215.620124,142.235021 216.232422,140.974617 216.232422,139.384766 C216.232422,135.889956 213.561224,134.142578 208.21875,134.142578 L205.833984,134.142578 L205.833984,130.146484 L208.111328,130.146484 C212.852238,130.146484 215.222656,128.499365 215.222656,125.205078 C215.222656,122.168605 213.375018,120.650391 209.679688,120.650391 C207.617178,120.650391 205.676442,121.388013 203.857422,122.863281 L203.857422,118.4375 C205.948578,117.263015 208.419256,116.675781 211.269532,116.675781 C214.005222,116.675781 216.196606,117.363274 217.84375,118.738281 C219.490894,120.113288 220.314454,121.874989 220.314454,124.023438 C220.314454,128.076843 218.251974,130.683588 214.126954,131.84375 L214.126954,131.929688 C216.347016,132.144532 218.101556,132.921543 219.390624,134.260742 C220.679694,135.599942 221.324218,137.272125 221.324218,139.277344 C221.324218,142.04168 220.285818,144.272452 218.208984,145.969727 C216.132152,147.667001 213.396502,148.515625 210.001954,148.515625 C206.951156,148.515625 204.516286,147.964198 202.697266,146.861328 Z M247.363282,138.095703 C247.363282,139.642586 247.109052,141.053379 246.600586,142.328125 C246.09212,143.602871 245.386724,144.702144 244.484376,145.625977 C243.582026,146.549809 242.5114,147.265948 241.27246,147.774414 C240.033522,148.28288 238.690762,148.537109 237.24414,148.537109 C235.697258,148.537109 234.275722,148.236331 232.979492,147.634766 C231.683262,147.0332 230.566086,146.138027 229.62793,144.949219 C228.689774,143.760411 227.962894,142.281584 227.447266,140.512695 C226.931638,138.743806 226.673828,136.692069 226.673828,134.357422 C226.673828,131.507147 227.013994,128.979178 227.694336,126.773438 C228.374678,124.567697 229.309238,122.72006 230.498046,121.230469 C231.686854,119.740878 233.083326,118.609379 234.6875,117.835938 C236.291674,117.062496 238.02473,116.675781 239.886718,116.675781 C241.04688,116.675781 242.103186,116.754557 243.055664,116.912109 C244.008142,117.069662 244.77083,117.284504 245.34375,117.556641 L245.34375,122.046875 C244.613278,121.674477 243.832686,121.359376 243.001954,121.101562 C242.17122,120.843749 241.218756,120.714844 240.144532,120.714844 C238.9414,120.714844 237.831386,120.958331 236.814454,121.445312 C235.79752,121.932294 234.920252,122.644852 234.182618,123.583008 C233.444984,124.521164 232.86491,125.681308 232.442382,127.063477 C232.019854,128.445645 231.801432,130.039053 231.78711,131.84375 L231.916016,131.84375 C232.574874,130.826818 233.466466,130.024743 234.59082,129.4375 C235.715174,128.850257 237.03645,128.556641 238.554688,128.556641 C239.901048,128.556641 241.114904,128.775063 242.19629,129.211914 C243.277674,129.648765 244.201494,130.278967 244.967774,131.102539 C245.734054,131.926111 246.324868,132.928705 246.740234,134.110352 C247.155602,135.291998 247.363282,136.620435 247.363282,138.095703 Z M242.335938,138.503906 C242.335938,137.615881 242.232098,136.806644 242.024414,136.076172 C241.81673,135.345699 241.50163,134.719078 241.079102,134.196289 C240.656574,133.6735 240.12663,133.268882 239.489258,132.982422 C238.851884,132.695962 238.10352,132.552734 237.24414,132.552734 C236.384762,132.552734 235.629236,132.706704 234.97754,133.014648 C234.325844,133.322593 233.777998,133.727211 233.333984,134.228516 C232.889972,134.72982 232.556968,135.302731 232.33496,135.947266 C232.112954,136.5918 232.001954,137.250648 232.001954,137.923828 C232.001954,138.654301 232.105794,139.402665 232.313476,140.168945 C232.52116,140.935225 232.839842,141.63346 233.269532,142.263672 C233.69922,142.893883 234.247066,143.413084 234.913086,143.821289 C235.579104,144.229494 236.370438,144.433594 237.28711,144.433594 C238.10352,144.433594 238.82682,144.283205 239.457032,143.982422 C240.087242,143.681639 240.613604,143.266279 241.036132,142.736328 C241.45866,142.206378 241.780924,141.579756 242.00293,140.856445 C242.224936,140.133134 242.335938,139.348963 242.335938,138.503906 Z M252.36914,147.291016 L252.36914,142.5 C254.388682,143.860684 256.436838,144.541016 258.513672,144.541016 C260.604828,144.541016 262.287754,144.007492 263.5625,142.94043 C264.837246,141.873367 265.47461,140.451832 265.47461,138.675781 C265.47461,136.928377 264.826504,135.567713 263.530274,134.59375 C262.234042,133.619787 260.375664,133.132812 257.955078,133.132812 C257.124344,133.132812 255.441418,133.218749 252.90625,133.390625 L254.001954,117.191406 L269.169922,117.191406 L269.169922,121.445312 L258.148438,121.445312 L257.632812,129.158203 C258.621098,129.100911 259.516272,129.072266 260.31836,129.072266 C263.584,129.072266 266.10839,129.910148 267.891602,131.585938 C269.674814,133.261727 270.566406,135.553371 270.566406,138.460938 C270.566406,141.511734 269.545908,143.957348 267.504882,145.797852 C265.463856,147.638356 262.660174,148.558594 259.09375,148.558594 C256.085922,148.558594 253.844408,148.136072 252.36914,147.291016 Z" id="Microsoft365"></path>
        </g>
        <text id="Consulting-&amp;-Develop" opacity="0.6" font-family="SFProDisplay-Heavy, SF Pro Display" font-size="54" font-weight="600" fill="#FFFFFF">
            <tspan x="110.411133" y="323">Consulting</tspan>
            <tspan x="231.09375" y="387">&amp; </tspan>
            <tspan x="80.0493164" y="451">Development</tspan>
        </text>
    </g>
</svg>