<?xml version="1.0" encoding="UTF-8"?>
<svg width="200px" height="300px" viewBox="0 0 200 300" version="1.1" xmlns="http://www.w3.org/2000/svg" xmlns:xlink="http://www.w3.org/1999/xlink">
    <!-- Generator: Sketch 53.2 (72643) - https://sketchapp.com -->
    <title>Group 9</title>
    <desc>Created with Sketch.</desc>
    <defs>
        <linearGradient x1="27.7777778%" y1="0%" x2="72.2222222%" y2="100%" id="linearGradient-1">
            <stop stop-color="#612CB8" offset="0%"></stop>
            <stop stop-color="#11A8DB" offset="65.2100372%"></stop>
            <stop stop-color="#11DBB4" offset="100%"></stop>
        </linearGradient>
        <polygon id="path-2" points="0.01390625 0.0182893891 88.7911745 0.0182893891 88.7911745 71.9268424 0.01390625 71.9268424"></polygon>
    </defs>
    <g id="WWW" stroke="none" stroke-width="1" fill="none" fill-rule="evenodd">
        <g id="Desktop-HD" transform="translate(-497.000000, -113.000000)">
            <g id="Group-9" transform="translate(497.000000, 113.000000)">
                <g id="Group-7">
                    <path d="M78.1620001,215.008 L78.3900001,214.42 C78.5420008,214.027998 78.7459988,213.496003 79.0020001,212.824 C79.2580013,212.151997 79.5499984,211.404004 79.8780001,210.58 C80.2060017,209.755996 80.5379984,208.908004 80.8740001,208.036 C81.2100017,207.163996 81.5339985,206.328004 81.8460001,205.528 C82.1580016,204.727996 82.4339989,204.024003 82.6740001,203.416 C82.7380004,203.287999 82.877999,203.144001 83.0940001,202.984 C83.3100011,202.823999 83.4739995,202.744 83.5860001,202.744 C83.6180002,202.744 83.638,202.748 83.6460001,202.756 C83.6540001,202.764 83.6739999,202.776 83.7060001,202.792 L88.4820001,215.32 C88.8340018,216.248005 89.0339998,216.76 89.0820001,216.856 C89.1620005,217.032001 89.3179989,217.183999 89.5500001,217.312 C89.7820012,217.440001 90.0139989,217.532 90.2460001,217.588 C90.4780012,217.644 90.6259997,217.672 90.6900001,217.672 C90.7540004,217.752 90.7780001,217.875999 90.7620001,218.044 C90.746,218.212001 90.7300001,218.312 90.7140001,218.344 C90.2499977,218.312 89.8340019,218.284 89.4660001,218.26 C89.0979982,218.236 88.6580026,218.224 88.1460001,218.224 C87.6019973,218.224 87.1500019,218.236 86.7900001,218.26 C86.4299983,218.284 85.9780028,218.312 85.4340001,218.344 C85.3699997,218.28 85.342,218.168001 85.3500001,218.008 C85.3580001,217.847999 85.3939997,217.736 85.4580001,217.672 C85.6020008,217.672 85.8259985,217.644 86.1300001,217.588 C86.4340016,217.532 86.6419995,217.456 86.7540001,217.36 C86.8180004,217.296 86.8500001,217.184001 86.8500001,217.024 C86.8500001,216.879999 86.7980006,216.636002 86.6940001,216.292 C86.5899995,215.947998 86.4580009,215.560002 86.2980001,215.128 C86.1379993,214.695998 85.9780009,214.276002 85.8180001,213.868 C85.6579993,213.459998 85.5260006,213.124001 85.4220001,212.86 L85.2660001,212.464 L85.2180001,212.416 C85.1859999,212.384 85.1540002,212.368 85.1220001,212.368 C84.8819989,212.352 84.5860018,212.344 84.2340001,212.344 L82.7940001,212.344 C82.3139977,212.344 81.9060017,212.348 81.5700001,212.356 C81.2339984,212.364 80.8020027,212.384 80.2740001,212.416 C80.258,212.416 80.2340002,212.428 80.2020001,212.452 L80.1540001,212.488 L79.9740001,212.968 C79.8539995,213.288002 79.7100009,213.667998 79.5420001,214.108 C79.3739992,214.548002 79.2260007,214.959998 79.0980001,215.344 C78.9539993,215.744002 78.8620003,216.079999 78.8220001,216.352 C78.7819999,216.624001 78.7620001,216.839999 78.7620001,217 C78.7620001,217.176001 78.8859988,217.315999 79.1340001,217.42 C79.3820013,217.524001 79.6379987,217.592 79.9020001,217.624 C80.1660014,217.656 80.3299997,217.672 80.3940001,217.672 C80.4260002,217.704 80.45,217.803999 80.4660001,217.972 C80.4820001,218.140001 80.4740002,218.264 80.4420001,218.344 C80.1379985,218.328 79.8780011,218.312 79.6620001,218.296 L79.0140001,218.248 C78.797999,218.232 78.5140018,218.224 78.1620001,218.224 C77.8099983,218.224 77.5140013,218.232 77.2740001,218.248 L76.5540001,218.296 C76.3139989,218.312 76.0100019,218.328 75.6420001,218.344 C75.6099999,218.312 75.5940001,218.212001 75.5940001,218.044 C75.5940001,217.875999 75.6099999,217.752 75.6420001,217.672 C75.7860008,217.672 76.0299983,217.636 76.3740001,217.564 C76.7180018,217.492 76.9459995,217.376001 77.0580001,217.216 C77.2980013,216.911998 77.5019992,216.572002 77.6700001,216.196 C77.8380009,215.819998 78.0019993,215.424002 78.1620001,215.008 Z M82.7460001,205.576 L80.6100001,211.288 L80.6220001,211.336 C80.6300001,211.368 80.642,211.384 80.6580001,211.384 C80.9620016,211.4 81.3259979,211.412 81.7500001,211.42 C82.1740022,211.428 82.5139988,211.432 82.7700001,211.432 C83.1380019,211.432 83.4699986,211.424 83.7660001,211.408 C84.0620015,211.392 84.3859983,211.376 84.7380001,211.36 C84.7700002,211.36 84.79,211.34 84.7980001,211.3 L84.8100001,211.24 L82.7460001,205.576 Z M97.6740001,216.712 C98.2980032,216.712 98.8859973,216.823999 99.4380001,217.048 C99.9900028,217.272001 100.437998,217.567998 100.782,217.936 C101.126002,218.304002 101.298,218.711998 101.298,219.16 C101.298,219.640002 101.134002,220.135997 100.806,220.648 C100.477998,221.160003 100.034003,221.639998 99.4740001,222.088 C98.9139973,222.536002 98.2660037,222.899999 97.5300001,223.18 C96.7939964,223.460001 96.0180041,223.6 95.2020001,223.6 C94.5779969,223.6 93.9540032,223.496001 93.3300001,223.288 C92.7059969,223.079999 92.1860021,222.764002 91.7700001,222.34 C91.353998,221.915998 91.1460001,221.384003 91.1460001,220.744 C91.1460001,220.391998 91.2979985,220.056002 91.6020001,219.736 C91.9060016,219.415998 92.2579981,219.128001 92.6580001,218.872 C93.0580021,218.615999 93.3859988,218.424001 93.6420001,218.296 C93.3699987,218.2 93.0860015,218.056001 92.7900001,217.864 C92.4939986,217.671999 92.2420011,217.428001 92.0340001,217.132 C91.825999,216.835999 91.7220001,216.496002 91.7220001,216.112 C91.8660008,215.951999 92.0699987,215.764001 92.3340001,215.548 C92.5980014,215.331999 92.8619987,215.128001 93.1260001,214.936 C93.3900014,214.743999 93.5939993,214.608 93.7380001,214.528 C93.1619972,214.207998 92.6940019,213.772003 92.3340001,213.22 C91.9739983,212.667997 91.7940001,212.104003 91.7940001,211.528 C91.7940001,210.903997 91.9659983,210.324003 92.3100001,209.788 C92.6540018,209.251997 93.1259971,208.816002 93.7260001,208.48 C94.3260031,208.143998 95.0019963,207.976 95.7540001,207.976 C96.2660026,207.976 96.6979983,208.043999 97.0500001,208.18 C97.4020018,208.316001 97.681999,208.424 97.8900001,208.504 C98.1140012,208.584 98.23,208.624 98.2380001,208.624 C98.2460001,208.624 98.3059995,208.64 98.4180001,208.672 L100.938,208.312 C101.082001,208.36 101.154,208.439999 101.154,208.552 C101.154,208.648 101.098001,208.811999 100.986,209.044 C100.874,209.276001 100.754001,209.432 100.626,209.512 C100.433999,209.496 100.218001,209.484 99.9780001,209.476 C99.7379989,209.468 99.5300009,209.456 99.3540001,209.44 L99.0900001,209.416 C99.0259997,209.416 98.9940001,209.44 98.9940001,209.488 C99.0580004,209.552 99.1819991,209.787998 99.3660001,210.196 C99.550001,210.604002 99.6420001,211.079997 99.6420001,211.624 C99.6420001,212.168003 99.4700018,212.703997 99.1260001,213.232 C98.7819983,213.760003 98.3100031,214.195998 97.7100001,214.54 C97.1099971,214.884002 96.4340038,215.056 95.6820001,215.056 C95.473999,215.056 95.2340014,215.032 94.9620001,214.984 C94.6899987,214.936 94.4900007,214.888 94.3620001,214.84 C94.153999,214.952001 93.958001,215.103999 93.7740001,215.296 C93.5899991,215.488001 93.4980001,215.679999 93.4980001,215.872 C93.4980001,215.984001 93.6179989,216.151999 93.8580001,216.376 C94.0980013,216.600001 94.4499977,216.712 94.9140001,216.712 L97.6740001,216.712 Z M96.5940001,218.368 C96.4499993,218.368 96.2140017,218.372 95.8860001,218.38 C95.5579984,218.388 95.2460015,218.4 94.9500001,218.416 C94.6539986,218.432 94.4740004,218.456 94.4100001,218.488 C94.1539988,218.648001 93.8580017,218.871999 93.5220001,219.16 C93.1859984,219.448001 93.0180001,219.743998 93.0180001,220.048 C93.0180001,220.800004 93.2899973,221.427997 93.8340001,221.932 C94.3780028,222.436003 95.1459951,222.688 96.1380001,222.688 C96.6820028,222.688 97.2259973,222.568001 97.7700001,222.328 C98.3140028,222.087999 98.7699982,221.776002 99.1380001,221.392 C99.5060019,221.007998 99.6900001,220.600002 99.6900001,220.168 C99.6900001,219.943999 99.5860011,219.692001 99.3780001,219.412 C99.169999,219.131999 98.8420023,218.888001 98.3940001,218.68 C97.9459978,218.471999 97.3460038,218.368 96.5940001,218.368 Z M95.6580001,208.696 C95.2099978,208.696 94.8340016,208.831999 94.5300001,209.104 C94.2259985,209.376001 93.9940009,209.719998 93.8340001,210.136 C93.6739993,210.552002 93.5940001,210.983998 93.5940001,211.432 C93.5940001,211.912002 93.6819992,212.375998 93.8580001,212.824 C94.0340009,213.272002 94.2899984,213.639999 94.6260001,213.928 C94.9620017,214.216001 95.3699977,214.36 95.8500001,214.36 C96.2820022,214.36 96.6459986,214.228001 96.9420001,213.964 C97.2380015,213.699999 97.4619993,213.364002 97.6140001,212.956 C97.7660008,212.547998 97.8420001,212.128002 97.8420001,211.696 C97.8420001,211.199998 97.7620009,210.724002 97.6020001,210.268 C97.4419993,209.811998 97.2020017,209.436001 96.8820001,209.14 C96.5619985,208.843999 96.1540025,208.696 95.6580001,208.696 Z M103.53,204.376 C103.53,204.055998 103.645999,203.780001 103.878,203.548 C104.110001,203.315999 104.385998,203.2 104.706,203.2 C105.026002,203.2 105.301999,203.315999 105.534,203.548 C105.766001,203.780001 105.882,204.055998 105.882,204.376 C105.882,204.696002 105.766001,204.971999 105.534,205.204 C105.301999,205.436001 105.026002,205.552 104.706,205.552 C104.385998,205.552 104.110001,205.436001 103.878,205.204 C103.645999,204.971999 103.53,204.696002 103.53,204.376 Z M105.786,215.56 C105.786,215.912002 105.79,216.239998 105.798,216.544 C105.806,216.848002 105.842,217.095999 105.906,217.288 C105.938,217.368 106.053999,217.44 106.254,217.504 C106.454001,217.568 106.665999,217.612 106.89,217.636 C107.114001,217.66 107.274,217.672 107.37,217.672 C107.418,217.736 107.446,217.847999 107.454,218.008 C107.462,218.168001 107.434,218.28 107.37,218.344 L106.11,218.26 C105.749998,218.236 105.338002,218.224 104.874,218.224 C104.425998,218.224 104.018002,218.236 103.65,218.26 C103.281998,218.284 102.858002,218.312 102.378,218.344 C102.314,218.28 102.286,218.168001 102.294,218.008 C102.302,217.847999 102.33,217.736 102.378,217.672 C102.474001,217.672 102.637999,217.66 102.87,217.636 C103.102001,217.612 103.321999,217.568 103.53,217.504 C103.738001,217.44 103.85,217.368 103.866,217.288 C103.93,217.095999 103.966,216.848002 103.974,216.544 C103.982,216.239998 103.986,215.912002 103.986,215.56 L103.986,211.192 C103.986,211.031999 103.982,210.824001 103.974,210.568 C103.966,210.311999 103.93,210.112001 103.866,209.968 C103.818,209.823999 103.682001,209.724 103.458,209.668 C103.233999,209.612 103.010001,209.58 102.786,209.572 C102.561999,209.564 102.418,209.56 102.354,209.56 C102.338,209.528 102.322,209.432001 102.306,209.272 C102.29,209.111999 102.306,209 102.354,208.936 C102.962003,208.856 103.553997,208.736001 104.13,208.576 C104.706003,208.415999 105.225998,208.208001 105.69,207.952 C105.754,207.952 105.814,208 105.87,208.096 C105.926,208.192 105.954,208.272 105.954,208.336 C105.954,208.384 105.938,208.519999 105.906,208.744 C105.874,208.968001 105.846,209.191999 105.822,209.416 C105.798,209.640001 105.786,209.792 105.786,209.872 L105.786,215.56 Z M109.938,205.192 C109.938,205.015999 109.934,204.804001 109.926,204.556 C109.918,204.307999 109.882,204.112001 109.818,203.968 C109.754,203.791999 109.582001,203.68 109.302,203.632 C109.021999,203.584 108.722002,203.56 108.402,203.56 C108.386,203.56 108.374,203.460001 108.366,203.26 C108.358,203.059999 108.378,202.952 108.426,202.936 C109.018003,202.872 109.593997,202.756001 110.154,202.588 C110.714003,202.419999 111.241998,202.224001 111.738,202 C111.802,202 111.862,202.044 111.918,202.132 C111.974,202.22 112.002,202.304 112.002,202.384 L111.87,202.912 C111.782,203.264002 111.738,203.767997 111.738,204.424 L111.738,215.56 C111.738,215.912002 111.742,216.239998 111.75,216.544 C111.758,216.848002 111.794,217.095999 111.858,217.288 C111.89,217.368 112.005999,217.44 112.206,217.504 C112.406001,217.568 112.621999,217.612 112.854,217.636 C113.086001,217.66 113.25,217.672 113.346,217.672 C113.394,217.736 113.422,217.847999 113.43,218.008 C113.438,218.168001 113.41,218.28 113.346,218.344 C112.865998,218.312 112.442002,218.284 112.074,218.26 C111.705998,218.236 111.290002,218.224 110.826,218.224 C110.377998,218.224 109.974002,218.236 109.614,218.26 L108.354,218.344 C108.29,218.28 108.262,218.168001 108.27,218.008 C108.278,217.847999 108.306,217.736 108.354,217.672 C108.450001,217.672 108.609999,217.66 108.834,217.636 C109.058001,217.612 109.273999,217.568 109.482,217.504 C109.690001,217.44 109.802,217.368 109.818,217.288 C109.882,217.095999 109.918,216.848002 109.926,216.544 C109.934,216.239998 109.938,215.912002 109.938,215.56 L109.938,205.192 Z M116.418,212.464 C116.402,213.456005 116.569998,214.287997 116.922,214.96 C117.274002,215.632003 117.745997,216.131998 118.338,216.46 C118.930003,216.788002 119.569997,216.952 120.258,216.952 C120.690002,216.952 121.081998,216.876001 121.434,216.724 C121.786002,216.571999 122.081999,216.396001 122.322,216.196 C122.562001,215.995999 122.73,215.840001 122.826,215.728 C122.842,215.728 122.878,215.756 122.934,215.812 C122.99,215.868 123.018,215.944 123.018,216.04 C123.018,216.168001 122.970001,216.311999 122.874,216.472 C122.729999,216.696001 122.506002,216.963998 122.202,217.276 C121.897999,217.588002 121.514002,217.863999 121.05,218.104 C120.585998,218.344001 120.050003,218.464 119.442,218.464 C118.529996,218.464 117.722004,218.248002 117.018,217.816 C116.313997,217.383998 115.762002,216.800004 115.362,216.064 C114.961998,215.327996 114.762,214.504005 114.762,213.592 C114.762,212.807996 114.901999,212.076003 115.182,211.396 C115.462001,210.715997 115.829998,210.124003 116.286,209.62 C116.742002,209.115997 117.241997,208.720001 117.786,208.432 C118.330003,208.143999 118.857998,208 119.37,208 C120.074004,208 120.653998,208.119999 121.11,208.36 C121.566002,208.600001 121.925999,208.895998 122.19,209.248 C122.454001,209.600002 122.638,209.951998 122.742,210.304 C122.846001,210.656002 122.898,210.951999 122.898,211.192 C122.898,211.528002 122.858,211.791999 122.778,211.984 C122.698,212.176001 122.546001,212.28 122.322,212.296 C122.177999,212.312 121.894002,212.324 121.47,212.332 C121.045998,212.34 120.562003,212.352 120.018,212.368 C119.473997,212.384 118.938003,212.4 118.41,212.416 C117.881997,212.432 117.434002,212.444 117.066,212.452 C116.697998,212.46 116.482,212.464 116.418,212.464 Z M116.538,211.6 L120.354,211.6 C120.498001,211.6 120.622,211.56 120.726,211.48 C120.830001,211.4 120.89,211.256001 120.906,211.048 C120.922,210.855999 120.866001,210.584002 120.738,210.232 C120.609999,209.879998 120.406001,209.560001 120.126,209.272 C119.845999,208.983999 119.466002,208.84 118.986,208.84 C118.489998,208.84 118.082002,208.979999 117.762,209.26 C117.441998,209.540001 117.190001,209.859998 117.006,210.22 C116.821999,210.580002 116.694,210.899999 116.622,211.18 C116.55,211.460001 116.522,211.6 116.538,211.6 Z M78.8100001,231.04 C78.8100001,231.984005 78.5940022,232.811996 78.1620001,233.524 C77.7299979,234.236004 77.1260039,234.787998 76.3500001,235.18 C75.5739962,235.572002 74.6740052,235.768 73.6500001,235.768 C73.5219994,235.768 73.3540011,235.752 73.1460001,235.72 C72.937999,235.688 72.7700007,235.64 72.6420001,235.576 C72.6099999,235.544 72.5460005,235.484 72.4500001,235.396 C72.3539996,235.308 72.3060001,235.192001 72.3060001,235.048 C72.3060001,234.952 72.3459997,234.912 72.4260001,234.928 C72.5540007,234.96 72.6899993,234.996 72.8340001,235.036 C72.9780008,235.076 73.1379992,235.096 73.3140001,235.096 C74.2580048,235.096 75.0499969,234.780003 75.6900001,234.148 C76.3300033,233.515997 76.6500001,232.616006 76.6500001,231.448 C76.6500001,230.279994 76.3300033,229.344004 75.6900001,228.64 C75.0499969,227.935996 74.0820065,227.584 72.7860001,227.584 C72.6419993,227.584 72.4220015,227.592 72.1260001,227.608 C71.8299986,227.624 71.6580003,227.687999 71.6100001,227.8 C71.5459997,227.944001 71.5100001,228.187998 71.5020001,228.532 C71.494,228.876002 71.4900001,229.223998 71.4900001,229.576 L71.4900001,239.56 C71.4900001,239.912002 71.494,240.239998 71.5020001,240.544 C71.5100001,240.848002 71.5459997,241.095999 71.6100001,241.288 C71.6420002,241.368 71.7699989,241.44 71.9940001,241.504 C72.2180012,241.568 72.4539988,241.612 72.7020001,241.636 C72.9500013,241.66 73.1219996,241.672 73.2180001,241.672 C73.2660003,241.736 73.294,241.847999 73.3020001,242.008 C73.3100001,242.168001 73.2820004,242.28 73.2180001,242.344 C72.7379977,242.312 72.2780023,242.284 71.8380001,242.26 C71.3979979,242.236 70.9460024,242.224 70.4820001,242.224 C70.0339978,242.224 69.5820023,242.236 69.1260001,242.26 C68.6699978,242.284 68.2020025,242.312 67.7220001,242.344 C67.6579997,242.28 67.63,242.168001 67.6380001,242.008 C67.6460001,241.847999 67.6739998,241.736 67.7220001,241.672 C67.8180005,241.672 67.9899988,241.66 68.2380001,241.636 C68.4860013,241.612 68.7259989,241.568 68.9580001,241.504 C69.1900012,241.44 69.314,241.368 69.3300001,241.288 C69.3940004,241.095999 69.43,240.848002 69.4380001,240.544 C69.4460001,240.239998 69.4500001,239.912002 69.4500001,239.56 L69.4500001,229.552 C69.4500001,229.199998 69.4460001,228.868002 69.4380001,228.556 C69.43,228.243998 69.3940004,227.992001 69.3300001,227.8 C69.314,227.704 69.1900012,227.632 68.9580001,227.584 C68.7259989,227.536 68.4860013,227.5 68.2380001,227.476 C67.9899988,227.452 67.8180005,227.44 67.7220001,227.44 C67.6739998,227.376 67.6460001,227.264001 67.6380001,227.104 C67.63,226.943999 67.6579997,226.832 67.7220001,226.768 C68.2020025,226.784 68.6699978,226.804 69.1260001,226.828 C69.5820023,226.852 70.0339978,226.864 70.4820001,226.864 C70.9460024,226.864 71.4459974,226.856 71.9820001,226.84 C72.5180027,226.824 73.1299966,226.816 73.8180001,226.816 C74.6500042,226.816 75.4459963,226.979998 76.2060001,227.308 C76.9660039,227.636002 77.5899976,228.111997 78.0780001,228.736 C78.5660025,229.360003 78.8100001,230.127995 78.8100001,231.04 Z M86.6100001,232.024 C86.9140016,232.024 87.2019987,232.091999 87.4740001,232.228 C87.7460014,232.364001 87.9379995,232.527999 88.0500001,232.72 C88.0820002,232.784 88.106,232.871999 88.1220001,232.984 C88.1380001,233.096001 88.1460001,233.215999 88.1460001,233.344 C88.1460001,233.776002 88.0460011,234.087999 87.8460001,234.28 C87.6459991,234.472001 87.4820007,234.568 87.3540001,234.568 C87.1939993,234.568 87.0420008,234.512001 86.8980001,234.4 C86.7539993,234.287999 86.6180007,234.192 86.4900001,234.112 C86.3779995,234.032 86.2620007,233.964 86.1420001,233.908 C86.0219995,233.852 85.8500012,233.824 85.6260001,233.824 C85.2899984,233.824 84.9820015,233.963999 84.7020001,234.244 C84.4219987,234.524001 84.1940009,234.831998 84.0180001,235.168 C83.8419992,235.504002 83.7540001,235.759999 83.7540001,235.936 L83.7540001,239.56 C83.7540001,239.912002 83.758,240.239998 83.7660001,240.544 C83.7740001,240.848002 83.8099997,241.095999 83.8740001,241.288 C83.9060002,241.368 84.0659986,241.44 84.3540001,241.504 C84.6420015,241.568 84.9459985,241.612 85.2660001,241.636 C85.5860017,241.66 85.7939996,241.672 85.8900001,241.672 C85.9380003,241.736 85.966,241.847999 85.9740001,242.008 C85.9820001,242.168001 85.9540004,242.28 85.8900001,242.344 C85.4099977,242.312 84.9220025,242.284 84.4260001,242.26 C83.9299976,242.236 83.4500024,242.224 82.9860001,242.224 C82.5379978,242.224 82.1060021,242.236 81.6900001,242.26 C81.273998,242.284 80.8260025,242.312 80.3460001,242.344 C80.2819997,242.28 80.254,242.168001 80.2620001,242.008 C80.2700001,241.847999 80.2979998,241.736 80.3460001,241.672 C80.4420005,241.672 80.6059989,241.66 80.8380001,241.636 C81.0700012,241.612 81.289999,241.568 81.4980001,241.504 C81.7060011,241.44 81.818,241.368 81.8340001,241.288 C81.8980004,241.095999 81.934,240.848002 81.9420001,240.544 C81.9500001,240.239998 81.9540001,239.912002 81.9540001,239.56 L81.9540001,235.192 C81.9540001,235.031999 81.9500001,234.824001 81.9420001,234.568 C81.934,234.311999 81.8980004,234.112001 81.8340001,233.968 C81.7859998,233.823999 81.6500012,233.724 81.4260001,233.668 C81.2019989,233.612 80.9780012,233.58 80.7540001,233.572 C80.5299989,233.564 80.3860004,233.56 80.3220001,233.56 C80.306,233.528 80.2900001,233.432001 80.2740001,233.272 C80.258,233.111999 80.2739998,233 80.3220001,232.936 C80.9300031,232.856 81.5219972,232.736001 82.0980001,232.576 C82.6740029,232.415999 83.1939977,232.208001 83.6580001,231.952 C83.7220004,231.952 83.7819998,232 83.8380001,232.096 C83.8940003,232.192 83.9220001,232.272 83.9220001,232.336 C83.9220001,232.384 83.9060002,232.567998 83.8740001,232.888 C83.8419999,233.208002 83.8140002,233.531998 83.7900001,233.86 C83.7659999,234.188002 83.7540001,234.4 83.7540001,234.496 C83.7540001,234.544 83.7659999,234.568 83.7900001,234.568 C83.8140002,234.568 83.834,234.56 83.8500001,234.544 C84.0100009,234.207998 84.2379986,233.844002 84.5340001,233.452 C84.8300015,233.059998 85.1619982,232.724001 85.5300001,232.444 C85.8980019,232.163999 86.2579983,232.024 86.6100001,232.024 Z M94.3380001,231.976 C95.3780053,231.976 96.2699963,232.199998 97.0140001,232.648 C97.7580038,233.096002 98.333998,233.703996 98.7420001,234.472 C99.1500021,235.240004 99.3540001,236.111995 99.3540001,237.088 C99.3540001,238.096005 99.1380022,239.003996 98.7060001,239.812 C98.2739979,240.620004 97.6820038,241.259998 96.9300001,241.732 C96.1779963,242.204002 95.3300048,242.44 94.3860001,242.44 C93.3619949,242.44 92.4700039,242.212002 91.7100001,241.756 C90.9499963,241.299998 90.3660021,240.684004 89.9580001,239.908 C89.549998,239.131996 89.3460001,238.256005 89.3460001,237.28 C89.3460001,236.271995 89.5659979,235.368004 90.0060001,234.568 C90.4460023,233.767996 91.0419963,233.136002 91.7940001,232.672 C92.5460038,232.207998 93.3939953,231.976 94.3380001,231.976 Z M94.0740001,232.768 C93.4179968,232.768 92.8900021,232.963998 92.4900001,233.356 C92.0899981,233.748002 91.8020009,234.251997 91.6260001,234.868 C91.4499992,235.484003 91.3620001,236.127997 91.3620001,236.8 C91.3620001,237.552004 91.4859988,238.303996 91.7340001,239.056 C91.9820013,239.808004 92.3499976,240.431998 92.8380001,240.928 C93.3260025,241.424002 93.9219965,241.672 94.6260001,241.672 C95.2980034,241.672 95.8299981,241.476002 96.2220001,241.084 C96.614002,240.691998 96.8979992,240.184003 97.0740001,239.56 C97.2500009,238.935997 97.3380001,238.296003 97.3380001,237.64 C97.3380001,236.871996 97.2100013,236.116004 96.9540001,235.372 C96.6979988,234.627996 96.3300025,234.008002 95.8500001,233.512 C95.3699977,233.015998 94.7780036,232.768 94.0740001,232.768 Z M101.85,228.376 C101.85,228.055998 101.965999,227.780001 102.198,227.548 C102.430001,227.315999 102.705998,227.2 103.026,227.2 C103.346002,227.2 103.621999,227.315999 103.854,227.548 C104.086001,227.780001 104.202,228.055998 104.202,228.376 C104.202,228.696002 104.086001,228.971999 103.854,229.204 C103.621999,229.436001 103.346002,229.552 103.026,229.552 C102.705998,229.552 102.430001,229.436001 102.198,229.204 C101.965999,228.971999 101.85,228.696002 101.85,228.376 Z M102.474,241.216 L102.474,235.192 C102.474,235.031999 102.47,234.824001 102.462,234.568 C102.454,234.311999 102.418,234.112001 102.354,233.968 C102.306,233.823999 102.166001,233.724 101.934,233.668 C101.701999,233.612 101.474001,233.58 101.25,233.572 C101.025999,233.564 100.882,233.56 100.818,233.56 C100.802,233.528 100.786,233.432001 100.77,233.272 C100.754,233.111999 100.77,233 100.818,232.936 C101.426003,232.856 102.021997,232.736001 102.606,232.576 C103.190003,232.415999 103.713998,232.208001 104.178,231.952 C104.242,231.952 104.302,232 104.358,232.096 C104.414,232.192 104.442,232.272 104.442,232.336 C104.442,232.384 104.426,232.511999 104.394,232.72 C104.362,232.928001 104.334,233.143999 104.31,233.368 C104.286,233.592001 104.274,233.759999 104.274,233.872 L104.274,240.688 C104.274,241.808006 104.138001,242.775996 103.866,243.592 C103.593999,244.408004 103.250002,245.091997 102.834,245.644 C102.417998,246.196003 101.978002,246.635998 101.514,246.964 C101.049998,247.292002 100.618002,247.535999 100.218,247.696 C100.073999,247.6 99.9700004,247.480001 99.9060001,247.336 C99.8739999,247.256 99.8739999,247.2 99.9060001,247.168 C100.354002,246.847998 100.773998,246.476002 101.166,246.052 C101.558002,245.627998 101.873999,245.040004 102.114,244.288 C102.354001,243.535996 102.474,242.512006 102.474,241.216 Z M108.498,236.464 C108.482,237.456005 108.649998,238.287997 109.002,238.96 C109.354002,239.632003 109.825997,240.131998 110.418,240.46 C111.010003,240.788002 111.649997,240.952 112.338,240.952 C112.770002,240.952 113.161998,240.876001 113.514,240.724 C113.866002,240.571999 114.161999,240.396001 114.402,240.196 C114.642001,239.995999 114.81,239.840001 114.906,239.728 C114.922,239.728 114.958,239.756 115.014,239.812 C115.07,239.868 115.098,239.944 115.098,240.04 C115.098,240.168001 115.050001,240.311999 114.954,240.472 C114.809999,240.696001 114.586002,240.963998 114.282,241.276 C113.977999,241.588002 113.594002,241.863999 113.13,242.104 C112.665998,242.344001 112.130003,242.464 111.522,242.464 C110.609996,242.464 109.802004,242.248002 109.098,241.816 C108.393997,241.383998 107.842002,240.800004 107.442,240.064 C107.041998,239.327996 106.842,238.504005 106.842,237.592 C106.842,236.807996 106.981999,236.076003 107.262,235.396 C107.542001,234.715997 107.909998,234.124003 108.366,233.62 C108.822002,233.115997 109.321997,232.720001 109.866,232.432 C110.410003,232.143999 110.937998,232 111.45,232 C112.154004,232 112.733998,232.119999 113.19,232.36 C113.646002,232.600001 114.005999,232.895998 114.27,233.248 C114.534001,233.600002 114.718,233.951998 114.822,234.304 C114.926001,234.656002 114.978,234.951999 114.978,235.192 C114.978,235.528002 114.938,235.791999 114.858,235.984 C114.778,236.176001 114.626001,236.28 114.402,236.296 C114.257999,236.312 113.974002,236.324 113.55,236.332 C113.125998,236.34 112.642003,236.352 112.098,236.368 C111.553997,236.384 111.018003,236.4 110.49,236.416 C109.961997,236.432 109.514002,236.444 109.146,236.452 C108.777998,236.46 108.562,236.464 108.498,236.464 Z M108.618,235.6 L112.434,235.6 C112.578001,235.6 112.702,235.56 112.806,235.48 C112.910001,235.4 112.97,235.256001 112.986,235.048 C113.002,234.855999 112.946001,234.584002 112.818,234.232 C112.689999,233.879998 112.486001,233.560001 112.206,233.272 C111.925999,232.983999 111.546002,232.84 111.066,232.84 C110.569998,232.84 110.162002,232.979999 109.842,233.26 C109.521998,233.540001 109.270001,233.859998 109.086,234.22 C108.901999,234.580002 108.774,234.899999 108.702,235.18 C108.63,235.460001 108.602,235.6 108.618,235.6 Z M124.914,233.224 C124.914,233.640002 124.818001,233.931999 124.626,234.1 C124.433999,234.268001 124.234001,234.352 124.026,234.352 C123.769999,234.352 123.530001,234.240001 123.306,234.016 C123.081999,233.791999 122.866001,233.616001 122.658,233.488 C122.401999,233.311999 122.194001,233.192 122.034,233.128 C121.873999,233.064 121.642002,233.032 121.338,233.032 C120.921998,233.032 120.510002,233.187998 120.102,233.5 C119.693998,233.812002 119.358001,234.255997 119.094,234.832 C118.829999,235.408003 118.698,236.111996 118.698,236.944 C118.698,238.304007 119.065996,239.303997 119.802,239.944 C120.538004,240.584003 121.433995,240.904 122.49,240.904 C123.146003,240.904 123.685998,240.752002 124.11,240.448 C124.534002,240.143998 124.825999,239.904001 124.986,239.728 C125.002,239.728 125.038,239.756 125.094,239.812 C125.15,239.868 125.178,239.944 125.178,240.04 C125.178,240.168001 125.130001,240.311999 125.034,240.472 C124.889999,240.696001 124.666002,240.963998 124.362,241.276 C124.057999,241.588002 123.674002,241.863999 123.21,242.104 C122.745998,242.344001 122.210003,242.464 121.602,242.464 C120.657995,242.464 119.830004,242.240002 119.118,241.792 C118.405997,241.343998 117.854002,240.760004 117.462,240.04 C117.069998,239.319996 116.874,238.552004 116.874,237.736 C116.874,236.871996 117.053998,236.092003 117.414,235.396 C117.774002,234.699997 118.237997,234.096003 118.806,233.584 C119.374003,233.071997 119.989997,232.680001 120.654,232.408 C121.318003,232.135999 121.953997,232 122.562,232 C123.426004,232 124.129997,232.191998 124.674,232.576 C124.722,232.624 124.774,232.711999 124.83,232.84 C124.886,232.968001 124.914,233.095999 124.914,233.224 Z M129.618,232.144 L132.642,232.144 C132.722,232.144 132.762,232.231999 132.762,232.408 C132.762,232.648001 132.650001,232.879999 132.426,233.104 L129.618,233.104 L129.618,239.248 C129.618,240.528006 130.137995,241.168 131.178,241.168 C131.530002,241.168 131.849999,241.096001 132.138,240.952 C132.426002,240.807999 132.61,240.704 132.69,240.64 C132.738,240.656 132.762,240.704 132.762,240.784 C132.762,240.960001 132.73,241.08 132.666,241.144 C132.554,241.272001 132.382001,241.439999 132.15,241.648 C131.917999,241.856001 131.642002,242.039999 131.322,242.2 C131.001998,242.360001 130.650002,242.44 130.266,242.44 C129.865998,242.44 129.478002,242.368001 129.102,242.224 C128.725998,242.079999 128.418001,241.824002 128.178,241.456 C127.937999,241.087998 127.818,240.568003 127.818,239.896 L127.818,233.104 L126.45,233.104 C126.418,233.104 126.394,233.076 126.378,233.02 C126.362,232.964 126.354,232.92 126.354,232.888 C126.354,232.856 126.402,232.780001 126.498,232.66 C126.594001,232.539999 126.694,232.424001 126.798,232.312 L126.954,232.144 L127.818,232.144 L127.818,230.68 C127.978001,230.503999 128.165999,230.300001 128.382,230.068 C128.598001,229.835999 128.793999,229.620001 128.97,229.42 C129.146001,229.219999 129.242,229.112 129.258,229.096 C129.322,229.032 129.398,229 129.486,229 C129.574001,229 129.618,229.024 129.618,229.072 L129.618,232.144 Z M42.2460001,250.864 C42.6460021,250.864 42.9979985,250.852 43.3020001,250.828 C43.6060016,250.804 43.8859988,250.784 44.1420001,250.768 C44.2380005,251.072002 44.4179987,251.543997 44.6820001,252.184 C44.9460014,252.824003 45.2579983,253.579996 45.6180001,254.452 C45.9780019,255.324004 46.365998,256.247995 46.7820001,257.224 C47.1980021,258.200005 47.6059981,259.171995 48.0060001,260.14 C48.4060021,261.108005 48.7739984,262.007996 49.1100001,262.84 C49.1260001,262.872 49.1579998,262.888 49.2060001,262.888 C49.2540003,262.888 49.286,262.856 49.3020001,262.792 C49.7660024,261.607994 50.1819982,260.540005 50.5500001,259.588 C50.9180019,258.635995 51.2899982,257.684005 51.6660001,256.732 C52.0420019,255.779995 52.4539978,254.728006 52.9020001,253.576 C53.0460008,253.207998 53.1979993,252.808002 53.3580001,252.376 C53.5180009,251.943998 53.6539995,251.568002 53.7660001,251.248 L53.9340001,250.768 C54.6860038,250.816 55.3019977,250.84 55.7820001,250.84 C56.1980021,250.84 56.6659975,250.832 57.1860001,250.816 C57.7060027,250.8 58.1099986,250.784 58.3980001,250.768 C58.4140001,250.8 58.43,250.919999 58.4460001,251.128 L58.4700001,251.44 C58.3579995,251.44 58.1780013,251.456 57.9300001,251.488 C57.6819988,251.52 57.4460012,251.568 57.2220001,251.632 C56.9979989,251.696 56.8620003,251.768 56.8140001,251.848 C56.7659998,251.960001 56.7340001,252.103999 56.7180001,252.28 C56.702,252.456001 56.6940001,252.615999 56.6940001,252.76 C56.7100001,253.160002 56.726,253.767996 56.7420001,254.584 C56.7580001,255.400004 56.7779999,256.315995 56.8020001,257.332 C56.8260002,258.348005 56.8499999,259.351995 56.8740001,260.344 C56.8980002,261.336005 56.918,262.215996 56.9340001,262.984 C56.9500001,263.432002 56.9739999,263.855998 57.0060001,264.256 C57.0380002,264.656002 57.1099995,264.991999 57.2220001,265.264 C57.2700003,265.376001 57.4139989,265.46 57.6540001,265.516 C57.8940013,265.572 58.1379988,265.612 58.3860001,265.636 C58.6340013,265.66 58.7899997,265.672 58.8540001,265.672 C58.9180004,265.784001 58.9460001,265.915999 58.9380001,266.068 C58.93,266.220001 58.9180001,266.312 58.9020001,266.344 C58.4379977,266.312 57.9860023,266.284 57.5460001,266.26 C57.1059979,266.236 56.6300026,266.224 56.1180001,266.224 C55.5739973,266.224 55.1020021,266.236 54.7020001,266.26 C54.3019981,266.284 53.8300028,266.312 53.2860001,266.344 C53.27,266.312 53.2540001,266.216001 53.2380001,266.056 C53.222,265.895999 53.2379998,265.768 53.2860001,265.672 C53.3820005,265.672 53.533999,265.66 53.7420001,265.636 C53.9500011,265.612 54.157999,265.58 54.3660001,265.54 C54.5740011,265.5 54.7259996,265.456 54.8220001,265.408 C54.9020005,265.36 54.9579999,265.224001 54.9900001,265 C55.0220002,264.775999 55.0380001,264.584001 55.0380001,264.424 C55.0380001,264.247999 55.0300001,264.020001 55.0140001,263.74 C54.998,263.459999 54.9900001,263.232001 54.9900001,263.056 C54.9579999,261.919994 54.9260002,260.828005 54.8940001,259.78 C54.8619999,258.731995 54.8300002,257.660005 54.7980001,256.564 C54.7659999,255.467995 54.7260003,254.288006 54.6780001,253.024 C54.6780001,252.976 54.6620002,252.888001 54.6300001,252.76 C54.5979999,252.631999 54.5420005,252.568 54.4620001,252.568 C54.4299999,252.568 54.3900003,252.623999 54.3420001,252.736 C53.8619977,253.936006 53.4180021,255.047995 53.0100001,256.072 C52.601998,257.096005 52.206002,258.083995 51.8220001,259.036 C51.4379981,259.988005 51.050002,260.955995 50.6580001,261.94 C50.2659981,262.924005 49.8460023,263.983994 49.3980001,265.12 C49.3659999,265.184 49.2940006,265.311999 49.1820001,265.504 C49.0699995,265.696001 48.9540007,265.875999 48.8340001,266.044 C48.7139995,266.212001 48.6060005,266.304 48.5100001,266.32 C48.4779999,266.336 48.4220005,266.328 48.3420001,266.296 C48.326,266.28 48.3100001,266.272 48.2940001,266.272 L42.5820001,252.592 C42.566,253.616005 42.5420002,254.671995 42.5100001,255.76 C42.4779999,256.848005 42.4500002,257.903995 42.4260001,258.928 C42.4019999,259.952005 42.3780002,260.875996 42.3540001,261.7 C42.3299999,262.524004 42.3100001,263.187997 42.2940001,263.692 C42.278,264.196003 42.2700001,264.472 42.2700001,264.52 C42.2700001,264.632001 42.278,264.755999 42.2940001,264.892 C42.3100001,265.028001 42.3339999,265.144 42.3660001,265.24 C42.4140003,265.352001 42.5779987,265.44 42.8580001,265.504 C43.1380015,265.568 43.4219986,265.612 43.7100001,265.636 C43.9980015,265.66 44.1739997,265.672 44.2380001,265.672 C44.3020004,265.736 44.3260001,265.855999 44.3100001,266.032 C44.294,266.208001 44.2780001,266.312 44.2620001,266.344 C43.7979977,266.312 43.3980017,266.284 43.0620001,266.26 C42.7259984,266.236 42.3020026,266.224 41.7900001,266.224 C41.2459973,266.224 40.7900019,266.236 40.4220001,266.26 C40.0539982,266.284 39.5980028,266.312 39.0540001,266.344 C39.038,266.312 39.0220001,266.216001 39.0060001,266.056 C38.99,265.895999 39.0059998,265.768 39.0540001,265.672 C39.1500005,265.672 39.3379987,265.656 39.6180001,265.624 C39.8980015,265.592 40.1739987,265.544 40.4460001,265.48 C40.7180014,265.416 40.8859997,265.336 40.9500001,265.24 C41.0620006,265.079999 41.1339999,264.908001 41.1660001,264.724 C41.1980002,264.539999 41.222,264.320001 41.2380001,264.064 C41.2860003,262.655993 41.3299999,261.304006 41.3700001,260.008 C41.4100003,258.711994 41.4419999,257.548005 41.4660001,256.516 C41.4900002,255.483995 41.51,254.644003 41.5260001,253.996 C41.5420001,253.347997 41.5500001,252.968001 41.5500001,252.856 C41.5500001,252.679999 41.5460001,252.512001 41.5380001,252.352 C41.53,252.191999 41.5020003,252.048001 41.4540001,251.92 C41.4219999,251.824 41.2900012,251.74 41.0580001,251.668 C40.8259989,251.596 40.5860013,251.54 40.3380001,251.5 C40.0899988,251.46 39.9180005,251.44 39.8220001,251.44 C39.806,251.44 39.7980001,251.332001 39.7980001,251.116 C39.7980001,250.899999 39.806,250.784 39.8220001,250.768 C40.1900019,250.784 40.4859989,250.8 40.7100001,250.816 C40.9340012,250.832 41.1579989,250.844 41.3820001,250.852 C41.6060012,250.86 41.8939983,250.864 42.2460001,250.864 Z M65.1420001,256.048 C65.5900023,256.048 66.0099981,256.191999 66.4020001,256.48 C66.794002,256.768001 67.1099989,257.151998 67.3500001,257.632 C67.5900013,258.112002 67.7100001,258.655997 67.7100001,259.264 L67.7100001,264.088 C67.7100001,264.392002 67.7659995,264.651999 67.8780001,264.868 C67.9900006,265.084001 68.1739988,265.192 68.4300001,265.192 C68.6540012,265.192 68.8299994,265.144 68.9580001,265.048 C69.0860007,264.952 69.1659999,264.896 69.1980001,264.88 C69.2300002,264.88 69.254,264.904 69.2700001,264.952 C69.2860001,265 69.2940001,265.04 69.2940001,265.072 C69.2940001,265.248001 69.2540005,265.399999 69.1740001,265.528 C69.0779996,265.608 68.9220011,265.719999 68.7060001,265.864 C68.489999,266.008001 68.2660012,266.135999 68.0340001,266.248 C67.8019989,266.360001 67.5980009,266.416 67.4220001,266.416 C67.0859984,266.416 66.7860014,266.248002 66.5220001,265.912 C66.2579987,265.575998 66.0860005,265.232002 66.0060001,264.88 C65.9419997,264.944 65.7940012,265.063999 65.5620001,265.24 C65.3299989,265.416001 65.0620016,265.595999 64.7580001,265.78 C64.4539985,265.964001 64.1540015,266.123999 63.8580001,266.26 C63.5619986,266.396001 63.3100011,266.464 63.1020001,266.464 C62.3339962,266.464 61.6860027,266.204003 61.1580001,265.684 C60.6299974,265.163997 60.3660001,264.528004 60.3660001,263.776 C60.3660001,263.295998 60.4979987,262.884002 60.7620001,262.54 C61.0260014,262.195998 61.2859988,261.976 61.5420001,261.88 C61.9900023,261.719999 62.4899973,261.548001 63.0420001,261.364 C63.5940028,261.179999 64.1099977,261.000001 64.5900001,260.824 C65.0700025,260.647999 65.4219989,260.512 65.6460001,260.416 C65.7740007,260.368 65.8539999,260.308 65.8860001,260.236 C65.9180002,260.164 65.9340001,260.024001 65.9340001,259.816 L65.9340001,259.192 C65.9340001,258.839998 65.8460009,258.492002 65.6700001,258.148 C65.4939992,257.803998 65.2540016,257.516001 64.9500001,257.284 C64.6459985,257.051999 64.302002,256.936 63.9180001,256.936 C63.5179981,256.936 63.222001,257.063999 63.0300001,257.32 C62.8379991,257.576001 62.7020005,257.935998 62.6220001,258.4 C62.4779993,259.152004 62.110003,259.528 61.5180001,259.528 C61.2619988,259.528 61.0660007,259.424001 60.9300001,259.216 C60.7939994,259.007999 60.7260001,258.784001 60.7260001,258.544 C60.7260001,258.496 60.7419999,258.404001 60.7740001,258.268 C60.8060002,258.131999 60.8459998,258.032 60.8940001,257.968 C61.1340013,257.743999 61.4779978,257.480002 61.9260001,257.176 C62.3740023,256.871998 62.8819972,256.608001 63.4500001,256.384 C64.0180029,256.159999 64.5819973,256.048 65.1420001,256.048 Z M63.8940001,265.192 C64.1660014,265.192 64.4619985,265.128001 64.7820001,265 C65.1020017,264.871999 65.3739989,264.732001 65.5980001,264.58 C65.8220012,264.427999 65.9340001,264.312 65.9340001,264.232 L65.9340001,261.04 C65.6299985,261.136 65.2460024,261.255999 64.7820001,261.4 C64.3179977,261.544001 63.9740012,261.656 63.7500001,261.736 C63.333998,261.896001 62.9900014,262.127998 62.7180001,262.432 C62.4459987,262.736002 62.3100001,263.111998 62.3100001,263.56 C62.3100001,263.992002 62.4619985,264.371998 62.7660001,264.7 C63.0700016,265.028002 63.4459978,265.192 63.8940001,265.192 Z M77.1420001,256 C77.9900043,256 78.6299979,256.175998 79.0620001,256.528 C79.4940022,256.880002 79.7859993,257.423996 79.9380001,258.16 C80.0900008,258.896004 80.1660001,259.831994 80.1660001,260.968 L80.1660001,263.56 C80.1660001,263.912002 80.17,264.239998 80.1780001,264.544 C80.1860001,264.848002 80.2219997,265.095999 80.2860001,265.288 C80.3180002,265.368 80.4339991,265.44 80.6340001,265.504 C80.8340011,265.568 81.0459989,265.612 81.2700001,265.636 C81.4940012,265.66 81.6539996,265.672 81.7500001,265.672 C81.7980003,265.736 81.826,265.847999 81.8340001,266.008 C81.8420001,266.168001 81.8140004,266.28 81.7500001,266.344 L80.4900001,266.26 C80.1299983,266.236 79.7180024,266.224 79.2540001,266.224 C78.8059978,266.224 78.3980019,266.236 78.0300001,266.26 C77.6619982,266.284 77.2380025,266.312 76.7580001,266.344 C76.6939997,266.28 76.666,266.168001 76.6740001,266.008 C76.6820001,265.847999 76.7099998,265.736 76.7580001,265.672 C76.8540005,265.672 77.0179989,265.66 77.2500001,265.636 C77.4820012,265.612 77.701999,265.568 77.9100001,265.504 C78.1180011,265.44 78.23,265.368 78.2460001,265.288 C78.3100004,265.095999 78.346,264.848002 78.3540001,264.544 C78.3620001,264.239998 78.3660001,263.912002 78.3660001,263.56 L78.3660001,261.208 C78.3660001,260.231995 78.3020007,259.468003 78.1740001,258.916 C78.0459994,258.363997 77.8140017,257.968001 77.4780001,257.728 C77.1419984,257.487999 76.6700031,257.368 76.0620001,257.368 C75.7739986,257.368 75.4580018,257.459999 75.1140001,257.644 C74.7699983,257.828001 74.4700013,258.023999 74.2140001,258.232 C73.9579988,258.440001 73.8300001,258.584 73.8300001,258.664 L73.8300001,263.56 C73.8300001,263.912002 73.834,264.239998 73.8420001,264.544 C73.8500001,264.848002 73.8859997,265.095999 73.9500001,265.288 C73.9820002,265.368 74.0979991,265.44 74.2980001,265.504 C74.4980011,265.568 74.7099989,265.612 74.9340001,265.636 C75.1580012,265.66 75.3179996,265.672 75.4140001,265.672 C75.4620003,265.736 75.49,265.847999 75.4980001,266.008 C75.5060001,266.168001 75.4780004,266.28 75.4140001,266.344 L74.1540001,266.26 C73.7939983,266.236 73.3820024,266.224 72.9180001,266.224 C72.4699978,266.224 72.0620019,266.236 71.6940001,266.26 C71.3259982,266.284 70.9020025,266.312 70.4220001,266.344 C70.3579997,266.28 70.33,266.168001 70.3380001,266.008 C70.3460001,265.847999 70.3739998,265.736 70.4220001,265.672 C70.5180005,265.672 70.6819989,265.66 70.9140001,265.636 C71.1460012,265.612 71.365999,265.568 71.5740001,265.504 C71.7820011,265.44 71.894,265.368 71.9100001,265.288 C71.9740004,265.095999 72.01,264.848002 72.0180001,264.544 C72.0260001,264.239998 72.0300001,263.912002 72.0300001,263.56 L72.0300001,259.288 C72.0300001,259.127999 72.0260001,258.904001 72.0180001,258.616 C72.01,258.327999 71.9740004,258.112001 71.9100001,257.968 C71.8619998,257.823999 71.7260012,257.724 71.5020001,257.668 C71.2779989,257.612 71.0540012,257.58 70.8300001,257.572 C70.6059989,257.564 70.4620004,257.56 70.3980001,257.56 C70.382,257.528 70.3660001,257.432001 70.3500001,257.272 C70.334,257.111999 70.3499998,257 70.3980001,256.936 C71.0060031,256.856 71.5979972,256.736001 72.1740001,256.576 C72.7500029,256.415999 73.2699977,256.208001 73.7340001,255.952 C73.7980004,255.952 73.8579998,256 73.9140001,256.096 C73.9700003,256.192 73.9980001,256.272 73.9980001,256.336 C73.9980001,256.384 73.9860002,256.507999 73.9620001,256.708 C73.9379999,256.908001 73.9140002,257.103999 73.8900001,257.296 C73.8659999,257.488001 73.8540001,257.616 73.8540001,257.68 C73.8540001,257.744 73.8699999,257.776 73.9020001,257.776 C73.9180001,257.776 73.9419999,257.76 73.9740001,257.728 C74.1340009,257.551999 74.3939983,257.328001 74.7540001,257.056 C75.1140019,256.783999 75.5099979,256.540001 75.9420001,256.324 C76.3740022,256.107999 76.7739982,256 77.1420001,256 Z M87.6780001,256.048 C88.1260023,256.048 88.5459981,256.191999 88.9380001,256.48 C89.330002,256.768001 89.6459989,257.151998 89.8860001,257.632 C90.1260013,258.112002 90.2460001,258.655997 90.2460001,259.264 L90.2460001,264.088 C90.2460001,264.392002 90.3019995,264.651999 90.4140001,264.868 C90.5260006,265.084001 90.7099988,265.192 90.9660001,265.192 C91.1900012,265.192 91.3659994,265.144 91.4940001,265.048 C91.6220007,264.952 91.7019999,264.896 91.7340001,264.88 C91.7660002,264.88 91.79,264.904 91.8060001,264.952 C91.8220001,265 91.8300001,265.04 91.8300001,265.072 C91.8300001,265.248001 91.7900005,265.399999 91.7100001,265.528 C91.6139996,265.608 91.4580011,265.719999 91.2420001,265.864 C91.025999,266.008001 90.8020012,266.135999 90.5700001,266.248 C90.3379989,266.360001 90.1340009,266.416 89.9580001,266.416 C89.6219984,266.416 89.3220014,266.248002 89.0580001,265.912 C88.7939987,265.575998 88.6220005,265.232002 88.5420001,264.88 C88.4779997,264.944 88.3300012,265.063999 88.0980001,265.24 C87.8659989,265.416001 87.5980016,265.595999 87.2940001,265.78 C86.9899985,265.964001 86.6900015,266.123999 86.3940001,266.26 C86.0979986,266.396001 85.8460011,266.464 85.6380001,266.464 C84.8699962,266.464 84.2220027,266.204003 83.6940001,265.684 C83.1659974,265.163997 82.9020001,264.528004 82.9020001,263.776 C82.9020001,263.295998 83.0339987,262.884002 83.2980001,262.54 C83.5620014,262.195998 83.8219988,261.976 84.0780001,261.88 C84.5260023,261.719999 85.0259973,261.548001 85.5780001,261.364 C86.1300028,261.179999 86.6459977,261.000001 87.1260001,260.824 C87.6060025,260.647999 87.9579989,260.512 88.1820001,260.416 C88.3100007,260.368 88.3899999,260.308 88.4220001,260.236 C88.4540002,260.164 88.4700001,260.024001 88.4700001,259.816 L88.4700001,259.192 C88.4700001,258.839998 88.3820009,258.492002 88.2060001,258.148 C88.0299992,257.803998 87.7900016,257.516001 87.4860001,257.284 C87.1819985,257.051999 86.838002,256.936 86.4540001,256.936 C86.0539981,256.936 85.758001,257.063999 85.5660001,257.32 C85.3739991,257.576001 85.2380005,257.935998 85.1580001,258.4 C85.0139993,259.152004 84.646003,259.528 84.0540001,259.528 C83.7979988,259.528 83.6020007,259.424001 83.4660001,259.216 C83.3299994,259.007999 83.2620001,258.784001 83.2620001,258.544 C83.2620001,258.496 83.2779999,258.404001 83.3100001,258.268 C83.3420002,258.131999 83.3819998,258.032 83.4300001,257.968 C83.6700013,257.743999 84.0139978,257.480002 84.4620001,257.176 C84.9100023,256.871998 85.4179972,256.608001 85.9860001,256.384 C86.5540029,256.159999 87.1179973,256.048 87.6780001,256.048 Z M86.4300001,265.192 C86.7020014,265.192 86.9979985,265.128001 87.3180001,265 C87.6380017,264.871999 87.9099989,264.732001 88.1340001,264.58 C88.3580012,264.427999 88.4700001,264.312 88.4700001,264.232 L88.4700001,261.04 C88.1659985,261.136 87.7820024,261.255999 87.3180001,261.4 C86.8539977,261.544001 86.5100012,261.656 86.2860001,261.736 C85.869998,261.896001 85.5260014,262.127998 85.2540001,262.432 C84.9819987,262.736002 84.8460001,263.111998 84.8460001,263.56 C84.8460001,263.992002 84.9979985,264.371998 85.3020001,264.7 C85.6060016,265.028002 85.9819978,265.192 86.4300001,265.192 Z M99.1740001,264.712 C99.7980032,264.712 100.385997,264.823999 100.938,265.048 C101.490003,265.272001 101.937998,265.567998 102.282,265.936 C102.626002,266.304002 102.798,266.711998 102.798,267.16 C102.798,267.640002 102.634002,268.135997 102.306,268.648 C101.977998,269.160003 101.534003,269.639998 100.974,270.088 C100.413997,270.536002 99.7660037,270.899999 99.0300001,271.18 C98.2939964,271.460001 97.5180041,271.6 96.7020001,271.6 C96.0779969,271.6 95.4540032,271.496001 94.8300001,271.288 C94.2059969,271.079999 93.6860021,270.764002 93.2700001,270.34 C92.853998,269.915998 92.6460001,269.384003 92.6460001,268.744 C92.6460001,268.391998 92.7979985,268.056002 93.1020001,267.736 C93.4060016,267.415998 93.7579981,267.128001 94.1580001,266.872 C94.5580021,266.615999 94.8859988,266.424001 95.1420001,266.296 C94.8699987,266.2 94.5860015,266.056001 94.2900001,265.864 C93.9939986,265.671999 93.7420011,265.428001 93.5340001,265.132 C93.325999,264.835999 93.2220001,264.496002 93.2220001,264.112 C93.3660008,263.951999 93.5699987,263.764001 93.8340001,263.548 C94.0980014,263.331999 94.3619987,263.128001 94.6260001,262.936 C94.8900014,262.743999 95.0939993,262.608 95.2380001,262.528 C94.6619972,262.207998 94.1940019,261.772003 93.8340001,261.22 C93.4739983,260.667997 93.2940001,260.104003 93.2940001,259.528 C93.2940001,258.903997 93.4659983,258.324003 93.8100001,257.788 C94.1540018,257.251997 94.6259971,256.816002 95.2260001,256.48 C95.8260031,256.143998 96.5019963,255.976 97.2540001,255.976 C97.7660026,255.976 98.1979983,256.043999 98.5500001,256.18 C98.9020018,256.316001 99.181999,256.424 99.3900001,256.504 C99.6140012,256.584 99.73,256.624 99.7380001,256.624 C99.7460001,256.624 99.8059995,256.64 99.9180001,256.672 L102.438,256.312 C102.582001,256.36 102.654,256.439999 102.654,256.552 C102.654,256.648 102.598001,256.811999 102.486,257.044 C102.374,257.276001 102.254001,257.432 102.126,257.512 C101.933999,257.496 101.718001,257.484 101.478,257.476 C101.237999,257.468 101.030001,257.456 100.854,257.44 L100.59,257.416 C100.526,257.416 100.494,257.44 100.494,257.488 C100.558,257.552 100.681999,257.787998 100.866,258.196 C101.050001,258.604002 101.142,259.079997 101.142,259.624 C101.142,260.168003 100.970002,260.703997 100.626,261.232 C100.281998,261.760003 99.8100031,262.195998 99.2100001,262.54 C98.6099971,262.884002 97.9340038,263.056 97.1820001,263.056 C96.973999,263.056 96.7340014,263.032 96.4620001,262.984 C96.1899987,262.936 95.9900007,262.888 95.8620001,262.84 C95.653999,262.952001 95.458001,263.103999 95.2740001,263.296 C95.0899991,263.488001 94.9980001,263.679999 94.9980001,263.872 C94.9980001,263.984001 95.1179989,264.151999 95.3580001,264.376 C95.5980013,264.600001 95.9499977,264.712 96.4140001,264.712 L99.1740001,264.712 Z M98.0940001,266.368 C97.9499993,266.368 97.7140017,266.372 97.3860001,266.38 C97.0579984,266.388 96.7460015,266.4 96.4500001,266.416 C96.1539986,266.432 95.9740004,266.456 95.9100001,266.488 C95.6539988,266.648001 95.3580017,266.871999 95.0220001,267.16 C94.6859984,267.448001 94.5180001,267.743998 94.5180001,268.048 C94.5180001,268.800004 94.7899973,269.427997 95.3340001,269.932 C95.8780028,270.436003 96.6459951,270.688 97.6380001,270.688 C98.1820028,270.688 98.7259973,270.568001 99.2700001,270.328 C99.8140028,270.087999 100.269998,269.776002 100.638,269.392 C101.006002,269.007998 101.19,268.600002 101.19,268.168 C101.19,267.943999 101.086001,267.692001 100.878,267.412 C100.669999,267.131999 100.342002,266.888001 99.8940001,266.68 C99.4459978,266.471999 98.8460038,266.368 98.0940001,266.368 Z M97.1580001,256.696 C96.7099978,256.696 96.3340016,256.831999 96.0300001,257.104 C95.7259985,257.376001 95.4940009,257.719998 95.3340001,258.136 C95.1739993,258.552002 95.0940001,258.983998 95.0940001,259.432 C95.0940001,259.912002 95.1819992,260.375998 95.3580001,260.824 C95.5340009,261.272002 95.7899984,261.639999 96.1260001,261.928 C96.4620017,262.216001 96.8699977,262.36 97.3500001,262.36 C97.7820022,262.36 98.1459986,262.228001 98.4420001,261.964 C98.7380015,261.699999 98.9619993,261.364002 99.1140001,260.956 C99.2660008,260.547998 99.3420001,260.128002 99.3420001,259.696 C99.3420001,259.199998 99.2620009,258.724002 99.1020001,258.268 C98.9419993,257.811998 98.7020017,257.436001 98.3820001,257.14 C98.0619985,256.843999 97.6540025,256.696 97.1580001,256.696 Z M105.63,260.464 C105.614,261.456005 105.781998,262.287997 106.134,262.96 C106.486002,263.632003 106.957997,264.131998 107.55,264.46 C108.142003,264.788002 108.781997,264.952 109.47,264.952 C109.902002,264.952 110.293998,264.876001 110.646,264.724 C110.998002,264.571999 111.293999,264.396001 111.534,264.196 C111.774001,263.995999 111.942,263.840001 112.038,263.728 C112.054,263.728 112.09,263.756 112.146,263.812 C112.202,263.868 112.23,263.944 112.23,264.04 C112.23,264.168001 112.182001,264.311999 112.086,264.472 C111.941999,264.696001 111.718002,264.963998 111.414,265.276 C111.109999,265.588002 110.726002,265.863999 110.262,266.104 C109.797998,266.344001 109.262003,266.464 108.654,266.464 C107.741996,266.464 106.934004,266.248002 106.23,265.816 C105.525997,265.383998 104.974002,264.800004 104.574,264.064 C104.173998,263.327996 103.974,262.504005 103.974,261.592 C103.974,260.807996 104.113999,260.076003 104.394,259.396 C104.674001,258.715997 105.041998,258.124003 105.498,257.62 C105.954002,257.115997 106.453997,256.720001 106.998,256.432 C107.542003,256.143999 108.069998,256 108.582,256 C109.286004,256 109.865998,256.119999 110.322,256.36 C110.778002,256.600001 111.137999,256.895998 111.402,257.248 C111.666001,257.600002 111.85,257.951998 111.954,258.304 C112.058001,258.656002 112.11,258.951999 112.11,259.192 C112.11,259.528002 112.07,259.791999 111.99,259.984 C111.91,260.176001 111.758001,260.28 111.534,260.296 C111.389999,260.312 111.106002,260.324 110.682,260.332 C110.257998,260.34 109.774003,260.352 109.23,260.368 C108.685997,260.384 108.150003,260.4 107.622,260.416 C107.093997,260.432 106.646002,260.444 106.278,260.452 C105.909998,260.46 105.694,260.464 105.63,260.464 Z M105.75,259.6 L109.566,259.6 C109.710001,259.6 109.834,259.56 109.938,259.48 C110.042001,259.4 110.102,259.256001 110.118,259.048 C110.134,258.855999 110.078001,258.584002 109.95,258.232 C109.821999,257.879998 109.618001,257.560001 109.338,257.272 C109.057999,256.983999 108.678002,256.84 108.198,256.84 C107.701998,256.84 107.294002,256.979999 106.974,257.26 C106.653998,257.540001 106.402001,257.859998 106.218,258.22 C106.033999,258.580002 105.906,258.899999 105.834,259.18 C105.762,259.460001 105.734,259.6 105.75,259.6 Z M120.582,256 C121.286004,256 121.857998,256.147999 122.298,256.444 C122.738002,256.740001 123.053999,257.239996 123.246,257.944 C123.758003,257.479998 124.321997,257.040002 124.938,256.624 C125.554003,256.207998 126.141997,256 126.702,256 C127.550004,256 128.189998,256.175998 128.622,256.528 C129.054002,256.880002 129.345999,257.423996 129.498,258.16 C129.650001,258.896004 129.726,259.831994 129.726,260.968 L129.726,263.56 C129.726,263.912002 129.73,264.239998 129.738,264.544 C129.746,264.848002 129.782,265.095999 129.846,265.288 C129.878,265.368 129.993999,265.44 130.194,265.504 C130.394001,265.568 130.605999,265.612 130.83,265.636 C131.054001,265.66 131.214,265.672 131.31,265.672 C131.358,265.736 131.386,265.847999 131.394,266.008 C131.402,266.168001 131.374,266.28 131.31,266.344 L130.05,266.26 C129.689998,266.236 129.278002,266.224 128.814,266.224 C128.365998,266.224 127.958002,266.236 127.59,266.26 C127.221998,266.284 126.798002,266.312 126.318,266.344 C126.254,266.28 126.226,266.168001 126.234,266.008 C126.242,265.847999 126.27,265.736 126.318,265.672 C126.414001,265.672 126.577999,265.66 126.81,265.636 C127.042001,265.612 127.261999,265.568 127.47,265.504 C127.678001,265.44 127.79,265.368 127.806,265.288 C127.854,265.127999 127.882,264.924001 127.89,264.676 C127.898,264.427999 127.902,264.152002 127.902,263.848 L127.902,261.04 C127.902,260.255996 127.850001,259.592003 127.746,259.048 C127.642,258.503997 127.438002,258.088001 127.134,257.8 C126.829999,257.511999 126.358003,257.368 125.718,257.368 C125.333998,257.368 124.966002,257.467999 124.614,257.668 C124.261998,257.868001 123.974001,258.075999 123.75,258.292 C123.525999,258.508001 123.414,258.648 123.414,258.712 C123.414,258.728 123.418,258.772 123.426,258.844 C123.434,258.916 123.438,258.968 123.438,259 C123.47,259.224001 123.494,259.503998 123.51,259.84 C123.526,260.176002 123.534,260.455999 123.534,260.68 L123.534,263.56 C123.534,263.912002 123.538,264.239998 123.546,264.544 C123.554,264.848002 123.59,265.095999 123.654,265.288 C123.686,265.368 123.801999,265.44 124.002,265.504 C124.202001,265.568 124.413999,265.612 124.638,265.636 C124.862001,265.66 125.022,265.672 125.118,265.672 C125.166,265.736 125.194,265.847999 125.202,266.008 C125.21,266.168001 125.182,266.28 125.118,266.344 L123.858,266.26 C123.497998,266.236 123.086002,266.224 122.622,266.224 C122.173998,266.224 121.766002,266.236 121.398,266.26 C121.029998,266.284 120.606002,266.312 120.126,266.344 C120.062,266.28 120.034,266.168001 120.042,266.008 C120.05,265.847999 120.078,265.736 120.126,265.672 C120.222001,265.672 120.385999,265.66 120.618,265.636 C120.850001,265.612 121.069999,265.568 121.278,265.504 C121.486001,265.44 121.598,265.368 121.614,265.288 C121.678,265.095999 121.714,264.848002 121.722,264.544 C121.73,264.239998 121.734,263.912002 121.734,263.56 L121.734,261.16 C121.734,259.735993 121.578002,258.748003 121.266,258.196 C120.953999,257.643997 120.374004,257.368 119.526,257.368 C119.173998,257.368 118.830002,257.455999 118.494,257.632 C118.157998,257.808001 117.882001,257.995999 117.666,258.196 C117.449999,258.396001 117.342,258.551999 117.342,258.664 L117.342,263.56 C117.342,263.912002 117.346,264.239998 117.354,264.544 C117.362,264.848002 117.398,265.095999 117.462,265.288 C117.494,265.368 117.609999,265.44 117.81,265.504 C118.010001,265.568 118.221999,265.612 118.446,265.636 C118.670001,265.66 118.83,265.672 118.926,265.672 C118.974,265.736 119.002,265.847999 119.01,266.008 C119.018,266.168001 118.99,266.28 118.926,266.344 L117.666,266.26 C117.305998,266.236 116.894002,266.224 116.43,266.224 C115.981998,266.224 115.574002,266.236 115.206,266.26 C114.837998,266.284 114.414002,266.312 113.934,266.344 C113.87,266.28 113.842,266.168001 113.85,266.008 C113.858,265.847999 113.886,265.736 113.934,265.672 C114.030001,265.672 114.193999,265.66 114.426,265.636 C114.658001,265.612 114.877999,265.568 115.086,265.504 C115.294001,265.44 115.406,265.368 115.422,265.288 C115.486,265.095999 115.522,264.848002 115.53,264.544 C115.538,264.239998 115.542,263.912002 115.542,263.56 L115.542,259.288 C115.542,259.127999 115.538,258.904001 115.53,258.616 C115.522,258.327999 115.486,258.112001 115.422,257.968 C115.374,257.823999 115.238001,257.724 115.014,257.668 C114.789999,257.612 114.566001,257.58 114.342,257.572 C114.117999,257.564 113.974,257.56 113.91,257.56 C113.894,257.528 113.878,257.432001 113.862,257.272 C113.846,257.111999 113.862,257 113.91,256.936 C114.518003,256.856 115.109997,256.736001 115.686,256.576 C116.262003,256.415999 116.781998,256.208001 117.246,255.952 C117.31,255.952 117.37,256 117.426,256.096 C117.482,256.192 117.51,256.272 117.51,256.336 C117.51,256.384 117.498,256.495999 117.474,256.672 L117.402,257.2 C117.378,257.376001 117.366,257.496 117.366,257.56 C117.366,257.624 117.382,257.656 117.414,257.656 C117.43,257.656 117.454,257.64 117.486,257.608 C117.678001,257.431999 117.933998,257.220001 118.254,256.972 C118.574002,256.723999 118.937998,256.500001 119.346,256.3 C119.754002,256.099999 120.165998,256 120.582,256 Z M134.19,260.464 C134.174,261.456005 134.341998,262.287997 134.694,262.96 C135.046002,263.632003 135.517997,264.131998 136.11,264.46 C136.702003,264.788002 137.341997,264.952 138.03,264.952 C138.462002,264.952 138.853998,264.876001 139.206,264.724 C139.558002,264.571999 139.853999,264.396001 140.094,264.196 C140.334001,263.995999 140.502,263.840001 140.598,263.728 C140.614,263.728 140.65,263.756 140.706,263.812 C140.762,263.868 140.79,263.944 140.79,264.04 C140.79,264.168001 140.742001,264.311999 140.646,264.472 C140.501999,264.696001 140.278002,264.963998 139.974,265.276 C139.669999,265.588002 139.286002,265.863999 138.822,266.104 C138.357998,266.344001 137.822003,266.464 137.214,266.464 C136.301996,266.464 135.494004,266.248002 134.79,265.816 C134.085997,265.383998 133.534002,264.800004 133.134,264.064 C132.733998,263.327996 132.534,262.504005 132.534,261.592 C132.534,260.807996 132.673999,260.076003 132.954,259.396 C133.234001,258.715997 133.601998,258.124003 134.058,257.62 C134.514002,257.115997 135.013997,256.720001 135.558,256.432 C136.102003,256.143999 136.629998,256 137.142,256 C137.846004,256 138.425998,256.119999 138.882,256.36 C139.338002,256.600001 139.697999,256.895998 139.962,257.248 C140.226001,257.600002 140.41,257.951998 140.514,258.304 C140.618001,258.656002 140.67,258.951999 140.67,259.192 C140.67,259.528002 140.63,259.791999 140.55,259.984 C140.47,260.176001 140.318001,260.28 140.094,260.296 C139.949999,260.312 139.666002,260.324 139.242,260.332 C138.817998,260.34 138.334003,260.352 137.79,260.368 C137.245997,260.384 136.710003,260.4 136.182,260.416 C135.653997,260.432 135.206002,260.444 134.838,260.452 C134.469998,260.46 134.254,260.464 134.19,260.464 Z M134.31,259.6 L138.126,259.6 C138.270001,259.6 138.394,259.56 138.498,259.48 C138.602001,259.4 138.662,259.256001 138.678,259.048 C138.694,258.855999 138.638001,258.584002 138.51,258.232 C138.381999,257.879998 138.178001,257.560001 137.898,257.272 C137.617999,256.983999 137.238002,256.84 136.758,256.84 C136.261998,256.84 135.854002,256.979999 135.534,257.26 C135.213998,257.540001 134.962001,257.859998 134.778,258.22 C134.593999,258.580002 134.466,258.899999 134.394,259.18 C134.322,259.460001 134.294,259.6 134.31,259.6 Z M149.214,256 C150.062004,256 150.701998,256.175998 151.134,256.528 C151.566002,256.880002 151.857999,257.423996 152.01,258.16 C152.162001,258.896004 152.238,259.831994 152.238,260.968 L152.238,263.56 C152.238,263.912002 152.242,264.239998 152.25,264.544 C152.258,264.848002 152.294,265.095999 152.358,265.288 C152.39,265.368 152.505999,265.44 152.706,265.504 C152.906001,265.568 153.117999,265.612 153.342,265.636 C153.566001,265.66 153.726,265.672 153.822,265.672 C153.87,265.736 153.898,265.847999 153.906,266.008 C153.914,266.168001 153.886,266.28 153.822,266.344 L152.562,266.26 C152.201998,266.236 151.790002,266.224 151.326,266.224 C150.877998,266.224 150.470002,266.236 150.102,266.26 C149.733998,266.284 149.310002,266.312 148.83,266.344 C148.766,266.28 148.738,266.168001 148.746,266.008 C148.754,265.847999 148.782,265.736 148.83,265.672 C148.926001,265.672 149.089999,265.66 149.322,265.636 C149.554001,265.612 149.773999,265.568 149.982,265.504 C150.190001,265.44 150.302,265.368 150.318,265.288 C150.382,265.095999 150.418,264.848002 150.426,264.544 C150.434,264.239998 150.438,263.912002 150.438,263.56 L150.438,261.208 C150.438,260.231995 150.374001,259.468003 150.246,258.916 C150.117999,258.363997 149.886002,257.968001 149.55,257.728 C149.213998,257.487999 148.742003,257.368 148.134,257.368 C147.845999,257.368 147.530002,257.459999 147.186,257.644 C146.841998,257.828001 146.542001,258.023999 146.286,258.232 C146.029999,258.440001 145.902,258.584 145.902,258.664 L145.902,263.56 C145.902,263.912002 145.906,264.239998 145.914,264.544 C145.922,264.848002 145.958,265.095999 146.022,265.288 C146.054,265.368 146.169999,265.44 146.37,265.504 C146.570001,265.568 146.781999,265.612 147.006,265.636 C147.230001,265.66 147.39,265.672 147.486,265.672 C147.534,265.736 147.562,265.847999 147.57,266.008 C147.578,266.168001 147.55,266.28 147.486,266.344 L146.226,266.26 C145.865998,266.236 145.454002,266.224 144.99,266.224 C144.541998,266.224 144.134002,266.236 143.766,266.26 C143.397998,266.284 142.974002,266.312 142.494,266.344 C142.43,266.28 142.402,266.168001 142.41,266.008 C142.418,265.847999 142.446,265.736 142.494,265.672 C142.590001,265.672 142.753999,265.66 142.986,265.636 C143.218001,265.612 143.437999,265.568 143.646,265.504 C143.854001,265.44 143.966,265.368 143.982,265.288 C144.046,265.095999 144.082,264.848002 144.09,264.544 C144.098,264.239998 144.102,263.912002 144.102,263.56 L144.102,259.288 C144.102,259.127999 144.098,258.904001 144.09,258.616 C144.082,258.327999 144.046,258.112001 143.982,257.968 C143.934,257.823999 143.798001,257.724 143.574,257.668 C143.349999,257.612 143.126001,257.58 142.902,257.572 C142.677999,257.564 142.534,257.56 142.47,257.56 C142.454,257.528 142.438,257.432001 142.422,257.272 C142.406,257.111999 142.422,257 142.47,256.936 C143.078003,256.856 143.669997,256.736001 144.246,256.576 C144.822003,256.415999 145.341998,256.208001 145.806,255.952 C145.87,255.952 145.93,256 145.986,256.096 C146.042,256.192 146.07,256.272 146.07,256.336 C146.07,256.384 146.058,256.507999 146.034,256.708 C146.01,256.908001 145.986,257.103999 145.962,257.296 C145.938,257.488001 145.926,257.616 145.926,257.68 C145.926,257.744 145.942,257.776 145.974,257.776 C145.99,257.776 146.014,257.76 146.046,257.728 C146.206001,257.551999 146.465998,257.328001 146.826,257.056 C147.186002,256.783999 147.581998,256.540001 148.014,256.324 C148.446002,256.107999 148.845998,256 149.214,256 Z M157.854,256.144 L160.878,256.144 C160.958,256.144 160.998,256.231999 160.998,256.408 C160.998,256.648001 160.886001,256.879999 160.662,257.104 L157.854,257.104 L157.854,263.248 C157.854,264.528006 158.373995,265.168 159.414,265.168 C159.766002,265.168 160.085999,265.096001 160.374,264.952 C160.662002,264.807999 160.846,264.704 160.926,264.64 C160.974,264.656 160.998,264.704 160.998,264.784 C160.998,264.960001 160.966,265.08 160.902,265.144 C160.79,265.272001 160.618001,265.439999 160.386,265.648 C160.153999,265.856001 159.878002,266.039999 159.558,266.2 C159.237998,266.360001 158.886002,266.44 158.502,266.44 C158.101998,266.44 157.714002,266.368001 157.338,266.224 C156.961998,266.079999 156.654001,265.824002 156.414,265.456 C156.173999,265.087998 156.054,264.568003 156.054,263.896 L156.054,257.104 L154.686,257.104 C154.654,257.104 154.63,257.076 154.614,257.02 C154.598,256.964 154.59,256.92 154.59,256.888 C154.59,256.856 154.638,256.780001 154.734,256.66 C154.830001,256.539999 154.93,256.424001 155.034,256.312 L155.19,256.144 L156.054,256.144 L156.054,254.68 C156.214001,254.503999 156.401999,254.300001 156.618,254.068 C156.834001,253.835999 157.029999,253.620001 157.206,253.42 C157.382001,253.219999 157.478,253.112 157.494,253.096 C157.558,253.032 157.634,253 157.722,253 C157.810001,253 157.854,253.024 157.854,253.072 L157.854,256.144 Z" id="AgileProjectManagement" fill="#FFFFFF" fill-rule="nonzero"></path>
                    <rect id="Rectangle" stroke="url(#linearGradient-1)" stroke-width="4" x="2" y="2" width="196" height="296"></rect>
                    <g id="Group-3" transform="translate(41.000000, 30.000000)">
                        <g id="Group-13" transform="translate(-0.000000, 0.000000)">
                            <mask id="mask-3" fill="white">
                                <use xlink:href="#path-2"></use>
                            </mask>
                            <g id="Clip-11"></g>
                            <path d="M63.0428255,4.16720257 L63.0428255,0.0182893891 L51.1594714,9.3477299 L63.0428255,18.6769389 L63.0428255,15.0007717 C71.5613307,17.6022637 77.8641068,25.3310354 78.3246354,34.5690289 L78.3167552,36.8556656 C77.8107995,46.1214405 71.4238906,53.8502122 62.8319141,56.3783151 C60.8783177,56.9526945 58.8410521,57.2038842 56.8035547,57.2038842 L31.4962656,57.2242572 L38.3409219,62.597865 L31.4962656,67.669119 L58.1821276,67.669119 C74.829763,66.9273569 88.1758229,53.5149839 88.7860755,36.8556656 L88.7911745,34.5690289 C88.3002839,19.3934662 77.5053255,6.88815434 63.0428255,4.16720257 L136.744792,9.3477299" id="Fill-10" fill="#FFFFFF" mask="url(#mask-3)"></path>
                            <polygon id="Fill-12" fill="#FFFFFF" mask="url(#mask-3)" points="22.5216354 53.269119 22.5216354 57.2254148 0 57.2254148 0 67.6992154 22.5216354 67.6992154 22.5216354 71.9268424 34.404526 62.597865"></polygon>
                            <polygon id="Fill-12-Copy" fill="#FFFFFF" mask="url(#mask-3)" points="22.5216354 53.269119 22.5216354 57.2254148 0 57.2254148 0 67.6992154 22.5216354 67.6992154 22.5216354 71.9268424 34.404526 62.597865"></polygon>
                        </g>
                        <path d="M105.882095,68.2416745 L70,68.2416745 C75.1384771,66.2288575 79.8243569,63.0690605 83.7329664,58.9170554 C84.4826049,58.122351 85.1930983,57.3015906 85.8670054,56.4521688 L105.882095,56.4521688 L105.882095,52 L119,62.5 L105.882095,73 L105.882095,68.2416745 Z" id="Fill-7" fill="#FFFFFF"></path>
                    </g>
                </g>
                <path d="M89.1080201,38.3696601 L96.2682927,32.7067669 C79.9550608,33.7782633 66.9809944,47.1491898 66.4207317,63.6909088 L66.4232731,65.9866072 C66.6640128,72.7844498 69.004178,79.0463117 72.8100366,84.1353383 L88.6034372,84.1353383 C81.9454372,80.7118958 77.2801241,73.9066156 76.8566349,65.9866072 L76.8540935,63.6909088 C77.3840904,53.2609028 85.2718958,44.7514552 95.388507,43.3357319 L89.1080201,38.3696601 Z" id="Fill-6" fill="#FFFFFF"></path>
            </g>
        </g>
    </g>
</svg>