<?xml version="1.0" encoding="UTF-8"?>
<svg width="500px" height="500px" viewBox="0 0 500 500" version="1.1" xmlns="http://www.w3.org/2000/svg" xmlns:xlink="http://www.w3.org/1999/xlink">
    <!-- Generator: Sketch 53.2 (72643) - https://sketchapp.com -->
    <title>Artboard Copy 2</title>
    <desc>Created with Sketch.</desc>
    <defs>
        <linearGradient x1="0%" y1="0%" x2="100%" y2="100%" id="linearGradient-1">
            <stop stop-color="#612CB8" offset="0%"></stop>
            <stop stop-color="#11A8DB" offset="65.2100372%"></stop>
            <stop stop-color="#11DBB4" offset="100%"></stop>
        </linearGradient>
    </defs>
    <g id="Artboard-Copy-2" stroke="none" stroke-width="1" fill="none" fill-rule="evenodd">
        <rect id="Rectangle" fill="url(#linearGradient-1)" x="0" y="0" width="500" height="500" rx="30"></rect>
        <path d="M282.972334,120.48341 L245.71387,161.674881 C244.225432,163.316289 242.169969,164.166667 240.09264,164.166667 C238.528046,164.166667 236.949125,163.677625 235.59641,162.683765 L221.308458,152.12992 C217.953816,149.653159 217.251068,144.940776 219.737077,141.598612 C222.223086,138.26321 226.952308,137.563827 230.307704,140.032325 L239.079235,146.513824 L271.744198,110.403583 C274.540111,107.316834 279.31533,107.068932 282.421144,109.853693 C285.518663,112.639205 285.76749,117.396661 282.972334,120.48341 Z M308.44868,72.2749402 C307.610344,72.4337052 306.766009,72.5811837 305.927673,72.7158706 C300.850421,73.5337741 295.71393,73.9694375 290.572188,73.910747 C286.262036,73.8633433 281.947382,73.4750837 277.707715,72.6865254 C274.172159,72.0281395 270.683094,71.0860833 267.299759,69.8565947 C264.550048,68.850581 261.870825,67.6504377 259.302579,66.2501447 C257.356711,65.1854408 255.467832,64.0026035 253.674184,62.6903462 C253.017313,62.2080316 252.36644,61.7076583 251.738815,61.1847118 C251.123186,60.6843385 250.542798,60.0485257 249.704463,60.0018745 C248.918618,59.9665097 248.221255,60.4375378 247.646118,60.9078135 C246.620319,61.737756 245.588522,62.5488874 244.509484,63.3081003 C242.586111,64.6436833 240.575756,65.8438266 238.493415,66.9092831 C235.802193,68.2915172 233.005992,69.456296 230.138555,70.4156585 C226.638243,71.5864566 223.0382,72.4457443 219.396915,73.0160945 C215.04027,73.7045781 210.631136,73.9814764 206.228,73.9047275 C200.979781,73.8219589 195.749558,73.2395695 190.590571,72.2749402 C189.054123,71.9867554 187.606157,73.0988631 187.505677,74.6692077 C186.67409,88.3192404 184.516014,145.389636 204.510088,170.500851 C225.547957,196.912284 243.746883,207.408836 248.385472,209.727107 C249.106831,210.086021 249.945167,210.09204 250.666525,209.738394 C255.332859,207.455488 273.644263,197.071049 294.535911,170.500851 C314.365017,145.272255 312.330667,88.32526 311.527573,74.675227 C311.439842,73.1041302 309.985128,71.9867554 308.44868,72.2749402 Z" id="Fill-14" fill="#FFFFFF" fill-rule="nonzero" opacity="0.6"></path>
        <path d="M103.964355,323 L103.964355,284.952148 L113.641113,284.952148 L113.641113,323 L103.964355,323 Z M118.756348,323 L118.756348,294.286133 L128.116699,294.286133 L128.116699,299.348633 L128.30127,299.348633 C129.725098,295.736328 132.678223,293.679688 137.028809,293.679688 C143.330566,293.679688 146.890137,297.713867 146.890137,304.516602 L146.890137,323 L137.556152,323 L137.556152,306.520508 C137.556152,303.224609 136.000488,301.299805 132.941895,301.299805 C129.962402,301.299805 128.116699,303.514648 128.116699,306.705078 L128.116699,323 L118.756348,323 Z M153.61377,323 L153.61377,301.141602 L149.790527,301.141602 L149.790527,294.286133 L153.61377,294.286133 L153.61377,292.625 C153.61377,286.956055 156.355957,284.345703 163.870605,284.345703 C165.505371,284.345703 167.324707,284.530273 168.353027,284.741211 L168.353027,290.541992 C167.825684,290.436523 167.087402,290.410156 166.375488,290.410156 C163.791504,290.410156 162.710449,291.385742 162.710449,293.046875 L162.710449,294.286133 L168.300293,294.286133 L168.300293,301.141602 L162.974121,301.141602 L162.974121,323 L153.61377,323 Z M184.146973,323.606445 C175.050293,323.606445 169.460449,318.12207 169.460449,308.65625 L169.460449,308.603516 C169.460449,299.295898 175.234863,293.679688 184.146973,293.679688 C193.085449,293.679688 198.833496,299.243164 198.833496,308.603516 L198.833496,308.65625 C198.833496,318.148438 193.190918,323.606445 184.146973,323.606445 Z M184.17334,316.513672 C187.36377,316.513672 189.367676,313.692383 189.367676,308.65625 L189.367676,308.603516 C189.367676,303.646484 187.311035,300.772461 184.146973,300.772461 C180.98291,300.772461 178.952637,303.646484 178.952637,308.603516 L178.952637,308.65625 C178.952637,313.71875 180.930176,316.513672 184.17334,316.513672 Z M202.445801,323 L202.445801,294.286133 L211.806152,294.286133 L211.806152,299.375 L211.990723,299.375 C212.781738,295.736328 215.049316,293.679688 218.424316,293.679688 C219.320801,293.679688 220.138184,293.811523 220.850098,294.048828 L220.850098,302.038086 C220.059082,301.72168 218.978027,301.510742 217.870605,301.510742 C213.941895,301.510742 211.806152,303.672852 211.806152,307.759766 L211.806152,323 L202.445801,323 Z M223.671387,323 L223.671387,294.286133 L233.031738,294.286133 L233.031738,299.454102 L233.216309,299.454102 C234.32373,295.947266 237.382324,293.679688 241.311035,293.679688 C245.397949,293.679688 248.324707,295.920898 249.14209,299.823242 L249.32666,299.823242 C250.434082,296.105469 253.914551,293.679688 258.186035,293.679688 C263.802246,293.679688 267.625488,297.634766 267.625488,303.461914 L267.625488,323 L258.265137,323 L258.265137,305.861328 C258.265137,302.855469 256.867676,301.299805 254.230957,301.299805 C251.699707,301.299805 250.117676,303.119141 250.117676,305.966797 L250.117676,323 L241.179199,323 L241.179199,305.782227 C241.179199,302.881836 239.755371,301.299805 237.197754,301.299805 C234.666504,301.299805 233.031738,303.171875 233.031738,306.019531 L233.031738,323 L223.671387,323 Z M280.624512,323.395508 C274.850098,323.395508 270.921387,319.730469 270.921387,314.720703 L270.921387,314.694336 C270.921387,309.289062 275.087402,306.256836 282.496582,305.755859 L289.035645,305.333984 L289.035645,303.910156 C289.035645,301.827148 287.690918,300.535156 285.080566,300.535156 C282.575684,300.535156 281.099121,301.695312 280.782715,303.171875 L280.72998,303.435547 L272.318848,303.435547 L272.345215,303.092773 C272.793457,297.50293 277.565918,293.679688 285.555176,293.679688 C293.280762,293.679688 298.369629,297.582031 298.369629,303.40918 L298.369629,323 L289.035645,323 L289.035645,318.939453 L288.851074,318.939453 C287.216309,321.760742 284.368652,323.395508 280.624512,323.395508 Z M280.097168,314.114258 C280.097168,315.907227 281.600098,316.935547 283.894043,316.935547 C286.899902,316.935547 289.035645,315.142578 289.035645,312.716797 L289.035645,310.791992 L283.999512,311.134766 C281.38916,311.292969 280.097168,312.374023 280.097168,314.087891 L280.097168,314.114258 Z M315.297363,323.606445 C308.336426,323.606445 305.172363,321.101562 305.172363,314.615234 L305.172363,301.141602 L301.27002,301.141602 L301.27002,294.286133 L305.172363,294.286133 L305.172363,287.667969 L314.532715,287.667969 L314.532715,294.286133 L319.674316,294.286133 L319.674316,301.141602 L314.532715,301.141602 L314.532715,313.349609 C314.532715,315.828125 315.640137,316.750977 317.934082,316.750977 C318.672363,316.750977 319.146973,316.698242 319.674316,316.619141 L319.674316,323.263672 C318.645996,323.448242 317.248535,323.606445 315.297363,323.606445 Z M328.296387,291.201172 C325.606934,291.201172 323.523926,289.091797 323.523926,286.586914 C323.523926,284.082031 325.606934,281.999023 328.296387,281.999023 C331.012207,281.999023 333.068848,284.082031 333.068848,286.586914 C333.068848,289.091797 331.012207,291.201172 328.296387,291.201172 Z M323.629395,323 L323.629395,294.286133 L332.963379,294.286133 L332.963379,323 L323.629395,323 Z M351.341309,323.606445 C342.244629,323.606445 336.654785,318.12207 336.654785,308.65625 L336.654785,308.603516 C336.654785,299.295898 342.429199,293.679688 351.341309,293.679688 C360.279785,293.679688 366.027832,299.243164 366.027832,308.603516 L366.027832,308.65625 C366.027832,318.148438 360.385254,323.606445 351.341309,323.606445 Z M351.367676,316.513672 C354.558105,316.513672 356.562012,313.692383 356.562012,308.65625 L356.562012,308.603516 C356.562012,303.646484 354.505371,300.772461 351.341309,300.772461 C348.177246,300.772461 346.146973,303.646484 346.146973,308.603516 L346.146973,308.65625 C346.146973,313.71875 348.124512,316.513672 351.367676,316.513672 Z M369.640137,323 L369.640137,294.286133 L379.000488,294.286133 L379.000488,299.348633 L379.185059,299.348633 C380.608887,295.736328 383.562012,293.679688 387.912598,293.679688 C394.214355,293.679688 397.773926,297.713867 397.773926,304.516602 L397.773926,323 L388.439941,323 L388.439941,306.520508 C388.439941,303.224609 386.884277,301.299805 383.825684,301.299805 C380.846191,301.299805 379.000488,303.514648 379.000488,306.705078 L379.000488,323 L369.640137,323 Z M160.020996,387.685547 C150.555176,387.685547 144.569824,383.493164 144.147949,376.21582 L144.121582,375.741211 L153.112793,375.741211 L153.165527,376.03125 C153.640137,378.483398 156.487793,380.091797 160.205566,380.091797 C164.055176,380.091797 166.428223,378.457031 166.428223,376.083984 L166.428223,376.057617 C166.428223,373.895508 164.740723,372.893555 160.284668,372.023438 L156.382324,371.285156 C148.841309,369.887695 144.859863,366.169922 144.859863,360.342773 L144.859863,360.316406 C144.859863,352.986328 151.214355,348.266602 159.941895,348.266602 C169.486816,348.266602 174.89209,352.749023 175.234863,359.657227 L175.26123,360.210938 L166.27002,360.210938 L166.243652,359.920898 C165.953613,357.416016 163.501465,355.860352 160.020996,355.860352 C156.461426,355.860352 154.45752,357.46875 154.45752,359.657227 L154.45752,359.683594 C154.45752,361.740234 156.250488,362.821289 160.337402,363.585938 L164.239746,364.324219 C172.308105,365.879883 176.052246,369.149414 176.052246,375.240234 L176.052246,375.266602 C176.052246,382.860352 170.093262,387.685547 160.020996,387.685547 Z M193.586426,387.606445 C184.516113,387.606445 179.005371,381.9375 179.005371,372.65625 L179.005371,372.629883 C179.005371,363.401367 184.54248,357.679688 193.27002,357.679688 C201.944824,357.679688 207.455566,363.348633 207.455566,372.049805 L207.455566,374.791992 L188.154785,374.791992 C188.260254,378.667969 190.369629,380.961914 193.770996,380.961914 C196.776855,380.961914 198.411621,379.248047 198.833496,378.061523 L198.859863,377.929688 L207.297363,377.929688 L207.218262,378.246094 C206.348145,382.227539 202.73584,387.606445 193.586426,387.606445 Z M193.480957,364.324219 C190.73877,364.324219 188.76123,366.117188 188.286621,369.28125 L198.648926,369.28125 C198.174316,366.064453 196.223145,364.324219 193.480957,364.324219 Z M224.805176,387.606445 C215.76123,387.606445 210.197754,381.9375 210.197754,372.629883 L210.197754,372.603516 C210.197754,363.348633 215.787598,357.679688 224.726074,357.679688 C232.820801,357.679688 238.146973,362.53125 238.278809,369.360352 L238.305176,369.544922 L229.709473,369.544922 L229.683105,369.28125 C229.313965,366.618164 227.626465,364.772461 224.884277,364.772461 C221.641113,364.772461 219.689941,367.646484 219.689941,372.629883 L219.689941,372.65625 C219.689941,377.71875 221.588379,380.513672 224.910645,380.513672 C227.652832,380.513672 229.313965,378.74707 229.683105,376.004883 L229.73584,375.741211 L238.305176,375.741211 L238.305176,375.925781 C238.120605,382.59668 233.084473,387.606445 224.805176,387.606445 Z M251.48877,387.606445 C245.187012,387.606445 241.601074,383.572266 241.601074,376.769531 L241.601074,358.286133 L250.961426,358.286133 L250.961426,374.765625 C250.961426,378.061523 252.490723,380.012695 255.575684,380.012695 C258.528809,380.012695 260.400879,377.771484 260.400879,374.581055 L260.400879,358.286133 L269.734863,358.286133 L269.734863,387 L260.400879,387 L260.400879,381.9375 L260.216309,381.9375 C258.766113,385.549805 255.839355,387.606445 251.48877,387.606445 Z M274.243652,387 L274.243652,358.286133 L283.604004,358.286133 L283.604004,363.375 L283.788574,363.375 C284.57959,359.736328 286.847168,357.679688 290.222168,357.679688 C291.118652,357.679688 291.936035,357.811523 292.647949,358.048828 L292.647949,366.038086 C291.856934,365.72168 290.775879,365.510742 289.668457,365.510742 C285.739746,365.510742 283.604004,367.672852 283.604004,371.759766 L283.604004,387 L274.243652,387 Z M300.215332,355.201172 C297.525879,355.201172 295.442871,353.091797 295.442871,350.586914 C295.442871,348.082031 297.525879,345.999023 300.215332,345.999023 C302.931152,345.999023 304.987793,348.082031 304.987793,350.586914 C304.987793,353.091797 302.931152,355.201172 300.215332,355.201172 Z M295.54834,387 L295.54834,358.286133 L304.882324,358.286133 L304.882324,387 L295.54834,387 Z M321.915527,387.606445 C314.95459,387.606445 311.790527,385.101562 311.790527,378.615234 L311.790527,365.141602 L307.888184,365.141602 L307.888184,358.286133 L311.790527,358.286133 L311.790527,351.667969 L321.150879,351.667969 L321.150879,358.286133 L326.29248,358.286133 L326.29248,365.141602 L321.150879,365.141602 L321.150879,377.349609 C321.150879,379.828125 322.258301,380.750977 324.552246,380.750977 C325.290527,380.750977 325.765137,380.698242 326.29248,380.619141 L326.29248,387.263672 C325.26416,387.448242 323.866699,387.606445 321.915527,387.606445 Z M335.547363,396.360352 C333.70166,396.360352 331.908691,396.149414 330.854004,395.964844 L330.854004,389.188477 C331.460449,389.320312 332.567871,389.478516 334.018066,389.478516 C335.995605,389.478516 337.07666,388.87207 337.55127,387.606445 L337.762207,387 L327.874512,358.286133 L338.210449,358.286133 L343.352051,379.986328 L343.589355,379.986328 L348.70459,358.286133 L358.565918,358.286133 L349.416504,386.868164 C347.069824,394.303711 342.534668,396.360352 335.547363,396.360352 Z M130.740234,451.685547 C119.323242,451.685547 112.230469,444.381836 112.230469,431.962891 L112.230469,431.936523 C112.230469,419.517578 119.375977,412.266602 130.740234,412.266602 C140.680664,412.266602 147.5625,418.647461 147.905273,427.164062 L147.905273,427.427734 L138.597656,427.427734 L138.544922,427.032227 C137.938477,423.077148 135.169922,420.282227 130.740234,420.282227 C125.44043,420.282227 122.091797,424.632812 122.091797,431.910156 L122.091797,431.936523 C122.091797,439.292969 125.466797,443.669922 130.766602,443.669922 C134.958984,443.669922 137.938477,441.05957 138.597656,436.814453 L138.650391,436.524414 L147.958008,436.524414 L147.931641,436.814453 C147.588867,445.331055 140.62793,451.685547 130.740234,451.685547 Z M165.676758,451.606445 C156.580078,451.606445 150.990234,446.12207 150.990234,436.65625 L150.990234,436.603516 C150.990234,427.295898 156.764648,421.679688 165.676758,421.679688 C174.615234,421.679688 180.363281,427.243164 180.363281,436.603516 L180.363281,436.65625 C180.363281,446.148438 174.720703,451.606445 165.676758,451.606445 Z M165.703125,444.513672 C168.893555,444.513672 170.897461,441.692383 170.897461,436.65625 L170.897461,436.603516 C170.897461,431.646484 168.84082,428.772461 165.676758,428.772461 C162.512695,428.772461 160.482422,431.646484 160.482422,436.603516 L160.482422,436.65625 C160.482422,441.71875 162.459961,444.513672 165.703125,444.513672 Z M183.975586,451 L183.975586,422.286133 L193.335938,422.286133 L193.335938,427.348633 L193.520508,427.348633 C194.944336,423.736328 197.897461,421.679688 202.248047,421.679688 C208.549805,421.679688 212.109375,425.713867 212.109375,432.516602 L212.109375,451 L202.775391,451 L202.775391,434.520508 C202.775391,431.224609 201.219727,429.299805 198.161133,429.299805 C195.181641,429.299805 193.335938,431.514648 193.335938,434.705078 L193.335938,451 L183.975586,451 Z M229.116211,451.606445 C220.573242,451.606445 215.985352,447.835938 215.352539,442.246094 L215.326172,442.008789 L224.396484,442.008789 L224.449219,442.219727 C224.897461,444.170898 226.374023,445.304688 229.116211,445.304688 C231.594727,445.304688 233.097656,444.408203 233.097656,442.931641 L233.097656,442.905273 C233.097656,441.613281 232.174805,440.901367 229.617188,440.374023 L224.554688,439.37207 C218.938477,438.291016 216.011719,435.364258 216.011719,430.987305 L216.011719,430.960938 C216.011719,425.239258 220.916016,421.679688 228.773438,421.679688 C237.079102,421.679688 241.482422,425.924805 241.561523,431.066406 L241.587891,431.277344 L233.044922,431.277344 L233.018555,431.066406 C232.807617,429.378906 231.357422,427.981445 228.773438,427.981445 C226.479492,427.981445 225.00293,428.930664 225.00293,430.433594 L225.00293,430.459961 C225.00293,431.699219 225.873047,432.4375 228.588867,432.991211 L233.651367,433.993164 C239.742188,435.206055 242.378906,437.579102 242.378906,441.876953 L242.378906,441.90332 C242.378906,447.835938 237,451.606445 229.116211,451.606445 Z M255.430664,451.606445 C249.128906,451.606445 245.542969,447.572266 245.542969,440.769531 L245.542969,422.286133 L254.90332,422.286133 L254.90332,438.765625 C254.90332,442.061523 256.432617,444.012695 259.517578,444.012695 C262.470703,444.012695 264.342773,441.771484 264.342773,438.581055 L264.342773,422.286133 L273.676758,422.286133 L273.676758,451 L264.342773,451 L264.342773,445.9375 L264.158203,445.9375 C262.708008,449.549805 259.78125,451.606445 255.430664,451.606445 Z M278.34375,451 L278.34375,412.952148 L287.704102,412.952148 L287.704102,451 L278.34375,451 Z M304.816406,451.606445 C297.855469,451.606445 294.691406,449.101562 294.691406,442.615234 L294.691406,429.141602 L290.789062,429.141602 L290.789062,422.286133 L294.691406,422.286133 L294.691406,415.667969 L304.051758,415.667969 L304.051758,422.286133 L309.193359,422.286133 L309.193359,429.141602 L304.051758,429.141602 L304.051758,441.349609 C304.051758,443.828125 305.15918,444.750977 307.453125,444.750977 C308.191406,444.750977 308.666016,444.698242 309.193359,444.619141 L309.193359,451.263672 C308.165039,451.448242 306.767578,451.606445 304.816406,451.606445 Z M317.81543,419.201172 C315.125977,419.201172 313.042969,417.091797 313.042969,414.586914 C313.042969,412.082031 315.125977,409.999023 317.81543,409.999023 C320.53125,409.999023 322.587891,412.082031 322.587891,414.586914 C322.587891,417.091797 320.53125,419.201172 317.81543,419.201172 Z M313.148438,451 L313.148438,422.286133 L322.482422,422.286133 L322.482422,451 L313.148438,451 Z M327.043945,451 L327.043945,422.286133 L336.404297,422.286133 L336.404297,427.348633 L336.588867,427.348633 C338.012695,423.736328 340.96582,421.679688 345.316406,421.679688 C351.618164,421.679688 355.177734,425.713867 355.177734,432.516602 L355.177734,451 L345.84375,451 L345.84375,434.520508 C345.84375,431.224609 344.288086,429.299805 341.229492,429.299805 C338.25,429.299805 336.404297,431.514648 336.404297,434.705078 L336.404297,451 L327.043945,451 Z M373.608398,460.834961 C365.302734,460.834961 360.055664,457.169922 359.422852,452.371094 L359.396484,452.133789 L368.414062,452.133789 L368.493164,452.291992 C368.941406,453.399414 370.708008,454.612305 373.661133,454.612305 C377.167969,454.612305 378.960938,452.87207 378.960938,450.288086 L378.960938,445.515625 L378.776367,445.515625 C377.378906,448.442383 374.214844,450.261719 370.048828,450.261719 C362.876953,450.261719 358.68457,445.146484 358.68457,436.260742 L358.68457,436.234375 C358.68457,426.953125 362.929688,421.679688 370.180664,421.679688 C374.241211,421.679688 377.326172,423.789062 378.75,427.243164 L378.960938,427.243164 L378.960938,422.286133 L388.294922,422.286133 L388.294922,450.182617 C388.294922,456.458008 382.652344,460.834961 373.608398,460.834961 Z M373.582031,443.775391 C376.87793,443.775391 379.013672,441.05957 379.013672,436.550781 L379.013672,436.524414 C379.013672,431.989258 376.851562,429.299805 373.582031,429.299805 C370.3125,429.299805 368.176758,431.989258 368.176758,436.498047 L368.176758,436.524414 C368.176758,441.033203 370.286133,443.775391 373.582031,443.775391 Z" id="InformationSecurityConsulting" fill="#FFFFFF" fill-rule="nonzero" opacity="0.6"></path>
    </g>
</svg>