<?xml version="1.0" encoding="UTF-8"?>
<svg width="500px" height="500px" viewBox="0 0 500 500" version="1.1" xmlns="http://www.w3.org/2000/svg" xmlns:xlink="http://www.w3.org/1999/xlink">
    <!-- Generator: Sketch 53.2 (72643) - https://sketchapp.com -->
    <title>Artboard Copy</title>
    <desc>Created with Sketch.</desc>
    <defs>
        <linearGradient x1="0%" y1="0%" x2="100%" y2="100%" id="linearGradient-1">
            <stop stop-color="#612CB8" offset="0%"></stop>
            <stop stop-color="#11A8DB" offset="65.2100372%"></stop>
            <stop stop-color="#11DBB4" offset="100%"></stop>
        </linearGradient>
        <polygon id="path-2" points="0.0285744863 0.0375809365 182.447619 0.0375809365 182.447619 147.794882 0.0285744863 147.794882"></polygon>
        <polygon id="path-4" points="0.0285744863 0.0375809365 182.447619 0.0375809365 182.447619 147.794882 0.0285744863 147.794882"></polygon>
        <polygon id="path-6" points="0.0285744863 0.0375809365 182.447619 0.0375809365 182.447619 147.794882 0.0285744863 147.794882"></polygon>
    </defs>
    <g id="Artboard-Copy" stroke="none" stroke-width="1" fill="none" fill-rule="evenodd">
        <rect id="Rectangle" fill="url(#linearGradient-1)" x="0" y="0" width="500" height="500" rx="30"></rect>
        <g id="Group-2" opacity="0.602937971" transform="translate(128.000000, 53.000000)">
            <g id="Group-3" transform="translate(0.000000, 0.000000)">
                <g id="Group-13">
                    <g id="Fill-10-Clipped">
                        <mask id="mask-3" fill="white">
                            <use xlink:href="#path-2"></use>
                        </mask>
                        <g id="path-2"></g>
                        <path d="M129.540052,8.56274501 L129.540052,0.0375809365 L105.122202,19.2076642 L129.540052,38.3772717 L129.540052,30.8235035 C147.04383,36.169035 159.99474,52.0500727 160.941032,71.0322512 L160.924839,75.7308197 C159.885204,94.7700832 146.761419,110.651121 129.106673,115.845853 C125.092434,117.026085 120.906271,117.542228 116.719633,117.542228 L64.718354,117.58409 L78.7827162,128.62575 L64.718354,139.046135 L119.552317,139.046135 C153.759787,137.521966 181.183198,109.962296 182.437141,75.7308197 L182.447619,71.0322512 C181.43894,39.8495881 159.257518,14.1537418 129.540052,8.56274501 L280.982449,19.2076642" id="Fill-10" fill="#FFFFFF" fill-rule="nonzero" mask="url(#mask-3)"></path>
                    </g>
                    <g id="Fill-12-Clipped">
                        <mask id="mask-5" fill="white">
                            <use xlink:href="#path-4"></use>
                        </mask>
                        <g id="path-2"></g>
                        <polygon id="Fill-12" fill="#FFFFFF" fill-rule="nonzero" mask="url(#mask-5)" points="46.277333 109.457094 46.277333 117.586469 0 117.586469 0 139.107977 46.277333 139.107977 46.277333 147.794882 70.6942315 128.62575"></polygon>
                    </g>
                    <g id="Fill-12-Copy-Clipped">
                        <mask id="mask-7" fill="white">
                            <use xlink:href="#path-6"></use>
                        </mask>
                        <g id="path-2"></g>
                        <polygon id="Fill-12-Copy" fill="#FFFFFF" fill-rule="nonzero" mask="url(#mask-7)" points="46.277333 109.457094 46.277333 117.586469 0 117.586469 0 139.107977 46.277333 139.107977 46.277333 147.794882 70.6942315 128.62575"></polygon>
                    </g>
                </g>
                <path d="M217.565949,140.222619 L143.835616,140.222619 C154.394131,136.086693 164.022651,129.59396 172.054041,121.062443 C173.594394,119.429488 175.054312,117.742994 176.439052,115.997607 L217.565949,115.997607 L217.565949,106.849315 L244.520548,128.424658 L217.565949,150 L217.565949,140.222619 Z" id="Fill-7" fill="#FFFFFF" fill-rule="nonzero"></path>
            </g>
            <path d="M98.8520961,17.1979317 L113.564985,5.56184979 C80.0446455,7.76355473 53.3856049,35.2380612 52.2343802,69.2278948 L52.2396023,73.9450833 C52.7342729,87.913253 57.5428315,100.780093 65.3630889,111.236997 L97.8152819,111.236997 C84.13446,104.202526 74.5482002,90.2190732 73.6780169,73.9450833 L73.6727949,69.2278948 C74.7618296,47.7963756 90.9696489,30.3112093 111.757206,27.4021888 L98.8520961,17.1979317 Z" id="Fill-6" fill="#FFFFFF" fill-rule="nonzero"></path>
        </g>
        <path d="M186.137695,323 L198.952148,284.952148 L210.791016,284.952148 L223.605469,323 L213.454102,323 L211.081055,314.641602 L198.662109,314.641602 L196.289062,323 L186.137695,323 Z M204.779297,293.231445 L200.666016,307.680664 L209.077148,307.680664 L204.963867,293.231445 L204.779297,293.231445 Z M239.320312,332.834961 C231.014648,332.834961 225.767578,329.169922 225.134766,324.371094 L225.108398,324.133789 L234.125977,324.133789 L234.205078,324.291992 C234.65332,325.399414 236.419922,326.612305 239.373047,326.612305 C242.879883,326.612305 244.672852,324.87207 244.672852,322.288086 L244.672852,317.515625 L244.488281,317.515625 C243.09082,320.442383 239.926758,322.261719 235.760742,322.261719 C228.588867,322.261719 224.396484,317.146484 224.396484,308.260742 L224.396484,308.234375 C224.396484,298.953125 228.641602,293.679688 235.892578,293.679688 C239.953125,293.679688 243.038086,295.789062 244.461914,299.243164 L244.672852,299.243164 L244.672852,294.286133 L254.006836,294.286133 L254.006836,322.182617 C254.006836,328.458008 248.364258,332.834961 239.320312,332.834961 Z M239.293945,315.775391 C242.589844,315.775391 244.725586,313.05957 244.725586,308.550781 L244.725586,308.524414 C244.725586,303.989258 242.563477,301.299805 239.293945,301.299805 C236.024414,301.299805 233.888672,303.989258 233.888672,308.498047 L233.888672,308.524414 C233.888672,313.033203 235.998047,315.775391 239.293945,315.775391 Z M263.288086,291.201172 C260.598633,291.201172 258.515625,289.091797 258.515625,286.586914 C258.515625,284.082031 260.598633,281.999023 263.288086,281.999023 C266.003906,281.999023 268.060547,284.082031 268.060547,286.586914 C268.060547,289.091797 266.003906,291.201172 263.288086,291.201172 Z M258.621094,323 L258.621094,294.286133 L267.955078,294.286133 L267.955078,323 L258.621094,323 Z M272.674805,323 L272.674805,284.952148 L282.035156,284.952148 L282.035156,323 L272.674805,323 Z M300.386719,323.606445 C291.316406,323.606445 285.805664,317.9375 285.805664,308.65625 L285.805664,308.629883 C285.805664,299.401367 291.342773,293.679688 300.070312,293.679688 C308.745117,293.679688 314.255859,299.348633 314.255859,308.049805 L314.255859,310.791992 L294.955078,310.791992 C295.060547,314.667969 297.169922,316.961914 300.571289,316.961914 C303.577148,316.961914 305.211914,315.248047 305.633789,314.061523 L305.660156,313.929688 L314.097656,313.929688 L314.018555,314.246094 C313.148438,318.227539 309.536133,323.606445 300.386719,323.606445 Z M300.28125,300.324219 C297.539062,300.324219 295.561523,302.117188 295.086914,305.28125 L305.449219,305.28125 C304.974609,302.064453 303.023438,300.324219 300.28125,300.324219 Z M161.537109,387 L161.537109,348.952148 L177.75293,348.952148 C186.243164,348.952148 191.727539,354.27832 191.727539,362.425781 L191.727539,362.478516 C191.727539,370.625977 186.243164,375.84668 177.75293,375.84668 L171.213867,375.84668 L171.213867,387 L161.537109,387 Z M175.432617,356.361328 L171.213867,356.361328 L171.213867,368.569336 L175.432617,368.569336 C179.519531,368.569336 181.945312,366.433594 181.945312,362.478516 L181.945312,362.425781 C181.945312,358.470703 179.519531,356.361328 175.432617,356.361328 Z M195.392578,387 L195.392578,358.286133 L204.75293,358.286133 L204.75293,363.375 L204.9375,363.375 C205.728516,359.736328 207.996094,357.679688 211.371094,357.679688 C212.267578,357.679688 213.084961,357.811523 213.796875,358.048828 L213.796875,366.038086 C213.005859,365.72168 211.924805,365.510742 210.817383,365.510742 C206.888672,365.510742 204.75293,367.672852 204.75293,371.759766 L204.75293,387 L195.392578,387 Z M229.722656,387.606445 C220.625977,387.606445 215.036133,382.12207 215.036133,372.65625 L215.036133,372.603516 C215.036133,363.295898 220.810547,357.679688 229.722656,357.679688 C238.661133,357.679688 244.40918,363.243164 244.40918,372.603516 L244.40918,372.65625 C244.40918,382.148438 238.766602,387.606445 229.722656,387.606445 Z M229.749023,380.513672 C232.939453,380.513672 234.943359,377.692383 234.943359,372.65625 L234.943359,372.603516 C234.943359,367.646484 232.886719,364.772461 229.722656,364.772461 C226.558594,364.772461 224.52832,367.646484 224.52832,372.603516 L224.52832,372.65625 C224.52832,377.71875 226.505859,380.513672 229.749023,380.513672 Z M252.767578,355.201172 C250.078125,355.201172 247.995117,353.091797 247.995117,350.586914 C247.995117,348.082031 250.078125,345.999023 252.767578,345.999023 C255.457031,345.999023 257.540039,348.082031 257.540039,350.586914 C257.540039,353.091797 255.457031,355.201172 252.767578,355.201172 Z M246.439453,396.360352 C245.542969,396.360352 244.250977,396.307617 243.697266,396.228516 L243.697266,389.504883 C243.987305,389.557617 244.40918,389.583984 244.804688,389.583984 C247.125,389.583984 248.100586,388.845703 248.100586,386.920898 L248.100586,358.286133 L257.43457,358.286133 L257.43457,387.290039 C257.43457,393.117188 253.479492,396.360352 246.439453,396.360352 Z M275.707031,387.606445 C266.636719,387.606445 261.125977,381.9375 261.125977,372.65625 L261.125977,372.629883 C261.125977,363.401367 266.663086,357.679688 275.390625,357.679688 C284.06543,357.679688 289.576172,363.348633 289.576172,372.049805 L289.576172,374.791992 L270.275391,374.791992 C270.380859,378.667969 272.490234,380.961914 275.891602,380.961914 C278.897461,380.961914 280.532227,379.248047 280.954102,378.061523 L280.980469,377.929688 L289.417969,377.929688 L289.338867,378.246094 C288.46875,382.227539 284.856445,387.606445 275.707031,387.606445 Z M275.601562,364.324219 C272.859375,364.324219 270.881836,366.117188 270.407227,369.28125 L280.769531,369.28125 C280.294922,366.064453 278.34375,364.324219 275.601562,364.324219 Z M306.925781,387.606445 C297.881836,387.606445 292.318359,381.9375 292.318359,372.629883 L292.318359,372.603516 C292.318359,363.348633 297.908203,357.679688 306.84668,357.679688 C314.941406,357.679688 320.267578,362.53125 320.399414,369.360352 L320.425781,369.544922 L311.830078,369.544922 L311.803711,369.28125 C311.43457,366.618164 309.74707,364.772461 307.004883,364.772461 C303.761719,364.772461 301.810547,367.646484 301.810547,372.629883 L301.810547,372.65625 C301.810547,377.71875 303.708984,380.513672 307.03125,380.513672 C309.773438,380.513672 311.43457,378.74707 311.803711,376.004883 L311.856445,375.741211 L320.425781,375.741211 L320.425781,375.925781 C320.241211,382.59668 315.205078,387.606445 306.925781,387.606445 Z M336.325195,387.606445 C329.364258,387.606445 326.200195,385.101562 326.200195,378.615234 L326.200195,365.141602 L322.297852,365.141602 L322.297852,358.286133 L326.200195,358.286133 L326.200195,351.667969 L335.560547,351.667969 L335.560547,358.286133 L340.702148,358.286133 L340.702148,365.141602 L335.560547,365.141602 L335.560547,377.349609 C335.560547,379.828125 336.667969,380.750977 338.961914,380.750977 C339.700195,380.750977 340.174805,380.698242 340.702148,380.619141 L340.702148,387.263672 C339.673828,387.448242 338.276367,387.606445 336.325195,387.606445 Z M84.2548828,451 L84.2548828,412.952148 L95.4345703,412.952148 L104.979492,437.816406 L105.137695,437.816406 L114.682617,412.952148 L125.862305,412.952148 L125.862305,451 L117.345703,451 L117.345703,427.216797 L117.134766,427.216797 L107.827148,451 L102.290039,451 L92.9824219,427.216797 L92.7714844,427.216797 L92.7714844,451 L84.2548828,451 Z M139.098633,451.395508 C133.324219,451.395508 129.395508,447.730469 129.395508,442.720703 L129.395508,442.694336 C129.395508,437.289062 133.561523,434.256836 140.970703,433.755859 L147.509766,433.333984 L147.509766,431.910156 C147.509766,429.827148 146.165039,428.535156 143.554688,428.535156 C141.049805,428.535156 139.573242,429.695312 139.256836,431.171875 L139.204102,431.435547 L130.792969,431.435547 L130.819336,431.092773 C131.267578,425.50293 136.040039,421.679688 144.029297,421.679688 C151.754883,421.679688 156.84375,425.582031 156.84375,431.40918 L156.84375,451 L147.509766,451 L147.509766,446.939453 L147.325195,446.939453 C145.69043,449.760742 142.842773,451.395508 139.098633,451.395508 Z M138.571289,442.114258 C138.571289,443.907227 140.074219,444.935547 142.368164,444.935547 C145.374023,444.935547 147.509766,443.142578 147.509766,440.716797 L147.509766,438.791992 L142.473633,439.134766 C139.863281,439.292969 138.571289,440.374023 138.571289,442.087891 L138.571289,442.114258 Z M161.299805,451 L161.299805,422.286133 L170.660156,422.286133 L170.660156,427.348633 L170.844727,427.348633 C172.268555,423.736328 175.22168,421.679688 179.572266,421.679688 C185.874023,421.679688 189.433594,425.713867 189.433594,432.516602 L189.433594,451 L180.099609,451 L180.099609,434.520508 C180.099609,431.224609 178.543945,429.299805 175.485352,429.299805 C172.505859,429.299805 170.660156,431.514648 170.660156,434.705078 L170.660156,451 L161.299805,451 Z M202.432617,451.395508 C196.658203,451.395508 192.729492,447.730469 192.729492,442.720703 L192.729492,442.694336 C192.729492,437.289062 196.895508,434.256836 204.304688,433.755859 L210.84375,433.333984 L210.84375,431.910156 C210.84375,429.827148 209.499023,428.535156 206.888672,428.535156 C204.383789,428.535156 202.907227,429.695312 202.59082,431.171875 L202.538086,431.435547 L194.126953,431.435547 L194.15332,431.092773 C194.601562,425.50293 199.374023,421.679688 207.363281,421.679688 C215.088867,421.679688 220.177734,425.582031 220.177734,431.40918 L220.177734,451 L210.84375,451 L210.84375,446.939453 L210.65918,446.939453 C209.024414,449.760742 206.176758,451.395508 202.432617,451.395508 Z M201.905273,442.114258 C201.905273,443.907227 203.408203,444.935547 205.702148,444.935547 C208.708008,444.935547 210.84375,443.142578 210.84375,440.716797 L210.84375,438.791992 L205.807617,439.134766 C203.197266,439.292969 201.905273,440.374023 201.905273,442.087891 L201.905273,442.114258 Z M238.6875,460.834961 C230.381836,460.834961 225.134766,457.169922 224.501953,452.371094 L224.475586,452.133789 L233.493164,452.133789 L233.572266,452.291992 C234.020508,453.399414 235.787109,454.612305 238.740234,454.612305 C242.24707,454.612305 244.040039,452.87207 244.040039,450.288086 L244.040039,445.515625 L243.855469,445.515625 C242.458008,448.442383 239.293945,450.261719 235.12793,450.261719 C227.956055,450.261719 223.763672,445.146484 223.763672,436.260742 L223.763672,436.234375 C223.763672,426.953125 228.008789,421.679688 235.259766,421.679688 C239.320312,421.679688 242.405273,423.789062 243.829102,427.243164 L244.040039,427.243164 L244.040039,422.286133 L253.374023,422.286133 L253.374023,450.182617 C253.374023,456.458008 247.731445,460.834961 238.6875,460.834961 Z M238.661133,443.775391 C241.957031,443.775391 244.092773,441.05957 244.092773,436.550781 L244.092773,436.524414 C244.092773,431.989258 241.930664,429.299805 238.661133,429.299805 C235.391602,429.299805 233.255859,431.989258 233.255859,436.498047 L233.255859,436.524414 C233.255859,441.033203 235.365234,443.775391 238.661133,443.775391 Z M271.620117,451.606445 C262.549805,451.606445 257.039062,445.9375 257.039062,436.65625 L257.039062,436.629883 C257.039062,427.401367 262.576172,421.679688 271.303711,421.679688 C279.978516,421.679688 285.489258,427.348633 285.489258,436.049805 L285.489258,438.791992 L266.188477,438.791992 C266.293945,442.667969 268.40332,444.961914 271.804688,444.961914 C274.810547,444.961914 276.445312,443.248047 276.867188,442.061523 L276.893555,441.929688 L285.331055,441.929688 L285.251953,442.246094 C284.381836,446.227539 280.769531,451.606445 271.620117,451.606445 Z M271.514648,428.324219 C268.772461,428.324219 266.794922,430.117188 266.320312,433.28125 L276.682617,433.28125 C276.208008,430.064453 274.256836,428.324219 271.514648,428.324219 Z M289.101562,451 L289.101562,422.286133 L298.461914,422.286133 L298.461914,427.454102 L298.646484,427.454102 C299.753906,423.947266 302.8125,421.679688 306.741211,421.679688 C310.828125,421.679688 313.754883,423.920898 314.572266,427.823242 L314.756836,427.823242 C315.864258,424.105469 319.344727,421.679688 323.616211,421.679688 C329.232422,421.679688 333.055664,425.634766 333.055664,431.461914 L333.055664,451 L323.695312,451 L323.695312,433.861328 C323.695312,430.855469 322.297852,429.299805 319.661133,429.299805 C317.129883,429.299805 315.547852,431.119141 315.547852,433.966797 L315.547852,451 L306.609375,451 L306.609375,433.782227 C306.609375,430.881836 305.185547,429.299805 302.62793,429.299805 C300.09668,429.299805 298.461914,431.171875 298.461914,434.019531 L298.461914,451 L289.101562,451 Z M351.143555,451.606445 C342.073242,451.606445 336.5625,445.9375 336.5625,436.65625 L336.5625,436.629883 C336.5625,427.401367 342.099609,421.679688 350.827148,421.679688 C359.501953,421.679688 365.012695,427.348633 365.012695,436.049805 L365.012695,438.791992 L345.711914,438.791992 C345.817383,442.667969 347.926758,444.961914 351.328125,444.961914 C354.333984,444.961914 355.96875,443.248047 356.390625,442.061523 L356.416992,441.929688 L364.854492,441.929688 L364.775391,442.246094 C363.905273,446.227539 360.292969,451.606445 351.143555,451.606445 Z M351.038086,428.324219 C348.295898,428.324219 346.318359,430.117188 345.84375,433.28125 L356.206055,433.28125 C355.731445,430.064453 353.780273,428.324219 351.038086,428.324219 Z M368.625,451 L368.625,422.286133 L377.985352,422.286133 L377.985352,427.348633 L378.169922,427.348633 C379.59375,423.736328 382.546875,421.679688 386.897461,421.679688 C393.199219,421.679688 396.758789,425.713867 396.758789,432.516602 L396.758789,451 L387.424805,451 L387.424805,434.520508 C387.424805,431.224609 385.869141,429.299805 382.810547,429.299805 C379.831055,429.299805 377.985352,431.514648 377.985352,434.705078 L377.985352,451 L368.625,451 Z M413.607422,451.606445 C406.646484,451.606445 403.482422,449.101562 403.482422,442.615234 L403.482422,429.141602 L399.580078,429.141602 L399.580078,422.286133 L403.482422,422.286133 L403.482422,415.667969 L412.842773,415.667969 L412.842773,422.286133 L417.984375,422.286133 L417.984375,429.141602 L412.842773,429.141602 L412.842773,441.349609 C412.842773,443.828125 413.950195,444.750977 416.244141,444.750977 C416.982422,444.750977 417.457031,444.698242 417.984375,444.619141 L417.984375,451.263672 C416.956055,451.448242 415.558594,451.606445 413.607422,451.606445 Z" id="AgileProjectManagement" fill="#FFFFFF" fill-rule="nonzero" opacity="0.6"></path>
    </g>
</svg>