<?xml version="1.0" encoding="UTF-8"?>
<svg width="500px" height="500px" viewBox="0 0 500 500" version="1.1" xmlns="http://www.w3.org/2000/svg" xmlns:xlink="http://www.w3.org/1999/xlink">
    <!-- Generator: Sketch 53.2 (72643) - https://sketchapp.com -->
    <title>Artboard</title>
    <desc>Created with Sketch.</desc>
    <defs>
        <linearGradient x1="0%" y1="0%" x2="100%" y2="100%" id="linearGradient-1">
            <stop stop-color="#612CB8" offset="0%"></stop>
            <stop stop-color="#11A8DB" offset="65.2100372%"></stop>
            <stop stop-color="#11DBB4" offset="100%"></stop>
        </linearGradient>
    </defs>
    <g id="Artboard" stroke="none" stroke-width="1" fill="none" fill-rule="evenodd">
        <rect id="Rectangle" fill="url(#linearGradient-1)" x="0" y="0" width="500" height="500" rx="30"></rect>
        <g id="Group-5" transform="translate(115.000000, 62.000000)" fill="#FFFFFF" fill-rule="nonzero" opacity="0.6">
            <g id="Group-2" transform="translate(86.000000, 0.000000)">
                <rect id="Rectangle" x="0" y="0" width="48" height="48"></rect>
                <rect id="Rectangle-Copy" x="52" y="0" width="48" height="48"></rect>
                <rect id="Rectangle-Copy-2" x="0" y="52" width="48" height="48"></rect>
                <rect id="Rectangle-Copy-3" x="52" y="52" width="48" height="48"></rect>
            </g>
            <path d="M33.421875,148 L28.3515624,148 L28.3515624,128.0625 C28.3515624,126.429679 28.451822,124.431652 28.6523438,122.068359 L28.5664062,122.068359 C28.2513006,123.41472 27.9720064,124.381507 27.7285156,124.96875 L18.5332032,148 L15.0097656,148 L5.79296876,125.140625 C5.53515496,124.467445 5.26302226,123.443366 4.9765625,122.068359 L4.890625,122.068359 C5.0052089,123.300136 5.0625,125.312486 5.0625,128.105469 L5.0625,148 L0.3359375,148 L0.3359375,117.191406 L7.53320312,117.191406 L15.6328125,137.708984 C16.248701,139.284513 16.6497386,140.458981 16.8359376,141.232422 L16.9433594,141.232422 C17.47331,139.613924 17.9029932,138.410811 18.2324218,137.623047 L26.4824218,117.191406 L33.421875,117.191406 L33.421875,148 Z M42.9609376,121.380859 C42.1445272,121.380859 41.446292,121.115888 40.866211,120.585938 C40.28613,120.055987 39.9960938,119.382817 39.9960938,118.566406 C39.9960938,117.749996 40.28613,117.069664 40.866211,116.525391 C41.446292,115.981117 42.1445272,115.708984 42.9609376,115.708984 C43.8059938,115.708984 44.5221324,115.981117 45.109375,116.525391 C45.6966176,117.069664 45.9902344,117.749996 45.9902344,118.566406 C45.9902344,119.339848 45.6966176,120.002276 45.109375,120.553711 C44.5221324,121.105146 43.8059938,121.380859 42.9609376,121.380859 Z M45.4316406,148 L40.4472656,148 L40.4472656,126 L45.4316406,126 L45.4316406,148 Z M67.6894532,146.990234 C65.9277256,148.007167 63.843762,148.515625 61.4375,148.515625 C58.1718586,148.515625 55.5364684,147.495127 53.53125,145.454102 C51.5260316,143.413076 50.5234376,140.766943 50.5234376,137.515625 C50.5234376,133.891909 51.6012262,130.980805 53.756836,128.782227 C55.9124456,126.583648 58.7949038,125.484375 62.4042968,125.484375 C64.4095152,125.484375 66.1783778,125.835283 67.7109376,126.537109 L67.7109376,131.177734 C66.1783778,130.031895 64.5455816,129.458984 62.8125,129.458984 C60.7070208,129.458984 58.9811266,130.171542 57.6347656,131.59668 C56.2884048,133.021817 55.6152344,134.887358 55.6152344,137.193359 C55.6152344,139.470715 56.249017,141.268223 57.5166016,142.585938 C58.784186,143.903652 60.4850154,144.5625 62.6191406,144.5625 C64.4095142,144.5625 66.0996014,143.925137 67.6894532,142.650391 L67.6894532,146.990234 Z M85.3925782,130.748047 C84.7910126,130.275388 83.9244848,130.039062 82.7929688,130.039062 C81.317701,130.039062 80.0859424,130.705071 79.0976562,132.037109 C78.10937,133.369147 77.6152344,135.180978 77.6152344,137.472656 L77.6152344,148 L72.6308594,148 L72.6308594,126 L77.6152344,126 L77.6152344,130.533203 L77.7011718,130.533203 C78.1881534,128.98632 78.9365184,127.779627 79.946289,126.913086 C80.9560598,126.046545 82.0839782,125.613281 83.3300782,125.613281 C84.2324264,125.613281 84.9199196,125.749348 85.3925782,126.021484 L85.3925782,130.748047 Z M98.2832032,148.515625 C94.888655,148.515625 92.17807,147.487966 90.1513672,145.432617 C88.1246644,143.377268 87.1113282,140.652361 87.1113282,137.257812 C87.1113282,133.562482 88.1676326,130.676443 90.2802734,128.599609 C92.3929142,126.522776 95.2395654,125.484375 98.8203124,125.484375 C102.25783,125.484375 104.936188,126.494131 106.855469,128.513672 C108.774749,130.533213 109.734375,133.333315 109.734375,136.914062 C109.734375,140.423195 108.699555,143.234039 106.629883,145.34668 C104.560211,147.45932 101.778012,148.515625 98.2832032,148.515625 Z M98.5195312,129.458984 C96.5716048,129.458984 95.0319066,130.139316 93.9003906,131.5 C92.7688746,132.860684 92.203125,134.736967 92.203125,137.128906 C92.203125,139.434907 92.776036,141.250319 93.921875,142.575195 C95.067714,143.900072 96.6002508,144.5625 98.5195312,144.5625 C100.481781,144.5625 101.989253,143.910814 103.041992,142.607422 C104.094732,141.30403 104.621094,139.449231 104.621094,137.042969 C104.621094,134.622384 104.094732,132.753262 103.041992,131.435547 C101.989253,130.117832 100.481781,129.458984 98.5195312,129.458984 Z M113.429688,147.3125 L113.429688,142.693359 C115.291676,144.111335 117.346994,144.820312 119.595703,144.820312 C122.603531,144.820312 124.107422,143.932301 124.107422,142.15625 C124.107422,141.654945 123.978517,141.228843 123.720703,140.87793 C123.462889,140.527016 123.115562,140.215496 122.678711,139.943359 C122.24186,139.671223 121.72624,139.427735 121.131836,139.212891 C120.537432,138.998046 119.875004,138.754559 119.144531,138.482422 C118.242183,138.124347 117.429366,137.744794 116.706055,137.34375 C115.982744,136.942706 115.381187,136.487958 114.901367,135.979492 C114.421547,135.471026 114.059897,134.894534 113.816406,134.25 C113.572915,133.605466 113.451172,132.85352 113.451172,131.994141 C113.451172,130.934239 113.70182,129.999679 114.203125,129.19043 C114.70443,128.381181 115.3776,127.700849 116.222656,127.149414 C117.067713,126.597979 118.027338,126.182619 119.101562,125.90332 C120.175787,125.624022 121.285802,125.484375 122.431641,125.484375 C124.465505,125.484375 126.284497,125.792315 127.888672,126.408203 L127.888672,130.769531 C126.341789,129.70963 124.565765,129.179688 122.560547,129.179688 C121.930335,129.179688 121.361005,129.24414 120.852539,129.373047 C120.344073,129.501954 119.910809,129.680988 119.552734,129.910156 C119.19466,130.139324 118.915366,130.415037 118.714844,130.737305 C118.514322,131.059572 118.414062,131.414061 118.414062,131.800781 C118.414062,132.27344 118.514322,132.674478 118.714844,133.003906 C118.915366,133.333335 119.212563,133.623371 119.606445,133.874023 C120.000327,134.124676 120.472979,134.35384 121.024414,134.561523 C121.575849,134.769207 122.209632,134.99479 122.925781,135.238281 C123.871098,135.625002 124.719723,136.018878 125.47168,136.419922 C126.223637,136.820966 126.864581,137.275714 127.394531,137.78418 C127.924482,138.292646 128.332681,138.879879 128.619141,139.545898 C128.9056,140.211917 129.048828,141.003251 129.048828,141.919922 C129.048828,143.037115 128.791018,144.011064 128.275391,144.841797 C127.759763,145.67253 127.07227,146.360023 126.212891,146.904297 C125.353511,147.44857 124.361659,147.853189 123.237305,148.118164 C122.11295,148.383139 120.927741,148.515625 119.681641,148.515625 C117.275379,148.515625 115.191415,148.114587 113.429688,147.3125 Z M143.529297,148.515625 C140.134749,148.515625 137.424164,147.487966 135.397461,145.432617 C133.370758,143.377268 132.357422,140.652361 132.357422,137.257812 C132.357422,133.562482 133.413726,130.676443 135.526367,128.599609 C137.639008,126.522776 140.485659,125.484375 144.066406,125.484375 C147.503923,125.484375 150.182282,126.494131 152.101562,128.513672 C154.020843,130.533213 154.980469,133.333315 154.980469,136.914062 C154.980469,140.423195 153.945648,143.234039 151.875977,145.34668 C149.806305,147.45932 147.024106,148.515625 143.529297,148.515625 Z M143.765625,129.458984 C141.817699,129.458984 140.278,130.139316 139.146484,131.5 C138.014968,132.860684 137.449219,134.736967 137.449219,137.128906 C137.449219,139.434907 138.02213,141.250319 139.167969,142.575195 C140.313808,143.900072 141.846345,144.5625 143.765625,144.5625 C145.727874,144.5625 147.235346,143.910814 148.288086,142.607422 C149.340826,141.30403 149.867188,139.449231 149.867188,137.042969 C149.867188,134.622384 149.340826,132.753262 148.288086,131.435547 C147.235346,130.117832 145.727874,129.458984 143.765625,129.458984 Z M171.759766,119.490234 C171.086585,119.103514 170.320317,118.910156 169.460938,118.910156 C167.040352,118.910156 165.830078,120.277981 165.830078,123.013672 L165.830078,126 L170.943359,126 L170.943359,129.910156 L165.851562,129.910156 L165.851562,148 L160.867188,148 L160.867188,129.910156 L157.107422,129.910156 L157.107422,126 L160.867188,126 L160.867188,122.433594 C160.867188,120.11327 161.626294,118.283535 163.144531,116.944336 C164.662768,115.605137 166.560535,114.935547 168.837891,114.935547 C170.069668,114.935547 171.043616,115.071613 171.759766,115.34375 L171.759766,119.490234 Z M186.90625,147.763672 C185.932287,148.250653 184.650399,148.494141 183.060547,148.494141 C178.792296,148.494141 176.658203,146.445984 176.658203,142.349609 L176.658203,129.910156 L172.984375,129.910156 L172.984375,126 L176.658203,126 L176.658203,120.908203 L181.642578,119.490234 L181.642578,126 L186.90625,126 L186.90625,129.910156 L181.642578,129.910156 L181.642578,140.910156 C181.642578,142.213548 181.878904,143.144528 182.351562,143.703125 C182.824221,144.261722 183.611974,144.541016 184.714844,144.541016 C185.5599,144.541016 186.290362,144.297528 186.90625,143.810547 L186.90625,147.763672 Z M202.697266,146.861328 L202.697266,142.177734 C204.702484,143.767586 206.965482,144.5625 209.486328,144.5625 C211.534516,144.5625 213.170892,144.09701 214.395508,143.166016 C215.620124,142.235021 216.232422,140.974617 216.232422,139.384766 C216.232422,135.889956 213.561224,134.142578 208.21875,134.142578 L205.833984,134.142578 L205.833984,130.146484 L208.111328,130.146484 C212.852238,130.146484 215.222656,128.499365 215.222656,125.205078 C215.222656,122.168605 213.375018,120.650391 209.679688,120.650391 C207.617178,120.650391 205.676442,121.388013 203.857422,122.863281 L203.857422,118.4375 C205.948578,117.263015 208.419256,116.675781 211.269532,116.675781 C214.005222,116.675781 216.196606,117.363274 217.84375,118.738281 C219.490894,120.113288 220.314454,121.874989 220.314454,124.023438 C220.314454,128.076843 218.251974,130.683588 214.126954,131.84375 L214.126954,131.929688 C216.347016,132.144532 218.101556,132.921543 219.390624,134.260742 C220.679694,135.599942 221.324218,137.272125 221.324218,139.277344 C221.324218,142.04168 220.285818,144.272452 218.208984,145.969727 C216.132152,147.667001 213.396502,148.515625 210.001954,148.515625 C206.951156,148.515625 204.516286,147.964198 202.697266,146.861328 Z M247.363282,138.095703 C247.363282,139.642586 247.109052,141.053379 246.600586,142.328125 C246.09212,143.602871 245.386724,144.702144 244.484376,145.625977 C243.582026,146.549809 242.5114,147.265948 241.27246,147.774414 C240.033522,148.28288 238.690762,148.537109 237.24414,148.537109 C235.697258,148.537109 234.275722,148.236331 232.979492,147.634766 C231.683262,147.0332 230.566086,146.138027 229.62793,144.949219 C228.689774,143.760411 227.962894,142.281584 227.447266,140.512695 C226.931638,138.743806 226.673828,136.692069 226.673828,134.357422 C226.673828,131.507147 227.013994,128.979178 227.694336,126.773438 C228.374678,124.567697 229.309238,122.72006 230.498046,121.230469 C231.686854,119.740878 233.083326,118.609379 234.6875,117.835938 C236.291674,117.062496 238.02473,116.675781 239.886718,116.675781 C241.04688,116.675781 242.103186,116.754557 243.055664,116.912109 C244.008142,117.069662 244.77083,117.284504 245.34375,117.556641 L245.34375,122.046875 C244.613278,121.674477 243.832686,121.359376 243.001954,121.101562 C242.17122,120.843749 241.218756,120.714844 240.144532,120.714844 C238.9414,120.714844 237.831386,120.958331 236.814454,121.445312 C235.79752,121.932294 234.920252,122.644852 234.182618,123.583008 C233.444984,124.521164 232.86491,125.681308 232.442382,127.063477 C232.019854,128.445645 231.801432,130.039053 231.78711,131.84375 L231.916016,131.84375 C232.574874,130.826818 233.466466,130.024743 234.59082,129.4375 C235.715174,128.850257 237.03645,128.556641 238.554688,128.556641 C239.901048,128.556641 241.114904,128.775063 242.19629,129.211914 C243.277674,129.648765 244.201494,130.278967 244.967774,131.102539 C245.734054,131.926111 246.324868,132.928705 246.740234,134.110352 C247.155602,135.291998 247.363282,136.620435 247.363282,138.095703 Z M242.335938,138.503906 C242.335938,137.615881 242.232098,136.806644 242.024414,136.076172 C241.81673,135.345699 241.50163,134.719078 241.079102,134.196289 C240.656574,133.6735 240.12663,133.268882 239.489258,132.982422 C238.851884,132.695962 238.10352,132.552734 237.24414,132.552734 C236.384762,132.552734 235.629236,132.706704 234.97754,133.014648 C234.325844,133.322593 233.777998,133.727211 233.333984,134.228516 C232.889972,134.72982 232.556968,135.302731 232.33496,135.947266 C232.112954,136.5918 232.001954,137.250648 232.001954,137.923828 C232.001954,138.654301 232.105794,139.402665 232.313476,140.168945 C232.52116,140.935225 232.839842,141.63346 233.269532,142.263672 C233.69922,142.893883 234.247066,143.413084 234.913086,143.821289 C235.579104,144.229494 236.370438,144.433594 237.28711,144.433594 C238.10352,144.433594 238.82682,144.283205 239.457032,143.982422 C240.087242,143.681639 240.613604,143.266279 241.036132,142.736328 C241.45866,142.206378 241.780924,141.579756 242.00293,140.856445 C242.224936,140.133134 242.335938,139.348963 242.335938,138.503906 Z M252.36914,147.291016 L252.36914,142.5 C254.388682,143.860684 256.436838,144.541016 258.513672,144.541016 C260.604828,144.541016 262.287754,144.007492 263.5625,142.94043 C264.837246,141.873367 265.47461,140.451832 265.47461,138.675781 C265.47461,136.928377 264.826504,135.567713 263.530274,134.59375 C262.234042,133.619787 260.375664,133.132812 257.955078,133.132812 C257.124344,133.132812 255.441418,133.218749 252.90625,133.390625 L254.001954,117.191406 L269.169922,117.191406 L269.169922,121.445312 L258.148438,121.445312 L257.632812,129.158203 C258.621098,129.100911 259.516272,129.072266 260.31836,129.072266 C263.584,129.072266 266.10839,129.910148 267.891602,131.585938 C269.674814,133.261727 270.566406,135.553371 270.566406,138.460938 C270.566406,141.511734 269.545908,143.957348 267.504882,145.797852 C265.463856,147.638356 262.660174,148.558594 259.09375,148.558594 C256.085922,148.558594 253.844408,148.136072 252.36914,147.291016 Z" id="Microsoft365"></path>
        </g>
        <path d="M130.740234,323.685547 C119.323242,323.685547 112.230469,316.381836 112.230469,303.962891 L112.230469,303.936523 C112.230469,291.517578 119.375977,284.266602 130.740234,284.266602 C140.680664,284.266602 147.5625,290.647461 147.905273,299.164062 L147.905273,299.427734 L138.597656,299.427734 L138.544922,299.032227 C137.938477,295.077148 135.169922,292.282227 130.740234,292.282227 C125.44043,292.282227 122.091797,296.632812 122.091797,303.910156 L122.091797,303.936523 C122.091797,311.292969 125.466797,315.669922 130.766602,315.669922 C134.958984,315.669922 137.938477,313.05957 138.597656,308.814453 L138.650391,308.524414 L147.958008,308.524414 L147.931641,308.814453 C147.588867,317.331055 140.62793,323.685547 130.740234,323.685547 Z M165.676758,323.606445 C156.580078,323.606445 150.990234,318.12207 150.990234,308.65625 L150.990234,308.603516 C150.990234,299.295898 156.764648,293.679688 165.676758,293.679688 C174.615234,293.679688 180.363281,299.243164 180.363281,308.603516 L180.363281,308.65625 C180.363281,318.148438 174.720703,323.606445 165.676758,323.606445 Z M165.703125,316.513672 C168.893555,316.513672 170.897461,313.692383 170.897461,308.65625 L170.897461,308.603516 C170.897461,303.646484 168.84082,300.772461 165.676758,300.772461 C162.512695,300.772461 160.482422,303.646484 160.482422,308.603516 L160.482422,308.65625 C160.482422,313.71875 162.459961,316.513672 165.703125,316.513672 Z M183.975586,323 L183.975586,294.286133 L193.335938,294.286133 L193.335938,299.348633 L193.520508,299.348633 C194.944336,295.736328 197.897461,293.679688 202.248047,293.679688 C208.549805,293.679688 212.109375,297.713867 212.109375,304.516602 L212.109375,323 L202.775391,323 L202.775391,306.520508 C202.775391,303.224609 201.219727,301.299805 198.161133,301.299805 C195.181641,301.299805 193.335938,303.514648 193.335938,306.705078 L193.335938,323 L183.975586,323 Z M229.116211,323.606445 C220.573242,323.606445 215.985352,319.835938 215.352539,314.246094 L215.326172,314.008789 L224.396484,314.008789 L224.449219,314.219727 C224.897461,316.170898 226.374023,317.304688 229.116211,317.304688 C231.594727,317.304688 233.097656,316.408203 233.097656,314.931641 L233.097656,314.905273 C233.097656,313.613281 232.174805,312.901367 229.617188,312.374023 L224.554688,311.37207 C218.938477,310.291016 216.011719,307.364258 216.011719,302.987305 L216.011719,302.960938 C216.011719,297.239258 220.916016,293.679688 228.773438,293.679688 C237.079102,293.679688 241.482422,297.924805 241.561523,303.066406 L241.587891,303.277344 L233.044922,303.277344 L233.018555,303.066406 C232.807617,301.378906 231.357422,299.981445 228.773438,299.981445 C226.479492,299.981445 225.00293,300.930664 225.00293,302.433594 L225.00293,302.459961 C225.00293,303.699219 225.873047,304.4375 228.588867,304.991211 L233.651367,305.993164 C239.742188,307.206055 242.378906,309.579102 242.378906,313.876953 L242.378906,313.90332 C242.378906,319.835938 237,323.606445 229.116211,323.606445 Z M255.430664,323.606445 C249.128906,323.606445 245.542969,319.572266 245.542969,312.769531 L245.542969,294.286133 L254.90332,294.286133 L254.90332,310.765625 C254.90332,314.061523 256.432617,316.012695 259.517578,316.012695 C262.470703,316.012695 264.342773,313.771484 264.342773,310.581055 L264.342773,294.286133 L273.676758,294.286133 L273.676758,323 L264.342773,323 L264.342773,317.9375 L264.158203,317.9375 C262.708008,321.549805 259.78125,323.606445 255.430664,323.606445 Z M278.34375,323 L278.34375,284.952148 L287.704102,284.952148 L287.704102,323 L278.34375,323 Z M304.816406,323.606445 C297.855469,323.606445 294.691406,321.101562 294.691406,314.615234 L294.691406,301.141602 L290.789062,301.141602 L290.789062,294.286133 L294.691406,294.286133 L294.691406,287.667969 L304.051758,287.667969 L304.051758,294.286133 L309.193359,294.286133 L309.193359,301.141602 L304.051758,301.141602 L304.051758,313.349609 C304.051758,315.828125 305.15918,316.750977 307.453125,316.750977 C308.191406,316.750977 308.666016,316.698242 309.193359,316.619141 L309.193359,323.263672 C308.165039,323.448242 306.767578,323.606445 304.816406,323.606445 Z M317.81543,291.201172 C315.125977,291.201172 313.042969,289.091797 313.042969,286.586914 C313.042969,284.082031 315.125977,281.999023 317.81543,281.999023 C320.53125,281.999023 322.587891,284.082031 322.587891,286.586914 C322.587891,289.091797 320.53125,291.201172 317.81543,291.201172 Z M313.148438,323 L313.148438,294.286133 L322.482422,294.286133 L322.482422,323 L313.148438,323 Z M327.043945,323 L327.043945,294.286133 L336.404297,294.286133 L336.404297,299.348633 L336.588867,299.348633 C338.012695,295.736328 340.96582,293.679688 345.316406,293.679688 C351.618164,293.679688 355.177734,297.713867 355.177734,304.516602 L355.177734,323 L345.84375,323 L345.84375,306.520508 C345.84375,303.224609 344.288086,301.299805 341.229492,301.299805 C338.25,301.299805 336.404297,303.514648 336.404297,306.705078 L336.404297,323 L327.043945,323 Z M373.608398,332.834961 C365.302734,332.834961 360.055664,329.169922 359.422852,324.371094 L359.396484,324.133789 L368.414062,324.133789 L368.493164,324.291992 C368.941406,325.399414 370.708008,326.612305 373.661133,326.612305 C377.167969,326.612305 378.960938,324.87207 378.960938,322.288086 L378.960938,317.515625 L378.776367,317.515625 C377.378906,320.442383 374.214844,322.261719 370.048828,322.261719 C362.876953,322.261719 358.68457,317.146484 358.68457,308.260742 L358.68457,308.234375 C358.68457,298.953125 362.929688,293.679688 370.180664,293.679688 C374.241211,293.679688 377.326172,295.789062 378.75,299.243164 L378.960938,299.243164 L378.960938,294.286133 L388.294922,294.286133 L388.294922,322.182617 C388.294922,328.458008 382.652344,332.834961 373.608398,332.834961 Z M373.582031,315.775391 C376.87793,315.775391 379.013672,313.05957 379.013672,308.550781 L379.013672,308.524414 C379.013672,303.989258 376.851562,301.299805 373.582031,301.299805 C370.3125,301.299805 368.176758,303.989258 368.176758,308.498047 L368.176758,308.524414 C368.176758,313.033203 370.286133,315.775391 373.582031,315.775391 Z M246.202148,387.711914 C237.870117,387.711914 232.675781,383.651367 232.675781,377.165039 L232.675781,377.138672 C232.675781,372.999023 234.785156,369.755859 239.821289,366.987305 L241.21875,366.222656 C237.738281,362.267578 236.657227,360.105469 236.630859,357.626953 L236.630859,357.600586 C236.630859,352.353516 241.429688,348.530273 248.100586,348.530273 C254.613281,348.530273 259.148438,352.116211 259.148438,357.389648 L259.148438,357.416016 C259.148438,361.212891 256.775391,364.482422 251.52832,367.382812 L257.750977,373.869141 C258.515625,371.970703 258.884766,369.729492 258.884766,367.013672 L258.884766,365.748047 L266.399414,365.748047 L266.399414,367.488281 C266.399414,372.339844 265.265625,376.268555 263.103516,379.40625 L270.301758,386.894531 L270.301758,387 L260.414062,387 L258.014648,384.416016 C254.876953,386.472656 250.921875,387.711914 246.202148,387.711914 Z M244.356445,357.996094 C244.356445,359.551758 245.279297,360.817383 247.573242,363.269531 C250.31543,361.740234 251.712891,360.105469 251.712891,358.022461 L251.712891,357.996094 C251.712891,355.886719 250.183594,354.383789 248.074219,354.383789 C245.938477,354.383789 244.356445,355.939453 244.356445,357.969727 L244.356445,357.996094 Z M241.192383,376.374023 C241.192383,379.353516 243.644531,381.251953 247.177734,381.251953 C249.498047,381.251953 251.607422,380.487305 253.321289,379.327148 L245.490234,370.863281 L244.831055,371.258789 C242.194336,372.761719 241.192383,374.422852 241.192383,376.347656 L241.192383,376.374023 Z M82.9233398,451 L82.9233398,412.952148 L98.3745117,412.952148 C109.844238,412.952148 116.620605,419.59668 116.620605,431.699219 L116.620605,431.751953 C116.620605,443.907227 109.844238,451 98.3745117,451 L82.9233398,451 Z M92.6000977,443.195312 L97.1088867,443.195312 C103.410645,443.195312 106.785645,439.37207 106.785645,431.77832 L106.785645,431.725586 C106.785645,424.606445 103.199707,420.756836 97.1088867,420.756836 L92.6000977,420.756836 L92.6000977,443.195312 Z M134.39209,451.606445 C125.321777,451.606445 119.811035,445.9375 119.811035,436.65625 L119.811035,436.629883 C119.811035,427.401367 125.348145,421.679688 134.075684,421.679688 C142.750488,421.679688 148.26123,427.348633 148.26123,436.049805 L148.26123,438.791992 L128.960449,438.791992 C129.065918,442.667969 131.175293,444.961914 134.57666,444.961914 C137.58252,444.961914 139.217285,443.248047 139.63916,442.061523 L139.665527,441.929688 L148.103027,441.929688 L148.023926,442.246094 C147.153809,446.227539 143.541504,451.606445 134.39209,451.606445 Z M134.286621,428.324219 C131.544434,428.324219 129.566895,430.117188 129.092285,433.28125 L139.45459,433.28125 C138.97998,430.064453 137.028809,428.324219 134.286621,428.324219 Z M158.122559,451 L148.524902,422.286133 L158.570801,422.286133 L163.580566,443.168945 L163.765137,443.168945 L168.669434,422.286133 L178.45166,422.286133 L168.933105,451 L158.122559,451 Z M193.375488,451.606445 C184.305176,451.606445 178.794434,445.9375 178.794434,436.65625 L178.794434,436.629883 C178.794434,427.401367 184.331543,421.679688 193.059082,421.679688 C201.733887,421.679688 207.244629,427.348633 207.244629,436.049805 L207.244629,438.791992 L187.943848,438.791992 C188.049316,442.667969 190.158691,444.961914 193.560059,444.961914 C196.565918,444.961914 198.200684,443.248047 198.622559,442.061523 L198.648926,441.929688 L207.086426,441.929688 L207.007324,442.246094 C206.137207,446.227539 202.524902,451.606445 193.375488,451.606445 Z M193.27002,428.324219 C190.527832,428.324219 188.550293,430.117188 188.075684,433.28125 L198.437988,433.28125 C197.963379,430.064453 196.012207,428.324219 193.27002,428.324219 Z M211.015137,451 L211.015137,412.952148 L220.375488,412.952148 L220.375488,451 L211.015137,451 Z M238.83252,451.606445 C229.73584,451.606445 224.145996,446.12207 224.145996,436.65625 L224.145996,436.603516 C224.145996,427.295898 229.92041,421.679688 238.83252,421.679688 C247.770996,421.679688 253.519043,427.243164 253.519043,436.603516 L253.519043,436.65625 C253.519043,446.148438 247.876465,451.606445 238.83252,451.606445 Z M238.858887,444.513672 C242.049316,444.513672 244.053223,441.692383 244.053223,436.65625 L244.053223,436.603516 C244.053223,431.646484 241.996582,428.772461 238.83252,428.772461 C235.668457,428.772461 233.638184,431.646484 233.638184,436.603516 L233.638184,436.65625 C233.638184,441.71875 235.615723,444.513672 238.858887,444.513672 Z M257.131348,460.228516 L257.131348,422.286133 L266.491699,422.286133 L266.491699,427.401367 L266.702637,427.401367 C268.152832,423.81543 271.211426,421.679688 275.29834,421.679688 C282.549316,421.679688 286.768066,427.137695 286.768066,436.629883 L286.768066,436.65625 C286.768066,446.095703 282.575684,451.606445 275.403809,451.606445 C271.26416,451.606445 268.100098,449.523438 266.67627,446.069336 L266.491699,446.069336 L266.491699,460.228516 L257.131348,460.228516 Z M271.870605,444.012695 C275.166504,444.012695 277.275879,441.191406 277.275879,436.65625 L277.275879,436.629883 C277.275879,432.041992 275.166504,429.299805 271.870605,429.299805 C268.627441,429.299805 266.438965,432.068359 266.438965,436.65625 L266.438965,436.682617 C266.438965,441.217773 268.601074,444.012695 271.870605,444.012695 Z M290.433105,451 L290.433105,422.286133 L299.793457,422.286133 L299.793457,427.454102 L299.978027,427.454102 C301.085449,423.947266 304.144043,421.679688 308.072754,421.679688 C312.159668,421.679688 315.086426,423.920898 315.903809,427.823242 L316.088379,427.823242 C317.195801,424.105469 320.67627,421.679688 324.947754,421.679688 C330.563965,421.679688 334.387207,425.634766 334.387207,431.461914 L334.387207,451 L325.026855,451 L325.026855,433.861328 C325.026855,430.855469 323.629395,429.299805 320.992676,429.299805 C318.461426,429.299805 316.879395,431.119141 316.879395,433.966797 L316.879395,451 L307.940918,451 L307.940918,433.782227 C307.940918,430.881836 306.51709,429.299805 303.959473,429.299805 C301.428223,429.299805 299.793457,431.171875 299.793457,434.019531 L299.793457,451 L290.433105,451 Z M352.475098,451.606445 C343.404785,451.606445 337.894043,445.9375 337.894043,436.65625 L337.894043,436.629883 C337.894043,427.401367 343.431152,421.679688 352.158691,421.679688 C360.833496,421.679688 366.344238,427.348633 366.344238,436.049805 L366.344238,438.791992 L347.043457,438.791992 C347.148926,442.667969 349.258301,444.961914 352.659668,444.961914 C355.665527,444.961914 357.300293,443.248047 357.722168,442.061523 L357.748535,441.929688 L366.186035,441.929688 L366.106934,442.246094 C365.236816,446.227539 361.624512,451.606445 352.475098,451.606445 Z M352.369629,428.324219 C349.627441,428.324219 347.649902,430.117188 347.175293,433.28125 L357.537598,433.28125 C357.062988,430.064453 355.111816,428.324219 352.369629,428.324219 Z M369.956543,451 L369.956543,422.286133 L379.316895,422.286133 L379.316895,427.348633 L379.501465,427.348633 C380.925293,423.736328 383.878418,421.679688 388.229004,421.679688 C394.530762,421.679688 398.090332,425.713867 398.090332,432.516602 L398.090332,451 L388.756348,451 L388.756348,434.520508 C388.756348,431.224609 387.200684,429.299805 384.14209,429.299805 C381.162598,429.299805 379.316895,431.514648 379.316895,434.705078 L379.316895,451 L369.956543,451 Z M414.938965,451.606445 C407.978027,451.606445 404.813965,449.101562 404.813965,442.615234 L404.813965,429.141602 L400.911621,429.141602 L400.911621,422.286133 L404.813965,422.286133 L404.813965,415.667969 L414.174316,415.667969 L414.174316,422.286133 L419.315918,422.286133 L419.315918,429.141602 L414.174316,429.141602 L414.174316,441.349609 C414.174316,443.828125 415.281738,444.750977 417.575684,444.750977 C418.313965,444.750977 418.788574,444.698242 419.315918,444.619141 L419.315918,451.263672 C418.287598,451.448242 416.890137,451.606445 414.938965,451.606445 Z" id="Consulting&amp;Development" fill="#FFFFFF" fill-rule="nonzero" opacity="0.6"></path>
    </g>
</svg>