<?xml version="1.0" encoding="UTF-8"?>
<svg width="200px" height="300px" viewBox="0 0 200 300" version="1.1" xmlns="http://www.w3.org/2000/svg" xmlns:xlink="http://www.w3.org/1999/xlink">
    <!-- Generator: Sketch 53.2 (72643) - https://sketchapp.com -->
    <title>Group 6</title>
    <desc>Created with Sketch.</desc>
    <defs>
        <linearGradient x1="27.7777778%" y1="0%" x2="72.2222222%" y2="100%" id="linearGradient-1">
            <stop stop-color="#612CB8" offset="0%"></stop>
            <stop stop-color="#11A8DB" offset="65.2100372%"></stop>
            <stop stop-color="#11DBB4" offset="100%"></stop>
        </linearGradient>
    </defs>
    <g id="WWW" stroke="none" stroke-width="1" fill="none" fill-rule="evenodd">
        <g id="Desktop-HD" transform="translate(-742.000000, -113.000000)">
            <g id="Group-6" transform="translate(742.000000, 113.000000)">
                <path d="M74.096,202.072 C75.8080086,202.072 77.2799938,202.403997 78.512,203.068 C79.7440062,203.732003 80.6879967,204.635994 81.344,205.78 C82.0000033,206.924006 82.328,208.223993 82.328,209.68 C82.328,210.672005 82.1920014,211.639995 81.92,212.584 C81.6479986,213.528005 81.1880032,214.375996 80.54,215.128 C79.8919968,215.880004 79.0160055,216.475998 77.912,216.916 C76.8079945,217.356002 75.4320082,217.576 73.784,217.576 L67.928,217.576 C67.8639997,217.512 67.836,217.400001 67.844,217.24 C67.852,217.079999 67.8799998,216.968 67.928,216.904 C68.0240005,216.904 68.1999987,216.892 68.456,216.868 C68.7120013,216.844 68.9559988,216.8 69.188,216.736 C69.4200012,216.672 69.5439999,216.6 69.56,216.52 C69.6240003,216.327999 69.66,216.080002 69.668,215.776 C69.676,215.471998 69.68,215.144002 69.68,214.792 L69.68,204.784 C69.68,204.431998 69.676,204.100002 69.668,203.788 C69.66,203.475998 69.6240003,203.224001 69.56,203.032 C69.5439999,202.936 69.4200012,202.864 69.188,202.816 C68.9559988,202.768 68.7120013,202.732 68.456,202.708 C68.1999987,202.684 68.0240005,202.672 67.928,202.672 C67.8799998,202.608 67.852,202.496001 67.844,202.336 C67.836,202.175999 67.8639997,202.064 67.928,202 C68.4080024,202.016 68.8799977,202.036 69.344,202.06 C69.8080023,202.084 70.2639978,202.096 70.712,202.096 C71.1760023,202.096 71.7279968,202.092 72.368,202.084 C73.0080032,202.076 73.5839974,202.072 74.096,202.072 Z M71.744,204.544 L71.744,215.356 C71.744,215.604001 71.7559999,215.843999 71.78,216.076 C71.8040001,216.308001 71.8319998,216.448 71.864,216.496 C71.9600005,216.624001 72.1959981,216.712 72.572,216.76 C72.9480019,216.808 73.3519978,216.832 73.784,216.832 C74.9040056,216.832 75.9319953,216.592002 76.868,216.112 C77.8040047,215.631998 78.5599971,214.900005 79.136,213.916 C79.7120029,212.931995 80,211.680008 80,210.16 C80,208.831993 79.8200018,207.704005 79.46,206.776 C79.0999982,205.847995 78.6120031,205.092003 77.996,204.508 C77.3799969,203.923997 76.6840039,203.500001 75.908,203.236 C75.1319961,202.971999 74.3200042,202.84 73.472,202.84 C73.3759995,202.84 73.2000013,202.844 72.944,202.852 C72.6879987,202.86 72.4480011,202.88 72.224,202.912 C71.9999989,202.944 71.8720002,203 71.84,203.08 C71.7919998,203.240001 71.764,203.451999 71.756,203.716 C71.748,203.980001 71.744,204.255999 71.744,204.544 Z M86.096,211.696 C86.0799999,212.688005 86.2479982,213.519997 86.6,214.192 C86.9520018,214.864003 87.423997,215.363998 88.016,215.692 C88.608003,216.020002 89.2479966,216.184 89.936,216.184 C90.3680022,216.184 90.7599982,216.108001 91.112,215.956 C91.4640018,215.803999 91.7599988,215.628001 92,215.428 C92.2400012,215.227999 92.4079995,215.072001 92.504,214.96 C92.5200001,214.96 92.5559997,214.988 92.612,215.044 C92.6680003,215.1 92.696,215.176 92.696,215.272 C92.696,215.400001 92.6480005,215.543999 92.552,215.704 C92.4079993,215.928001 92.1840015,216.195998 91.88,216.508 C91.5759985,216.820002 91.1920023,217.095999 90.728,217.336 C90.2639977,217.576001 89.728003,217.696 89.12,217.696 C88.2079954,217.696 87.4000035,217.480002 86.696,217.048 C85.9919965,216.615998 85.440002,216.032004 85.04,215.296 C84.639998,214.559996 84.44,213.736005 84.44,212.824 C84.44,212.039996 84.5799986,211.308003 84.86,210.628 C85.1400014,209.947997 85.5079977,209.356003 85.964,208.852 C86.4200023,208.347997 86.9199973,207.952001 87.464,207.664 C88.0080027,207.375999 88.5359974,207.232 89.048,207.232 C89.7520035,207.232 90.3319977,207.351999 90.788,207.592 C91.2440023,207.832001 91.6039987,208.127998 91.868,208.48 C92.1320013,208.832002 92.3159995,209.183998 92.42,209.536 C92.5240005,209.888002 92.576,210.183999 92.576,210.424 C92.576,210.760002 92.5360004,211.023999 92.456,211.216 C92.3759996,211.408001 92.2240011,211.512 92,211.528 C91.8559993,211.544 91.5720021,211.556 91.148,211.564 C90.7239979,211.572 90.2400027,211.584 89.696,211.6 C89.1519973,211.616 88.6160026,211.632 88.088,211.648 C87.5599974,211.664 87.1120018,211.676 86.744,211.684 C86.3759982,211.692 86.1600003,211.696 86.096,211.696 Z M86.216,210.832 L90.032,210.832 C90.1760007,210.832 90.2999995,210.792 90.404,210.712 C90.5080005,210.632 90.5679999,210.488001 90.584,210.28 C90.6000001,210.087999 90.5440006,209.816002 90.416,209.464 C90.2879994,209.111998 90.0840014,208.792001 89.804,208.504 C89.5239986,208.215999 89.1440024,208.072 88.664,208.072 C88.1679975,208.072 87.7600016,208.211999 87.44,208.492 C87.1199984,208.772001 86.8680009,209.091998 86.684,209.452 C86.4999991,209.812002 86.3720004,210.131999 86.3,210.412 C86.2279996,210.692001 86.1999999,210.832 86.216,210.832 Z M98.12,207.256 C98.5840023,207.256 98.9719984,207.292 99.284,207.364 C99.5960016,207.436 100.007997,207.504 100.52,207.568 C100.6,207.920002 100.664,208.331998 100.712,208.804 C100.76,209.276002 100.792,209.719998 100.808,210.136 C100.808,210.216 100.728001,210.256 100.568,210.256 C100.504,210.256 100.436,210.248 100.364,210.232 C100.292,210.216 100.224,210.184 100.16,210.136 C100.08,209.847999 99.9480009,209.536002 99.764,209.2 C99.5799991,208.863998 99.3560013,208.580001 99.092,208.348 C98.8279987,208.115999 98.5280017,208 98.192,208 C97.6319972,208 97.2160014,208.139999 96.944,208.42 C96.6719986,208.700001 96.536,209.047998 96.536,209.464 C96.536,209.864002 96.631999,210.187999 96.824,210.436 C97.016001,210.684001 97.2679984,210.899999 97.58,211.084 C97.8920016,211.268001 98.2239982,211.463999 98.576,211.672 C98.9280018,211.880001 99.3119979,212.111999 99.728,212.368 C100.144002,212.624001 100.503998,212.923998 100.808,213.268 C101.112002,213.612002 101.264,214.031998 101.264,214.528 C101.264,215.152003 101.096002,215.707998 100.76,216.196 C100.423998,216.684002 99.9840027,217.067999 99.44,217.348 C98.8959973,217.628001 98.3040032,217.768 97.664,217.768 C97.1199973,217.768 96.6560019,217.716001 96.272,217.612 C95.8879981,217.507999 95.4400026,217.408 94.928,217.312 C94.8639997,217.135999 94.8000003,216.896002 94.736,216.592 C94.6719997,216.287998 94.6200002,215.976002 94.58,215.656 C94.5399998,215.335998 94.52,215.080001 94.52,214.888 C94.6480006,214.792 94.7919992,214.744 94.952,214.744 C95.0320004,214.744 95.0959998,214.76 95.144,214.792 C95.2400005,215.112002 95.4079988,215.443998 95.648,215.788 C95.8880012,216.132002 96.1839982,216.419999 96.536,216.652 C96.8880018,216.884001 97.2719979,217 97.688,217 C98.1680024,217 98.5679984,216.856001 98.888,216.568 C99.2080016,216.279999 99.368,215.864003 99.368,215.32 C99.368,214.839998 99.2240014,214.452001 98.936,214.156 C98.6479986,213.859999 98.2880022,213.596001 97.856,213.364 C97.4239978,213.131999 96.9760023,212.888001 96.512,212.632 C96.0479977,212.359999 95.6360018,212.028002 95.276,211.636 C94.9159982,211.243998 94.736,210.736003 94.736,210.112 C94.736,209.535997 94.8999984,209.032002 95.228,208.6 C95.5560016,208.167998 95.9759974,207.836001 96.488,207.604 C97.0000026,207.371999 97.5439971,207.256 98.12,207.256 Z M104.192,203.608 C104.192,203.287998 104.307999,203.012001 104.54,202.78 C104.772001,202.547999 105.047998,202.432 105.368,202.432 C105.688002,202.432 105.963999,202.547999 106.196,202.78 C106.428001,203.012001 106.544,203.287998 106.544,203.608 C106.544,203.928002 106.428001,204.203999 106.196,204.436 C105.963999,204.668001 105.688002,204.784 105.368,204.784 C105.047998,204.784 104.772001,204.668001 104.54,204.436 C104.307999,204.203999 104.192,203.928002 104.192,203.608 Z M106.448,214.792 C106.448,215.144002 106.452,215.471998 106.46,215.776 C106.468,216.080002 106.504,216.327999 106.568,216.52 C106.6,216.6 106.715999,216.672 106.916,216.736 C107.116001,216.8 107.327999,216.844 107.552,216.868 C107.776001,216.892 107.936,216.904 108.032,216.904 C108.08,216.968 108.108,217.079999 108.116,217.24 C108.124,217.400001 108.096,217.512 108.032,217.576 L106.772,217.492 C106.411998,217.468 106.000002,217.456 105.536,217.456 C105.087998,217.456 104.680002,217.468 104.312,217.492 C103.943998,217.516 103.520002,217.544 103.04,217.576 C102.976,217.512 102.948,217.400001 102.956,217.24 C102.964,217.079999 102.992,216.968 103.04,216.904 C103.136,216.904 103.299999,216.892 103.532,216.868 C103.764001,216.844 103.983999,216.8 104.192,216.736 C104.400001,216.672 104.512,216.6 104.528,216.52 C104.592,216.327999 104.628,216.080002 104.636,215.776 C104.644,215.471998 104.648,215.144002 104.648,214.792 L104.648,210.424 C104.648,210.263999 104.644,210.056001 104.636,209.8 C104.628,209.543999 104.592,209.344001 104.528,209.2 C104.48,209.055999 104.344001,208.956 104.12,208.9 C103.895999,208.844 103.672001,208.812 103.448,208.804 C103.223999,208.796 103.08,208.792 103.016,208.792 C103,208.76 102.984,208.664001 102.968,208.504 C102.952,208.343999 102.968,208.232 103.016,208.168 C103.624003,208.088 104.215997,207.968001 104.792,207.808 C105.368003,207.647999 105.887998,207.440001 106.352,207.184 C106.416,207.184 106.476,207.232 106.532,207.328 C106.588,207.424 106.616,207.504 106.616,207.568 C106.616,207.616 106.6,207.751999 106.568,207.976 C106.536,208.200001 106.508,208.423999 106.484,208.648 C106.46,208.872001 106.448,209.024 106.448,209.104 L106.448,214.792 Z M115.568,215.944 C116.192003,215.944 116.779997,216.055999 117.332,216.28 C117.884003,216.504001 118.331998,216.799998 118.676,217.168 C119.020002,217.536002 119.192,217.943998 119.192,218.392 C119.192,218.872002 119.028002,219.367997 118.7,219.88 C118.371998,220.392003 117.928003,220.871998 117.368,221.32 C116.807997,221.768002 116.160004,222.131999 115.424,222.412 C114.687996,222.692001 113.912004,222.832 113.096,222.832 C112.471997,222.832 111.848003,222.728001 111.224,222.52 C110.599997,222.311999 110.080002,221.996002 109.664,221.572 C109.247998,221.147998 109.04,220.616003 109.04,219.976 C109.04,219.623998 109.191998,219.288002 109.496,218.968 C109.800002,218.647998 110.151998,218.360001 110.552,218.104 C110.952002,217.847999 111.279999,217.656001 111.536,217.528 C111.263999,217.432 110.980001,217.288001 110.684,217.096 C110.387999,216.903999 110.136001,216.660001 109.928,216.364 C109.719999,216.067999 109.616,215.728002 109.616,215.344 C109.760001,215.183999 109.963999,214.996001 110.228,214.78 C110.492001,214.563999 110.755999,214.360001 111.02,214.168 C111.284001,213.975999 111.487999,213.84 111.632,213.76 C111.055997,213.439998 110.588002,213.004003 110.228,212.452 C109.867998,211.899997 109.688,211.336003 109.688,210.76 C109.688,210.135997 109.859998,209.556003 110.204,209.02 C110.548002,208.483997 111.019997,208.048002 111.62,207.712 C112.220003,207.375998 112.895996,207.208 113.648,207.208 C114.160003,207.208 114.591998,207.275999 114.944,207.412 C115.296002,207.548001 115.575999,207.656 115.784,207.736 C116.008001,207.816 116.124,207.856 116.132,207.856 C116.14,207.856 116.199999,207.872 116.312,207.904 L118.832,207.544 C118.976001,207.592 119.048,207.671999 119.048,207.784 C119.048,207.88 118.992001,208.043999 118.88,208.276 C118.767999,208.508001 118.648001,208.664 118.52,208.744 C118.327999,208.728 118.112001,208.716 117.872,208.708 C117.631999,208.7 117.424001,208.688 117.248,208.672 L116.984,208.648 C116.92,208.648 116.888,208.672 116.888,208.72 C116.952,208.784 117.075999,209.019998 117.26,209.428 C117.444001,209.836002 117.536,210.311997 117.536,210.856 C117.536,211.400003 117.364002,211.935997 117.02,212.464 C116.675998,212.992003 116.204003,213.427998 115.604,213.772 C115.003997,214.116002 114.328004,214.288 113.576,214.288 C113.367999,214.288 113.128001,214.264 112.856,214.216 C112.583999,214.168 112.384001,214.12 112.256,214.072 C112.047999,214.184001 111.852001,214.335999 111.668,214.528 C111.483999,214.720001 111.392,214.911999 111.392,215.104 C111.392,215.216001 111.511999,215.383999 111.752,215.608 C111.992001,215.832001 112.343998,215.944 112.808,215.944 L115.568,215.944 Z M114.488,217.6 C114.343999,217.6 114.108002,217.604 113.78,217.612 C113.451998,217.62 113.140001,217.632 112.844,217.648 C112.547999,217.664 112.368,217.688 112.304,217.72 C112.047999,217.880001 111.752002,218.103999 111.416,218.392 C111.079998,218.680001 110.912,218.975998 110.912,219.28 C110.912,220.032004 111.183997,220.659997 111.728,221.164 C112.272003,221.668003 113.039995,221.92 114.032,221.92 C114.576003,221.92 115.119997,221.800001 115.664,221.56 C116.208003,221.319999 116.663998,221.008002 117.032,220.624 C117.400002,220.239998 117.584,219.832002 117.584,219.4 C117.584,219.175999 117.480001,218.924001 117.272,218.644 C117.063999,218.363999 116.736002,218.120001 116.288,217.912 C115.839998,217.703999 115.240004,217.6 114.488,217.6 Z M113.552,207.928 C113.103998,207.928 112.728002,208.063999 112.424,208.336 C112.119998,208.608001 111.888001,208.951998 111.728,209.368 C111.567999,209.784002 111.488,210.215998 111.488,210.664 C111.488,211.144002 111.575999,211.607998 111.752,212.056 C111.928001,212.504002 112.183998,212.871999 112.52,213.16 C112.856002,213.448001 113.263998,213.592 113.744,213.592 C114.176002,213.592 114.539999,213.460001 114.836,213.196 C115.132001,212.931999 115.355999,212.596002 115.508,212.188 C115.660001,211.779998 115.736,211.360002 115.736,210.928 C115.736,210.431998 115.656001,209.956002 115.496,209.5 C115.335999,209.043998 115.096002,208.668001 114.776,208.372 C114.455998,208.075999 114.048002,207.928 113.552,207.928 Z M126.992,207.232 C127.840004,207.232 128.479998,207.407998 128.912,207.76 C129.344002,208.112002 129.635999,208.655996 129.788,209.392 C129.940001,210.128004 130.016,211.063994 130.016,212.2 L130.016,214.792 C130.016,215.144002 130.02,215.471998 130.028,215.776 C130.036,216.080002 130.072,216.327999 130.136,216.52 C130.168,216.6 130.283999,216.672 130.484,216.736 C130.684001,216.8 130.895999,216.844 131.12,216.868 C131.344001,216.892 131.504,216.904 131.6,216.904 C131.648,216.968 131.676,217.079999 131.684,217.24 C131.692,217.400001 131.664,217.512 131.6,217.576 L130.34,217.492 C129.979998,217.468 129.568002,217.456 129.104,217.456 C128.655998,217.456 128.248002,217.468 127.88,217.492 C127.511998,217.516 127.088002,217.544 126.608,217.576 C126.544,217.512 126.516,217.400001 126.524,217.24 C126.532,217.079999 126.56,216.968 126.608,216.904 C126.704,216.904 126.867999,216.892 127.1,216.868 C127.332001,216.844 127.551999,216.8 127.76,216.736 C127.968001,216.672 128.08,216.6 128.096,216.52 C128.16,216.327999 128.196,216.080002 128.204,215.776 C128.212,215.471998 128.216,215.144002 128.216,214.792 L128.216,212.44 C128.216,211.463995 128.152001,210.700003 128.024,210.148 C127.895999,209.595997 127.664002,209.200001 127.328,208.96 C126.991998,208.719999 126.520003,208.6 125.912,208.6 C125.623999,208.6 125.308002,208.691999 124.964,208.876 C124.619998,209.060001 124.320001,209.255999 124.064,209.464 C123.807999,209.672001 123.68,209.816 123.68,209.896 L123.68,214.792 C123.68,215.144002 123.684,215.471998 123.692,215.776 C123.7,216.080002 123.736,216.327999 123.8,216.52 C123.832,216.6 123.947999,216.672 124.148,216.736 C124.348001,216.8 124.559999,216.844 124.784,216.868 C125.008001,216.892 125.168,216.904 125.264,216.904 C125.312,216.968 125.34,217.079999 125.348,217.24 C125.356,217.400001 125.328,217.512 125.264,217.576 L124.004,217.492 C123.643998,217.468 123.232002,217.456 122.768,217.456 C122.319998,217.456 121.912002,217.468 121.544,217.492 C121.175998,217.516 120.752002,217.544 120.272,217.576 C120.208,217.512 120.18,217.400001 120.188,217.24 C120.196,217.079999 120.224,216.968 120.272,216.904 C120.368,216.904 120.531999,216.892 120.764,216.868 C120.996001,216.844 121.215999,216.8 121.424,216.736 C121.632001,216.672 121.744,216.6 121.76,216.52 C121.824,216.327999 121.86,216.080002 121.868,215.776 C121.876,215.471998 121.88,215.144002 121.88,214.792 L121.88,210.52 C121.88,210.359999 121.876,210.136001 121.868,209.848 C121.86,209.559999 121.824,209.344001 121.76,209.2 C121.712,209.055999 121.576001,208.956 121.352,208.9 C121.127999,208.844 120.904001,208.812 120.68,208.804 C120.455999,208.796 120.312,208.792 120.248,208.792 C120.232,208.76 120.216,208.664001 120.2,208.504 C120.184,208.343999 120.2,208.232 120.248,208.168 C120.856003,208.088 121.447997,207.968001 122.024,207.808 C122.600003,207.647999 123.119998,207.440001 123.584,207.184 C123.648,207.184 123.708,207.232 123.764,207.328 C123.82,207.424 123.848,207.504 123.848,207.568 C123.848,207.616 123.836,207.739999 123.812,207.94 C123.788,208.140001 123.764,208.335999 123.74,208.528 C123.716,208.720001 123.704,208.848 123.704,208.912 C123.704,208.976 123.72,209.008 123.752,209.008 C123.768,209.008 123.792,208.992 123.824,208.96 C123.984001,208.783999 124.243998,208.560001 124.604,208.288 C124.964002,208.015999 125.359998,207.772001 125.792,207.556 C126.224002,207.339999 126.623998,207.232 126.992,207.232 Z M98.612,226.12 C99.6520052,226.12 100.475997,226.347998 101.084,226.804 C101.692003,227.260002 101.996,227.911996 101.996,228.76 C101.996,229.464004 101.828002,230.083997 101.492,230.62 C101.155998,231.156003 100.724003,231.631998 100.196,232.048 C99.6679974,232.464002 99.108003,232.855998 98.516,233.224 C99.0120025,234.056004 99.563997,234.879996 100.172,235.696 C100.780003,236.512004 101.379997,237.247997 101.972,237.904 C102.404002,237.247997 102.735999,236.652003 102.968,236.116 C103.200001,235.579997 103.316,235.256001 103.316,235.144 C103.316,234.951999 103.216001,234.84 103.016,234.808 C102.815999,234.776 102.636001,234.76 102.476,234.76 C102.363999,234.744 102.292,234.736 102.26,234.736 C102.228,234.656 102.212,234.556001 102.212,234.436 C102.212,234.315999 102.236,234.232 102.284,234.184 L104.132,234.184 C104.548002,234.184 104.947998,234.168 105.332,234.136 C105.716002,234.104 106.179997,234.08 106.724,234.064 C106.756,234.08 106.768,234.195999 106.76,234.412 C106.752,234.628001 106.732,234.736 106.7,234.736 C106.491999,234.736 106.200002,234.78 105.824,234.868 C105.447998,234.956 105.196001,235.04 105.068,235.12 C105.036,235.136 104.916001,235.319998 104.708,235.672 C104.499999,236.024002 104.224002,236.463997 103.88,236.992 C103.535998,237.520003 103.124002,238.063997 102.644,238.624 C103.172003,239.168003 103.615998,239.607998 103.976,239.944 C104.336002,240.280002 104.651999,240.448 104.924,240.448 C105.100001,240.448 105.271999,240.380001 105.44,240.244 C105.608001,240.107999 105.759999,239.952001 105.896,239.776 C106.032001,239.599999 106.116,239.464 106.148,239.368 C106.276001,239.368 106.399999,239.419999 106.52,239.524 C106.640001,239.628001 106.7,239.72 106.7,239.8 C106.668,239.864 106.564001,240.035999 106.388,240.316 C106.211999,240.596001 105.944002,240.863999 105.584,241.12 C105.223998,241.376001 104.740003,241.504 104.132,241.504 C103.779998,241.504 103.444002,241.420001 103.124,241.252 C102.803998,241.083999 102.516001,240.888001 102.26,240.664 C102.003999,240.439999 101.804001,240.244001 101.66,240.076 L101.444,239.824 C100.883997,240.320002 100.224004,240.735998 99.464,241.072 C98.7039962,241.408002 97.9400038,241.576 97.172,241.576 C95.8119932,241.576 94.7160042,241.244003 93.884,240.58 C93.0519958,239.915997 92.636,238.992006 92.636,237.808 C92.636,237.055996 92.8239981,236.404003 93.2,235.852 C93.5760019,235.299997 94.059997,234.820002 94.652,234.412 C95.244003,234.003998 95.8679967,233.632002 96.524,233.296 C96.2039984,232.735997 95.8960015,232.136003 95.6,231.496 C95.3039985,230.855997 95.156,230.136004 95.156,229.336 C95.156,228.743997 95.3079985,228.204002 95.612,227.716 C95.9160015,227.227998 96.3279974,226.840001 96.848,226.552 C97.3680026,226.263999 97.9559967,226.12 98.612,226.12 Z M100.892,239.272 C100.507998,238.887998 100.096002,238.408003 99.656,237.832 C99.2159978,237.255997 98.800002,236.688003 98.408,236.128 C98.015998,235.567997 97.6920013,235.096002 97.436,234.712 L97.052,234.136 C96.6359979,234.424001 96.2440018,234.715999 95.876,235.012 C95.5079982,235.308001 95.2120011,235.651998 94.988,236.044 C94.7639989,236.436002 94.652,236.911997 94.652,237.472 C94.652,238.208004 94.8079984,238.803998 95.12,239.26 C95.4320016,239.716002 95.8439974,240.047999 96.356,240.256 C96.8680026,240.464001 97.4039972,240.568 97.964,240.568 C98.4280023,240.568 98.9399972,240.452001 99.5,240.22 C100.060003,239.987999 100.523998,239.672002 100.892,239.272 Z M98.732,226.984 C98.2359975,226.984 97.8040018,227.147998 97.436,227.476 C97.0679982,227.804002 96.884,228.239997 96.884,228.784 C96.884,229.360003 96.9919989,229.947997 97.208,230.548 C97.4240011,231.148003 97.7159982,231.791997 98.084,232.48 C98.8200037,232.063998 99.391998,231.616002 99.8,231.136 C100.208002,230.655998 100.412,229.968004 100.412,229.072 C100.412,228.543997 100.264001,228.064002 99.968,227.632 C99.6719985,227.199998 99.2600026,226.984 98.732,226.984 Z M24.92,249.88 C25.6880038,249.88 26.4919958,249.912 27.332,249.976 C28.1720042,250.04 29.0239957,250.167999 29.888,250.36 L29.972,250.852 C30.0280003,251.180002 30.0879997,251.563998 30.152,252.004 C30.2160003,252.444002 30.2759997,252.843998 30.332,253.204 C30.3880003,253.564002 30.416,253.776 30.416,253.84 C30.4320001,253.904 30.3840006,253.968 30.272,254.032 C30.1599994,254.096 30.0400006,254.128 29.912,254.128 C29.7999994,254.128 29.7040004,254.104 29.624,254.056 C29.5919998,253.879999 29.5160006,253.608002 29.396,253.24 C29.2759994,252.871998 29.0600016,252.488002 28.748,252.088 C28.4359984,251.687998 27.984003,251.348001 27.392,251.068 C26.799997,250.787999 26.0160049,250.648 25.04,250.648 C24.1759957,250.648 23.3920035,250.843998 22.688,251.236 C21.9839965,251.628002 21.3800025,252.155997 20.876,252.82 C20.3719975,253.484003 19.9880013,254.219996 19.724,255.028 C19.4599987,255.836004 19.328,256.647996 19.328,257.464 C19.328,258.376005 19.4519988,259.271996 19.7,260.152 C19.9480012,261.032004 20.3239975,261.827996 20.828,262.54 C21.3320025,263.252004 21.9639962,263.819998 22.724,264.244 C23.4840038,264.668002 24.3759949,264.88 25.4,264.88 C26.1200036,264.88 26.7319975,264.768001 27.236,264.544 C27.7400025,264.319999 28.1599983,264.056002 28.496,263.752 C28.9600023,263.335998 29.295999,262.872003 29.504,262.36 C29.712001,261.847997 29.8559996,261.400002 29.936,261.016 C30.2080014,260.984 30.4559989,261.047999 30.68,261.208 C30.68,261.320001 30.6520003,261.543998 30.596,261.88 C30.5399997,262.216002 30.4720004,262.579998 30.392,262.972 C30.3119996,263.364002 30.2240005,263.711998 30.128,264.016 C30.0319995,264.320002 29.9440004,264.512 29.864,264.592 C29.2239968,264.944002 28.4960041,265.207999 27.68,265.384 C26.8639959,265.560001 25.9120054,265.648 24.824,265.648 C23.6719942,265.648 22.6160048,265.444002 21.656,265.036 C20.6959952,264.627998 19.8680035,264.068004 19.172,263.356 C18.4759965,262.643996 17.9400019,261.828005 17.564,260.908 C17.1879981,259.987995 17,259.008005 17,257.968 C17,256.863994 17.195998,255.828005 17.588,254.86 C17.980002,253.891995 18.5279965,253.032004 19.232,252.28 C19.9360035,251.527996 20.7719952,250.940002 21.74,250.516 C22.7080048,250.091998 23.7679942,249.88 24.92,249.88 Z M37.616,255.208 C38.6560052,255.208 39.5479963,255.431998 40.292,255.88 C41.0360037,256.328002 41.611998,256.935996 42.02,257.704 C42.428002,258.472004 42.632,259.343995 42.632,260.32 C42.632,261.328005 42.4160022,262.235996 41.984,263.044 C41.5519978,263.852004 40.9600038,264.491998 40.208,264.964 C39.4559962,265.436002 38.6080047,265.672 37.664,265.672 C36.6399949,265.672 35.7480038,265.444002 34.988,264.988 C34.2279962,264.531998 33.644002,263.916004 33.236,263.14 C32.827998,262.363996 32.624,261.488005 32.624,260.512 C32.624,259.503995 32.8439978,258.600004 33.284,257.8 C33.7240022,256.999996 34.3199962,256.368002 35.072,255.904 C35.8240038,255.439998 36.6719953,255.208 37.616,255.208 Z M37.352,256 C36.6959967,256 36.168002,256.195998 35.768,256.588 C35.367998,256.980002 35.0800009,257.483997 34.904,258.1 C34.7279991,258.716003 34.64,259.359997 34.64,260.032 C34.64,260.784004 34.7639988,261.535996 35.012,262.288 C35.2600012,263.040004 35.6279976,263.663998 36.116,264.16 C36.6040024,264.656002 37.1999965,264.904 37.904,264.904 C38.5760034,264.904 39.107998,264.708002 39.5,264.316 C39.892002,263.923998 40.1759991,263.416003 40.352,262.792 C40.5280009,262.167997 40.616,261.528003 40.616,260.872 C40.616,260.103996 40.4880013,259.348004 40.232,258.604 C39.9759987,257.859996 39.6080024,257.240002 39.128,256.744 C38.6479976,256.247998 38.0560035,256 37.352,256 Z M51.152,255.232 C52.0000042,255.232 52.6399978,255.407998 53.072,255.76 C53.5040022,256.112002 53.7959992,256.655996 53.948,257.392 C54.1000008,258.128004 54.176,259.063994 54.176,260.2 L54.176,262.792 C54.176,263.144002 54.18,263.471998 54.188,263.776 C54.196,264.080002 54.2319997,264.327999 54.296,264.52 C54.3280002,264.6 54.443999,264.672 54.644,264.736 C54.844001,264.8 55.0559989,264.844 55.28,264.868 C55.5040011,264.892 55.6639995,264.904 55.76,264.904 C55.8080002,264.968 55.836,265.079999 55.844,265.24 C55.852,265.400001 55.8240003,265.512 55.76,265.576 L54.5,265.492 C54.1399982,265.468 53.7280023,265.456 53.264,265.456 C52.8159978,265.456 52.4080018,265.468 52.04,265.492 C51.6719982,265.516 51.2480024,265.544 50.768,265.576 C50.7039997,265.512 50.676,265.400001 50.684,265.24 C50.692,265.079999 50.7199998,264.968 50.768,264.904 C50.8640005,264.904 51.0279988,264.892 51.26,264.868 C51.4920012,264.844 51.711999,264.8 51.92,264.736 C52.128001,264.672 52.2399999,264.6 52.256,264.52 C52.3200003,264.327999 52.356,264.080002 52.364,263.776 C52.372,263.471998 52.376,263.144002 52.376,262.792 L52.376,260.44 C52.376,259.463995 52.3120006,258.700003 52.184,258.148 C52.0559994,257.595997 51.8240017,257.200001 51.488,256.96 C51.1519983,256.719999 50.680003,256.6 50.072,256.6 C49.7839986,256.6 49.4680017,256.691999 49.124,256.876 C48.7799983,257.060001 48.4800013,257.255999 48.224,257.464 C47.9679987,257.672001 47.84,257.816 47.84,257.896 L47.84,262.792 C47.84,263.144002 47.844,263.471998 47.852,263.776 C47.86,264.080002 47.8959997,264.327999 47.96,264.52 C47.9920002,264.6 48.107999,264.672 48.308,264.736 C48.508001,264.8 48.7199989,264.844 48.944,264.868 C49.1680011,264.892 49.3279995,264.904 49.424,264.904 C49.4720002,264.968 49.5,265.079999 49.508,265.24 C49.516,265.400001 49.4880003,265.512 49.424,265.576 L48.164,265.492 C47.8039982,265.468 47.3920023,265.456 46.928,265.456 C46.4799978,265.456 46.0720018,265.468 45.704,265.492 C45.3359982,265.516 44.9120024,265.544 44.432,265.576 C44.3679997,265.512 44.34,265.400001 44.348,265.24 C44.356,265.079999 44.3839998,264.968 44.432,264.904 C44.5280005,264.904 44.6919988,264.892 44.924,264.868 C45.1560012,264.844 45.375999,264.8 45.584,264.736 C45.792001,264.672 45.9039999,264.6 45.92,264.52 C45.9840003,264.327999 46.02,264.080002 46.028,263.776 C46.036,263.471998 46.04,263.144002 46.04,262.792 L46.04,258.52 C46.04,258.359999 46.036,258.136001 46.028,257.848 C46.02,257.559999 45.9840003,257.344001 45.92,257.2 C45.8719998,257.055999 45.7360011,256.956 45.512,256.9 C45.2879989,256.844 45.0640011,256.812 44.84,256.804 C44.6159989,256.796 44.4720003,256.792 44.408,256.792 C44.3919999,256.76 44.3760001,256.664001 44.36,256.504 C44.3439999,256.343999 44.3599998,256.232 44.408,256.168 C45.016003,256.088 45.6079971,255.968001 46.184,255.808 C46.7600029,255.647999 47.2799977,255.440001 47.744,255.184 C47.8080003,255.184 47.8679997,255.232 47.924,255.328 C47.9800003,255.424 48.008,255.504 48.008,255.568 C48.008,255.616 47.9960001,255.739999 47.972,255.94 C47.9479999,256.140001 47.9240001,256.335999 47.9,256.528 C47.8759999,256.720001 47.864,256.848 47.864,256.912 C47.864,256.976 47.8799998,257.008 47.912,257.008 C47.9280001,257.008 47.9519998,256.992 47.984,256.96 C48.1440008,256.783999 48.4039982,256.560001 48.764,256.288 C49.1240018,256.015999 49.5199978,255.772001 49.952,255.556 C50.3840022,255.339999 50.7839982,255.232 51.152,255.232 Z M59.792,255.376 L62.816,255.376 C62.8960004,255.376 62.936,255.463999 62.936,255.64 C62.936,255.880001 62.8240011,256.111999 62.6,256.336 L59.792,256.336 L59.792,262.48 C59.792,263.760006 60.3119948,264.4 61.352,264.4 C61.7040018,264.4 62.0239986,264.328001 62.312,264.184 C62.6000014,264.039999 62.7839996,263.936 62.864,263.872 C62.9120002,263.888 62.936,263.936 62.936,264.016 C62.936,264.192001 62.9040003,264.312 62.84,264.376 C62.7279994,264.504001 62.5560012,264.671999 62.324,264.88 C62.0919988,265.088001 61.8160016,265.271999 61.496,265.432 C61.1759984,265.592001 60.8240019,265.672 60.44,265.672 C60.039998,265.672 59.6520019,265.600001 59.276,265.456 C58.8999981,265.311999 58.5920012,265.056002 58.352,264.688 C58.1119988,264.319998 57.992,263.800003 57.992,263.128 L57.992,256.336 L56.624,256.336 C56.5919998,256.336 56.5680001,256.308 56.552,256.252 C56.5359999,256.196 56.528,256.152 56.528,256.12 C56.528,256.088 56.5759995,256.012001 56.672,255.892 C56.7680005,255.771999 56.8679995,255.656001 56.972,255.544 L57.128,255.376 L57.992,255.376 L57.992,253.912 C58.1520008,253.735999 58.3399989,253.532001 58.556,253.3 C58.7720011,253.067999 58.9679991,252.852001 59.144,252.652 C59.3200009,252.451999 59.4159999,252.344 59.432,252.328 C59.4960003,252.264 59.5719996,252.232 59.66,252.232 C59.7480004,252.232 59.792,252.256 59.792,252.304 L59.792,255.376 Z M65.912,259.696 C65.8959999,260.688005 66.0639982,261.519997 66.416,262.192 C66.7680018,262.864003 67.239997,263.363998 67.832,263.692 C68.424003,264.020002 69.0639966,264.184 69.752,264.184 C70.1840022,264.184 70.5759982,264.108001 70.928,263.956 C71.2800018,263.803999 71.5759988,263.628001 71.816,263.428 C72.0560012,263.227999 72.2239995,263.072001 72.32,262.96 C72.3360001,262.96 72.3719997,262.988 72.428,263.044 C72.4840003,263.1 72.512,263.176 72.512,263.272 C72.512,263.400001 72.4640005,263.543999 72.368,263.704 C72.2239993,263.928001 72.0000015,264.195998 71.696,264.508 C71.3919985,264.820002 71.0080023,265.095999 70.544,265.336 C70.0799977,265.576001 69.544003,265.696 68.936,265.696 C68.0239954,265.696 67.2160035,265.480002 66.512,265.048 C65.8079965,264.615998 65.256002,264.032004 64.856,263.296 C64.455998,262.559996 64.256,261.736005 64.256,260.824 C64.256,260.039996 64.3959986,259.308003 64.676,258.628 C64.9560014,257.947997 65.3239977,257.356003 65.78,256.852 C66.2360023,256.347997 66.7359973,255.952001 67.28,255.664 C67.8240027,255.375999 68.3519974,255.232 68.864,255.232 C69.5680035,255.232 70.1479977,255.351999 70.604,255.592 C71.0600023,255.832001 71.4199987,256.127998 71.684,256.48 C71.9480013,256.832002 72.1319995,257.183998 72.236,257.536 C72.3400005,257.888002 72.392,258.183999 72.392,258.424 C72.392,258.760002 72.3520004,259.023999 72.272,259.216 C72.1919996,259.408001 72.0400011,259.512 71.816,259.528 C71.6719993,259.544 71.3880021,259.556 70.964,259.564 C70.5399979,259.572 70.0560027,259.584 69.512,259.6 C68.9679973,259.616 68.4320026,259.632 67.904,259.648 C67.3759974,259.664 66.9280018,259.676 66.56,259.684 C66.1919982,259.692 65.9760003,259.696 65.912,259.696 Z M66.032,258.832 L69.848,258.832 C69.9920007,258.832 70.1159995,258.792 70.22,258.712 C70.3240005,258.632 70.3839999,258.488001 70.4,258.28 C70.4160001,258.087999 70.3600006,257.816002 70.232,257.464 C70.1039994,257.111998 69.9000014,256.792001 69.62,256.504 C69.3399986,256.215999 68.9600024,256.072 68.48,256.072 C67.9839975,256.072 67.5760016,256.211999 67.256,256.492 C66.9359984,256.772001 66.6840009,257.091998 66.5,257.452 C66.3159991,257.812002 66.1880004,258.131999 66.116,258.412 C66.0439996,258.692001 66.0159999,258.832 66.032,258.832 Z M80.936,255.232 C81.7840042,255.232 82.4239978,255.407998 82.856,255.76 C83.2880022,256.112002 83.5799992,256.655996 83.732,257.392 C83.8840008,258.128004 83.96,259.063994 83.96,260.2 L83.96,262.792 C83.96,263.144002 83.964,263.471998 83.972,263.776 C83.98,264.080002 84.0159997,264.327999 84.08,264.52 C84.1120002,264.6 84.227999,264.672 84.428,264.736 C84.628001,264.8 84.8399989,264.844 85.064,264.868 C85.2880011,264.892 85.4479995,264.904 85.544,264.904 C85.5920002,264.968 85.62,265.079999 85.628,265.24 C85.636,265.400001 85.6080003,265.512 85.544,265.576 L84.284,265.492 C83.9239982,265.468 83.5120023,265.456 83.048,265.456 C82.5999978,265.456 82.1920018,265.468 81.824,265.492 C81.4559982,265.516 81.0320024,265.544 80.552,265.576 C80.4879997,265.512 80.46,265.400001 80.468,265.24 C80.476,265.079999 80.5039998,264.968 80.552,264.904 C80.6480005,264.904 80.8119988,264.892 81.044,264.868 C81.2760012,264.844 81.495999,264.8 81.704,264.736 C81.912001,264.672 82.0239999,264.6 82.04,264.52 C82.1040003,264.327999 82.14,264.080002 82.148,263.776 C82.156,263.471998 82.16,263.144002 82.16,262.792 L82.16,260.44 C82.16,259.463995 82.0960006,258.700003 81.968,258.148 C81.8399994,257.595997 81.6080017,257.200001 81.272,256.96 C80.9359983,256.719999 80.464003,256.6 79.856,256.6 C79.5679986,256.6 79.2520017,256.691999 78.908,256.876 C78.5639983,257.060001 78.2640013,257.255999 78.008,257.464 C77.7519987,257.672001 77.624,257.816 77.624,257.896 L77.624,262.792 C77.624,263.144002 77.628,263.471998 77.636,263.776 C77.644,264.080002 77.6799997,264.327999 77.744,264.52 C77.7760002,264.6 77.891999,264.672 78.092,264.736 C78.292001,264.8 78.5039989,264.844 78.728,264.868 C78.9520011,264.892 79.1119995,264.904 79.208,264.904 C79.2560002,264.968 79.284,265.079999 79.292,265.24 C79.3,265.400001 79.2720003,265.512 79.208,265.576 L77.948,265.492 C77.5879982,265.468 77.1760023,265.456 76.712,265.456 C76.2639978,265.456 75.8560018,265.468 75.488,265.492 C75.1199982,265.516 74.6960024,265.544 74.216,265.576 C74.1519997,265.512 74.124,265.400001 74.132,265.24 C74.14,265.079999 74.1679998,264.968 74.216,264.904 C74.3120005,264.904 74.4759988,264.892 74.708,264.868 C74.9400012,264.844 75.159999,264.8 75.368,264.736 C75.576001,264.672 75.6879999,264.6 75.704,264.52 C75.7680003,264.327999 75.804,264.080002 75.812,263.776 C75.82,263.471998 75.824,263.144002 75.824,262.792 L75.824,258.52 C75.824,258.359999 75.82,258.136001 75.812,257.848 C75.804,257.559999 75.7680003,257.344001 75.704,257.2 C75.6559998,257.055999 75.5200011,256.956 75.296,256.9 C75.0719989,256.844 74.8480011,256.812 74.624,256.804 C74.3999989,256.796 74.2560003,256.792 74.192,256.792 C74.1759999,256.76 74.1600001,256.664001 74.144,256.504 C74.1279999,256.343999 74.1439998,256.232 74.192,256.168 C74.800003,256.088 75.3919971,255.968001 75.968,255.808 C76.5440029,255.647999 77.0639977,255.440001 77.528,255.184 C77.5920003,255.184 77.6519997,255.232 77.708,255.328 C77.7640003,255.424 77.792,255.504 77.792,255.568 C77.792,255.616 77.7800001,255.739999 77.756,255.94 C77.7319999,256.140001 77.7080001,256.335999 77.684,256.528 C77.6599999,256.720001 77.648,256.848 77.648,256.912 C77.648,256.976 77.6639998,257.008 77.696,257.008 C77.7120001,257.008 77.7359998,256.992 77.768,256.96 C77.9280008,256.783999 78.1879982,256.560001 78.548,256.288 C78.9080018,256.015999 79.3039978,255.772001 79.736,255.556 C80.1680022,255.339999 80.5679982,255.232 80.936,255.232 Z M89.576,255.376 L92.6,255.376 C92.6800004,255.376 92.72,255.463999 92.72,255.64 C92.72,255.880001 92.6080011,256.111999 92.384,256.336 L89.576,256.336 L89.576,262.48 C89.576,263.760006 90.0959948,264.4 91.136,264.4 C91.4880018,264.4 91.8079986,264.328001 92.096,264.184 C92.3840014,264.039999 92.5679996,263.936 92.648,263.872 C92.6960002,263.888 92.72,263.936 92.72,264.016 C92.72,264.192001 92.6880003,264.312 92.624,264.376 C92.5119994,264.504001 92.3400012,264.671999 92.108,264.88 C91.8759988,265.088001 91.6000016,265.271999 91.28,265.432 C90.9599984,265.592001 90.6080019,265.672 90.224,265.672 C89.823998,265.672 89.4360019,265.600001 89.06,265.456 C88.6839981,265.311999 88.3760012,265.056002 88.136,264.688 C87.8959988,264.319998 87.776,263.800003 87.776,263.128 L87.776,256.336 L86.408,256.336 C86.3759998,256.336 86.3520001,256.308 86.336,256.252 C86.3199999,256.196 86.312,256.152 86.312,256.12 C86.312,256.088 86.3599995,256.012001 86.456,255.892 C86.5520005,255.771999 86.6519995,255.656001 86.756,255.544 L86.912,255.376 L87.776,255.376 L87.776,253.912 C87.9360008,253.735999 88.1239989,253.532001 88.34,253.3 C88.5560011,253.067999 88.7519991,252.852001 88.928,252.652 C89.1040009,252.451999 89.1999999,252.344 89.216,252.328 C89.2800003,252.264 89.3559996,252.232 89.444,252.232 C89.5320004,252.232 89.576,252.256 89.576,252.304 L89.576,255.376 Z M109.16,249.88 C109.928004,249.88 110.731996,249.912 111.572,249.976 C112.412004,250.04 113.263996,250.167999 114.128,250.36 L114.212,250.852 C114.268,251.180002 114.328,251.563998 114.392,252.004 C114.456,252.444002 114.516,252.843998 114.572,253.204 C114.628,253.564002 114.656,253.776 114.656,253.84 C114.672,253.904 114.624001,253.968 114.512,254.032 C114.399999,254.096 114.280001,254.128 114.152,254.128 C114.039999,254.128 113.944,254.104 113.864,254.056 C113.832,253.879999 113.756001,253.608002 113.636,253.24 C113.515999,252.871998 113.300002,252.488002 112.988,252.088 C112.675998,251.687998 112.224003,251.348001 111.632,251.068 C111.039997,250.787999 110.256005,250.648 109.28,250.648 C108.415996,250.648 107.632004,250.843998 106.928,251.236 C106.223996,251.628002 105.620003,252.155997 105.116,252.82 C104.611997,253.484003 104.228001,254.219996 103.964,255.028 C103.699999,255.836004 103.568,256.647996 103.568,257.464 C103.568,258.376005 103.691999,259.271996 103.94,260.152 C104.188001,261.032004 104.563997,261.827996 105.068,262.54 C105.572003,263.252004 106.203996,263.819998 106.964,264.244 C107.724004,264.668002 108.615995,264.88 109.64,264.88 C110.360004,264.88 110.971997,264.768001 111.476,264.544 C111.980003,264.319999 112.399998,264.056002 112.736,263.752 C113.200002,263.335998 113.535999,262.872003 113.744,262.36 C113.952001,261.847997 114.096,261.400002 114.176,261.016 C114.448001,260.984 114.695999,261.047999 114.92,261.208 C114.92,261.320001 114.892,261.543998 114.836,261.88 C114.78,262.216002 114.712,262.579998 114.632,262.972 C114.552,263.364002 114.464,263.711998 114.368,264.016 C114.272,264.320002 114.184,264.512 114.104,264.592 C113.463997,264.944002 112.736004,265.207999 111.92,265.384 C111.103996,265.560001 110.152005,265.648 109.064,265.648 C107.911994,265.648 106.856005,265.444002 105.896,265.036 C104.935995,264.627998 104.108003,264.068004 103.412,263.356 C102.715997,262.643996 102.180002,261.828005 101.804,260.908 C101.427998,259.987995 101.24,259.008005 101.24,257.968 C101.24,256.863994 101.435998,255.828005 101.828,254.86 C102.220002,253.891995 102.767996,253.032004 103.472,252.28 C104.176004,251.527996 105.011995,250.940002 105.98,250.516 C106.948005,250.091998 108.007994,249.88 109.16,249.88 Z M123.008,255.256 C123.312002,255.256 123.599999,255.323999 123.872,255.46 C124.144001,255.596001 124.335999,255.759999 124.448,255.952 C124.48,256.016 124.504,256.103999 124.52,256.216 C124.536,256.328001 124.544,256.447999 124.544,256.576 C124.544,257.008002 124.444001,257.319999 124.244,257.512 C124.043999,257.704001 123.880001,257.8 123.752,257.8 C123.591999,257.8 123.440001,257.744001 123.296,257.632 C123.151999,257.519999 123.016001,257.424 122.888,257.344 C122.775999,257.264 122.660001,257.196 122.54,257.14 C122.419999,257.084 122.248001,257.056 122.024,257.056 C121.687998,257.056 121.380001,257.195999 121.1,257.476 C120.819999,257.756001 120.592001,258.063998 120.416,258.4 C120.239999,258.736002 120.152,258.991999 120.152,259.168 L120.152,262.792 C120.152,263.144002 120.156,263.471998 120.164,263.776 C120.172,264.080002 120.208,264.327999 120.272,264.52 C120.304,264.6 120.463999,264.672 120.752,264.736 C121.040001,264.8 121.343998,264.844 121.664,264.868 C121.984002,264.892 122.192,264.904 122.288,264.904 C122.336,264.968 122.364,265.079999 122.372,265.24 C122.38,265.400001 122.352,265.512 122.288,265.576 C121.807998,265.544 121.320002,265.516 120.824,265.492 C120.327998,265.468 119.848002,265.456 119.384,265.456 C118.935998,265.456 118.504002,265.468 118.088,265.492 C117.671998,265.516 117.224002,265.544 116.744,265.576 C116.68,265.512 116.652,265.400001 116.66,265.24 C116.668,265.079999 116.696,264.968 116.744,264.904 C116.84,264.904 117.003999,264.892 117.236,264.868 C117.468001,264.844 117.687999,264.8 117.896,264.736 C118.104001,264.672 118.216,264.6 118.232,264.52 C118.296,264.327999 118.332,264.080002 118.34,263.776 C118.348,263.471998 118.352,263.144002 118.352,262.792 L118.352,258.424 C118.352,258.263999 118.348,258.056001 118.34,257.8 C118.332,257.543999 118.296,257.344001 118.232,257.2 C118.184,257.055999 118.048001,256.956 117.824,256.9 C117.599999,256.844 117.376001,256.812 117.152,256.804 C116.927999,256.796 116.784,256.792 116.72,256.792 C116.704,256.76 116.688,256.664001 116.672,256.504 C116.656,256.343999 116.672,256.232 116.72,256.168 C117.328003,256.088 117.919997,255.968001 118.496,255.808 C119.072003,255.647999 119.591998,255.440001 120.056,255.184 C120.12,255.184 120.18,255.232 120.236,255.328 C120.292,255.424 120.32,255.504 120.32,255.568 C120.32,255.616 120.304,255.799998 120.272,256.12 C120.24,256.440002 120.212,256.763998 120.188,257.092 C120.164,257.420002 120.152,257.632 120.152,257.728 C120.152,257.776 120.164,257.8 120.188,257.8 C120.212,257.8 120.232,257.792 120.248,257.776 C120.408001,257.439998 120.635999,257.076002 120.932,256.684 C121.228001,256.291998 121.559998,255.956001 121.928,255.676 C122.296002,255.395999 122.655998,255.256 123.008,255.256 Z M127.376,259.696 C127.36,260.688005 127.527998,261.519997 127.88,262.192 C128.232002,262.864003 128.703997,263.363998 129.296,263.692 C129.888003,264.020002 130.527997,264.184 131.216,264.184 C131.648002,264.184 132.039998,264.108001 132.392,263.956 C132.744002,263.803999 133.039999,263.628001 133.28,263.428 C133.520001,263.227999 133.688,263.072001 133.784,262.96 C133.8,262.96 133.836,262.988 133.892,263.044 C133.948,263.1 133.976,263.176 133.976,263.272 C133.976,263.400001 133.928,263.543999 133.832,263.704 C133.687999,263.928001 133.464002,264.195998 133.16,264.508 C132.855998,264.820002 132.472002,265.095999 132.008,265.336 C131.543998,265.576001 131.008003,265.696 130.4,265.696 C129.487995,265.696 128.680004,265.480002 127.976,265.048 C127.271996,264.615998 126.720002,264.032004 126.32,263.296 C125.919998,262.559996 125.72,261.736005 125.72,260.824 C125.72,260.039996 125.859999,259.308003 126.14,258.628 C126.420001,257.947997 126.787998,257.356003 127.244,256.852 C127.700002,256.347997 128.199997,255.952001 128.744,255.664 C129.288003,255.375999 129.815997,255.232 130.328,255.232 C131.032004,255.232 131.611998,255.351999 132.068,255.592 C132.524002,255.832001 132.883999,256.127998 133.148,256.48 C133.412001,256.832002 133.595999,257.183998 133.7,257.536 C133.804001,257.888002 133.856,258.183999 133.856,258.424 C133.856,258.760002 133.816,259.023999 133.736,259.216 C133.656,259.408001 133.504001,259.512 133.28,259.528 C133.135999,259.544 132.852002,259.556 132.428,259.564 C132.003998,259.572 131.520003,259.584 130.976,259.6 C130.431997,259.616 129.896003,259.632 129.368,259.648 C128.839997,259.664 128.392002,259.676 128.024,259.684 C127.655998,259.692 127.44,259.696 127.376,259.696 Z M127.496,258.832 L131.312,258.832 C131.456001,258.832 131.579999,258.792 131.684,258.712 C131.788001,258.632 131.848,258.488001 131.864,258.28 C131.88,258.087999 131.824001,257.816002 131.696,257.464 C131.567999,257.111998 131.364001,256.792001 131.084,256.504 C130.803999,256.215999 130.424002,256.072 129.944,256.072 C129.447998,256.072 129.040002,256.211999 128.72,256.492 C128.399998,256.772001 128.148001,257.091998 127.964,257.452 C127.779999,257.812002 127.652,258.131999 127.58,258.412 C127.508,258.692001 127.48,258.832 127.496,258.832 Z M140.48,255.28 C140.928002,255.28 141.347998,255.423999 141.74,255.712 C142.132002,256.000001 142.447999,256.383998 142.688,256.864 C142.928001,257.344002 143.048,257.887997 143.048,258.496 L143.048,263.32 C143.048,263.624002 143.103999,263.883999 143.216,264.1 C143.328001,264.316001 143.511999,264.424 143.768,264.424 C143.992001,264.424 144.167999,264.376 144.296,264.28 C144.424001,264.184 144.504,264.128 144.536,264.112 C144.568,264.112 144.592,264.136 144.608,264.184 C144.624,264.232 144.632,264.272 144.632,264.304 C144.632,264.480001 144.592,264.631999 144.512,264.76 C144.416,264.84 144.260001,264.951999 144.044,265.096 C143.827999,265.240001 143.604001,265.367999 143.372,265.48 C143.139999,265.592001 142.936001,265.648 142.76,265.648 C142.423998,265.648 142.124001,265.480002 141.86,265.144 C141.595999,264.807998 141.424,264.464002 141.344,264.112 C141.28,264.176 141.132001,264.295999 140.9,264.472 C140.667999,264.648001 140.400002,264.827999 140.096,265.012 C139.791998,265.196001 139.492001,265.355999 139.196,265.492 C138.899999,265.628001 138.648001,265.696 138.44,265.696 C137.671996,265.696 137.024003,265.436003 136.496,264.916 C135.967997,264.395997 135.704,263.760004 135.704,263.008 C135.704,262.527998 135.835999,262.116002 136.1,261.772 C136.364001,261.427998 136.623999,261.208 136.88,261.112 C137.328002,260.951999 137.827997,260.780001 138.38,260.596 C138.932003,260.411999 139.447998,260.232001 139.928,260.056 C140.408002,259.879999 140.759999,259.744 140.984,259.648 C141.112001,259.6 141.192,259.54 141.224,259.468 C141.256,259.396 141.272,259.256001 141.272,259.048 L141.272,258.424 C141.272,258.071998 141.184001,257.724002 141.008,257.38 C140.831999,257.035998 140.592002,256.748001 140.288,256.516 C139.983998,256.283999 139.640002,256.168 139.256,256.168 C138.855998,256.168 138.560001,256.295999 138.368,256.552 C138.175999,256.808001 138.04,257.167998 137.96,257.632 C137.815999,258.384004 137.448003,258.76 136.856,258.76 C136.599999,258.76 136.404001,258.656001 136.268,258.448 C136.131999,258.239999 136.064,258.016001 136.064,257.776 C136.064,257.728 136.08,257.636001 136.112,257.5 C136.144,257.363999 136.184,257.264 136.232,257.2 C136.472001,256.975999 136.815998,256.712002 137.264,256.408 C137.712002,256.103998 138.219997,255.840001 138.788,255.616 C139.356003,255.391999 139.919997,255.28 140.48,255.28 Z M139.232,264.424 C139.504001,264.424 139.799998,264.360001 140.12,264.232 C140.440002,264.103999 140.711999,263.964001 140.936,263.812 C141.160001,263.659999 141.272,263.544 141.272,263.464 L141.272,260.272 C140.967998,260.368 140.584002,260.487999 140.12,260.632 C139.655998,260.776001 139.312001,260.888 139.088,260.968 C138.671998,261.128001 138.328001,261.359998 138.056,261.664 C137.783999,261.968002 137.648,262.343998 137.648,262.792 C137.648,263.224002 137.799998,263.603998 138.104,263.932 C138.408002,264.260002 138.783998,264.424 139.232,264.424 Z M148.664,255.376 L151.688,255.376 C151.768,255.376 151.808,255.463999 151.808,255.64 C151.808,255.880001 151.696001,256.111999 151.472,256.336 L148.664,256.336 L148.664,262.48 C148.664,263.760006 149.183995,264.4 150.224,264.4 C150.576002,264.4 150.895999,264.328001 151.184,264.184 C151.472001,264.039999 151.656,263.936 151.736,263.872 C151.784,263.888 151.808,263.936 151.808,264.016 C151.808,264.192001 151.776,264.312 151.712,264.376 C151.599999,264.504001 151.428001,264.671999 151.196,264.88 C150.963999,265.088001 150.688002,265.271999 150.368,265.432 C150.047998,265.592001 149.696002,265.672 149.312,265.672 C148.911998,265.672 148.524002,265.600001 148.148,265.456 C147.771998,265.311999 147.464001,265.056002 147.224,264.688 C146.983999,264.319998 146.864,263.800003 146.864,263.128 L146.864,256.336 L145.496,256.336 C145.464,256.336 145.44,256.308 145.424,256.252 C145.408,256.196 145.4,256.152 145.4,256.12 C145.4,256.088 145.448,256.012001 145.544,255.892 C145.64,255.771999 145.739999,255.656001 145.844,255.544 L146,255.376 L146.864,255.376 L146.864,253.912 C147.024001,253.735999 147.211999,253.532001 147.428,253.3 C147.644001,253.067999 147.839999,252.852001 148.016,252.652 C148.192001,252.451999 148.288,252.344 148.304,252.328 C148.368,252.264 148.444,252.232 148.532,252.232 C148.62,252.232 148.664,252.256 148.664,252.304 L148.664,255.376 Z M154.184,251.608 C154.184,251.287998 154.299999,251.012001 154.532,250.78 C154.764001,250.547999 155.039998,250.432 155.36,250.432 C155.680002,250.432 155.955999,250.547999 156.188,250.78 C156.420001,251.012001 156.536,251.287998 156.536,251.608 C156.536,251.928002 156.420001,252.203999 156.188,252.436 C155.955999,252.668001 155.680002,252.784 155.36,252.784 C155.039998,252.784 154.764001,252.668001 154.532,252.436 C154.299999,252.203999 154.184,251.928002 154.184,251.608 Z M156.44,262.792 C156.44,263.144002 156.444,263.471998 156.452,263.776 C156.46,264.080002 156.496,264.327999 156.56,264.52 C156.592,264.6 156.707999,264.672 156.908,264.736 C157.108001,264.8 157.319999,264.844 157.544,264.868 C157.768001,264.892 157.928,264.904 158.024,264.904 C158.072,264.968 158.1,265.079999 158.108,265.24 C158.116,265.400001 158.088,265.512 158.024,265.576 L156.764,265.492 C156.403998,265.468 155.992002,265.456 155.528,265.456 C155.079998,265.456 154.672002,265.468 154.304,265.492 C153.935998,265.516 153.512002,265.544 153.032,265.576 C152.968,265.512 152.94,265.400001 152.948,265.24 C152.956,265.079999 152.984,264.968 153.032,264.904 C153.128,264.904 153.291999,264.892 153.524,264.868 C153.756001,264.844 153.975999,264.8 154.184,264.736 C154.392001,264.672 154.504,264.6 154.52,264.52 C154.584,264.327999 154.62,264.080002 154.628,263.776 C154.636,263.471998 154.64,263.144002 154.64,262.792 L154.64,258.424 C154.64,258.263999 154.636,258.056001 154.628,257.8 C154.62,257.543999 154.584,257.344001 154.52,257.2 C154.472,257.055999 154.336001,256.956 154.112,256.9 C153.887999,256.844 153.664001,256.812 153.44,256.804 C153.215999,256.796 153.072,256.792 153.008,256.792 C152.992,256.76 152.976,256.664001 152.96,256.504 C152.944,256.343999 152.96,256.232 153.008,256.168 C153.616003,256.088 154.207997,255.968001 154.784,255.808 C155.360003,255.647999 155.879998,255.440001 156.344,255.184 C156.408,255.184 156.468,255.232 156.524,255.328 C156.58,255.424 156.608,255.504 156.608,255.568 C156.608,255.616 156.592,255.751999 156.56,255.976 C156.528,256.200001 156.5,256.423999 156.476,256.648 C156.452,256.872001 156.44,257.024 156.44,257.104 L156.44,262.792 Z M164.456,255.208 C165.496005,255.208 166.387996,255.431998 167.132,255.88 C167.876004,256.328002 168.451998,256.935996 168.86,257.704 C169.268002,258.472004 169.472,259.343995 169.472,260.32 C169.472,261.328005 169.256002,262.235996 168.824,263.044 C168.391998,263.852004 167.800004,264.491998 167.048,264.964 C166.295996,265.436002 165.448005,265.672 164.504,265.672 C163.479995,265.672 162.588004,265.444002 161.828,264.988 C161.067996,264.531998 160.484002,263.916004 160.076,263.14 C159.667998,262.363996 159.464,261.488005 159.464,260.512 C159.464,259.503995 159.683998,258.600004 160.124,257.8 C160.564002,256.999996 161.159996,256.368002 161.912,255.904 C162.664004,255.439998 163.511995,255.208 164.456,255.208 Z M164.192,256 C163.535997,256 163.008002,256.195998 162.608,256.588 C162.207998,256.980002 161.920001,257.483997 161.744,258.1 C161.567999,258.716003 161.48,259.359997 161.48,260.032 C161.48,260.784004 161.603999,261.535996 161.852,262.288 C162.100001,263.040004 162.467998,263.663998 162.956,264.16 C163.444002,264.656002 164.039996,264.904 164.744,264.904 C165.416003,264.904 165.947998,264.708002 166.34,264.316 C166.732002,263.923998 167.015999,263.416003 167.192,262.792 C167.368001,262.167997 167.456,261.528003 167.456,260.872 C167.456,260.103996 167.328001,259.348004 167.072,258.604 C166.815999,257.859996 166.448002,257.240002 165.968,256.744 C165.487998,256.247998 164.896004,256 164.192,256 Z M177.992,255.232 C178.840004,255.232 179.479998,255.407998 179.912,255.76 C180.344002,256.112002 180.635999,256.655996 180.788,257.392 C180.940001,258.128004 181.016,259.063994 181.016,260.2 L181.016,262.792 C181.016,263.144002 181.02,263.471998 181.028,263.776 C181.036,264.080002 181.072,264.327999 181.136,264.52 C181.168,264.6 181.283999,264.672 181.484,264.736 C181.684001,264.8 181.895999,264.844 182.12,264.868 C182.344001,264.892 182.504,264.904 182.6,264.904 C182.648,264.968 182.676,265.079999 182.684,265.24 C182.692,265.400001 182.664,265.512 182.6,265.576 L181.34,265.492 C180.979998,265.468 180.568002,265.456 180.104,265.456 C179.655998,265.456 179.248002,265.468 178.88,265.492 C178.511998,265.516 178.088002,265.544 177.608,265.576 C177.544,265.512 177.516,265.400001 177.524,265.24 C177.532,265.079999 177.56,264.968 177.608,264.904 C177.704,264.904 177.867999,264.892 178.1,264.868 C178.332001,264.844 178.551999,264.8 178.76,264.736 C178.968001,264.672 179.08,264.6 179.096,264.52 C179.16,264.327999 179.196,264.080002 179.204,263.776 C179.212,263.471998 179.216,263.144002 179.216,262.792 L179.216,260.44 C179.216,259.463995 179.152001,258.700003 179.024,258.148 C178.895999,257.595997 178.664002,257.200001 178.328,256.96 C177.991998,256.719999 177.520003,256.6 176.912,256.6 C176.623999,256.6 176.308002,256.691999 175.964,256.876 C175.619998,257.060001 175.320001,257.255999 175.064,257.464 C174.807999,257.672001 174.68,257.816 174.68,257.896 L174.68,262.792 C174.68,263.144002 174.684,263.471998 174.692,263.776 C174.7,264.080002 174.736,264.327999 174.8,264.52 C174.832,264.6 174.947999,264.672 175.148,264.736 C175.348001,264.8 175.559999,264.844 175.784,264.868 C176.008001,264.892 176.168,264.904 176.264,264.904 C176.312,264.968 176.34,265.079999 176.348,265.24 C176.356,265.400001 176.328,265.512 176.264,265.576 L175.004,265.492 C174.643998,265.468 174.232002,265.456 173.768,265.456 C173.319998,265.456 172.912002,265.468 172.544,265.492 C172.175998,265.516 171.752002,265.544 171.272,265.576 C171.208,265.512 171.18,265.400001 171.188,265.24 C171.196,265.079999 171.224,264.968 171.272,264.904 C171.368,264.904 171.531999,264.892 171.764,264.868 C171.996001,264.844 172.215999,264.8 172.424,264.736 C172.632001,264.672 172.744,264.6 172.76,264.52 C172.824,264.327999 172.86,264.080002 172.868,263.776 C172.876,263.471998 172.88,263.144002 172.88,262.792 L172.88,258.52 C172.88,258.359999 172.876,258.136001 172.868,257.848 C172.86,257.559999 172.824,257.344001 172.76,257.2 C172.712,257.055999 172.576001,256.956 172.352,256.9 C172.127999,256.844 171.904001,256.812 171.68,256.804 C171.455999,256.796 171.312,256.792 171.248,256.792 C171.232,256.76 171.216,256.664001 171.2,256.504 C171.184,256.343999 171.2,256.232 171.248,256.168 C171.856003,256.088 172.447997,255.968001 173.024,255.808 C173.600003,255.647999 174.119998,255.440001 174.584,255.184 C174.648,255.184 174.708,255.232 174.764,255.328 C174.82,255.424 174.848,255.504 174.848,255.568 C174.848,255.616 174.836,255.739999 174.812,255.94 C174.788,256.140001 174.764,256.335999 174.74,256.528 C174.716,256.720001 174.704,256.848 174.704,256.912 C174.704,256.976 174.72,257.008 174.752,257.008 C174.768,257.008 174.792,256.992 174.824,256.96 C174.984001,256.783999 175.243998,256.560001 175.604,256.288 C175.964002,256.015999 176.359998,255.772001 176.792,255.556 C177.224002,255.339999 177.623998,255.232 177.992,255.232 Z" id="Design&amp;ContentCreation" fill="#FFFFFF" fill-rule="nonzero"></path>
                <rect id="Rectangle" stroke="url(#linearGradient-1)" stroke-width="4" x="2" y="2" width="196" height="296"></rect>
                <g id="Group-4" transform="translate(56.000000, 39.000000)">
                    <polyline id="Fill-272" fill="#FFFFFF" points="31 34.732041 29.0478759 39 6 29.4047526 7.9060463 25 31 34.732041"></polyline>
                    <path d="M6.65702883,28.9162777 L27.996636,38.2970825 L29.3305685,35.2148018 L7.97108484,25.711387 L6.65702883,28.9162777 Z M28.3643508,40 C28.2693854,40 28.17442,39.979565 28.0816631,39.9398302 L5.43572971,29.9845746 C5.07353611,29.8256356 4.90237756,29.3942299 5.05697238,29.019588 L6.92977827,24.4500927 C7.00486718,24.2695835 7.14510677,24.1254031 7.32399507,24.0527453 C7.50398762,23.9789522 7.7005439,23.9834933 7.87611945,24.0606923 L30.5662228,34.1555872 C30.7429026,34.2350566 30.882038,34.3815075 30.9505014,34.5654226 C31.0211733,34.7493377 31.0156521,34.9525525 30.9372504,35.1341971 L29.0202746,39.5617826 C28.9021199,39.8353846 28.6393087,40 28.3643508,40 L28.3643508,40 Z" id="Fill-273" fill="#0A0B09"></path>
                    <polyline id="Fill-274" fill="#FFFFFF" points="28 40.7370356 26.0476126 45 3 35.4075088 4.89955939 31 28 40.7370356"></polyline>
                    <path d="M4.65677202,34.9194192 L25.9959506,44.2971303 L27.3311678,41.2208321 L5.96548367,31.7124805 L4.65677202,34.9194192 Z M26.3637151,46 C26.2687369,46 26.1737586,45.9806879 26.0820936,45.9397918 L3.4364122,35.9883987 C3.07306526,35.8293582 2.90409236,35.3988128 3.05539489,35.0239315 L4.92293194,30.4515163 C4.99692661,30.2697557 5.13939395,30.1266193 5.31720203,30.052779 C5.49390572,29.9789388 5.69490616,29.9834828 5.86940104,30.060731 L28.5669892,40.1609406 C28.7436928,40.2404609 28.8817426,40.3881414 28.9513197,40.571038 C29.0208967,40.7550706 29.0153748,40.9595513 28.9380669,41.1401759 L27.0197275,45.5615025 C26.8993481,45.8364155 26.6387102,46 26.3637151,46 L26.3637151,46 Z" id="Fill-275" fill="#0A0B09"></path>
                    <polyline id="Fill-276" fill="#FFFFFF" points="26 46.7367021 24.0557429 51 1 41.4067584 2.90941785 37 26 46.7367021"></polyline>
                    <path d="M1.65700536,40.9188301 L23.0031585,50.2959038 L24.3315648,47.2205781 L2.97436921,37.711721 L1.65700536,40.9188301 Z M23.3719762,52 C23.2770111,52 23.1820461,51.981823 23.0903938,51.9409247 L0.436815036,41.9890026 C0.0735185498,41.8288175 -0.0976393691,41.3971131 0.0569548802,41.022212 L1.93306652,36.4506898 C2.00815516,36.2700556 2.14949847,36.1257754 2.32728186,36.0519313 C2.50616949,35.9792231 2.70382928,35.9837674 2.87940417,36.0598837 L25.5672145,46.1617663 C25.7427894,46.2401547 25.88082,46.386707 25.9503874,46.5707494 C26.0210591,46.7536557 26.0155378,46.9592833 25.9382407,47.1387814 L24.0278975,51.5614792 C23.9097433,51.8364068 23.6469331,52 23.3719762,52 L23.3719762,52 Z" id="Fill-277" fill="#0A0B09"></path>
                    <polyline id="Fill-278" fill="#FFFFFF" points="15.9118177 7 39 16.5913962 37.0904342 21 14 11.4064138 15.9118177 7"></polyline>
                    <path d="M14.6599095,10.9190167 L36.0224568,20.2904275 L37.3399171,17.0791574 L15.9795821,7.70888258 L14.6599095,10.9190167 Z M36.405195,22 C36.3089574,22 36.2127197,21.9806892 36.1231192,21.9397958 L13.4375806,11.9890615 C13.0736474,11.8288955 12.9021895,11.3972427 13.0570547,11.0223862 L14.9353483,6.45140964 C15.0105685,6.26966107 15.1521595,6.12767 15.3291483,6.05383464 C15.5050309,5.98113521 15.7052495,5.98113521 15.880026,6.05951428 L38.5633521,16.0102486 C38.9272854,16.1692786 39.0976371,16.6009315 38.9427719,16.974652 L37.0666907,21.5479004 C36.9936828,21.729649 36.8520918,21.872776 36.6739968,21.9454754 C36.5877147,21.9818251 36.497008,22 36.405195,22 L36.405195,22 Z" id="Fill-279" fill="#0A0B09"></path>
                    <polyline id="Fill-280" fill="#FFFFFF" points="36 22.5868376 34.0947662 27 11 17.4044083 12.9074858 13 36 22.5868376"></polyline>
                    <path d="M12.6592042,16.9181461 L34.0255697,26.2915191 L35.3409847,23.073218 L13.9746191,13.7077914 L12.6592042,16.9181461 Z M34.4094629,28 C34.313213,28 34.2169632,27.9807015 34.1262449,27.9409694 L11.4356138,17.9863723 C11.0727408,17.8263087 10.9034737,17.3949314 11.056146,17.0214496 L12.9291464,12.4522566 C13.0032698,12.2717593 13.1448788,12.1275885 13.3229964,12.0538003 C13.4989014,11.9811473 13.698039,11.9811473 13.8750503,12.0594763 L36.5623624,22.0049918 C36.9263418,22.1650554 37.0967151,22.5952974 36.9440429,22.9687793 L35.0732551,27.5470539 C34.9980253,27.7286864 34.8564163,27.871722 34.6794051,27.9455102 C34.5931121,27.9818367 34.5012875,28 34.4094629,28 L34.4094629,28 Z" id="Fill-281" fill="#0A0B09"></path>
                    <polyline id="Fill-282" fill="#FFFFFF" points="33 28.5910513 31.0990135 33 8 23.4056633 9.90661742 19 33 28.5910513"></polyline>
                    <path d="M9.65868937,22.9190167 L31.0290998,32.2904275 L32.3402018,29.0780215 L10.9753235,19.7088826 L9.65868937,22.9190167 Z M31.4130259,34 C31.3167677,34 31.2205096,33.9795533 31.13089,33.9397958 L8.43720695,23.9879255 C8.07319633,23.8277596 7.90280839,23.3972427 8.0566001,23.0223862 L9.93086752,18.4525456 C10.0038909,18.2719329 10.1455121,18.12767 10.3225385,18.0538346 C10.499565,17.9811352 10.6998261,17.9811352 10.8746397,18.0595143 L33.5627907,28.0079768 C33.9268013,28.1681427 34.0960828,28.5986596 33.9445039,28.9723801 L32.0757686,33.5456286 C32.0016388,33.7273771 31.8600176,33.8705041 31.6829912,33.9454754 C31.5966908,33.9806892 31.5048583,34 31.4130259,34 L31.4130259,34 Z" id="Fill-283" fill="#0A0B09"></path>
                    <polyline id="Fill-284" fill="#FFFFFF" points="41 10.5903011 39.0933826 15 16 5.40641377 17.9043651 1 41 10.5903011"></polyline>
                    <path d="M17.6597385,4.91881985 L39.0238492,14.2903971 L40.340436,11.077934 L18.9730062,1.7097646 L17.6597385,4.91881985 Z M39.4066551,16 C39.3104004,16 39.2141457,15.9795529 39.1245293,15.9397947 L16.4371936,5.98888358 C16.0731961,5.82871481 15.9039206,5.39819023 16.0554941,5.02332713 L17.9274814,0.453405275 C18.0016086,0.271653473 18.1432246,0.128523929 18.3202447,0.0546872599 C18.4972648,-0.0191494095 18.6964124,-0.0191494095 18.8723261,0.0603670037 L41.5618745,10.0090062 C41.9258721,10.1680391 42.0973603,10.5985636 41.9435741,10.9734267 L40.0704804,15.5478924 C39.9952468,15.7285082 39.8536308,15.8727737 39.6766107,15.9454745 C39.5903134,15.9806889 39.4984842,16 39.4066551,16 L39.4066551,16 Z" id="Fill-285" fill="#0A0B09"></path>
                    <path d="M42.0648537,60.6595422 C44.0720321,61.6001615 46.5414631,60.5133725 47.4381216,58.3632263 L51.8891122,48.0733206 L53.8974045,49.012824 L76.1880012,58.4937748 C80.1533482,60.2266119 84.7190665,58.3453735 86.3508736,54.5561174 C88.0873837,50.5704805 86.2094132,46.0169015 82.2719128,44.4123814 L59.9490141,34.795303 L57.9418357,33.8546838 L62.3995095,23.5625465 C62.8394848,22.4857997 62.8172075,21.3978949 62.5030986,20.3992541 C62.0118857,19.3035387 61.3212915,18.5838478 60.2497568,18.1419911 L41.1849031,10 L23,52.5175511 L42.0648537,60.6595422 L47.4381216,44.7313413" id="Fill-286" fill="#FFFFFF"></path>
                    <path d="M24.6631942,51.4913287 L42.9351008,59.2821119 C44.6087535,60.0641768 46.6098359,59.1040178 47.3255354,57.3883421 L51.7491553,47.1783565 C51.8276942,47.0002625 51.9737102,46.8608846 52.155124,46.793408 C52.3343254,46.7226128 52.5367566,46.730356 52.7137456,46.8133191 L54.7081909,47.7447175 L76.821866,57.1328159 C77.7156607,57.5232953 78.6525965,57.7201942 79.6127621,57.7201942 C82.3981272,57.7201942 84.8947789,56.1051803 85.9733059,53.6063333 C86.7277217,51.8762773 86.7564824,49.9747642 86.052951,48.2447082 C85.3549504,46.5290324 84.0264264,45.1983051 82.311845,44.5003094 L60.1306928,34.9606652 L58.1152301,34.0204173 C57.7634643,33.8544912 57.6052804,33.439676 57.7601458,33.0823818 L62.1870843,22.8801395 C62.5255759,22.0549337 62.5532304,21.1633575 62.264517,20.2463393 C61.868504,19.3757804 61.3132009,18.8171626 60.4382113,18.4565499 L42.156349,10.6635544 L24.6631942,51.4913287 Z M44.1795551,61 L44.1795551,61 C43.539076,61 42.9229328,60.8628344 42.3477184,60.5940342 L23.4375451,52.5311322 C23.260556,52.4570186 23.1222833,52.3154283 23.0514877,52.1384405 C22.9806921,51.9614526 22.9829045,51.7623413 23.0581248,51.5875659 L41.1176446,9.43680746 C41.2747224,9.07177006 41.6961775,8.90141927 42.0612174,9.05849597 L60.9946206,17.1302473 C62.1992523,17.6269194 63.032207,18.4565499 63.6063152,19.7352869 C64.0233457,21.0427846 63.9802046,22.2960796 63.5122898,23.4376512 L59.3574719,33.013799 L60.7191814,33.6498491 L82.8671481,43.175113 C84.9301767,44.014699 86.540777,45.6252883 87.3847935,47.7037891 C88.2365533,49.7944579 88.2022617,52.0941935 87.2918743,54.1793314 C85.9887924,57.2025048 82.9733416,59.1571142 79.6127621,59.1571142 C78.4534838,59.1571142 77.3229663,58.9214991 76.2543949,58.4546937 L54.1230209,49.0588522 L52.7756918,48.4294392 L48.6496347,57.9524908 C47.8885818,59.7710407 46.0910368,61 44.1795551,61 L44.1795551,61 Z" id="Fill-287" fill="#FFFFFF"></path>
                    <path d="M27.5553423,54 C27.4250343,54 27.291327,53.9758677 27.1576197,53.9221184 L23.4455421,52.3754546 C23.0716148,52.2207882 22.8993817,51.8006661 23.0602837,51.4397779 C23.2211857,51.0788897 23.6540348,50.9110602 24.0279621,51.0668235 L27.5372125,52.5290241 C27.8080265,52.3195115 28.3609856,51.6196736 28.8538896,50.4525457 L44.9622218,14.442704 C45.4539928,13.2821577 45.5650378,12.4068119 45.5242458,12.0766376 L41.2932024,10.3709198 C40.9181421,10.2206411 40.7402433,9.80380972 40.8966129,9.43963074 C41.0529825,9.07435484 41.4846985,8.9032346 41.8597588,9.05570712 L46.2675678,10.8316281 C46.4488658,10.9029282 46.7038162,11.06637 46.8613189,11.4272582 C47.2227819,12.2631147 46.8193937,13.8185539 46.319691,14.9966509 L30.2124919,51.0053958 C29.9881356,51.5330165 28.8720194,54 27.5553423,54" id="Fill-288" fill="#0A0B09"></path>
                    <path d="M80.001758,47.4536705 C79.1084462,47.4536705 78.2520296,47.7893912 77.5935057,48.3970457 C76.8980865,49.0382722 76.494475,49.9145031 76.4564617,50.8589973 C76.4173304,51.8057296 76.7516236,52.7110564 77.3956131,53.4082363 C78.6690575,54.7858102 81.021408,54.8831692 82.4055382,53.6051925 C83.1020755,52.9628469 83.506805,52.0866159 83.5437002,51.1376455 C83.5817135,50.1920322 83.2485384,49.2900627 82.6067849,48.597359 C81.9270183,47.8598926 81.0024014,47.4536705 80.001758,47.4536705 Z M80.00064,56 C78.6098016,56 77.2715109,55.415846 76.3278874,54.3963742 C75.4211592,53.4127126 74.9504655,52.135855 75.0041312,50.8008057 C75.057797,49.4668756 75.626878,48.2336616 76.6085148,47.3272158 C77.5364858,46.471128 78.74173,46 80.001758,46 C81.3937145,46 82.7308871,46.5863921 83.6733925,47.6092211 C84.5778847,48.5861683 85.0485784,49.8607878 84.9960307,51.194718 C84.9434829,52.5331244 84.3744019,53.7696956 83.3905291,54.6772605 C82.4647942,55.529991 81.25955,56 80.00064,56 L80.00064,56 Z" id="Fill-290" fill="#0A0B09"></path>
                </g>
            </g>
        </g>
    </g>
</svg>