<?xml version="1.0" encoding="UTF-8"?>
<svg width="500px" height="500px" viewBox="0 0 500 500" version="1.1" xmlns="http://www.w3.org/2000/svg" xmlns:xlink="http://www.w3.org/1999/xlink">
    <!-- Generator: Sketch 53.2 (72643) - https://sketchapp.com -->
    <title>Artboard Copy 3</title>
    <desc>Created with Sketch.</desc>
    <defs>
        <linearGradient x1="0%" y1="0%" x2="100%" y2="100%" id="linearGradient-1">
            <stop stop-color="#612CB8" offset="0%"></stop>
            <stop stop-color="#11A8DB" offset="65.2100372%"></stop>
            <stop stop-color="#11DBB4" offset="100%"></stop>
        </linearGradient>
    </defs>
    <g id="Artboard-Copy-3" stroke="none" stroke-width="1" fill="none" fill-rule="evenodd">
        <rect id="Rectangle" fill="url(#linearGradient-1)" x="0" y="0" width="500" height="500" rx="30"></rect>
        <g id="Group-4" opacity="0.6" transform="translate(142.000000, 49.000000)" fill-rule="nonzero">
            <polyline id="Fill-272" fill="#FFFFFF" points="76.2295082 85.4066582 71.429203 95.9016393 14.7540984 72.3067687 19.4410975 61.4754098 76.2295082 85.4066582"></polyline>
            <path d="M16.369743,71.1056009 L68.8441869,94.1731537 L72.1243488,86.5937749 L19.6010283,63.2247221 L16.369743,71.1056009 Z M69.7484036,98.3606557 C69.5148821,98.3606557 69.2813607,98.3104057 69.0532699,98.2126972 L13.3665485,73.7325605 C12.4759085,73.3417269 12.0550268,72.2808932 12.435178,71.3596426 L17.0404384,60.1231788 C17.2250832,59.6793037 17.5699347,59.3247617 18.0098239,59.146095 C18.4524286,58.9646366 18.9357637,58.9758032 19.3675068,59.1656368 L75.162843,83.9891489 C75.5973015,84.1845654 75.9394377,84.5446906 76.1077903,84.9969408 C76.2815737,85.4491911 76.267997,85.9488996 76.0752059,86.3955666 L71.361331,97.283072 C71.0707866,97.9558638 70.4245296,98.3606557 69.7484036,98.3606557 L69.7484036,98.3606557 Z" id="Fill-273" fill-opacity="0" fill="#0A0B09"></path>
            <polyline id="Fill-274" fill="#FFFFFF" points="68.852459 100.173038 64.0515064 110.655738 7.37704918 87.0676446 12.0480969 76.2295082 68.852459 100.173038"></polyline>
            <path d="M11.4510787,85.8674243 L63.9244687,108.92737 L67.2077897,101.362702 L14.6692221,77.9815094 L11.4510787,85.8674243 Z M64.8288076,113.114754 C64.5952547,113.114754 64.3617015,113.067265 64.1362957,112.966701 L8.45019393,88.4960624 C7.55671785,88.1049792 7.14121072,87.046261 7.51326612,86.1244217 L12.1055703,74.8807778 C12.2875245,74.4338255 12.637854,74.0818507 13.075087,73.9002762 C13.5096042,73.718702 14.0038676,73.7298757 14.4329534,73.9198303 L70.2466948,98.7564113 C70.6812118,98.951953 71.0206785,99.3151018 71.1917698,99.7648475 C71.3628607,100.217387 71.3492823,100.720208 71.1591809,101.164367 L66.4419529,112.036482 C66.145938,112.712497 65.5050251,113.114754 64.8288076,113.114754 L64.8288076,113.114754 Z" id="Fill-275" fill-opacity="0" fill="#0A0B09"></path>
            <polyline id="Fill-276" fill="#FFFFFF" points="63.9344262 114.926317 59.1534661 125.409836 2.45901639 101.819898 7.15430619 90.9836066 63.9344262 114.926317"></polyline>
            <path d="M4.07460334,100.620074 L56.5651439,123.678452 L59.8317167,116.116176 L7.31402265,92.7337402 L4.07460334,100.620074 Z M57.4720726,127.868852 C57.2385519,127.868852 57.0050314,127.824155 56.7796569,127.723585 L1.07413533,103.251646 C0.180783319,102.857748 -0.240096809,101.79618 0.140052984,100.874292 L4.75344226,89.6328438 C4.93808646,89.1886613 5.28565198,88.8338739 5.72282425,88.6522901 C6.16271186,88.4734994 6.64876052,88.4846739 7.08050206,88.6718452 L62.8701996,113.51254 C63.3019411,113.705298 63.6413607,114.065673 63.812428,114.518236 C63.9862109,114.968006 63.9726339,115.473647 63.7825591,115.915036 L59.0849939,126.790523 C58.7944507,127.466574 58.1481961,127.868852 57.4720726,127.868852 L57.4720726,127.868852 Z" id="Fill-277" fill-opacity="0" fill="#0A0B09"></path>
            <polyline id="Fill-278" fill="#FFFFFF" points="39.1274206 17.2131148 95.9016393 40.7985152 91.2059857 51.6393443 34.4262295 28.0485585 39.1274206 17.2131148"></polyline>
            <path d="M36.0489578,26.8500411 L88.5798118,49.8944939 L91.8194683,41.997928 L39.2940543,18.9562686 L36.0489578,26.8500411 Z M89.5209713,54.0983607 C89.2843215,54.0983607 89.0476714,54.0508751 88.8273423,53.9503175 L33.043231,29.4812988 C32.1483133,29.087448 31.7266955,28.0260066 32.1075116,27.1042284 L36.7262663,15.8641221 C36.911234,15.4171994 37.2594086,15.068041 37.694627,14.8864786 C38.1271252,14.7077095 38.619466,14.7077095 39.0492443,14.900445 L94.827915,39.3694638 C95.722833,39.7605211 96.1417306,40.8219627 95.7609145,41.7409475 L91.1476001,52.9866403 C90.9680725,53.4335631 90.6198979,53.7855148 90.1819593,53.9642838 C89.9697902,54.0536683 89.746741,54.0983607 89.5209713,54.0983607 L89.5209713,54.0983607 Z" id="Fill-279" fill-opacity="0" fill="#0A0B09"></path>
            <polyline id="Fill-280" fill="#FFFFFF" points="88.5245902 55.5414039 83.839589 66.3934426 27.0491803 42.7977253 31.7397192 31.9672131 88.5245902 55.5414039"></polyline>
            <path d="M31.1291907,41.6019986 L83.6694337,64.6512765 L86.9040607,56.7374213 L34.3638175,33.7076838 L31.1291907,41.6019986 Z M84.6134334,68.852459 C84.3767533,68.852459 84.1400734,68.8050037 83.9169957,68.7073018 L28.1203618,44.2287843 C27.2280511,43.8351853 26.8118206,42.7744215 27.1872443,41.8560236 L31.792983,30.6203031 C31.9752536,30.1764573 32.3234725,29.8219389 32.7614666,29.6404925 C33.1940198,29.4618376 33.6837025,29.4618376 34.1189761,29.6544499 L89.9074485,54.1106356 C90.8024798,54.5042346 91.2214306,55.5622067 90.8460071,56.4806048 L86.2457093,67.7386571 C86.060718,68.1852944 85.7124991,68.5370213 85.2772257,68.7184677 C85.0650298,68.8077952 84.8392316,68.852459 84.6134334,68.852459 L84.6134334,68.852459 Z" id="Fill-281" fill-opacity="0" fill="#0A0B09"></path>
            <polyline id="Fill-282" fill="#FFFFFF" points="81.147541 70.3058639 76.472984 81.147541 19.6721311 57.5549098 24.3605346 46.7213115 81.147541 70.3058639"></polyline>
            <path d="M23.7508755,56.3582378 L76.3010651,79.4026906 L79.5250864,71.5033316 L26.9885004,48.4644654 L23.7508755,56.3582378 Z M77.2451457,83.6065574 C77.0084452,83.6065574 76.7717449,83.5562786 76.5513689,83.4585143 L20.7472302,58.986702 C19.8521221,58.5928515 19.4331354,57.5342034 19.8113117,56.6124251 L24.420166,45.3751121 C24.5997317,44.9309825 24.9479806,44.5762377 25.3832914,44.3946752 C25.8186025,44.2159062 26.3110478,44.2159062 26.7409173,44.4086417 L82.5314525,68.8720741 C83.4265606,69.2659247 83.8428266,70.3245728 83.4700916,71.2435576 L78.8748408,82.4892507 C78.6925544,82.9361732 78.3443056,83.2881248 77.9089948,83.4724805 C77.6967807,83.5590718 77.470963,83.6065574 77.2451457,83.6065574 L77.2451457,83.6065574 Z" id="Fill-283" fill-opacity="0" fill="#0A0B09"></path>
            <polyline id="Fill-284" fill="#FFFFFF" points="100.819672 26.041724 96.1312687 36.8852459 39.3442623 13.2944601 44.0271273 2.45901639 100.819672 26.041724"></polyline>
            <path d="M43.4255865,12.0954586 L95.9602849,35.1403207 L99.1977934,27.2408213 L46.6549333,4.20433918 L43.4255865,12.0954586 Z M96.9016109,39.3442623 C96.664919,39.3442623 96.4282271,39.2939825 96.2078589,39.1962165 L40.4193285,14.7267629 C39.5242527,14.3329053 39.1080015,13.2742383 39.4807232,12.3524438 L44.0839707,1.114931 C44.2662507,0.668000343 44.6144867,0.316042448 45.049782,0.134476869 C45.4850774,-0.0470887119 45.9747846,-0.0470887119 46.4073593,0.148443452 L102.201331,24.6123103 C103.096407,25.0033748 103.518099,26.0620416 103.139936,26.9838361 L98.5339682,38.2325223 C98.3489675,38.6766595 98.0007315,39.0314107 97.5654361,39.2101832 C97.3532297,39.296776 97.1274202,39.3442623 96.9016109,39.3442623 L96.9016109,39.3442623 Z" id="Fill-285" fill-opacity="0" fill="#FFFFFF"></path>
            <path d="M103.438165,149.162809 L116.651119,109.995102 L103.438165,149.162809 L56.557377,129.141519 L101.274352,24.5901639 L148.15514,44.6114535 C150.790061,45.6979864 152.488244,47.4677181 153.696144,50.1621002 C154.468543,52.6177743 154.523323,55.2929501 153.441417,57.9406881 L142.479924,83.2492225 L147.415608,85.5622205 L202.307982,109.210774 C211.99036,113.156315 216.608321,124.353641 212.338214,134.154387 C208.325573,143.47223 197.098397,148.098226 187.347544,143.837151 L132.534601,120.523338 L127.596178,118.213083 L116.651119,143.51613 C114.446221,148.803375 108.373849,151.475807 103.438165,149.162809 Z M196.725634,116.689354 C199.186233,116.689354 201.459881,117.68826 203.131438,119.501702 C204.709521,121.205072 205.528804,123.42303 205.435328,125.748309 C205.344602,128.081842 204.349366,130.236509 202.636569,131.816047 C199.23297,134.958613 193.448502,134.719205 190.317081,131.331729 C188.733501,129.617352 187.911468,127.391138 188.007693,125.063108 C188.101168,122.740581 189.093655,120.585915 190.803703,119.009129 C192.423024,117.514896 194.528966,116.689354 196.725634,116.689354 Z M196.722885,137.704918 C199.818566,137.704918 202.782281,136.549158 205.058678,134.45228 C207.478037,132.220563 208.877417,129.179814 209.006633,125.888651 C209.135849,122.608495 207.978405,119.474184 205.754244,117.071855 C203.436608,114.556702 200.148478,113.114754 196.725634,113.114754 C193.627205,113.114754 190.66349,114.273266 188.381594,116.3784 C185.967733,118.607365 184.568353,121.639858 184.436388,124.920014 C184.304423,128.202922 185.461867,131.342736 187.691526,133.761576 C190.011912,136.268474 193.302791,137.704918 196.722885,137.704918 Z" id="Combined-Shape" fill="#FFFFFF"></path>
            <path d="M60.6471989,126.618021 L105.578117,145.775685 C109.693656,147.698795 114.614351,145.337749 116.374267,141.118874 L127.252021,116.012352 C127.44515,115.574416 127.804205,115.231683 128.250305,115.065757 C128.690964,114.891671 129.188746,114.910711 129.623965,115.114719 L134.528338,117.405043 L188.906228,140.490531 C191.104084,141.450726 193.408024,141.934904 195.769087,141.934904 C202.618346,141.934904 208.757653,137.963558 211.409769,131.818852 C213.264889,127.564616 213.335612,122.888764 211.605617,118.634528 C209.889222,114.415653 206.62236,111.143373 202.406176,109.42699 L147.862359,85.9688489 L142.906304,83.6567639 C142.041306,83.2487489 141.652329,82.2287115 142.033145,81.3501192 L152.91906,56.2626381 C153.751416,54.2334435 153.819419,52.041043 153.109468,49.7860802 C152.135666,47.6453616 150.770166,46.2717113 148.618552,45.3849588 L103.663153,26.2218551 L60.6471989,126.618021 Z M108.63825,150 L108.63825,150 C107.063302,150 105.548195,149.662708 104.133734,149.001723 L57.6333076,129.174915 C57.1980885,128.992669 56.8580737,128.644496 56.6839861,128.20928 C56.5098986,127.774064 56.5153389,127.284446 56.7003069,126.85467 L101.108962,23.2052642 C101.495219,22.3076313 102.531584,21.8887359 103.429223,22.2749901 L149.986772,42.1235589 C152.948981,43.3448838 154.99723,45.3849588 156.408972,48.529394 C157.434457,51.7445523 157.328372,54.8264252 156.177762,57.6335685 L145.960996,81.181473 L149.309462,82.7455306 L203.771676,106.168311 C208.844697,108.232866 212.805189,112.193332 214.88064,117.304399 C216.975131,122.445388 216.890807,128.100476 214.65215,133.227864 C211.44785,140.661897 204.032807,145.468314 195.769087,145.468314 C192.918403,145.468314 190.138442,144.888932 187.510807,143.74105 L133.089396,120.636522 L129.776291,119.088785 L119.630249,142.506125 C117.758808,146.977969 113.338615,150 108.63825,150 L108.63825,150 Z" id="Fill-287" fill="#FFFFFF"></path>
            <path d="M67.7590384,132.786885 C67.4386089,132.786885 67.1098205,132.727544 66.781032,132.595373 L57.6529724,128.792101 C56.733479,128.411774 56.309955,127.378687 56.7056157,126.491257 C57.1012763,125.603827 58.1656593,125.191132 59.0851527,125.574156 L67.714457,129.169731 C68.380393,128.654536 69.7401285,126.933624 70.9521875,124.063637 L110.56284,35.5148459 C111.772113,32.6610435 112.045175,30.5085539 111.944867,29.6966498 L101.540662,25.5022618 C100.618382,25.132724 100.180926,24.1077288 100.565442,23.2122067 C100.949957,22.3139873 102.011554,21.8931998 102.933833,22.2681323 L113.772708,26.6351511 C114.218522,26.8104792 114.84545,27.2123852 115.232751,28.0998152 C116.121595,30.1552001 115.129657,33.9800506 113.90088,36.8770104 L74.2930129,125.423104 C73.741317,126.720532 70.996769,132.786885 67.7590384,132.786885" id="Fill-288" fill-opacity="0" fill="#0A0B09"></path>
        </g>
        <path d="M164.10791,323 L164.10791,284.952148 L179.559082,284.952148 C191.028809,284.952148 197.805176,291.59668 197.805176,303.699219 L197.805176,303.751953 C197.805176,315.907227 191.028809,323 179.559082,323 L164.10791,323 Z M173.784668,315.195312 L178.293457,315.195312 C184.595215,315.195312 187.970215,311.37207 187.970215,303.77832 L187.970215,303.725586 C187.970215,296.606445 184.384277,292.756836 178.293457,292.756836 L173.784668,292.756836 L173.784668,315.195312 Z M215.57666,323.606445 C206.506348,323.606445 200.995605,317.9375 200.995605,308.65625 L200.995605,308.629883 C200.995605,299.401367 206.532715,293.679688 215.260254,293.679688 C223.935059,293.679688 229.445801,299.348633 229.445801,308.049805 L229.445801,310.791992 L210.14502,310.791992 C210.250488,314.667969 212.359863,316.961914 215.76123,316.961914 C218.76709,316.961914 220.401855,315.248047 220.82373,314.061523 L220.850098,313.929688 L229.287598,313.929688 L229.208496,314.246094 C228.338379,318.227539 224.726074,323.606445 215.57666,323.606445 Z M215.471191,300.324219 C212.729004,300.324219 210.751465,302.117188 210.276855,305.28125 L220.63916,305.28125 C220.164551,302.064453 218.213379,300.324219 215.471191,300.324219 Z M245.687988,323.606445 C237.14502,323.606445 232.557129,319.835938 231.924316,314.246094 L231.897949,314.008789 L240.968262,314.008789 L241.020996,314.219727 C241.469238,316.170898 242.945801,317.304688 245.687988,317.304688 C248.166504,317.304688 249.669434,316.408203 249.669434,314.931641 L249.669434,314.905273 C249.669434,313.613281 248.746582,312.901367 246.188965,312.374023 L241.126465,311.37207 C235.510254,310.291016 232.583496,307.364258 232.583496,302.987305 L232.583496,302.960938 C232.583496,297.239258 237.487793,293.679688 245.345215,293.679688 C253.650879,293.679688 258.054199,297.924805 258.133301,303.066406 L258.159668,303.277344 L249.616699,303.277344 L249.590332,303.066406 C249.379395,301.378906 247.929199,299.981445 245.345215,299.981445 C243.05127,299.981445 241.574707,300.930664 241.574707,302.433594 L241.574707,302.459961 C241.574707,303.699219 242.444824,304.4375 245.160645,304.991211 L250.223145,305.993164 C256.313965,307.206055 258.950684,309.579102 258.950684,313.876953 L258.950684,313.90332 C258.950684,319.835938 253.571777,323.606445 245.687988,323.606445 Z M266.992676,291.201172 C264.303223,291.201172 262.220215,289.091797 262.220215,286.586914 C262.220215,284.082031 264.303223,281.999023 266.992676,281.999023 C269.708496,281.999023 271.765137,284.082031 271.765137,286.586914 C271.765137,289.091797 269.708496,291.201172 266.992676,291.201172 Z M262.325684,323 L262.325684,294.286133 L271.659668,294.286133 L271.659668,323 L262.325684,323 Z M290.274902,332.834961 C281.969238,332.834961 276.722168,329.169922 276.089355,324.371094 L276.062988,324.133789 L285.080566,324.133789 L285.159668,324.291992 C285.60791,325.399414 287.374512,326.612305 290.327637,326.612305 C293.834473,326.612305 295.627441,324.87207 295.627441,322.288086 L295.627441,317.515625 L295.442871,317.515625 C294.04541,320.442383 290.881348,322.261719 286.715332,322.261719 C279.543457,322.261719 275.351074,317.146484 275.351074,308.260742 L275.351074,308.234375 C275.351074,298.953125 279.596191,293.679688 286.847168,293.679688 C290.907715,293.679688 293.992676,295.789062 295.416504,299.243164 L295.627441,299.243164 L295.627441,294.286133 L304.961426,294.286133 L304.961426,322.182617 C304.961426,328.458008 299.318848,332.834961 290.274902,332.834961 Z M290.248535,315.775391 C293.544434,315.775391 295.680176,313.05957 295.680176,308.550781 L295.680176,308.524414 C295.680176,303.989258 293.518066,301.299805 290.248535,301.299805 C286.979004,301.299805 284.843262,303.989258 284.843262,308.498047 L284.843262,308.524414 C284.843262,313.033203 286.952637,315.775391 290.248535,315.775391 Z M309.496582,323 L309.496582,294.286133 L318.856934,294.286133 L318.856934,299.348633 L319.041504,299.348633 C320.465332,295.736328 323.418457,293.679688 327.769043,293.679688 C334.070801,293.679688 337.630371,297.713867 337.630371,304.516602 L337.630371,323 L328.296387,323 L328.296387,306.520508 C328.296387,303.224609 326.740723,301.299805 323.682129,301.299805 C320.702637,301.299805 318.856934,303.514648 318.856934,306.705078 L318.856934,323 L309.496582,323 Z M246.202148,387.711914 C237.870117,387.711914 232.675781,383.651367 232.675781,377.165039 L232.675781,377.138672 C232.675781,372.999023 234.785156,369.755859 239.821289,366.987305 L241.21875,366.222656 C237.738281,362.267578 236.657227,360.105469 236.630859,357.626953 L236.630859,357.600586 C236.630859,352.353516 241.429688,348.530273 248.100586,348.530273 C254.613281,348.530273 259.148438,352.116211 259.148438,357.389648 L259.148438,357.416016 C259.148438,361.212891 256.775391,364.482422 251.52832,367.382812 L257.750977,373.869141 C258.515625,371.970703 258.884766,369.729492 258.884766,367.013672 L258.884766,365.748047 L266.399414,365.748047 L266.399414,367.488281 C266.399414,372.339844 265.265625,376.268555 263.103516,379.40625 L270.301758,386.894531 L270.301758,387 L260.414062,387 L258.014648,384.416016 C254.876953,386.472656 250.921875,387.711914 246.202148,387.711914 Z M244.356445,357.996094 C244.356445,359.551758 245.279297,360.817383 247.573242,363.269531 C250.31543,361.740234 251.712891,360.105469 251.712891,358.022461 L251.712891,357.996094 C251.712891,355.886719 250.183594,354.383789 248.074219,354.383789 C245.938477,354.383789 244.356445,355.939453 244.356445,357.969727 L244.356445,357.996094 Z M241.192383,376.374023 C241.192383,379.353516 243.644531,381.251953 247.177734,381.251953 C249.498047,381.251953 251.607422,380.487305 253.321289,379.327148 L245.490234,370.863281 L244.831055,371.258789 C242.194336,372.761719 241.192383,374.422852 241.192383,376.347656 L241.192383,376.374023 Z M50.6630859,451.685547 C39.2460938,451.685547 32.1533203,444.381836 32.1533203,431.962891 L32.1533203,431.936523 C32.1533203,419.517578 39.2988281,412.266602 50.6630859,412.266602 C60.6035156,412.266602 67.4853516,418.647461 67.828125,427.164062 L67.828125,427.427734 L58.5205078,427.427734 L58.4677734,427.032227 C57.8613281,423.077148 55.0927734,420.282227 50.6630859,420.282227 C45.3632812,420.282227 42.0146484,424.632812 42.0146484,431.910156 L42.0146484,431.936523 C42.0146484,439.292969 45.3896484,443.669922 50.6894531,443.669922 C54.8818359,443.669922 57.8613281,441.05957 58.5205078,436.814453 L58.5732422,436.524414 L67.8808594,436.524414 L67.8544922,436.814453 C67.5117188,445.331055 60.5507812,451.685547 50.6630859,451.685547 Z M85.5996094,451.606445 C76.5029297,451.606445 70.9130859,446.12207 70.9130859,436.65625 L70.9130859,436.603516 C70.9130859,427.295898 76.6875,421.679688 85.5996094,421.679688 C94.5380859,421.679688 100.286133,427.243164 100.286133,436.603516 L100.286133,436.65625 C100.286133,446.148438 94.6435547,451.606445 85.5996094,451.606445 Z M85.6259766,444.513672 C88.8164062,444.513672 90.8203125,441.692383 90.8203125,436.65625 L90.8203125,436.603516 C90.8203125,431.646484 88.7636719,428.772461 85.5996094,428.772461 C82.4355469,428.772461 80.4052734,431.646484 80.4052734,436.603516 L80.4052734,436.65625 C80.4052734,441.71875 82.3828125,444.513672 85.6259766,444.513672 Z M103.898438,451 L103.898438,422.286133 L113.258789,422.286133 L113.258789,427.348633 L113.443359,427.348633 C114.867188,423.736328 117.820312,421.679688 122.170898,421.679688 C128.472656,421.679688 132.032227,425.713867 132.032227,432.516602 L132.032227,451 L122.698242,451 L122.698242,434.520508 C122.698242,431.224609 121.142578,429.299805 118.083984,429.299805 C115.104492,429.299805 113.258789,431.514648 113.258789,434.705078 L113.258789,451 L103.898438,451 Z M148.880859,451.606445 C141.919922,451.606445 138.755859,449.101562 138.755859,442.615234 L138.755859,429.141602 L134.853516,429.141602 L134.853516,422.286133 L138.755859,422.286133 L138.755859,415.667969 L148.116211,415.667969 L148.116211,422.286133 L153.257812,422.286133 L153.257812,429.141602 L148.116211,429.141602 L148.116211,441.349609 C148.116211,443.828125 149.223633,444.750977 151.517578,444.750977 C152.255859,444.750977 152.730469,444.698242 153.257812,444.619141 L153.257812,451.263672 C152.229492,451.448242 150.832031,451.606445 148.880859,451.606445 Z M170.660156,451.606445 C161.589844,451.606445 156.079102,445.9375 156.079102,436.65625 L156.079102,436.629883 C156.079102,427.401367 161.616211,421.679688 170.34375,421.679688 C179.018555,421.679688 184.529297,427.348633 184.529297,436.049805 L184.529297,438.791992 L165.228516,438.791992 C165.333984,442.667969 167.443359,444.961914 170.844727,444.961914 C173.850586,444.961914 175.485352,443.248047 175.907227,442.061523 L175.933594,441.929688 L184.371094,441.929688 L184.291992,442.246094 C183.421875,446.227539 179.80957,451.606445 170.660156,451.606445 Z M170.554688,428.324219 C167.8125,428.324219 165.834961,430.117188 165.360352,433.28125 L175.722656,433.28125 C175.248047,430.064453 173.296875,428.324219 170.554688,428.324219 Z M188.141602,451 L188.141602,422.286133 L197.501953,422.286133 L197.501953,427.348633 L197.686523,427.348633 C199.110352,423.736328 202.063477,421.679688 206.414062,421.679688 C212.71582,421.679688 216.275391,425.713867 216.275391,432.516602 L216.275391,451 L206.941406,451 L206.941406,434.520508 C206.941406,431.224609 205.385742,429.299805 202.327148,429.299805 C199.347656,429.299805 197.501953,431.514648 197.501953,434.705078 L197.501953,451 L188.141602,451 Z M233.124023,451.606445 C226.163086,451.606445 222.999023,449.101562 222.999023,442.615234 L222.999023,429.141602 L219.09668,429.141602 L219.09668,422.286133 L222.999023,422.286133 L222.999023,415.667969 L232.359375,415.667969 L232.359375,422.286133 L237.500977,422.286133 L237.500977,429.141602 L232.359375,429.141602 L232.359375,441.349609 C232.359375,443.828125 233.466797,444.750977 235.760742,444.750977 C236.499023,444.750977 236.973633,444.698242 237.500977,444.619141 L237.500977,451.263672 C236.472656,451.448242 235.075195,451.606445 233.124023,451.606445 Z M269.932617,451.685547 C258.515625,451.685547 251.422852,444.381836 251.422852,431.962891 L251.422852,431.936523 C251.422852,419.517578 258.568359,412.266602 269.932617,412.266602 C279.873047,412.266602 286.754883,418.647461 287.097656,427.164062 L287.097656,427.427734 L277.790039,427.427734 L277.737305,427.032227 C277.130859,423.077148 274.362305,420.282227 269.932617,420.282227 C264.632812,420.282227 261.28418,424.632812 261.28418,431.910156 L261.28418,431.936523 C261.28418,439.292969 264.65918,443.669922 269.958984,443.669922 C274.151367,443.669922 277.130859,441.05957 277.790039,436.814453 L277.842773,436.524414 L287.150391,436.524414 L287.124023,436.814453 C286.78125,445.331055 279.820312,451.685547 269.932617,451.685547 Z M291.052734,451 L291.052734,422.286133 L300.413086,422.286133 L300.413086,427.375 L300.597656,427.375 C301.388672,423.736328 303.65625,421.679688 307.03125,421.679688 C307.927734,421.679688 308.745117,421.811523 309.457031,422.048828 L309.457031,430.038086 C308.666016,429.72168 307.584961,429.510742 306.477539,429.510742 C302.548828,429.510742 300.413086,431.672852 300.413086,435.759766 L300.413086,451 L291.052734,451 Z M325.277344,451.606445 C316.207031,451.606445 310.696289,445.9375 310.696289,436.65625 L310.696289,436.629883 C310.696289,427.401367 316.233398,421.679688 324.960938,421.679688 C333.635742,421.679688 339.146484,427.348633 339.146484,436.049805 L339.146484,438.791992 L319.845703,438.791992 C319.951172,442.667969 322.060547,444.961914 325.461914,444.961914 C328.467773,444.961914 330.102539,443.248047 330.524414,442.061523 L330.550781,441.929688 L338.988281,441.929688 L338.90918,442.246094 C338.039062,446.227539 334.426758,451.606445 325.277344,451.606445 Z M325.171875,428.324219 C322.429688,428.324219 320.452148,430.117188 319.977539,433.28125 L330.339844,433.28125 C329.865234,430.064453 327.914062,428.324219 325.171875,428.324219 Z M351.380859,451.395508 C345.606445,451.395508 341.677734,447.730469 341.677734,442.720703 L341.677734,442.694336 C341.677734,437.289062 345.84375,434.256836 353.25293,433.755859 L359.791992,433.333984 L359.791992,431.910156 C359.791992,429.827148 358.447266,428.535156 355.836914,428.535156 C353.332031,428.535156 351.855469,429.695312 351.539062,431.171875 L351.486328,431.435547 L343.075195,431.435547 L343.101562,431.092773 C343.549805,425.50293 348.322266,421.679688 356.311523,421.679688 C364.037109,421.679688 369.125977,425.582031 369.125977,431.40918 L369.125977,451 L359.791992,451 L359.791992,446.939453 L359.607422,446.939453 C357.972656,449.760742 355.125,451.395508 351.380859,451.395508 Z M350.853516,442.114258 C350.853516,443.907227 352.356445,444.935547 354.650391,444.935547 C357.65625,444.935547 359.791992,443.142578 359.791992,440.716797 L359.791992,438.791992 L354.755859,439.134766 C352.145508,439.292969 350.853516,440.374023 350.853516,442.087891 L350.853516,442.114258 Z M386.053711,451.606445 C379.092773,451.606445 375.928711,449.101562 375.928711,442.615234 L375.928711,429.141602 L372.026367,429.141602 L372.026367,422.286133 L375.928711,422.286133 L375.928711,415.667969 L385.289062,415.667969 L385.289062,422.286133 L390.430664,422.286133 L390.430664,429.141602 L385.289062,429.141602 L385.289062,441.349609 C385.289062,443.828125 386.396484,444.750977 388.69043,444.750977 C389.428711,444.750977 389.90332,444.698242 390.430664,444.619141 L390.430664,451.263672 C389.402344,451.448242 388.004883,451.606445 386.053711,451.606445 Z M399.052734,419.201172 C396.363281,419.201172 394.280273,417.091797 394.280273,414.586914 C394.280273,412.082031 396.363281,409.999023 399.052734,409.999023 C401.768555,409.999023 403.825195,412.082031 403.825195,414.586914 C403.825195,417.091797 401.768555,419.201172 399.052734,419.201172 Z M394.385742,451 L394.385742,422.286133 L403.719727,422.286133 L403.719727,451 L394.385742,451 Z M422.097656,451.606445 C413.000977,451.606445 407.411133,446.12207 407.411133,436.65625 L407.411133,436.603516 C407.411133,427.295898 413.185547,421.679688 422.097656,421.679688 C431.036133,421.679688 436.78418,427.243164 436.78418,436.603516 L436.78418,436.65625 C436.78418,446.148438 431.141602,451.606445 422.097656,451.606445 Z M422.124023,444.513672 C425.314453,444.513672 427.318359,441.692383 427.318359,436.65625 L427.318359,436.603516 C427.318359,431.646484 425.261719,428.772461 422.097656,428.772461 C418.933594,428.772461 416.90332,431.646484 416.90332,436.603516 L416.90332,436.65625 C416.90332,441.71875 418.880859,444.513672 422.124023,444.513672 Z M440.396484,451 L440.396484,422.286133 L449.756836,422.286133 L449.756836,427.348633 L449.941406,427.348633 C451.365234,423.736328 454.318359,421.679688 458.668945,421.679688 C464.970703,421.679688 468.530273,425.713867 468.530273,432.516602 L468.530273,451 L459.196289,451 L459.196289,434.520508 C459.196289,431.224609 457.640625,429.299805 454.582031,429.299805 C451.602539,429.299805 449.756836,431.514648 449.756836,434.705078 L449.756836,451 L440.396484,451 Z" id="Design&amp;ContentCreation" fill="#FFFFFF" fill-rule="nonzero" opacity="0.6"></path>
    </g>
</svg>