<?xml version="1.0" encoding="UTF-8"?>
<svg width="500px" height="500px" viewBox="0 0 500 500" version="1.1" xmlns="http://www.w3.org/2000/svg" xmlns:xlink="http://www.w3.org/1999/xlink">
    <!-- Generator: Sketch 53.2 (72643) - https://sketchapp.com -->
    <title>Artboard Copy 3</title>
    <desc>Created with Sketch.</desc>
    <defs>
        <linearGradient x1="0%" y1="0%" x2="100%" y2="100%" id="linearGradient-1">
            <stop stop-color="#612CB8" offset="0%"></stop>
            <stop stop-color="#11A8DB" offset="65.2100372%"></stop>
            <stop stop-color="#11DBB4" offset="100%"></stop>
        </linearGradient>
    </defs>
    <g id="Artboard-Copy-3" stroke="none" stroke-width="1" fill="none" fill-rule="evenodd">
        <rect id="Rectangle" fill="url(#linearGradient-1)" x="0" y="0" width="500" height="500" rx="30"></rect>
        <g id="Group-4" opacity="0.6" transform="translate(142.000000, 49.000000)" fill-rule="nonzero">
            <polyline id="Fill-272" fill="#FFFFFF" points="76.2295082 85.4066582 71.429203 95.9016393 14.7540984 72.3067687 19.4410975 61.4754098 76.2295082 85.4066582"></polyline>
            <path d="M16.369743,71.1056009 L68.8441869,94.1731537 L72.1243488,86.5937749 L19.6010283,63.2247221 L16.369743,71.1056009 Z M69.7484036,98.3606557 C69.5148821,98.3606557 69.2813607,98.3104057 69.0532699,98.2126972 L13.3665485,73.7325605 C12.4759085,73.3417269 12.0550268,72.2808932 12.435178,71.3596426 L17.0404384,60.1231788 C17.2250832,59.6793037 17.5699347,59.3247617 18.0098239,59.146095 C18.4524286,58.9646366 18.9357637,58.9758032 19.3675068,59.1656368 L75.162843,83.9891489 C75.5973015,84.1845654 75.9394377,84.5446906 76.1077903,84.9969408 C76.2815737,85.4491911 76.267997,85.9488996 76.0752059,86.3955666 L71.361331,97.283072 C71.0707866,97.9558638 70.4245296,98.3606557 69.7484036,98.3606557 L69.7484036,98.3606557 Z" id="Fill-273" fill-opacity="0" fill="#0A0B09"></path>
            <polyline id="Fill-274" fill="#FFFFFF" points="68.852459 100.173038 64.0515064 110.655738 7.37704918 87.0676446 12.0480969 76.2295082 68.852459 100.173038"></polyline>
            <path d="M11.4510787,85.8674243 L63.9244687,108.92737 L67.2077897,101.362702 L14.6692221,77.9815094 L11.4510787,85.8674243 Z M64.8288076,113.114754 C64.5952547,113.114754 64.3617015,113.067265 64.1362957,112.966701 L8.45019393,88.4960624 C7.55671785,88.1049792 7.14121072,87.046261 7.51326612,86.1244217 L12.1055703,74.8807778 C12.2875245,74.4338255 12.637854,74.0818507 13.075087,73.9002762 C13.5096042,73.718702 14.0038676,73.7298757 14.4329534,73.9198303 L70.2466948,98.7564113 C70.6812118,98.951953 71.0206785,99.3151018 71.1917698,99.7648475 C71.3628607,100.217387 71.3492823,100.720208 71.1591809,101.164367 L66.4419529,112.036482 C66.145938,112.712497 65.5050251,113.114754 64.8288076,113.114754 L64.8288076,113.114754 Z" id="Fill-275" fill-opacity="0" fill="#0A0B09"></path>
            <polyline id="Fill-276" fill="#FFFFFF" points="63.9344262 114.926317 59.1534661 125.409836 2.45901639 101.819898 7.15430619 90.9836066 63.9344262 114.926317"></polyline>
            <path d="M4.07460334,100.620074 L56.5651439,123.678452 L59.8317167,116.116176 L7.31402265,92.7337402 L4.07460334,100.620074 Z M57.4720726,127.868852 C57.2385519,127.868852 57.0050314,127.824155 56.7796569,127.723585 L1.07413533,103.251646 C0.180783319,102.857748 -0.240096809,101.79618 0.140052984,100.874292 L4.75344226,89.6328438 C4.93808646,89.1886613 5.28565198,88.8338739 5.72282425,88.6522901 C6.16271186,88.4734994 6.64876052,88.4846739 7.08050206,88.6718452 L62.8701996,113.51254 C63.3019411,113.705298 63.6413607,114.065673 63.812428,114.518236 C63.9862109,114.968006 63.9726339,115.473647 63.7825591,115.915036 L59.0849939,126.790523 C58.7944507,127.466574 58.1481961,127.868852 57.4720726,127.868852 L57.4720726,127.868852 Z" id="Fill-277" fill-opacity="0" fill="#0A0B09"></path>
            <polyline id="Fill-278" fill="#FFFFFF" points="39.1274206 17.2131148 95.9016393 40.7985152 91.2059857 51.6393443 34.4262295 28.0485585 39.1274206 17.2131148"></polyline>
            <path d="M36.0489578,26.8500411 L88.5798118,49.8944939 L91.8194683,41.997928 L39.2940543,18.9562686 L36.0489578,26.8500411 Z M89.5209713,54.0983607 C89.2843215,54.0983607 89.0476714,54.0508751 88.8273423,53.9503175 L33.043231,29.4812988 C32.1483133,29.087448 31.7266955,28.0260066 32.1075116,27.1042284 L36.7262663,15.8641221 C36.911234,15.4171994 37.2594086,15.068041 37.694627,14.8864786 C38.1271252,14.7077095 38.619466,14.7077095 39.0492443,14.900445 L94.827915,39.3694638 C95.722833,39.7605211 96.1417306,40.8219627 95.7609145,41.7409475 L91.1476001,52.9866403 C90.9680725,53.4335631 90.6198979,53.7855148 90.1819593,53.9642838 C89.9697902,54.0536683 89.746741,54.0983607 89.5209713,54.0983607 L89.5209713,54.0983607 Z" id="Fill-279" fill-opacity="0" fill="#0A0B09"></path>
            <polyline id="Fill-280" fill="#FFFFFF" points="88.5245902 55.5414039 83.839589 66.3934426 27.0491803 42.7977253 31.7397192 31.9672131 88.5245902 55.5414039"></polyline>
            <path d="M31.1291907,41.6019986 L83.6694337,64.6512765 L86.9040607,56.7374213 L34.3638175,33.7076838 L31.1291907,41.6019986 Z M84.6134334,68.852459 C84.3767533,68.852459 84.1400734,68.8050037 83.9169957,68.7073018 L28.1203618,44.2287843 C27.2280511,43.8351853 26.8118206,42.7744215 27.1872443,41.8560236 L31.792983,30.6203031 C31.9752536,30.1764573 32.3234725,29.8219389 32.7614666,29.6404925 C33.1940198,29.4618376 33.6837025,29.4618376 34.1189761,29.6544499 L89.9074485,54.1106356 C90.8024798,54.5042346 91.2214306,55.5622067 90.8460071,56.4806048 L86.2457093,67.7386571 C86.060718,68.1852944 85.7124991,68.5370213 85.2772257,68.7184677 C85.0650298,68.8077952 84.8392316,68.852459 84.6134334,68.852459 L84.6134334,68.852459 Z" id="Fill-281" fill-opacity="0" fill="#0A0B09"></path>
            <polyline id="Fill-282" fill="#FFFFFF" points="81.147541 70.3058639 76.472984 81.147541 19.6721311 57.5549098 24.3605346 46.7213115 81.147541 70.3058639"></polyline>
            <path d="M23.7508755,56.3582378 L76.3010651,79.4026906 L79.5250864,71.5033316 L26.9885004,48.4644654 L23.7508755,56.3582378 Z M77.2451457,83.6065574 C77.0084452,83.6065574 76.7717449,83.5562786 76.5513689,83.4585143 L20.7472302,58.986702 C19.8521221,58.5928515 19.4331354,57.5342034 19.8113117,56.6124251 L24.420166,45.3751121 C24.5997317,44.9309825 24.9479806,44.5762377 25.3832914,44.3946752 C25.8186025,44.2159062 26.3110478,44.2159062 26.7409173,44.4086417 L82.5314525,68.8720741 C83.4265606,69.2659247 83.8428266,70.3245728 83.4700916,71.2435576 L78.8748408,82.4892507 C78.6925544,82.9361732 78.3443056,83.2881248 77.9089948,83.4724805 C77.6967807,83.5590718 77.470963,83.6065574 77.2451457,83.6065574 L77.2451457,83.6065574 Z" id="Fill-283" fill-opacity="0" fill="#0A0B09"></path>
            <polyline id="Fill-284" fill="#FFFFFF" points="100.819672 26.041724 96.1312687 36.8852459 39.3442623 13.2944601 44.0271273 2.45901639 100.819672 26.041724"></polyline>
            <path d="M43.4255865,12.0954586 L95.9602849,35.1403207 L99.1977934,27.2408213 L46.6549333,4.20433918 L43.4255865,12.0954586 Z M96.9016109,39.3442623 C96.664919,39.3442623 96.4282271,39.2939825 96.2078589,39.1962165 L40.4193285,14.7267629 C39.5242527,14.3329053 39.1080015,13.2742383 39.4807232,12.3524438 L44.0839707,1.114931 C44.2662507,0.668000343 44.6144867,0.316042448 45.049782,0.134476869 C45.4850774,-0.0470887119 45.9747846,-0.0470887119 46.4073593,0.148443452 L102.201331,24.6123103 C103.096407,25.0033748 103.518099,26.0620416 103.139936,26.9838361 L98.5339682,38.2325223 C98.3489675,38.6766595 98.0007315,39.0314107 97.5654361,39.2101832 C97.3532297,39.296776 97.1274202,39.3442623 96.9016109,39.3442623 L96.9016109,39.3442623 Z" id="Fill-285" fill-opacity="0" fill="#FFFFFF"></path>
            <path d="M103.438165,149.162809 L116.651119,109.995102 L103.438165,149.162809 L56.557377,129.141519 L101.274352,24.5901639 L148.15514,44.6114535 C150.790061,45.6979864 152.488244,47.4677181 153.696144,50.1621002 C154.468543,52.6177743 154.523323,55.2929501 153.441417,57.9406881 L142.479924,83.2492225 L147.415608,85.5622205 L202.307982,109.210774 C211.99036,113.156315 216.608321,124.353641 212.338214,134.154387 C208.325573,143.47223 197.098397,148.098226 187.347544,143.837151 L132.534601,120.523338 L127.596178,118.213083 L116.651119,143.51613 C114.446221,148.803375 108.373849,151.475807 103.438165,149.162809 Z M196.725634,116.689354 C199.186233,116.689354 201.459881,117.68826 203.131438,119.501702 C204.709521,121.205072 205.528804,123.42303 205.435328,125.748309 C205.344602,128.081842 204.349366,130.236509 202.636569,131.816047 C199.23297,134.958613 193.448502,134.719205 190.317081,131.331729 C188.733501,129.617352 187.911468,127.391138 188.007693,125.063108 C188.101168,122.740581 189.093655,120.585915 190.803703,119.009129 C192.423024,117.514896 194.528966,116.689354 196.725634,116.689354 Z M196.722885,137.704918 C199.818566,137.704918 202.782281,136.549158 205.058678,134.45228 C207.478037,132.220563 208.877417,129.179814 209.006633,125.888651 C209.135849,122.608495 207.978405,119.474184 205.754244,117.071855 C203.436608,114.556702 200.148478,113.114754 196.725634,113.114754 C193.627205,113.114754 190.66349,114.273266 188.381594,116.3784 C185.967733,118.607365 184.568353,121.639858 184.436388,124.920014 C184.304423,128.202922 185.461867,131.342736 187.691526,133.761576 C190.011912,136.268474 193.302791,137.704918 196.722885,137.704918 Z" id="Combined-Shape" fill="#FFFFFF"></path>
            <path d="M60.6471989,126.618021 L105.578117,145.775685 C109.693656,147.698795 114.614351,145.337749 116.374267,141.118874 L127.252021,116.012352 C127.44515,115.574416 127.804205,115.231683 128.250305,115.065757 C128.690964,114.891671 129.188746,114.910711 129.623965,115.114719 L134.528338,117.405043 L188.906228,140.490531 C191.104084,141.450726 193.408024,141.934904 195.769087,141.934904 C202.618346,141.934904 208.757653,137.963558 211.409769,131.818852 C213.264889,127.564616 213.335612,122.888764 211.605617,118.634528 C209.889222,114.415653 206.62236,111.143373 202.406176,109.42699 L147.862359,85.9688489 L142.906304,83.6567639 C142.041306,83.2487489 141.652329,82.2287115 142.033145,81.3501192 L152.91906,56.2626381 C153.751416,54.2334435 153.819419,52.041043 153.109468,49.7860802 C152.135666,47.6453616 150.770166,46.2717113 148.618552,45.3849588 L103.663153,26.2218551 L60.6471989,126.618021 Z M108.63825,150 L108.63825,150 C107.063302,150 105.548195,149.662708 104.133734,149.001723 L57.6333076,129.174915 C57.1980885,128.992669 56.8580737,128.644496 56.6839861,128.20928 C56.5098986,127.774064 56.5153389,127.284446 56.7003069,126.85467 L101.108962,23.2052642 C101.495219,22.3076313 102.531584,21.8887359 103.429223,22.2749901 L149.986772,42.1235589 C152.948981,43.3448838 154.99723,45.3849588 156.408972,48.529394 C157.434457,51.7445523 157.328372,54.8264252 156.177762,57.6335685 L145.960996,81.181473 L149.309462,82.7455306 L203.771676,106.168311 C208.844697,108.232866 212.805189,112.193332 214.88064,117.304399 C216.975131,122.445388 216.890807,128.100476 214.65215,133.227864 C211.44785,140.661897 204.032807,145.468314 195.769087,145.468314 C192.918403,145.468314 190.138442,144.888932 187.510807,143.74105 L133.089396,120.636522 L129.776291,119.088785 L119.630249,142.506125 C117.758808,146.977969 113.338615,150 108.63825,150 L108.63825,150 Z" id="Fill-287" fill="#FFFFFF"></path>
            <path d="M67.7590384,132.786885 C67.4386089,132.786885 67.1098205,132.727544 66.781032,132.595373 L57.6529724,128.792101 C56.733479,128.411774 56.309955,127.378687 56.7056157,126.491257 C57.1012763,125.603827 58.1656593,125.191132 59.0851527,125.574156 L67.714457,129.169731 C68.380393,128.654536 69.7401285,126.933624 70.9521875,124.063637 L110.56284,35.5148459 C111.772113,32.6610435 112.045175,30.5085539 111.944867,29.6966498 L101.540662,25.5022618 C100.618382,25.132724 100.180926,24.1077288 100.565442,23.2122067 C100.949957,22.3139873 102.011554,21.8931998 102.933833,22.2681323 L113.772708,26.6351511 C114.218522,26.8104792 114.84545,27.2123852 115.232751,28.0998152 C116.121595,30.1552001 115.129657,33.9800506 113.90088,36.8770104 L74.2930129,125.423104 C73.741317,126.720532 70.996769,132.786885 67.7590384,132.786885" id="Fill-288" fill-opacity="0" fill="#0A0B09"></path>
        </g>
        <text id="Design-&amp;-Content-Cre" opacity="0.6" font-family="SFProDisplay-Heavy, SF Pro Display" font-size="54" font-weight="600" fill="#FFFFFF">
            <tspan x="161.233887" y="323">Design</tspan>
            <tspan x="231.09375" y="387">&amp;</tspan>
            <tspan x="30.3339844" y="451">Content Creation</tspan>
        </text>
    </g>
</svg>