<?xml version="1.0" encoding="UTF-8"?>
<svg width="660px" height="130px" viewBox="0 0 660 130" version="1.1" xmlns="http://www.w3.org/2000/svg" xmlns:xlink="http://www.w3.org/1999/xlink">
    <!-- Generator: Sketch 53.2 (72643) - https://sketchapp.com -->
    <title>Kontakt</title>
    <desc>Created with Sketch.</desc>
    <g id="WWW" stroke="none" stroke-width="1" fill="none" fill-rule="evenodd" opacity="0.4">
        <path d="M0.783203125,127 L0.783203125,0.173828125 L33.0390625,0.173828125 L33.0390625,55.984375 L33.6542969,55.984375 L76.3691406,0.173828125 L110.910156,0.173828125 L67.4921875,56.2480469 L113.458984,127 L75.578125,127 L43.9375,76.9902344 L33.0390625,91.140625 L33.0390625,127 L0.783203125,127 Z M160.65625,129.021484 C130.333984,129.021484 111.701172,110.740234 111.701172,79.1875 L111.701172,79.0117188 C111.701172,47.9863281 130.949219,29.265625 160.65625,29.265625 C190.451172,29.265625 209.611328,47.8105469 209.611328,79.0117188 L209.611328,79.1875 C209.611328,110.828125 190.802734,129.021484 160.65625,129.021484 Z M160.744141,105.378906 C171.378906,105.378906 178.058594,95.9746094 178.058594,79.1875 L178.058594,79.0117188 C178.058594,62.4882812 171.203125,52.9082031 160.65625,52.9082031 C150.109375,52.9082031 143.341797,62.4882812 143.341797,79.0117188 L143.341797,79.1875 C143.341797,96.0625 149.933594,105.378906 160.744141,105.378906 Z M221.652344,127 L221.652344,31.2871094 L252.853516,31.2871094 L252.853516,48.1621094 L253.46875,48.1621094 C258.214844,36.1210938 268.058594,29.265625 282.560547,29.265625 C303.566406,29.265625 315.431641,42.7128906 315.431641,65.3886719 L315.431641,127 L284.318359,127 L284.318359,72.0683594 C284.318359,61.0820312 279.132812,54.6660156 268.9375,54.6660156 C259.005859,54.6660156 252.853516,62.0488281 252.853516,72.6835938 L252.853516,127 L221.652344,127 Z M371.59375,129.021484 C348.390625,129.021484 337.84375,120.671875 337.84375,99.0507812 L337.84375,54.1386719 L324.835938,54.1386719 L324.835938,31.2871094 L337.84375,31.2871094 L337.84375,9.2265625 L369.044922,9.2265625 L369.044922,31.2871094 L386.183594,31.2871094 L386.183594,54.1386719 L369.044922,54.1386719 L369.044922,94.8320312 C369.044922,103.09375 372.736328,106.169922 380.382812,106.169922 C382.84375,106.169922 384.425781,105.994141 386.183594,105.730469 L386.183594,127.878906 C382.755859,128.494141 378.097656,129.021484 371.59375,129.021484 Z M427.404297,128.318359 C408.15625,128.318359 395.060547,116.101562 395.060547,99.4023438 L395.060547,99.3144531 C395.060547,81.296875 408.947266,71.1894531 433.644531,69.5195312 L455.441406,68.1132812 L455.441406,63.3671875 C455.441406,56.4238281 450.958984,52.1171875 442.257812,52.1171875 C433.908203,52.1171875 428.986328,55.984375 427.931641,60.90625 L427.755859,61.7851562 L399.71875,61.7851562 L399.806641,60.6425781 C401.300781,42.0097656 417.208984,29.265625 443.839844,29.265625 C469.591797,29.265625 486.554688,42.2734375 486.554688,61.6972656 L486.554688,127 L455.441406,127 L455.441406,113.464844 L454.826172,113.464844 C449.376953,122.869141 439.884766,128.318359 427.404297,128.318359 Z M425.646484,97.3808594 C425.646484,103.357422 430.65625,106.785156 438.302734,106.785156 C448.322266,106.785156 455.441406,100.808594 455.441406,92.7226562 L455.441406,86.3066406 L438.654297,87.4492188 C429.953125,87.9765625 425.646484,91.5800781 425.646484,97.2929688 L425.646484,97.3808594 Z M502.111328,127 L502.111328,0.173828125 L533.224609,0.173828125 L533.224609,67.5859375 L533.839844,67.5859375 L561.261719,31.2871094 L595.978516,31.2871094 L562.228516,72.2441406 L598,127 L562.140625,127 L538.849609,90.7890625 L533.224609,97.5566406 L533.224609,127 L502.111328,127 Z M644.757812,129.021484 C621.554688,129.021484 611.007812,120.671875 611.007812,99.0507812 L611.007812,54.1386719 L598,54.1386719 L598,31.2871094 L611.007812,31.2871094 L611.007812,9.2265625 L642.208984,9.2265625 L642.208984,31.2871094 L659.347656,31.2871094 L659.347656,54.1386719 L642.208984,54.1386719 L642.208984,94.8320312 C642.208984,103.09375 645.900391,106.169922 653.546875,106.169922 C656.007812,106.169922 657.589844,105.994141 659.347656,105.730469 L659.347656,127.878906 C655.919922,128.494141 651.261719,129.021484 644.757812,129.021484 Z" id="Kontakt" fill="#FFFFFF" fill-rule="nonzero"></path>
    </g>
</svg>