<?xml version="1.0" encoding="UTF-8"?>
<svg width="72px" height="73px" viewBox="0 0 72 73" version="1.1" xmlns="http://www.w3.org/2000/svg" xmlns:xlink="http://www.w3.org/1999/xlink">
    <!-- Generator: Sketch 53.2 (72643) - https://sketchapp.com -->
    <title>Group 6</title>
    <desc>Created with Sketch.</desc>
    <g id="Web" stroke="none" stroke-width="1" fill="none" fill-rule="evenodd">
        <g id="Desktop-HD" transform="translate(-169.000000, -1170.000000)">
            <g id="Group-6" transform="translate(171.000000, 1172.000000)">
                <path d="M55.036,68.201 L12.614,68.201 C5.648,68.201 0,62.554 0,55.588 L0,13.165 C0,6.199 5.648,0.552 12.614,0.552 L55.036,0.552 C62.002,0.552 67.649,6.199 67.649,13.165 L67.649,55.588 C67.649,62.554 62.002,68.201 55.036,68.201 Z" id="Stroke-37" stroke="#FFFFFF" stroke-width="4" stroke-linecap="round" stroke-linejoin="round"></path>
                <path d="M41.36,19.757 L45.126,19.757 L45.126,11.559 L39.452,11.552 C31.414,11.552 27.599,16.336 27.599,23.147 L27.599,29.599 L21.305,29.599 L21.305,37.389 L27.599,37.389 L27.599,57.2 L37.041,57.2 L37.041,37.389 L43.336,37.389 L45.123,29.602 L37.041,29.602 L37.041,24.283 C37.041,22.106 38.231,19.757 41.36,19.757" id="Fill-39" fill="#FFFFFF"></path>
            </g>
        </g>
    </g>
</svg>