<?xml version="1.0" encoding="UTF-8"?>
<svg width="640px" height="180px" viewBox="0 0 640 180" version="1.1" xmlns="http://www.w3.org/2000/svg" xmlns:xlink="http://www.w3.org/1999/xlink">
    <!-- Generator: Sketch 53.2 (72643) - https://sketchapp.com -->
    <title>Hallo!</title>
    <desc>Created with Sketch.</desc>
    <g id="WWW" stroke="none" stroke-width="1" fill="none" fill-rule="evenodd" opacity="0.247847058">
        <g id="Artboard" transform="translate(-200.000000, -128.000000)" fill="#FFFFFF" fill-rule="nonzero">
            <path d="M237.449276,138.173913 C242.840607,138.173913 248.97098,138.04348 255.84058,137.782609 C262.71018,137.521738 268.579686,137.130437 273.449276,136.608696 C273.971017,137.304351 274.275362,138.826075 274.362319,141.173913 C274.449276,143.521751 274.144931,145.13043 273.449276,146 C272.405792,146 270.623201,146.130433 268.10145,146.391304 C265.579698,146.652175 263.231895,147.086953 261.057971,147.695652 C258.884047,148.304351 257.536235,149.217385 257.014493,150.434783 C256.144923,152.695663 255.62319,155.5652 255.449276,159.043478 C255.275362,162.521757 255.188406,166.521717 255.188406,171.043478 L255.188406,210.695652 C255.188406,210.869566 255.231884,211.043477 255.318841,211.217391 L255.449276,211.478261 C260.492779,211.652175 265.492729,211.826086 270.449276,212 C275.405822,212.173914 280.753595,212.26087 286.492754,212.26087 C291.18843,212.26087 296.18838,212.173914 301.492754,212 C306.797128,211.826086 311.710123,211.652175 316.231884,211.478261 L316.492754,211.086957 C316.666668,210.826086 316.753623,210.608697 316.753623,210.434783 L316.492754,174.434783 C316.492754,168.869537 316.405798,164.130454 316.231884,160.217391 C316.05797,156.304328 315.449281,153.043491 314.405797,150.434783 C314.05797,149.217385 312.753635,148.304351 310.492754,147.695652 C308.231873,147.086953 305.927548,146.652175 303.57971,146.391304 C301.231873,146.130433 299.449282,146 298.231884,146 C297.536229,145.13043 297.231884,143.521751 297.318841,141.173913 C297.405798,138.826075 297.710143,137.304351 298.231884,136.608696 C303.275388,137.130437 309.23185,137.521738 316.10145,137.782609 C322.971049,138.04348 329.101423,138.173913 334.492754,138.173913 C339.884085,138.173913 346.014459,138.04348 352.884058,137.782609 C359.753658,137.521738 365.623164,137.130437 370.492754,136.608696 C371.014496,137.304351 371.31884,138.826075 371.405797,141.173913 C371.492754,143.521751 371.18841,145.13043 370.492754,146 C369.44927,146 367.66668,146.130433 365.144928,146.391304 C362.623176,146.652175 360.275373,147.086953 358.10145,147.695652 C355.927526,148.304351 354.579713,149.217385 354.057971,150.434783 C353.188402,152.695663 352.666668,155.5652 352.492754,159.043478 C352.31884,162.521757 352.231884,166.521717 352.231884,171.043478 L352.231884,271.478261 C352.231884,276.000023 352.31884,279.999983 352.492754,283.478261 C352.666668,286.956539 353.188402,289.826076 354.057971,292.086957 C354.579713,293.13044 355.927526,293.999997 358.10145,294.695652 C360.275373,295.391308 362.623176,295.869564 365.144928,296.130435 C367.66668,296.391306 369.44927,296.608695 370.492754,296.782609 C371.18841,297.652178 371.492754,299.21738 371.405797,301.478261 C371.31884,303.739142 371.014496,305.304343 370.492754,306.173913 C365.623164,305.652171 359.666702,305.217393 352.623189,304.869565 C345.579675,304.521737 339.362346,304.347826 333.971015,304.347826 C328.579683,304.347826 322.536266,304.521737 315.84058,304.869565 C309.144894,305.217393 303.275388,305.652171 298.231884,306.173913 C297.710143,305.304343 297.405798,303.739142 297.318841,301.478261 C297.231884,299.21738 297.536229,297.652178 298.231884,296.782609 C299.449282,296.608695 301.231873,296.391306 303.57971,296.130435 C305.927548,295.869564 308.231873,295.391308 310.492754,294.695652 C312.753635,293.999997 314.05797,293.13044 314.405797,292.086957 C315.449281,289.478248 316.05797,286.173933 316.231884,282.173913 C316.405798,278.173893 316.492754,273.478288 316.492754,268.086957 L316.492754,226.086957 C316.492754,225.739129 316.405798,225.434784 316.231884,225.173913 L315.971015,224.782609 C311.275339,224.608695 306.492778,224.478261 301.623189,224.391304 C296.753599,224.304347 291.710171,224.26087 286.492754,224.26087 C277.101403,224.26087 270.231906,224.304347 265.884058,224.391304 C261.53621,224.478261 258.75363,224.608695 257.536232,224.782609 C256.318835,224.956523 255.536234,225.130434 255.188406,225.304348 C255.014492,225.478262 254.971014,225.695651 255.057971,225.956522 L255.188406,226.347826 L255.188406,271.478261 C255.188406,276.000023 255.275362,279.999983 255.449276,283.478261 C255.62319,286.956539 256.144923,289.826076 257.014493,292.086957 C257.536235,293.13044 258.884047,293.999997 261.057971,294.695652 C263.231895,295.391308 265.579698,295.869564 268.10145,296.130435 C270.623201,296.391306 272.405792,296.608695 273.449276,296.782609 C274.144931,297.652178 274.449276,299.21738 274.362319,301.478261 C274.275362,303.739142 273.971017,305.304343 273.449276,306.173913 C268.579686,305.652171 262.623224,305.217393 255.57971,304.869565 C248.536197,304.521737 242.318868,304.347826 236.927536,304.347826 C231.536205,304.347826 225.44931,304.521737 218.666667,304.869565 C211.884024,305.217393 205.97104,305.652171 200.927536,306.173913 C200.405795,305.304343 200.10145,303.739142 200.014493,301.478261 C199.927536,299.21738 200.231881,297.652178 200.927536,296.782609 C202.144934,296.608695 203.971003,296.391306 206.405797,296.130435 C208.840592,295.869564 211.188395,295.391308 213.449276,294.695652 C215.710156,293.999997 217.014491,293.13044 217.362319,292.086957 C218.405803,289.478248 219.014492,286.173933 219.188406,282.173913 C219.36232,278.173893 219.449276,273.478288 219.449276,268.086957 L219.449276,174.434783 C219.449276,168.869537 219.36232,164.130454 219.188406,160.217391 C219.014492,156.304328 218.405803,153.043491 217.362319,150.434783 C217.014491,149.217385 215.710156,148.304351 213.449276,147.695652 C211.188395,147.086953 208.840592,146.652175 206.405797,146.391304 C203.971003,146.130433 202.144934,146 200.927536,146 C200.231881,145.13043 199.927536,143.521751 200.014493,141.173913 C200.10145,138.826075 200.405795,137.304351 200.927536,136.608696 C205.97104,137.130437 211.97098,137.521738 218.927536,137.782609 C225.884093,138.04348 232.057944,138.173913 237.449276,138.173913 Z M440.405797,190.869565 C447.536268,190.869565 453.970986,192.521723 459.710145,195.826087 C465.449304,199.130451 470.057954,203.695623 473.536232,209.521739 C477.01451,215.347855 478.753623,222.086918 478.753623,229.73913 L478.753623,277.478261 C478.753623,280.782625 479.318835,283.347817 480.449276,285.173913 C481.579716,287.000009 483.014484,287.913043 484.753623,287.913043 C486.666676,287.913043 488.231878,287.521743 489.449276,286.73913 C490.666673,285.956518 491.53623,285.478262 492.057971,285.304348 C493.275369,285.82609 493.884058,287.21738 493.884058,289.478261 C493.884058,290.869572 493.536236,292.173907 492.84058,293.391304 C491.623183,294.434788 489.623203,296.043467 486.84058,298.217391 C484.057957,300.391315 480.927554,302.347817 477.449276,304.086957 C473.970997,305.826096 470.405816,306.695652 466.753623,306.695652 C462.57969,306.695652 458.623207,305.304362 454.884058,302.521739 C451.144909,299.739117 448.666673,296.86958 447.449276,293.913043 C446.75362,294.608699 444.623206,296.043467 441.057971,298.217391 C437.492736,300.391315 433.62321,302.434773 429.449276,304.347826 C425.275342,306.260879 421.623204,307.217391 418.492754,307.217391 C412.057939,307.217391 406.318866,305.695667 401.275363,302.652174 C396.231859,299.60868 392.275377,295.695676 389.405797,290.913043 C386.536218,286.130411 385.10145,281.217417 385.10145,276.173913 C385.10145,271.13041 386.49274,266.739149 389.275363,263 C392.057985,259.260851 395.101433,256.86957 398.405797,255.826087 C401.710162,254.782603 406.231856,253.130446 411.971015,250.869565 C417.710174,248.608684 423.666636,246.260882 429.84058,243.826087 C436.014524,241.391292 441.275341,239.391312 445.623189,237.826087 L445.623189,225.826087 C445.623189,219.391272 444.231898,213.565243 441.449276,208.347826 C438.666653,203.130409 435.014516,200.521739 430.492754,200.521739 C425.623164,200.521739 422.275372,202.652153 420.449276,206.913043 C418.62318,211.173934 417.0145,216.173884 415.623189,221.913043 C414.927533,224.695666 413.536243,227.260858 411.449276,229.608696 C409.362309,231.956533 406.057994,233.130435 401.536232,233.130435 C398.231868,233.130435 395.18842,231.956533 392.405797,229.608696 C389.623175,227.260858 388.231884,224.347843 388.231884,220.869565 C388.231884,219.130426 388.579707,217.391313 389.275363,215.652174 C389.971018,213.913035 390.840575,212.173922 391.884058,210.434783 C392.753628,209.565213 394.71013,208.086967 397.753623,206 C400.797117,203.913033 404.579688,201.695664 409.10145,199.347826 C413.623211,196.999988 418.579683,195.000008 423.971015,193.347826 C429.362346,191.695644 434.840552,190.869565 440.405797,190.869565 Z M435.188406,289.217391 C438.318856,289.217391 440.84057,288.521746 442.753623,287.130435 C444.666676,285.739123 445.623189,284.695656 445.623189,284 L445.623189,248.26087 C443.01448,249.478267 440.188421,250.695646 437.144928,251.913043 C434.101434,253.130441 431.275376,254.608687 428.666667,256.347826 C425.188389,258.608707 422.75363,261.34781 421.362319,264.565217 C419.971008,267.782625 419.362318,270.782595 419.536232,273.565217 C419.710146,278.956549 421.536215,282.913031 425.014493,285.434783 C428.492771,287.956534 431.884042,289.217391 435.188406,289.217391 Z M519.710145,162.956522 C519.710145,160.695641 519.62319,158.652183 519.449276,156.826087 C519.275362,154.999991 518.753628,152.956533 517.884058,150.695652 C517.53623,149.652169 516.318851,148.782612 514.231884,148.086957 C512.144917,147.391301 509.971026,146.913045 507.710145,146.652174 C505.449264,146.391303 503.797107,146.26087 502.753623,146.26087 C502.231882,146.26087 501.927537,145.000013 501.84058,142.478261 C501.753623,139.956509 502.057968,138.434785 502.753623,137.913043 C512.318889,137.043474 520.710109,135.826095 527.927536,134.26087 C535.144964,132.695644 540.884037,131.260876 545.144928,129.956522 C549.405819,128.652167 551.623188,128 551.797102,128 C552.666671,128.173914 553.49275,128.782603 554.275363,129.826087 C555.057975,130.86957 555.536231,131.739127 555.710145,132.434783 L555.057971,136.869565 C554.623186,139.826102 554.14493,143.304328 553.623189,147.304348 C553.101447,151.304368 552.84058,155.043461 552.84058,158.521739 L552.84058,268.086957 C552.84058,273.478288 552.927536,278.173893 553.10145,282.173913 C553.275363,286.173933 553.884053,289.478248 554.927536,292.086957 C555.449278,293.13044 556.797091,293.999997 558.971015,294.695652 C561.144939,295.391308 563.492741,295.869564 566.014493,296.130435 C568.536245,296.391306 570.318836,296.608695 571.362319,296.782609 C572.057975,297.652178 572.36232,299.21738 572.275363,301.478261 C572.188406,303.739142 571.884061,305.304343 571.362319,306.173913 C566.49273,305.652171 560.797134,305.217393 554.275363,304.869565 C547.753591,304.521737 541.797129,304.347826 536.405797,304.347826 C531.014466,304.347826 525.101482,304.521737 518.666667,304.869565 C512.231852,305.217393 506.492779,305.652171 501.449276,306.173913 C500.927534,305.304343 500.623189,303.739142 500.536232,301.478261 C500.449275,299.21738 500.75362,297.652178 501.449276,296.782609 C502.666673,296.608695 504.492742,296.391306 506.927536,296.130435 C509.362331,295.869564 511.710134,295.391308 513.971015,294.695652 C516.231896,293.999997 517.53623,293.13044 517.884058,292.086957 C518.753628,289.826076 519.275362,286.956539 519.449276,283.478261 C519.62319,279.999983 519.710145,276.000023 519.710145,271.478261 L519.710145,162.956522 Z M597.449276,162.956522 C597.449276,160.695641 597.36232,158.652183 597.188406,156.826087 C597.014492,154.999991 596.492758,152.956533 595.623189,150.695652 C595.275361,149.652169 594.057982,148.782612 591.971015,148.086957 C589.884048,147.391301 587.710156,146.913045 585.449276,146.652174 C583.188395,146.391303 581.536237,146.26087 580.492754,146.26087 C579.971012,146.26087 579.666667,145.000013 579.57971,142.478261 C579.492753,139.956509 579.797098,138.434785 580.492754,137.913043 C590.058019,137.043474 598.44924,135.826095 605.666667,134.26087 C612.884094,132.695644 618.623167,131.260876 622.884058,129.956522 C627.144949,128.652167 629.362318,128 629.536232,128 C630.405802,128.173914 631.23188,128.782603 632.014493,129.826087 C632.797106,130.86957 633.275362,131.739127 633.449276,132.434783 L632.797102,136.869565 C632.362317,139.826102 631.884061,143.304328 631.362319,147.304348 C630.840577,151.304368 630.57971,155.043461 630.57971,158.521739 L630.57971,268.086957 C630.57971,273.478288 630.666666,278.173893 630.84058,282.173913 C631.014494,286.173933 631.623183,289.478248 632.666667,292.086957 C633.188409,293.13044 634.536221,293.999997 636.710145,294.695652 C638.884069,295.391308 641.231872,295.869564 643.753623,296.130435 C646.275375,296.391306 648.057966,296.608695 649.10145,296.782609 C649.797105,297.652178 650.10145,299.21738 650.014493,301.478261 C649.927536,303.739142 649.623191,305.304343 649.10145,306.173913 C644.23186,305.652171 638.536265,305.217393 632.014493,304.869565 C625.492721,304.521737 619.536259,304.347826 614.144928,304.347826 C608.753596,304.347826 602.840612,304.521737 596.405797,304.869565 C589.970983,305.217393 584.23191,305.652171 579.188406,306.173913 C578.666664,305.304343 578.36232,303.739142 578.275363,301.478261 C578.188406,299.21738 578.49275,297.652178 579.188406,296.782609 C580.405803,296.608695 582.231872,296.391306 584.666667,296.130435 C587.101462,295.869564 589.449264,295.391308 591.710145,294.695652 C593.971026,293.999997 595.275361,293.13044 595.623189,292.086957 C596.492758,289.826076 597.014492,286.956539 597.188406,283.478261 C597.36232,279.999983 597.449276,276.000023 597.449276,271.478261 L597.449276,162.956522 Z M718.753623,191.130435 C730.57977,191.130435 740.97097,193.608671 749.927536,198.565217 C758.884103,203.521764 765.884033,210.260827 770.927536,218.782609 C775.97104,227.30439 778.492754,236.956468 778.492754,247.73913 C778.492754,258.347879 775.884084,268.173868 770.666667,277.217391 C765.44925,286.260915 758.405842,293.478234 749.536232,298.869565 C740.666623,304.260897 730.579767,306.956522 719.275363,306.956522 C707.449216,306.956522 697.014538,304.434808 687.971015,299.391304 C678.927491,294.347801 671.884083,287.478304 666.84058,278.782609 C661.797076,270.086913 659.275363,260.434836 659.275363,249.826087 C659.275363,239.043424 661.92751,229.217436 667.231884,220.347826 C672.536259,211.478217 679.666622,204.391331 688.623189,199.086957 C697.579755,193.782582 707.623133,191.130435 718.753623,191.130435 Z M715.884058,201.826087 C711.188383,201.826087 707.492767,203.1739 704.797102,205.869565 C702.101436,208.565231 700.101456,212.086935 698.797102,216.434783 C697.492747,220.78263 696.623191,225.434758 696.188406,230.391304 C695.753621,235.347851 695.536232,240.17389 695.536232,244.869565 C695.536232,250.43481 696.057966,256.217361 697.10145,262.217391 C698.144933,268.217421 699.710135,273.782583 701.797102,278.913043 C703.884069,284.043504 706.579694,288.217375 709.884058,291.434783 C713.188423,294.65219 717.188383,296.26087 721.884058,296.26087 C726.579734,296.26087 730.275349,294.913057 732.971015,292.217391 C735.66668,289.521726 737.710138,286.0435 739.10145,281.782609 C740.492761,277.521718 741.405795,272.913068 741.84058,267.956522 C742.275365,262.999975 742.492754,258.260892 742.492754,253.73913 C742.492754,247.999971 741.97102,242.130465 740.927536,236.130435 C739.884053,230.130405 738.275373,224.521765 736.10145,219.304348 C733.927526,214.08693 731.188423,209.869581 727.884058,206.652174 C724.579694,203.434767 720.579734,201.826087 715.884058,201.826087 Z M821.797102,130.086957 C825.971036,130.086957 829.623173,131.652158 832.753623,134.782609 C835.884074,137.913059 837.449276,142.173886 837.449276,147.565217 C837.449276,150.869582 836.144941,165.565087 833.536232,191.652174 C832.318835,201.739181 831.144933,211.521692 830.014493,221 C828.884053,230.478308 827.797107,239.739085 826.753623,248.782609 C826.231882,253.130457 824.492769,255.304348 821.536232,255.304348 C818.057954,255.304348 816.057974,253.043501 815.536232,248.521739 C814.318835,238.78256 813.144933,229.434827 812.014493,220.478261 C810.884053,211.521694 809.884063,202.869607 809.014493,194.521739 C807.797096,181.65211 806.797106,171.304387 806.014493,163.478261 C805.23188,155.652135 804.84058,150.260884 804.84058,147.304348 C804.84058,142.260844 806.492737,138.086973 809.797102,134.782609 C812.927552,131.652158 816.927512,130.086957 821.797102,130.086957 Z M801.710145,288.434783 C801.710145,283.217365 803.536214,278.782627 807.188406,275.130435 C810.840598,271.478243 815.362292,269.652174 820.753623,269.652174 C826.144955,269.652174 830.666649,271.565198 834.318841,275.391304 C837.971033,279.21741 839.797102,283.739104 839.797102,288.956522 C839.797102,294.173939 837.971033,298.608677 834.318841,302.26087 C830.492735,306.086976 826.057996,308 821.014493,308 C815.623162,308 811.101468,306.086976 807.449276,302.26087 C803.62317,298.086936 801.710145,293.478286 801.710145,288.434783 Z" id="Hallo!"></path>
        </g>
    </g>
</svg>