<?xml version="1.0" encoding="UTF-8"?>
<svg width="476px" height="130px" viewBox="0 0 476 130" version="1.1" xmlns="http://www.w3.org/2000/svg" xmlns:xlink="http://www.w3.org/1999/xlink">
    <!-- Generator: Sketch 53.2 (72643) - https://sketchapp.com -->
    <title>Hallo!</title>
    <desc>Created with Sketch.</desc>
    <g id="WWW" stroke="none" stroke-width="1" fill="none" fill-rule="evenodd" opacity="0.4">
        <g id="Artboard" transform="translate(-9.000000, -27.000000)" fill="#FFFFFF" fill-rule="nonzero">
            <path d="M9.91015625,154 L9.91015625,27.1738281 L42.1660156,27.1738281 L42.1660156,77.0078125 L92.703125,77.0078125 L92.703125,27.1738281 L124.871094,27.1738281 L124.871094,154 L92.703125,154 L92.703125,102.935547 L42.1660156,102.935547 L42.1660156,154 L9.91015625,154 Z M169.080078,155.318359 C149.832031,155.318359 136.736328,143.101562 136.736328,126.402344 L136.736328,126.314453 C136.736328,108.296875 150.623047,98.1894531 175.320312,96.5195312 L197.117188,95.1132812 L197.117188,90.3671875 C197.117188,83.4238281 192.634766,79.1171875 183.933594,79.1171875 C175.583984,79.1171875 170.662109,82.984375 169.607422,87.90625 L169.431641,88.7851562 L141.394531,88.7851562 L141.482422,87.6425781 C142.976562,69.0097656 158.884766,56.265625 185.515625,56.265625 C211.267578,56.265625 228.230469,69.2734375 228.230469,88.6972656 L228.230469,154 L197.117188,154 L197.117188,140.464844 L196.501953,140.464844 C191.052734,149.869141 181.560547,155.318359 169.080078,155.318359 Z M167.322266,124.380859 C167.322266,130.357422 172.332031,133.785156 179.978516,133.785156 C189.998047,133.785156 197.117188,127.808594 197.117188,119.722656 L197.117188,113.306641 L180.330078,114.449219 C171.628906,114.976562 167.322266,118.580078 167.322266,124.292969 L167.322266,124.380859 Z M243.611328,154 L243.611328,27.1738281 L274.8125,27.1738281 L274.8125,154 L243.611328,154 Z M290.808594,154 L290.808594,27.1738281 L322.009766,27.1738281 L322.009766,154 L290.808594,154 Z M383.533203,156.021484 C353.210938,156.021484 334.578125,137.740234 334.578125,106.1875 L334.578125,106.011719 C334.578125,74.9863281 353.826172,56.265625 383.533203,56.265625 C413.328125,56.265625 432.488281,74.8105469 432.488281,106.011719 L432.488281,106.1875 C432.488281,137.828125 413.679688,156.021484 383.533203,156.021484 Z M383.621094,132.378906 C394.255859,132.378906 400.935547,122.974609 400.935547,106.1875 L400.935547,106.011719 C400.935547,89.4882812 394.080078,79.9082031 383.533203,79.9082031 C372.986328,79.9082031 366.21875,89.4882812 366.21875,106.011719 L366.21875,106.1875 C366.21875,123.0625 372.810547,132.378906 383.621094,132.378906 Z M454.636719,111.109375 L451.912109,27.1738281 L483.904297,27.1738281 L481.179688,111.109375 L454.636719,111.109375 Z M467.908203,155.142578 C458.679688,155.142578 451.208984,148.199219 451.208984,139.322266 C451.208984,130.533203 458.679688,123.589844 467.908203,123.589844 C477.048828,123.589844 484.519531,130.533203 484.519531,139.322266 C484.519531,148.199219 477.048828,155.142578 467.908203,155.142578 Z" id="Hallo!"></path>
        </g>
    </g>
</svg>