<?xml version="1.0" encoding="UTF-8"?>
<svg width="72px" height="72px" viewBox="0 0 72 72" version="1.1" xmlns="http://www.w3.org/2000/svg" xmlns:xlink="http://www.w3.org/1999/xlink">
    <!-- Generator: Sketch 53.2 (72643) - https://sketchapp.com -->
    <title>Group 3</title>
    <desc>Created with Sketch.</desc>
    <g id="Web" stroke="none" stroke-width="1" fill="none" fill-rule="evenodd">
        <g id="Desktop-HD" transform="translate(-86.000000, -1171.000000)">
            <g id="Group-3" transform="translate(88.000000, 1173.000000)">
                <path d="M24.336,20.541 C24.336,22.628 23.007,24.336 20.541,24.336 C18.263,24.336 16.745,22.628 16.745,20.731 C16.745,18.643 18.263,16.745 20.541,16.745 C22.818,16.745 24.336,18.453 24.336,20.541" id="Fill-1" fill="#FFFFFF"></path>
                <polygon id="Fill-2" fill="#FFFFFF" points="16.745 50.904 24.336 50.904 24.336 26.234 16.745 26.234"></polygon>
                <path d="M42.554,26.613 C38.569,26.613 36.292,28.89 35.343,30.408 L35.153,30.408 L34.773,27.182 L27.941,27.182 C27.941,29.27 28.131,31.737 28.131,34.584 L28.131,50.903 L35.722,50.903 L35.722,37.43 C35.722,36.671 35.722,36.102 35.912,35.532 C36.481,34.204 37.43,32.496 39.518,32.496 C42.174,32.496 43.313,34.773 43.313,37.81 L43.313,50.903 L50.904,50.903 L50.904,36.861 C50.904,29.839 47.298,26.613 42.554,26.613" id="Fill-3" fill="#FFFFFF"></path>
                <path d="M55.036,67.648 L12.613,67.648 C5.647,67.648 -5.68434189e-14,62.002 -5.68434189e-14,55.036 L-5.68434189e-14,12.613 C-5.68434189e-14,5.647 5.647,0 12.613,0 L55.036,0 C62.002,0 67.649,5.647 67.649,12.613 L67.649,55.036 C67.649,62.002 62.002,67.648 55.036,67.648 Z" id="Stroke-4" stroke="#FFFFFF" stroke-width="4" stroke-linecap="round" stroke-linejoin="round"></path>
            </g>
        </g>
    </g>
</svg>