<?xml version="1.0" encoding="UTF-8"?>
<svg width="1293px" height="140px" viewBox="0 0 1293 140" version="1.1" xmlns="http://www.w3.org/2000/svg" xmlns:xlink="http://www.w3.org/1999/xlink">
    <!-- Generator: Sketch 53.2 (72643) - https://sketchapp.com -->
    <title>MichaelJordan</title>
    <desc>Created with Sketch.</desc>
    <g id="WWW" stroke="none" stroke-width="1" fill="none" fill-rule="evenodd" opacity="0.4">
        <path d="M0.602539062,137 L0.602539062,10.1738281 L37.8681641,10.1738281 L69.6845703,93.0546875 L70.2119141,93.0546875 L102.02832,10.1738281 L139.293945,10.1738281 L139.293945,137 L110.905273,137 L110.905273,57.7226562 L110.202148,57.7226562 L79.1767578,137 L60.7197266,137 L29.6943359,57.7226562 L28.9912109,57.7226562 L28.9912109,137 L0.602539062,137 Z M172.165039,31.0039062 C163.200195,31.0039062 156.256836,23.9726562 156.256836,15.6230469 C156.256836,7.2734375 163.200195,0.330078125 172.165039,0.330078125 C181.217773,0.330078125 188.073242,7.2734375 188.073242,15.6230469 C188.073242,23.9726562 181.217773,31.0039062 172.165039,31.0039062 Z M156.608398,137 L156.608398,41.2871094 L187.72168,41.2871094 L187.72168,137 L156.608398,137 Z M248.717773,139.021484 C218.571289,139.021484 200.026367,120.125 200.026367,89.0996094 L200.026367,89.0117188 C200.026367,58.1621094 218.65918,39.265625 248.454102,39.265625 C275.436523,39.265625 293.19043,55.4375 293.629883,78.2011719 L293.717773,78.8164062 L265.06543,78.8164062 L264.977539,77.9375 C263.74707,69.0605469 258.12207,62.9082031 248.981445,62.9082031 C238.170898,62.9082031 231.666992,72.4882812 231.666992,89.0996094 L231.666992,89.1875 C231.666992,106.0625 237.995117,115.378906 249.069336,115.378906 C258.209961,115.378906 263.74707,109.490234 264.977539,100.349609 L265.15332,99.4707031 L293.717773,99.4707031 L293.717773,100.085938 C293.102539,122.322266 276.31543,139.021484 248.717773,139.021484 Z M305.670898,137 L305.670898,10.1738281 L336.87207,10.1738281 L336.87207,58.5136719 L337.487305,58.5136719 C342.233398,46.0332031 352.165039,39.265625 366.579102,39.265625 C387.49707,39.265625 399.801758,53.1523438 399.801758,76.1796875 L399.801758,137 L368.600586,137 L368.600586,82.859375 C368.600586,71.5214844 363.151367,64.6660156 352.868164,64.6660156 C343.024414,64.6660156 336.87207,72.2246094 336.87207,82.7714844 L336.87207,137 L305.670898,137 Z M443.307617,138.318359 C424.05957,138.318359 410.963867,126.101562 410.963867,109.402344 L410.963867,109.314453 C410.963867,91.296875 424.850586,81.1894531 449.547852,79.5195312 L471.344727,78.1132812 L471.344727,73.3671875 C471.344727,66.4238281 466.862305,62.1171875 458.161133,62.1171875 C449.811523,62.1171875 444.889648,65.984375 443.834961,70.90625 L443.65918,71.7851562 L415.62207,71.7851562 L415.709961,70.6425781 C417.204102,52.0097656 433.112305,39.265625 459.743164,39.265625 C485.495117,39.265625 502.458008,52.2734375 502.458008,71.6972656 L502.458008,137 L471.344727,137 L471.344727,123.464844 L470.729492,123.464844 C465.280273,132.869141 455.788086,138.318359 443.307617,138.318359 Z M441.549805,107.380859 C441.549805,113.357422 446.55957,116.785156 454.206055,116.785156 C464.225586,116.785156 471.344727,110.808594 471.344727,102.722656 L471.344727,96.3066406 L454.557617,97.4492188 C445.856445,97.9765625 441.549805,101.580078 441.549805,107.292969 L441.549805,107.380859 Z M563.014648,139.021484 C532.780273,139.021484 514.411133,120.125 514.411133,89.1875 L514.411133,89.0996094 C514.411133,58.3378906 532.868164,39.265625 561.959961,39.265625 C590.875977,39.265625 609.245117,58.1621094 609.245117,87.1660156 L609.245117,96.3066406 L544.90918,96.3066406 C545.260742,109.226562 552.291992,116.873047 563.629883,116.873047 C573.649414,116.873047 579.098633,111.160156 580.504883,107.205078 L580.592773,106.765625 L608.717773,106.765625 L608.454102,107.820312 C605.553711,121.091797 593.512695,139.021484 563.014648,139.021484 Z M562.663086,61.4140625 C553.522461,61.4140625 546.930664,67.390625 545.348633,77.9375 L579.889648,77.9375 C578.307617,67.2148438 571.803711,61.4140625 562.663086,61.4140625 Z M621.813477,137 L621.813477,10.1738281 L653.014648,10.1738281 L653.014648,137 L621.813477,137 Z M744.59668,139.285156 C716.208008,139.285156 698.454102,122.673828 698.102539,95.8671875 L698.102539,95.4277344 L729.12793,95.4277344 L729.12793,95.6914062 C729.391602,105.710938 734.928711,111.951172 744.245117,111.951172 C753.913086,111.951172 759.010742,105.974609 759.010742,94.5488281 L759.010742,10.1738281 L791.178711,10.1738281 L791.178711,94.8125 C791.178711,123.025391 774.21582,139.285156 744.59668,139.285156 Z M855.77832,139.021484 C825.456055,139.021484 806.823242,120.740234 806.823242,89.1875 L806.823242,89.0117188 C806.823242,57.9863281 826.071289,39.265625 855.77832,39.265625 C885.573242,39.265625 904.733398,57.8105469 904.733398,89.0117188 L904.733398,89.1875 C904.733398,120.828125 885.924805,139.021484 855.77832,139.021484 Z M855.866211,115.378906 C866.500977,115.378906 873.180664,105.974609 873.180664,89.1875 L873.180664,89.0117188 C873.180664,72.4882812 866.325195,62.9082031 855.77832,62.9082031 C845.231445,62.9082031 838.463867,72.4882812 838.463867,89.0117188 L838.463867,89.1875 C838.463867,106.0625 845.055664,115.378906 855.866211,115.378906 Z M916.774414,137 L916.774414,41.2871094 L947.975586,41.2871094 L947.975586,58.25 L948.59082,58.25 C951.227539,46.1210938 958.786133,39.265625 970.036133,39.265625 C973.024414,39.265625 975.749023,39.7050781 978.12207,40.4960938 L978.12207,67.1269531 C975.485352,66.0722656 971.881836,65.3691406 968.19043,65.3691406 C955.094727,65.3691406 947.975586,72.5761719 947.975586,86.1992188 L947.975586,137 L916.774414,137 Z M1020.39746,139.021484 C996.491211,139.021484 982.25293,120.652344 982.25293,89.1875 L982.25293,89.0996094 C982.25293,57.3710938 996.31543,39.265625 1020.39746,39.265625 C1034.1084,39.265625 1044.56738,46.3847656 1049.40137,58.25 L1050.0166,58.25 L1050.0166,10.1738281 L1081.12988,10.1738281 L1081.12988,137 L1050.0166,137 L1050.0166,120.652344 L1049.40137,120.652344 C1044.65527,132.078125 1034.19629,139.021484 1020.39746,139.021484 Z M1031.91113,113.708984 C1042.80957,113.708984 1050.0166,104.392578 1050.0166,89.1875 L1050.0166,89.0996094 C1050.0166,73.8945312 1042.72168,64.6660156 1031.91113,64.6660156 C1020.9248,64.6660156 1013.89355,73.8066406 1013.89355,89.0996094 L1013.89355,89.1875 C1013.89355,104.304688 1020.9248,113.708984 1031.91113,113.708984 Z M1125.0752,138.318359 C1105.82715,138.318359 1092.73145,126.101562 1092.73145,109.402344 L1092.73145,109.314453 C1092.73145,91.296875 1106.61816,81.1894531 1131.31543,79.5195312 L1153.1123,78.1132812 L1153.1123,73.3671875 C1153.1123,66.4238281 1148.62988,62.1171875 1139.92871,62.1171875 C1131.5791,62.1171875 1126.65723,65.984375 1125.60254,70.90625 L1125.42676,71.7851562 L1097.38965,71.7851562 L1097.47754,70.6425781 C1098.97168,52.0097656 1114.87988,39.265625 1141.51074,39.265625 C1167.2627,39.265625 1184.22559,52.2734375 1184.22559,71.6972656 L1184.22559,137 L1153.1123,137 L1153.1123,123.464844 L1152.49707,123.464844 C1147.04785,132.869141 1137.55566,138.318359 1125.0752,138.318359 Z M1123.31738,107.380859 C1123.31738,113.357422 1128.32715,116.785156 1135.97363,116.785156 C1145.99316,116.785156 1153.1123,110.808594 1153.1123,102.722656 L1153.1123,96.3066406 L1136.3252,97.4492188 C1127.62402,97.9765625 1123.31738,101.580078 1123.31738,107.292969 L1123.31738,107.380859 Z M1199.0791,137 L1199.0791,41.2871094 L1230.28027,41.2871094 L1230.28027,58.1621094 L1230.89551,58.1621094 C1235.6416,46.1210938 1245.48535,39.265625 1259.9873,39.265625 C1280.99316,39.265625 1292.8584,52.7128906 1292.8584,75.3886719 L1292.8584,137 L1261.74512,137 L1261.74512,82.0683594 C1261.74512,71.0820312 1256.55957,64.6660156 1246.36426,64.6660156 C1236.43262,64.6660156 1230.28027,72.0488281 1230.28027,82.6835938 L1230.28027,137 L1199.0791,137 Z" id="MichaelJordan" fill="#FFFFFF" fill-rule="nonzero"></path>
    </g>
</svg>