<?xml version="1.0" encoding="UTF-8"?>
<svg width="737px" height="140px" viewBox="0 0 737 140" version="1.1" xmlns="http://www.w3.org/2000/svg" xmlns:xlink="http://www.w3.org/1999/xlink">
    <!-- Generator: Sketch 53.2 (72643) - https://sketchapp.com -->
    <title>Services</title>
    <desc>Created with Sketch.</desc>
    <g id="WWW" stroke="none" stroke-width="1" fill="none" fill-rule="evenodd" opacity="0.4">
        <path d="M53.6425781,139.285156 C22.0898438,139.285156 2.13867188,125.310547 0.732421875,101.052734 L0.64453125,99.4707031 L30.6152344,99.4707031 L30.7910156,100.4375 C32.3730469,108.611328 41.8652344,113.972656 54.2578125,113.972656 C67.0898438,113.972656 75,108.523438 75,100.613281 L75,100.525391 C75,93.3183594 69.375,89.9785156 54.5214844,87.078125 L41.5136719,84.6171875 C16.3769531,79.9589844 3.10546875,67.5664062 3.10546875,48.1425781 L3.10546875,48.0546875 C3.10546875,23.6210938 24.2871094,7.88867188 53.3789062,7.88867188 C85.1953125,7.88867188 103.212891,22.8300781 104.355469,45.8574219 L104.443359,47.703125 L74.4726562,47.703125 L74.3847656,46.7363281 C73.4179688,38.3867188 65.2441406,33.2011719 53.6425781,33.2011719 C41.7773438,33.2011719 35.0976562,38.5625 35.0976562,45.8574219 L35.0976562,45.9453125 C35.0976562,52.8007812 41.0742188,56.4042969 54.6972656,58.953125 L67.7050781,61.4140625 C94.5996094,66.5996094 107.080078,77.4980469 107.080078,97.8007813 L107.080078,97.8886719 C107.080078,123.201172 87.2167969,139.285156 53.6425781,139.285156 Z M165.527344,139.021484 C135.292969,139.021484 116.923828,120.125 116.923828,89.1875 L116.923828,89.0996094 C116.923828,58.3378906 135.380859,39.265625 164.472656,39.265625 C193.388672,39.265625 211.757812,58.1621094 211.757812,87.1660156 L211.757812,96.3066406 L147.421875,96.3066406 C147.773438,109.226562 154.804688,116.873047 166.142578,116.873047 C176.162109,116.873047 181.611328,111.160156 183.017578,107.205078 L183.105469,106.765625 L211.230469,106.765625 L210.966797,107.820312 C208.066406,121.091797 196.025391,139.021484 165.527344,139.021484 Z M165.175781,61.4140625 C156.035156,61.4140625 149.443359,67.390625 147.861328,77.9375 L182.402344,77.9375 C180.820312,67.2148438 174.316406,61.4140625 165.175781,61.4140625 Z M223.798828,137 L223.798828,41.2871094 L255,41.2871094 L255,58.25 L255.615234,58.25 C258.251953,46.1210938 265.810547,39.265625 277.060547,39.265625 C280.048828,39.265625 282.773438,39.7050781 285.146484,40.4960938 L285.146484,67.1269531 C282.509766,66.0722656 278.90625,65.3691406 275.214844,65.3691406 C262.119141,65.3691406 255,72.5761719 255,86.1992188 L255,137 L223.798828,137 Z M322.236328,137 L290.244141,41.2871094 L323.730469,41.2871094 L340.429688,110.896484 L341.044922,110.896484 L357.392578,41.2871094 L390,41.2871094 L358.271484,137 L322.236328,137 Z M413.027344,31.0039062 C404.0625,31.0039062 397.119141,23.9726562 397.119141,15.6230469 C397.119141,7.2734375 404.0625,0.330078125 413.027344,0.330078125 C422.080078,0.330078125 428.935547,7.2734375 428.935547,15.6230469 C428.935547,23.9726562 422.080078,31.0039062 413.027344,31.0039062 Z M397.470703,137 L397.470703,41.2871094 L428.583984,41.2871094 L428.583984,137 L397.470703,137 Z M489.580078,139.021484 C459.433594,139.021484 440.888672,120.125 440.888672,89.0996094 L440.888672,89.0117188 C440.888672,58.1621094 459.521484,39.265625 489.316406,39.265625 C516.298828,39.265625 534.052734,55.4375 534.492188,78.2011719 L534.580078,78.8164062 L505.927734,78.8164062 L505.839844,77.9375 C504.609375,69.0605469 498.984375,62.9082031 489.84375,62.9082031 C479.033203,62.9082031 472.529297,72.4882812 472.529297,89.0996094 L472.529297,89.1875 C472.529297,106.0625 478.857422,115.378906 489.931641,115.378906 C499.072266,115.378906 504.609375,109.490234 505.839844,100.349609 L506.015625,99.4707031 L534.580078,99.4707031 L534.580078,100.085938 C533.964844,122.322266 517.177734,139.021484 489.580078,139.021484 Z M591.708984,139.021484 C561.474609,139.021484 543.105469,120.125 543.105469,89.1875 L543.105469,89.0996094 C543.105469,58.3378906 561.5625,39.265625 590.654297,39.265625 C619.570312,39.265625 637.939453,58.1621094 637.939453,87.1660156 L637.939453,96.3066406 L573.603516,96.3066406 C573.955078,109.226562 580.986328,116.873047 592.324219,116.873047 C602.34375,116.873047 607.792969,111.160156 609.199219,107.205078 L609.287109,106.765625 L637.412109,106.765625 L637.148438,107.820312 C634.248047,121.091797 622.207031,139.021484 591.708984,139.021484 Z M591.357422,61.4140625 C582.216797,61.4140625 575.625,67.390625 574.042969,77.9375 L608.583984,77.9375 C607.001953,67.2148438 600.498047,61.4140625 591.357422,61.4140625 Z M692.080078,139.021484 C663.603516,139.021484 648.310547,126.453125 646.201172,107.820312 L646.113281,107.029297 L676.347656,107.029297 L676.523438,107.732422 C678.017578,114.236328 682.939453,118.015625 692.080078,118.015625 C700.341797,118.015625 705.351562,115.027344 705.351562,110.105469 L705.351562,110.017578 C705.351562,105.710938 702.275391,103.337891 693.75,101.580078 L676.875,98.2402344 C658.154297,94.6367188 648.398438,84.8808594 648.398438,70.2910156 L648.398438,70.203125 C648.398438,51.1308594 664.746094,39.265625 690.9375,39.265625 C718.623047,39.265625 733.300781,53.4160156 733.564453,70.5546875 L733.652344,71.2578125 L705.175781,71.2578125 L705.087891,70.5546875 C704.384766,64.9296875 699.550781,60.2714844 690.9375,60.2714844 C683.291016,60.2714844 678.369141,63.4355469 678.369141,68.4453125 L678.369141,68.5332031 C678.369141,72.6640625 681.269531,75.125 690.322266,76.9707031 L707.197266,80.3105469 C727.5,84.3535156 736.289062,92.2636719 736.289062,106.589844 L736.289062,106.677734 C736.289062,126.453125 718.359375,139.021484 692.080078,139.021484 Z" id="Services" fill="#FFFFFF" fill-rule="nonzero"></path>
    </g>
</svg>