<?xml version="1.0" encoding="UTF-8"?>
<svg width="401px" height="81px" viewBox="0 0 401 81" version="1.1" xmlns="http://www.w3.org/2000/svg" xmlns:xlink="http://www.w3.org/1999/xlink">
    <!-- Generator: Sketch 53.2 (72643) - https://sketchapp.com -->
    <title>Services</title>
    <desc>Created with Sketch.</desc>
    <g id="WWW" stroke="none" stroke-width="1" fill="none" fill-rule="evenodd" opacity="0.50381615">
        <g id="WebServices-Copy" transform="translate(-564.000000, -48.000000)" fill="#FFFFFF" fill-rule="nonzero">
            <path d="M590.115016,50.8843455 C593.550856,50.8843455 596.732864,51.2162114 599.661136,51.8799531 C602.589408,52.5436949 605.81046,53.2659912 609.324387,54.0468638 C609.636736,57.0922671 609.890515,60.1376246 610.085734,63.1830278 C610.280952,66.228431 610.456645,69.5080469 610.61282,73.0219736 C610.300471,73.4904972 609.870997,73.7247555 609.324387,73.7247555 L609.207256,73.7247555 C608.894907,73.7247555 608.28974,73.705234 607.391736,73.6661903 C606.493733,73.6271467 606.005695,73.3733669 605.927608,72.9048433 C605.693346,71.2650108 605.185786,69.4690307 604.404914,67.5168492 C603.624041,65.5646676 602.569879,63.6906015 601.242395,61.8945944 C599.914912,60.0985874 598.372712,58.6149517 596.615748,57.4436428 C594.858785,56.2723338 592.887111,55.6866881 590.700668,55.6866881 C589.21701,55.6866881 587.733374,55.979511 586.249716,56.5651654 C584.766058,57.1508199 583.516681,58.1659391 582.501546,59.6105534 C581.486412,61.0551678 580.978852,63.0658846 580.978852,65.6427643 C580.978852,67.9853821 581.876842,70.2694003 583.672849,72.4948873 C585.468856,74.7203742 587.635745,76.7896556 590.173581,78.7027936 C592.711417,80.6159315 595.151608,82.353347 597.494225,83.9150922 C599.993018,85.5549247 602.550337,87.3313833 605.166261,89.2445212 C607.782184,91.1576592 609.968594,93.5392849 611.725558,96.38947 C613.482521,99.2396551 614.36099,102.929223 614.36099,107.458284 C614.36099,111.596909 613.150655,115.266955 610.72995,118.468533 C608.309245,121.670111 605.205323,124.168866 601.418091,125.964873 C597.630859,127.76088 593.628946,128.65887 589.412234,128.65887 C586.054482,128.65887 582.443,128.346525 578.577681,127.721827 C574.712361,127.097129 571.061837,126.394354 567.625997,125.613482 C567.235561,123.895562 566.84513,121.709151 566.454694,119.054184 C566.064258,116.399218 565.732392,113.841898 565.459086,111.382149 C565.185781,108.922401 565.010087,107.184985 564.932,106.169851 C565.166262,105.779414 565.693343,105.428027 566.513259,105.115678 C567.333175,104.803329 567.8993,104.647157 568.211649,104.647157 C569.148696,104.647157 569.656255,104.920458 569.734343,105.467069 C569.968604,107.028814 570.593293,108.844316 571.608428,110.913628 C572.623562,112.982941 573.931504,115.013179 575.532293,117.004404 C577.133082,118.995629 579.007148,120.635437 581.154548,121.923877 C583.301947,123.212317 585.664052,123.856527 588.240931,123.856527 C591.208247,123.856527 593.80461,123.017102 596.030097,121.338225 C598.255584,119.659349 599.36831,116.789686 599.36831,112.729148 C599.36831,110.698879 598.763143,108.766248 597.552791,106.931198 C596.342438,105.096147 594.839281,103.397775 593.043274,101.836029 C591.247267,100.274284 589.373201,98.8296914 587.421019,97.5022079 C585.468837,96.1747245 583.789987,95.0424761 582.384416,94.105429 C579.651362,92.2313347 576.996435,90.3182255 574.419555,88.3660439 C571.842675,86.4138624 569.753872,84.1103227 568.153083,81.4553558 C566.552295,78.8003889 565.751912,75.48173 565.751912,71.4992796 C565.751912,67.5168293 566.962247,63.9834337 569.382952,60.8989868 C571.803657,57.81454 574.888057,55.3743496 578.636246,53.5783426 C582.384435,51.7823356 586.210653,50.8843455 590.115016,50.8843455 Z M637.552791,99.8448141 C637.552791,103.827264 638.138436,107.087359 639.309745,109.625195 C640.481054,112.163031 641.925647,114.095661 643.643567,115.423145 C645.361486,116.750628 647.137945,117.66814 648.972996,118.175707 C650.808046,118.683274 652.350247,118.937054 653.599643,118.937054 C656.957395,118.937054 659.612322,118.292844 661.564504,117.004404 C663.516685,115.715964 665.11745,114.447065 666.366846,113.197669 C666.757283,113.275756 667.089148,113.549058 667.362454,114.017581 C667.635759,114.486105 667.77241,114.915578 667.77241,115.306015 C667.77241,116.321149 667.655281,117.023924 667.421019,117.41436 C666.718234,118.429495 665.429813,119.835044 663.555719,121.631051 C661.681625,123.427058 659.31952,125.027823 656.469335,126.433394 C653.61915,127.838965 650.359056,128.541739 646.688955,128.541739 C642.472242,128.541739 638.528895,127.585185 634.858794,125.672047 C631.188692,123.758909 628.240942,121.025896 626.015455,117.472925 C623.789968,113.919955 622.677242,109.644741 622.677242,104.647157 C622.677242,101.055143 623.380016,97.56079 624.785587,94.1639941 C626.191158,90.7671982 628.084746,87.7218407 630.466407,85.0278302 C632.848069,82.3338196 635.56156,80.2059736 638.606963,78.6442284 C641.652367,77.0824832 644.814853,76.3016223 648.094518,76.3016223 C651.842707,76.3016223 655.005194,76.8872679 657.582073,78.0585769 C660.158953,79.2298858 662.208713,80.7135215 663.731414,82.5095286 C665.254116,84.3055356 666.366843,86.1991233 667.069628,88.1903485 C667.772413,90.1815736 668.123801,91.9970753 668.123801,93.6369078 C668.123801,94.886304 667.830978,95.9795092 667.245324,96.9165564 C666.659669,97.8536035 665.937373,98.3611631 665.078413,98.4392504 C662.501533,98.6735122 659.612348,98.8882489 656.41077,99.0834671 C653.209192,99.2786852 649.96862,99.4348574 646.688955,99.5519883 C643.40929,99.6691192 640.363932,99.7667268 637.552791,99.8448141 Z M637.669921,95.2767321 C637.904183,95.2767321 638.665522,95.2572105 639.953962,95.2181669 C641.242402,95.1791233 642.726037,95.1010372 644.404914,94.9839063 C646.08379,94.8667754 647.665033,94.7496463 649.148691,94.6325154 C650.632349,94.5153845 651.725554,94.4177769 652.42834,94.3396896 C653.131125,94.2616023 653.560599,94.0078225 653.716773,93.5783426 C653.872948,93.1488627 653.951034,92.7779537 653.951034,92.4656047 C653.951034,90.6695977 653.716775,88.9126606 653.248252,87.1947408 C652.779728,85.4768211 652.03791,84.0322284 651.022776,82.8609195 C650.007642,81.6896105 648.641135,81.1039649 646.923215,81.1039649 C645.205295,81.1039649 643.760703,81.6505675 642.589394,82.7437892 C641.418085,83.8370108 640.46153,85.1644744 639.719701,86.7262196 C638.977872,88.2879649 638.450791,89.8692082 638.138442,91.4699971 C637.826093,93.0707859 637.669921,94.3396849 637.669921,95.2767321 Z M713.218969,76.3016223 C714.702627,76.3016223 716.069134,76.4577944 717.31853,76.7701435 C718.567926,77.0824925 719.583045,77.5900521 720.363918,78.2928375 C720.59818,78.6051865 720.871481,79.3079613 721.18383,80.401183 C721.496179,81.4944047 721.652351,82.665696 721.652351,83.9150922 C721.652351,85.1644884 721.359529,86.491952 720.773874,87.8975227 C720.18822,89.3030934 719.387837,90.4939063 718.372703,91.4699971 C717.357568,92.4460878 716.186277,92.9341259 714.858794,92.9341259 C713.843659,92.9341259 712.945669,92.60226 712.164796,91.9385183 C711.383924,91.2747766 710.642106,90.6696094 709.939321,90.1229985 C709.314623,89.4983004 708.709455,88.9321763 708.123801,88.4246091 C707.538146,87.9170419 706.737764,87.6632621 705.72263,87.6632621 C704.160884,87.6632621 702.813899,88.2684293 701.681634,89.4787818 C700.549369,90.6891344 699.6709,92.016598 699.046202,93.4612123 C698.421504,94.9058266 698.10916,96.0575965 698.10916,96.9165564 L698.10916,110.855063 C698.10916,112.963419 698.148203,114.993657 698.22629,116.945839 C698.304377,118.89802 698.577678,120.459742 699.046202,121.631051 C699.280464,122.099575 699.983239,122.490005 701.154548,122.802354 C702.325857,123.114703 703.555712,123.32944 704.844152,123.446571 C706.132592,123.563702 707.011061,123.66131 707.479584,123.739397 C707.791933,124.129833 707.928584,124.832608 707.88954,125.847742 C707.850497,126.862877 707.713846,127.565652 707.479584,127.956088 C705.293141,127.721826 702.540606,127.526611 699.221898,127.370436 C695.903189,127.214262 693.033525,127.136176 690.61282,127.136176 C688.192115,127.136176 685.556709,127.214262 682.706524,127.370436 C679.856339,127.526611 677.29902,127.721826 675.034489,127.956088 C674.800227,127.565652 674.663577,126.862877 674.624533,125.847742 C674.585489,124.832608 674.72214,124.129833 675.034489,123.739397 C675.5811,123.66131 676.381482,123.563702 677.43566,123.446571 C678.489838,123.32944 679.524479,123.114703 680.539613,122.802354 C681.554748,122.490005 682.140394,122.099575 682.296568,121.631051 C682.765092,120.459742 683.038393,118.976107 683.11648,117.1801 C683.194567,115.384093 683.233611,113.275768 683.233611,110.855063 L683.233611,97.7364685 C683.233611,97.3460322 683.214089,96.5066067 683.175045,95.2181669 C683.136002,93.9297271 683.038394,92.6022635 682.88222,91.2357365 C682.726045,89.8692094 682.491787,88.9126548 682.179438,88.3660439 C681.867089,87.7413458 681.183835,87.2728293 680.129657,86.9604802 C679.075479,86.6481312 678.040839,86.4138729 677.025704,86.2576984 C676.01057,86.1015239 675.346838,86.0234378 675.034489,86.0234378 C674.956402,85.9453505 674.878316,85.6134846 674.800228,85.0278302 C674.722141,84.4421757 674.722141,83.8760515 674.800228,83.3294407 C674.878316,82.7828299 674.995445,82.5095286 675.151619,82.5095286 C678.040848,82.2752668 680.910512,81.8067502 683.760697,81.1039649 C686.610882,80.4011795 689.246288,79.6203186 691.666993,78.7613587 C694.087698,77.9023988 696.000807,77.1215379 697.406378,76.4187526 C697.796814,76.4968398 698.226288,76.8091842 698.694811,77.355795 C699.163335,77.9024059 699.397593,78.2537933 699.397593,78.4099678 C699.319506,78.7223168 699.182855,79.5031777 698.987637,80.7525739 C698.792419,82.0019701 698.616725,83.2903906 698.460551,84.6178741 C698.304376,85.9453575 698.22629,86.8823906 698.22629,87.4290015 C698.22629,87.7413505 698.323898,87.8975227 698.519116,87.8975227 C698.714334,87.8975227 698.850984,87.8584796 698.929072,87.7803924 C699.866119,86.1405599 700.978846,84.4226659 702.267286,82.6266589 C703.555725,80.8306518 705.097926,79.3274946 706.893933,78.117142 C708.68994,76.9067895 710.798264,76.3016223 713.218969,76.3016223 Z M738.401985,77.5900556 C740.82269,77.5900556 743.477618,77.492448 746.366846,77.2972299 C749.256075,77.1020117 751.403442,76.926318 752.809013,76.7701435 C753.121362,77.0824925 753.277534,77.7852673 753.277534,78.878489 C753.277534,79.9717107 753.121362,80.7135286 752.809013,81.1039649 C752.34049,81.1039649 751.559629,81.221094 750.466407,81.4553558 C749.373185,81.6896176 748.358066,82.0214835 747.421019,82.4509634 C746.483972,82.8804433 746.015455,83.4465675 746.015455,84.1493529 C746.015455,84.3055274 746.034977,84.5593072 746.07402,84.9106999 C746.113064,85.2620925 746.171629,85.5939584 746.249716,85.9063075 C747.26485,87.858489 748.436142,90.1229857 749.763625,92.6998653 C751.091109,95.2767449 752.399051,97.7559783 753.68749,100.13764 C754.97593,102.519301 756.030093,104.490975 756.850009,106.05272 L758.079877,108.395327 L758.958354,106.462676 C759.544009,105.174237 760.285827,103.534429 761.18383,101.543204 C762.081834,99.5519783 763.05791,97.3850893 764.112088,95.0424714 C765.166266,92.6998536 766.161864,90.4744 767.098911,88.3660439 C767.41126,87.7413458 767.684561,87.038571 767.918823,86.2576984 C768.153085,85.4768258 768.270214,84.774051 768.270214,84.1493529 C768.270214,83.2123057 767.665047,82.5290524 766.454694,82.0995725 C765.244341,81.6700925 763.975442,81.3967912 762.647959,81.2796603 C761.320476,81.1625294 760.500572,81.1039649 760.188223,81.1039649 C759.875873,80.7916158 759.719701,80.088841 759.719701,78.9956193 C759.719701,77.9023977 759.83683,77.1605798 760.071092,76.7701435 C761.789012,77.0044053 763.6826,77.1996205 765.751912,77.355795 C767.821225,77.5119695 769.949071,77.5900556 772.135514,77.5900556 C774.556219,77.5900556 776.918323,77.4729265 779.221898,77.2386647 C781.525472,77.0044029 783.106715,76.8482307 783.965675,76.7701435 C784.199937,77.0824925 784.336587,77.7852673 784.375631,78.878489 C784.414675,79.9717107 784.278024,80.7135286 783.965675,81.1039649 C783.497151,81.1039649 782.618683,81.182051 781.330243,81.3382255 C780.041803,81.4944 778.753383,81.8457874 777.464943,82.3923982 C776.176503,82.9390091 775.258992,83.758913 774.712381,84.8521347 L757.142835,122.333833 C754.878304,126.628633 753.16041,128.776 751.989101,128.776 C751.832927,128.776 751.598668,128.658871 751.286319,128.424609 C750.97397,128.190347 750.739712,127.995132 750.583537,127.838958 C747.225785,120.967278 743.926648,114.154267 740.686026,107.399719 C737.445405,100.645171 733.912009,93.3245997 730.085734,85.4377862 C729.61721,84.2664773 728.855871,83.3684873 727.801693,82.7437892 C726.747514,82.1190911 725.751917,81.6896176 724.81487,81.4553558 C723.877823,81.221094 723.253134,81.1039649 722.940785,81.1039649 C722.628436,80.6354413 722.491785,79.8741019 722.530829,78.8199239 C722.569872,77.7657458 722.706523,77.0824925 722.940785,76.7701435 C723.955919,76.8482307 725.400512,76.9653599 727.274606,77.1215344 C729.1487,77.2777089 731.100853,77.3948381 733.131122,77.4729253 C735.16139,77.5510126 736.918327,77.5900556 738.401985,77.5900556 Z M810.319994,89.1859561 L810.319994,110.855063 C810.319994,112.963419 810.359037,114.993657 810.437124,116.945839 C810.515212,118.89802 810.788513,120.459742 811.257037,121.631051 C811.491298,122.099575 812.01838,122.490005 812.838296,122.802354 C813.658212,123.114703 814.556202,123.32944 815.532293,123.446571 C816.508384,123.563702 817.23068,123.66131 817.699204,123.739397 C818.011553,124.129833 818.148203,124.832608 818.10916,125.847742 C818.070116,126.862877 817.933465,127.565652 817.699204,127.956088 C815.51276,127.721826 813.092091,127.526611 810.437124,127.370436 C807.782158,127.214262 805.24436,127.136176 802.823654,127.136176 C800.402949,127.136176 797.767544,127.214262 794.917359,127.370436 C792.067174,127.526611 789.509854,127.721826 787.245324,127.956088 C787.011062,127.565652 786.874411,126.862877 786.835367,125.847742 C786.796324,124.832608 786.932975,124.129833 787.245324,123.739397 C787.791934,123.66131 788.592317,123.563702 789.646495,123.446571 C790.700673,123.32944 791.735314,123.114703 792.750448,122.802354 C793.765582,122.490005 794.351228,122.099575 794.507403,121.631051 C794.975926,120.459742 795.249228,118.976107 795.327315,117.1801 C795.405402,115.384093 795.444445,113.275768 795.444445,110.855063 L795.444445,97.7364685 C795.444445,97.3460322 795.424924,96.5066067 795.38588,95.2181669 C795.346836,93.9297271 795.249229,92.6022635 795.093054,91.2357365 C794.93688,89.8692094 794.702621,88.9126548 794.390272,88.3660439 C794.077923,87.7413458 793.39467,87.2728293 792.340492,86.9604802 C791.286314,86.6481312 790.251673,86.4138729 789.236539,86.2576984 C788.221404,86.1015239 787.557673,86.0234378 787.245324,86.0234378 C787.167236,85.9453505 787.08915,85.6134846 787.011063,85.0278302 C786.932976,84.4421757 786.932976,83.8760515 787.011063,83.3294407 C787.08915,82.7828299 787.206279,82.5095286 787.362454,82.5095286 C790.251683,82.2752668 793.121346,81.8067502 795.971531,81.1039649 C798.821717,80.4011795 801.457122,79.6203186 803.877827,78.7613587 C806.298532,77.9023988 808.211642,77.1215379 809.617212,76.4187526 C810.007649,76.4968398 810.437122,76.8091842 810.905646,77.355795 C811.374169,77.9024059 811.608428,78.2537933 811.608428,78.4099678 C811.452253,78.8784914 811.237516,79.874089 810.964211,81.3967906 C810.690905,82.9194922 810.515212,84.1103051 810.437124,84.969265 C810.359037,86.2186612 810.319994,87.6242108 810.319994,89.1859561 Z M793.45323,56.9751215 C793.45323,54.7105909 794.273134,52.7779602 795.912966,51.1771713 C797.552799,49.5763824 799.504951,48.776 801.769482,48.776 C804.034012,48.776 805.986165,49.5763824 807.625997,51.1771713 C809.26583,52.7779602 810.085734,54.7105909 810.085734,56.9751215 C810.085734,59.2396521 809.26583,61.1918044 807.625997,62.8316369 C805.986165,64.4714694 804.034012,65.2913734 801.769482,65.2913734 C799.504951,65.2913734 797.552799,64.4714694 795.912966,62.8316369 C794.273134,61.1918044 793.45323,59.2396521 793.45323,56.9751215 Z M866.542542,83.7979619 C866.542542,85.4377944 865.956896,87.0385593 864.785587,88.6003045 C863.614278,90.1620498 862.013513,90.9429107 859.983245,90.9429107 C858.499587,90.9429107 857.211166,90.3377435 856.117944,89.1273909 C855.024723,87.9170384 854.009604,86.8043116 853.072556,85.7891772 C850.886113,83.368472 848.309272,82.1581376 845.341956,82.1581376 C843.702124,82.1581376 842.277052,82.9780416 841.0667,84.6178741 C839.856347,86.2577066 838.919314,88.3074665 838.255572,90.7672152 C837.591831,93.226964 837.259965,95.6281113 837.259965,97.9707291 C837.259965,103.280663 838.138433,107.47779 839.895397,110.562237 C841.65236,113.646684 843.799728,115.813573 846.337564,117.062969 C848.8754,118.312365 851.354633,118.937054 853.775338,118.937054 C857.13309,118.937054 859.788018,118.292844 861.740199,117.004404 C863.692381,115.715964 865.293146,114.447065 866.542542,113.197669 C866.932978,113.275756 867.264844,113.549058 867.538149,114.017581 C867.811455,114.486105 867.948105,114.915578 867.948105,115.306015 C867.948105,116.321149 867.830976,117.023924 867.596714,117.41436 C866.893929,118.429495 865.605509,119.835044 863.731414,121.631051 C861.85732,123.427058 859.495216,125.027823 856.645031,126.433394 C853.794846,127.838965 850.534751,128.541739 846.86465,128.541739 C842.647938,128.541739 838.70459,127.585185 835.034489,125.672047 C831.364388,123.758909 828.416638,121.025896 826.191151,117.472925 C823.965664,113.919955 822.852937,109.644741 822.852937,104.647157 C822.852937,101.13323 823.653319,97.6974419 825.254108,94.3396896 C826.854897,90.9819373 829.060829,87.9365798 831.871971,85.2035256 C834.683112,82.4704714 837.86512,80.2840609 841.418091,78.6442284 C844.971061,77.0043959 848.738715,76.1844919 852.721165,76.1844919 C855.922743,76.1844919 858.499584,76.4382717 860.451766,76.9458389 C862.403947,77.4534061 863.692368,77.9024012 864.317066,78.2928375 C864.863677,78.8394483 865.371236,79.5227016 865.83976,80.3426179 C866.308283,81.1625341 866.542542,82.314304 866.542542,83.7979619 Z M888.91443,99.8448141 C888.91443,103.827264 889.500076,107.087359 890.671385,109.625195 C891.842694,112.163031 893.287287,114.095661 895.005206,115.423145 C896.723126,116.750628 898.499585,117.66814 900.334635,118.175707 C902.169686,118.683274 903.711886,118.937054 904.961283,118.937054 C908.319035,118.937054 910.973962,118.292844 912.926143,117.004404 C914.878325,115.715964 916.47909,114.447065 917.728486,113.197669 C918.118922,113.275756 918.450788,113.549058 918.724094,114.017581 C918.997399,114.486105 919.13405,114.915578 919.13405,115.306015 C919.13405,116.321149 919.016921,117.023924 918.782659,117.41436 C918.079873,118.429495 916.791453,119.835044 914.917359,121.631051 C913.043264,123.427058 910.68116,125.027823 907.830975,126.433394 C904.98079,127.838965 901.720696,128.541739 898.050594,128.541739 C893.833882,128.541739 889.890535,127.585185 886.220433,125.672047 C882.550332,123.758909 879.602582,121.025896 877.377095,117.472925 C875.151608,113.919955 874.038881,109.644741 874.038881,104.647157 C874.038881,101.055143 874.741656,97.56079 876.147227,94.1639941 C877.552798,90.7671982 879.446385,87.7218407 881.828047,85.0278302 C884.209708,82.3338196 886.9232,80.2059736 889.968603,78.6442284 C893.014006,77.0824832 896.176493,76.3016223 899.456158,76.3016223 C903.204347,76.3016223 906.366833,76.8872679 908.943713,78.0585769 C911.520593,79.2298858 913.570353,80.7135215 915.093054,82.5095286 C916.615756,84.3055356 917.728483,86.1991233 918.431268,88.1903485 C919.134053,90.1815736 919.485441,91.9970753 919.485441,93.6369078 C919.485441,94.886304 919.192618,95.9795092 918.606963,96.9165564 C918.021309,97.8536035 917.299013,98.3611631 916.440053,98.4392504 C913.863173,98.6735122 910.973988,98.8882489 907.77241,99.0834671 C904.570832,99.2786852 901.330259,99.4348574 898.050594,99.5519883 C894.770929,99.6691192 891.725572,99.7667268 888.91443,99.8448141 Z M889.031561,95.2767321 C889.265823,95.2767321 890.027162,95.2572105 891.315602,95.2181669 C892.604042,95.1791233 894.087677,95.1010372 895.766553,94.9839063 C897.44543,94.8667754 899.026673,94.7496463 900.510331,94.6325154 C901.993989,94.5153845 903.087194,94.4177769 903.78998,94.3396896 C904.492765,94.2616023 904.922238,94.0078225 905.078413,93.5783426 C905.234587,93.1488627 905.312673,92.7779537 905.312673,92.4656047 C905.312673,90.6695977 905.078415,88.9126606 904.609892,87.1947408 C904.141368,85.4768211 903.39955,84.0322284 902.384416,82.8609195 C901.369281,81.6896105 900.002775,81.1039649 898.284855,81.1039649 C896.566935,81.1039649 895.122343,81.6505675 893.951034,82.7437892 C892.779725,83.8370108 891.82317,85.1644744 891.081341,86.7262196 C890.339512,88.2879649 889.812431,89.8692082 889.500082,91.4699971 C889.187733,93.0707859 889.031561,94.3396849 889.031561,95.2767321 Z M948.650887,76.1844919 C951.383941,76.1844919 953.726524,76.4577933 955.678706,77.0044041 C957.630887,77.5510149 959.543996,78.0195315 961.418091,78.4099678 C961.73044,79.659364 962.081827,81.2796504 962.472264,83.2708755 C962.8627,85.2621007 963.194566,87.1166454 963.467871,88.8345652 C963.741177,90.5524849 963.877827,91.7628193 963.877827,92.4656047 C963.877827,92.6998665 963.624047,92.8950817 963.11648,93.0512562 C962.608913,93.2074307 962.159918,93.2855168 961.769482,93.2855168 C961.300958,93.2855168 960.910528,93.1879092 960.598179,92.9926911 C960.28583,92.7974729 959.934442,92.5827362 959.544006,92.3484744 C959.15357,90.6305546 958.528881,88.8931391 957.669921,87.1361757 C956.810961,85.3792123 955.561584,83.8955766 953.921751,82.685224 C952.281919,81.4748714 950.134551,80.8697042 947.479584,80.8697042 C945.60549,80.8697042 944.043768,81.3772638 942.794372,82.3923982 C941.544976,83.4075327 940.920287,84.9302114 940.920287,86.9604802 C940.920287,88.9126618 941.544976,90.4939051 942.794372,91.7042577 C944.043768,92.9146102 945.585968,93.9102079 947.421019,94.6910805 C949.25607,95.4719531 950.993485,96.2918571 952.633318,97.150817 C954.663587,98.0878641 956.615739,99.1420264 958.489833,100.313335 C960.363927,101.484644 961.906128,103.007323 963.11648,104.881417 C964.326833,106.755512 964.932,109.332353 964.932,112.612018 C964.932,116.438293 963.897359,119.503172 961.828047,121.806747 C959.758734,124.110321 957.0062,125.789172 953.57036,126.84335 C950.134521,127.897528 946.425431,128.424609 942.442981,128.424609 C939.944189,128.424609 937.445434,128.092743 934.946641,127.429001 C932.447849,126.76526 930.495697,126.277222 929.090126,125.964873 C929.012039,125.340175 928.914431,124.286012 928.7973,122.802354 C928.680169,121.318696 928.56304,119.737453 928.445909,118.058577 C928.328778,116.379701 928.250692,114.876543 928.211649,113.54906 C928.172605,112.221577 928.153083,111.401673 928.153083,111.089324 C928.153083,110.698887 928.36782,110.484151 928.7973,110.445107 C929.22678,110.406063 929.597689,110.386542 929.910038,110.386542 C930.300474,110.386542 930.768991,110.464628 931.315602,110.620802 C931.862213,110.776977 932.2136,111.050278 932.369775,111.440714 C932.916385,114.72038 933.892461,117.258177 935.298032,119.054184 C936.703603,120.850192 938.265325,122.099569 939.983245,122.802354 C941.701164,123.50514 943.301929,123.856527 944.785587,123.856527 C946.815856,123.856527 948.397099,123.212317 949.529365,121.923877 C950.66163,120.635437 951.227754,119.210366 951.227754,117.648621 C951.227754,115.696439 950.622587,114.154239 949.412234,113.021974 C948.201882,111.889708 946.698724,110.913632 944.902717,110.093716 C943.10671,109.2738 941.31073,108.395331 939.514723,107.458284 C936.156971,105.662277 933.287307,103.592996 930.905646,101.250378 C928.523984,98.9077599 927.333171,95.8233593 927.333171,91.9970835 C927.333171,89.1078548 928.016425,86.6676644 929.382952,84.6764392 C930.749479,82.6852141 932.506416,81.0649277 934.653816,79.8155315 C936.801215,78.5661353 939.104755,77.6486237 941.564504,77.0629693 C944.024252,76.4773148 946.386357,76.1844919 948.650887,76.1844919 Z" id="Services"></path>
        </g>
    </g>
</svg>