<?xml version="1.0" encoding="UTF-8"?>
<svg width="500px" height="500px" viewBox="0 0 500 500" version="1.1" xmlns="http://www.w3.org/2000/svg" xmlns:xlink="http://www.w3.org/1999/xlink">
    <!-- Generator: Sketch 53.2 (72643) - https://sketchapp.com -->
    <title>Artboard Copy</title>
    <desc>Created with Sketch.</desc>
    <defs>
        <linearGradient x1="0%" y1="0%" x2="100%" y2="100%" id="linearGradient-1">
            <stop stop-color="#612CB8" offset="0%"></stop>
            <stop stop-color="#11A8DB" offset="65.2100372%"></stop>
            <stop stop-color="#11DBB4" offset="100%"></stop>
        </linearGradient>
        <polygon id="path-2" points="0.0285744863 0.0375809365 182.447619 0.0375809365 182.447619 147.794882 0.0285744863 147.794882"></polygon>
        <polygon id="path-4" points="0.0285744863 0.0375809365 182.447619 0.0375809365 182.447619 147.794882 0.0285744863 147.794882"></polygon>
        <polygon id="path-6" points="0.0285744863 0.0375809365 182.447619 0.0375809365 182.447619 147.794882 0.0285744863 147.794882"></polygon>
    </defs>
    <g id="Artboard-Copy" stroke="none" stroke-width="1" fill="none" fill-rule="evenodd">
        <rect id="Rectangle" fill="url(#linearGradient-1)" x="0" y="0" width="500" height="500" rx="30"></rect>
        <g id="Group-2" opacity="0.602937971" transform="translate(128.000000, 53.000000)">
            <g id="Group-3" transform="translate(0.000000, 0.000000)">
                <g id="Group-13">
                    <g id="Fill-10-Clipped">
                        <mask id="mask-3" fill="white">
                            <use xlink:href="#path-2"></use>
                        </mask>
                        <g id="path-2"></g>
                        <path d="M129.540052,8.56274501 L129.540052,0.0375809365 L105.122202,19.2076642 L129.540052,38.3772717 L129.540052,30.8235035 C147.04383,36.169035 159.99474,52.0500727 160.941032,71.0322512 L160.924839,75.7308197 C159.885204,94.7700832 146.761419,110.651121 129.106673,115.845853 C125.092434,117.026085 120.906271,117.542228 116.719633,117.542228 L64.718354,117.58409 L78.7827162,128.62575 L64.718354,139.046135 L119.552317,139.046135 C153.759787,137.521966 181.183198,109.962296 182.437141,75.7308197 L182.447619,71.0322512 C181.43894,39.8495881 159.257518,14.1537418 129.540052,8.56274501 L280.982449,19.2076642" id="Fill-10" fill="#FFFFFF" fill-rule="nonzero" mask="url(#mask-3)"></path>
                    </g>
                    <g id="Fill-12-Clipped">
                        <mask id="mask-5" fill="white">
                            <use xlink:href="#path-4"></use>
                        </mask>
                        <g id="path-2"></g>
                        <polygon id="Fill-12" fill="#FFFFFF" fill-rule="nonzero" mask="url(#mask-5)" points="46.277333 109.457094 46.277333 117.586469 0 117.586469 0 139.107977 46.277333 139.107977 46.277333 147.794882 70.6942315 128.62575"></polygon>
                    </g>
                    <g id="Fill-12-Copy-Clipped">
                        <mask id="mask-7" fill="white">
                            <use xlink:href="#path-6"></use>
                        </mask>
                        <g id="path-2"></g>
                        <polygon id="Fill-12-Copy" fill="#FFFFFF" fill-rule="nonzero" mask="url(#mask-7)" points="46.277333 109.457094 46.277333 117.586469 0 117.586469 0 139.107977 46.277333 139.107977 46.277333 147.794882 70.6942315 128.62575"></polygon>
                    </g>
                </g>
                <path d="M217.565949,140.222619 L143.835616,140.222619 C154.394131,136.086693 164.022651,129.59396 172.054041,121.062443 C173.594394,119.429488 175.054312,117.742994 176.439052,115.997607 L217.565949,115.997607 L217.565949,106.849315 L244.520548,128.424658 L217.565949,150 L217.565949,140.222619 Z" id="Fill-7" fill="#FFFFFF" fill-rule="nonzero"></path>
            </g>
            <path d="M98.8520961,17.1979317 L113.564985,5.56184979 C80.0446455,7.76355473 53.3856049,35.2380612 52.2343802,69.2278948 L52.2396023,73.9450833 C52.7342729,87.913253 57.5428315,100.780093 65.3630889,111.236997 L97.8152819,111.236997 C84.13446,104.202526 74.5482002,90.2190732 73.6780169,73.9450833 L73.6727949,69.2278948 C74.7618296,47.7963756 90.9696489,30.3112093 111.757206,27.4021888 L98.8520961,17.1979317 Z" id="Fill-6" fill="#FFFFFF" fill-rule="nonzero"></path>
        </g>
        <text id="Agile-Project-Manage" opacity="0.6" font-family="SFProDisplay-Heavy, SF Pro Display" font-size="54" font-weight="600" fill="#FFFFFF">
            <tspan x="185.373047" y="323">Agile</tspan>
            <tspan x="158.663086" y="387">Project</tspan>
            <tspan x="81.3808594" y="451">Management</tspan>
        </text>
    </g>
</svg>