<?xml version="1.0" encoding="UTF-8"?>
<svg width="500px" height="500px" viewBox="0 0 500 500" version="1.1" xmlns="http://www.w3.org/2000/svg" xmlns:xlink="http://www.w3.org/1999/xlink">
    <!-- Generator: Sketch 53.2 (72643) - https://sketchapp.com -->
    <title>Artboard Copy 2</title>
    <desc>Created with Sketch.</desc>
    <defs>
        <linearGradient x1="0%" y1="0%" x2="100%" y2="100%" id="linearGradient-1">
            <stop stop-color="#612CB8" offset="0%"></stop>
            <stop stop-color="#11A8DB" offset="65.2100372%"></stop>
            <stop stop-color="#11DBB4" offset="100%"></stop>
        </linearGradient>
    </defs>
    <g id="Artboard-Copy-2" stroke="none" stroke-width="1" fill="none" fill-rule="evenodd">
        <rect id="Rectangle" fill="url(#linearGradient-1)" x="0" y="0" width="500" height="500" rx="30"></rect>
        <path d="M282.972334,120.48341 L245.71387,161.674881 C244.225432,163.316289 242.169969,164.166667 240.09264,164.166667 C238.528046,164.166667 236.949125,163.677625 235.59641,162.683765 L221.308458,152.12992 C217.953816,149.653159 217.251068,144.940776 219.737077,141.598612 C222.223086,138.26321 226.952308,137.563827 230.307704,140.032325 L239.079235,146.513824 L271.744198,110.403583 C274.540111,107.316834 279.31533,107.068932 282.421144,109.853693 C285.518663,112.639205 285.76749,117.396661 282.972334,120.48341 Z M308.44868,72.2749402 C307.610344,72.4337052 306.766009,72.5811837 305.927673,72.7158706 C300.850421,73.5337741 295.71393,73.9694375 290.572188,73.910747 C286.262036,73.8633433 281.947382,73.4750837 277.707715,72.6865254 C274.172159,72.0281395 270.683094,71.0860833 267.299759,69.8565947 C264.550048,68.850581 261.870825,67.6504377 259.302579,66.2501447 C257.356711,65.1854408 255.467832,64.0026035 253.674184,62.6903462 C253.017313,62.2080316 252.36644,61.7076583 251.738815,61.1847118 C251.123186,60.6843385 250.542798,60.0485257 249.704463,60.0018745 C248.918618,59.9665097 248.221255,60.4375378 247.646118,60.9078135 C246.620319,61.737756 245.588522,62.5488874 244.509484,63.3081003 C242.586111,64.6436833 240.575756,65.8438266 238.493415,66.9092831 C235.802193,68.2915172 233.005992,69.456296 230.138555,70.4156585 C226.638243,71.5864566 223.0382,72.4457443 219.396915,73.0160945 C215.04027,73.7045781 210.631136,73.9814764 206.228,73.9047275 C200.979781,73.8219589 195.749558,73.2395695 190.590571,72.2749402 C189.054123,71.9867554 187.606157,73.0988631 187.505677,74.6692077 C186.67409,88.3192404 184.516014,145.389636 204.510088,170.500851 C225.547957,196.912284 243.746883,207.408836 248.385472,209.727107 C249.106831,210.086021 249.945167,210.09204 250.666525,209.738394 C255.332859,207.455488 273.644263,197.071049 294.535911,170.500851 C314.365017,145.272255 312.330667,88.32526 311.527573,74.675227 C311.439842,73.1041302 309.985128,71.9867554 308.44868,72.2749402 Z" id="Fill-14" fill="#FFFFFF" fill-rule="nonzero" opacity="0.6"></path>
        <text id="Information-Security" opacity="0.6" font-family="SFProDisplay-Heavy, SF Pro Display" font-size="54" font-weight="600" fill="#FFFFFF">
            <tspan x="101.090332" y="323">Information</tspan>
            <tspan x="142.486816" y="387">Security</tspan>
            <tspan x="110.411133" y="451">Consulting</tspan>
        </text>
    </g>
</svg>