<?xml version="1.0" encoding="UTF-8"?>
<svg width="200px" height="300px" viewBox="0 0 200 300" version="1.1" xmlns="http://www.w3.org/2000/svg" xmlns:xlink="http://www.w3.org/1999/xlink">
    <!-- Generator: Sketch 53.2 (72643) - https://sketchapp.com -->
    <title>Group</title>
    <desc>Created with Sketch.</desc>
    <defs>
        <linearGradient x1="27.7777778%" y1="0%" x2="72.2222222%" y2="100%" id="linearGradient-1">
            <stop stop-color="#612CB8" offset="0%"></stop>
            <stop stop-color="#11A8DB" offset="65.2100372%"></stop>
            <stop stop-color="#11DBB4" offset="100%"></stop>
        </linearGradient>
    </defs>
    <g id="WWW" stroke="none" stroke-width="1" fill="none" fill-rule="evenodd">
        <g id="Desktop-HD" transform="translate(-987.000000, -113.000000)">
            <g id="Group" transform="translate(987.000000, 113.000000)">
                <path d="M45.8693334,202.936 C46.3333357,202.936 46.7853312,202.924 47.2253334,202.9 C47.6653356,202.876 48.125331,202.856 48.6053334,202.84 C48.6693337,202.904 48.6973334,203.015999 48.6893334,203.176 C48.6813333,203.336001 48.6533336,203.448 48.6053334,203.512 C48.5093329,203.512 48.3333346,203.524 48.0773334,203.548 C47.8213321,203.572 47.5813345,203.608 47.3573334,203.656 C47.1333322,203.704 47.0053335,203.776 46.9733334,203.872 C46.9253331,204.032001 46.8973334,204.239999 46.8893334,204.496 C46.8813333,204.752001 46.8773334,205.031998 46.8773334,205.336 L46.8773334,215.92 C46.8773334,216.224002 46.8813333,216.499999 46.8893334,216.748 C46.8973334,216.996001 46.9253331,217.199999 46.9733334,217.36 C47.0053335,217.44 47.1333322,217.512 47.3573334,217.576 C47.5813345,217.64 47.8213321,217.684 48.0773334,217.708 C48.3333346,217.732 48.5093329,217.744 48.6053334,217.744 C48.6533336,217.808 48.6813333,217.919999 48.6893334,218.08 C48.6973334,218.240001 48.6693337,218.352 48.6053334,218.416 C48.125331,218.384 47.6653356,218.356 47.2253334,218.332 C46.7853312,218.308 46.3333357,218.296 45.8693334,218.296 C45.4213311,218.296 44.9653357,218.308 44.5013334,218.332 C44.037331,218.356 43.5653358,218.384 43.0853334,218.416 C43.021333,218.352 42.9933333,218.240001 43.0013334,218.08 C43.0093334,217.919999 43.0373331,217.808 43.0853334,217.744 C43.1813338,217.744 43.3573321,217.732 43.6133334,217.708 C43.8693346,217.684 44.1133322,217.64 44.3453334,217.576 C44.5773345,217.512 44.7013333,217.44 44.7173334,217.36 C44.7813337,217.167999 44.8173333,216.920002 44.8253334,216.616 C44.8333334,216.311998 44.8373334,215.984002 44.8373334,215.632 L44.8373334,205.624 C44.8373334,205.271998 44.8333334,204.940002 44.8253334,204.628 C44.8173333,204.315998 44.7813337,204.064001 44.7173334,203.872 C44.7013333,203.776 44.5773345,203.704 44.3453334,203.656 C44.1133322,203.608 43.8693346,203.572 43.6133334,203.548 C43.3573321,203.524 43.1813338,203.512 43.0853334,203.512 C43.0373331,203.448 43.0093334,203.336001 43.0013334,203.176 C42.9933333,203.015999 43.021333,202.904 43.0853334,202.84 C43.5653358,202.856 44.037331,202.876 44.5013334,202.9 C44.9653357,202.924 45.4213311,202.936 45.8693334,202.936 Z M57.1733334,208.072 C58.0213376,208.072 58.6613312,208.247998 59.0933334,208.6 C59.5253355,208.952002 59.8173326,209.495996 59.9693334,210.232 C60.1213341,210.968004 60.1973334,211.903994 60.1973334,213.04 L60.1973334,215.632 C60.1973334,215.984002 60.2013333,216.311998 60.2093334,216.616 C60.2173334,216.920002 60.253333,217.167999 60.3173334,217.36 C60.3493335,217.44 60.4653324,217.512 60.6653334,217.576 C60.8653344,217.64 61.0773322,217.684 61.3013334,217.708 C61.5253345,217.732 61.6853329,217.744 61.7813334,217.744 C61.8293336,217.808 61.8573333,217.919999 61.8653334,218.08 C61.8733334,218.240001 61.8453337,218.352 61.7813334,218.416 L60.5213334,218.332 C60.1613316,218.308 59.7493357,218.296 59.2853334,218.296 C58.8373311,218.296 58.4293352,218.308 58.0613334,218.332 C57.6933315,218.356 57.2693358,218.384 56.7893334,218.416 C56.725333,218.352 56.6973333,218.240001 56.7053334,218.08 C56.7133334,217.919999 56.7413331,217.808 56.7893334,217.744 C56.8853338,217.744 57.0493322,217.732 57.2813334,217.708 C57.5133345,217.684 57.7333323,217.64 57.9413334,217.576 C58.1493344,217.512 58.2613333,217.44 58.2773334,217.36 C58.3413337,217.167999 58.3773333,216.920002 58.3853334,216.616 C58.3933334,216.311998 58.3973334,215.984002 58.3973334,215.632 L58.3973334,213.28 C58.3973334,212.303995 58.333334,211.540003 58.2053334,210.988 C58.0773327,210.435997 57.845335,210.040001 57.5093334,209.8 C57.1733317,209.559999 56.7013364,209.44 56.0933334,209.44 C55.8053319,209.44 55.4893351,209.531999 55.1453334,209.716 C54.8013316,209.900001 54.5013346,210.095999 54.2453334,210.304 C53.9893321,210.512001 53.8613334,210.656 53.8613334,210.736 L53.8613334,215.632 C53.8613334,215.984002 53.8653333,216.311998 53.8733334,216.616 C53.8813334,216.920002 53.917333,217.167999 53.9813334,217.36 C54.0133335,217.44 54.1293324,217.512 54.3293334,217.576 C54.5293344,217.64 54.7413322,217.684 54.9653334,217.708 C55.1893345,217.732 55.3493329,217.744 55.4453334,217.744 C55.4933336,217.808 55.5213333,217.919999 55.5293334,218.08 C55.5373334,218.240001 55.5093337,218.352 55.4453334,218.416 L54.1853334,218.332 C53.8253316,218.308 53.4133357,218.296 52.9493334,218.296 C52.5013311,218.296 52.0933352,218.308 51.7253334,218.332 C51.3573315,218.356 50.9333358,218.384 50.4533334,218.416 C50.389333,218.352 50.3613333,218.240001 50.3693334,218.08 C50.3773334,217.919999 50.4053331,217.808 50.4533334,217.744 C50.5493338,217.744 50.7133322,217.732 50.9453334,217.708 C51.1773345,217.684 51.3973323,217.64 51.6053334,217.576 C51.8133344,217.512 51.9253333,217.44 51.9413334,217.36 C52.0053337,217.167999 52.0413333,216.920002 52.0493334,216.616 C52.0573334,216.311998 52.0613334,215.984002 52.0613334,215.632 L52.0613334,211.36 C52.0613334,211.199999 52.0573334,210.976001 52.0493334,210.688 C52.0413333,210.399999 52.0053337,210.184001 51.9413334,210.04 C51.8933331,209.895999 51.7573345,209.796 51.5333334,209.74 C51.3093322,209.684 51.0853345,209.652 50.8613334,209.644 C50.6373322,209.636 50.4933337,209.632 50.4293334,209.632 C50.4133333,209.6 50.3973334,209.504001 50.3813334,209.344 C50.3653333,209.183999 50.3813331,209.072 50.4293334,209.008 C51.0373364,208.928 51.6293305,208.808001 52.2053334,208.648 C52.7813362,208.487999 53.301331,208.280001 53.7653334,208.024 C53.8293337,208.024 53.8893331,208.072 53.9453334,208.168 C54.0013336,208.264 54.0293334,208.344 54.0293334,208.408 C54.0293334,208.456 54.0173335,208.579999 53.9933334,208.78 C53.9693332,208.980001 53.9453335,209.175999 53.9213334,209.368 C53.8973332,209.560001 53.8853334,209.688 53.8853334,209.752 C53.8853334,209.816 53.9013332,209.848 53.9333334,209.848 C53.9493334,209.848 53.9733332,209.832 54.0053334,209.8 C54.1653342,209.623999 54.4253316,209.400001 54.7853334,209.128 C55.1453352,208.855999 55.5413312,208.612001 55.9733334,208.396 C56.4053355,208.179999 56.8053315,208.072 57.1733334,208.072 Z M68.3813334,202 C68.7333351,202 68.9613328,202.016 69.0653334,202.048 C69.1693339,202.08 69.3093325,202.159999 69.4853334,202.288 C69.5333336,202.336 69.5853331,202.423999 69.6413334,202.552 C69.6973336,202.680001 69.7253334,202.807999 69.7253334,202.936 C69.7253334,203.352002 69.6093345,203.611999 69.3773334,203.716 C69.1453322,203.820001 68.9493342,203.872 68.7893334,203.872 C68.6773328,203.872 68.5653339,203.848 68.4533334,203.8 C68.3413328,203.752 68.221334,203.696 68.0933334,203.632 C67.9653327,203.552 67.8613338,203.496 67.7813334,203.464 C67.701333,203.432 67.5813342,203.416 67.4213334,203.416 C67.0693316,203.416 66.7613347,203.599998 66.4973334,203.968 C66.233332,204.336002 66.1093333,204.887996 66.1253334,205.624 L66.1253334,208.528 L68.9093334,208.528 C68.9733337,208.528 69.0053334,208.591999 69.0053334,208.72 L69.0053334,208.792 C69.0053334,209.048001 68.9013344,209.279999 68.6933334,209.488 L66.1253334,209.488 L66.1253334,215.632 C66.1253334,215.984002 66.1293333,216.311998 66.1373334,216.616 C66.1453334,216.920002 66.181333,217.167999 66.2453334,217.36 C66.2773335,217.44 66.4013323,217.512 66.6173334,217.576 C66.8333344,217.64 67.0653321,217.684 67.3133334,217.708 C67.5613346,217.732 67.7333329,217.744 67.8293334,217.744 C67.8773336,217.808 67.9053333,217.919999 67.9133334,218.08 C67.9213334,218.240001 67.8933337,218.352 67.8293334,218.416 C67.349331,218.384 66.9093354,218.356 66.5093334,218.332 C66.1093314,218.308 65.6773357,218.296 65.2133334,218.296 C64.7653311,218.296 64.3613352,218.308 64.0013334,218.332 L62.7413334,218.416 C62.677333,218.352 62.6493333,218.240001 62.6573334,218.08 C62.6653334,217.919999 62.6933331,217.808 62.7413334,217.744 C62.8373338,217.744 62.9973322,217.732 63.2213334,217.708 C63.4453345,217.684 63.6613323,217.64 63.8693334,217.576 C64.0773344,217.512 64.1893333,217.44 64.2053334,217.36 C64.2693337,217.167999 64.3053333,216.920002 64.3133334,216.616 C64.3213334,216.311998 64.3253334,215.984002 64.3253334,215.632 L64.3253334,209.488 L62.9573334,209.488 C62.9253332,209.488 62.9013334,209.46 62.8853334,209.404 C62.8693333,209.348 62.8613334,209.304 62.8613334,209.272 C62.8613334,209.24 62.9093329,209.164001 63.0053334,209.044 C63.1013338,208.923999 63.2013328,208.808001 63.3053334,208.696 L63.4613334,208.528 L64.3253334,208.528 L64.3253334,208.072 C64.3253334,207.223996 64.465332,206.432004 64.7453334,205.696 C65.0253348,204.959996 65.3813312,204.316003 65.8133334,203.764 C66.2453355,203.211997 66.693331,202.780002 67.1573334,202.468 C67.6213357,202.155998 68.0293316,202 68.3813334,202 Z M74.9573334,208.048 C75.9973386,208.048 76.8893296,208.271998 77.6333334,208.72 C78.3773371,209.168002 78.9533313,209.775996 79.3613334,210.544 C79.7693354,211.312004 79.9733334,212.183995 79.9733334,213.16 C79.9733334,214.168005 79.7573355,215.075996 79.3253334,215.884 C78.8933312,216.692004 78.3013371,217.331998 77.5493334,217.804 C76.7973296,218.276002 75.9493381,218.512 75.0053334,218.512 C73.9813282,218.512 73.0893372,218.284002 72.3293334,217.828 C71.5693296,217.371998 70.9853354,216.756004 70.5773334,215.98 C70.1693313,215.203996 69.9653334,214.328005 69.9653334,213.352 C69.9653334,212.343995 70.1853312,211.440004 70.6253334,210.64 C71.0653356,209.839996 71.6613296,209.208002 72.4133334,208.744 C73.1653371,208.279998 74.0133286,208.048 74.9573334,208.048 Z M74.6933334,208.84 C74.0373301,208.84 73.5093354,209.035998 73.1093334,209.428 C72.7093314,209.820002 72.4213342,210.323997 72.2453334,210.94 C72.0693325,211.556003 71.9813334,212.199997 71.9813334,212.872 C71.9813334,213.624004 72.1053321,214.375996 72.3533334,215.128 C72.6013346,215.880004 72.9693309,216.503998 73.4573334,217 C73.9453358,217.496002 74.5413298,217.744 75.2453334,217.744 C75.9173367,217.744 76.4493314,217.548002 76.8413334,217.156 C77.2333353,216.763998 77.5173325,216.256003 77.6933334,215.632 C77.8693342,215.007997 77.9573334,214.368003 77.9573334,213.712 C77.9573334,212.943996 77.8293346,212.188004 77.5733334,211.444 C77.3173321,210.699996 76.9493358,210.080002 76.4693334,209.584 C75.989331,209.087998 75.3973369,208.84 74.6933334,208.84 Z M88.0373334,208.096 C88.3413349,208.096 88.629332,208.163999 88.9013334,208.3 C89.1733347,208.436001 89.3653328,208.599999 89.4773334,208.792 C89.5093335,208.856 89.5333333,208.943999 89.5493334,209.056 C89.5653334,209.168001 89.5733334,209.287999 89.5733334,209.416 C89.5733334,209.848002 89.4733344,210.159999 89.2733334,210.352 C89.0733324,210.544001 88.909334,210.64 88.7813334,210.64 C88.6213326,210.64 88.4693341,210.584001 88.3253334,210.472 C88.1813326,210.359999 88.045334,210.264 87.9173334,210.184 C87.8053328,210.104 87.689334,210.036 87.5693334,209.98 C87.4493328,209.924 87.2773345,209.896 87.0533334,209.896 C86.7173317,209.896 86.4093348,210.035999 86.1293334,210.316 C85.849332,210.596001 85.6213342,210.903998 85.4453334,211.24 C85.2693325,211.576002 85.1813334,211.831999 85.1813334,212.008 L85.1813334,215.632 C85.1813334,215.984002 85.1853333,216.311998 85.1933334,216.616 C85.2013334,216.920002 85.237333,217.167999 85.3013334,217.36 C85.3333335,217.44 85.4933319,217.512 85.7813334,217.576 C86.0693348,217.64 86.3733318,217.684 86.6933334,217.708 C87.013335,217.732 87.2213329,217.744 87.3173334,217.744 C87.3653336,217.808 87.3933333,217.919999 87.4013334,218.08 C87.4093334,218.240001 87.3813337,218.352 87.3173334,218.416 C86.837331,218.384 86.3493358,218.356 85.8533334,218.332 C85.3573309,218.308 84.8773357,218.296 84.4133334,218.296 C83.9653311,218.296 83.5333354,218.308 83.1173334,218.332 C82.7013313,218.356 82.2533358,218.384 81.7733334,218.416 C81.709333,218.352 81.6813333,218.240001 81.6893334,218.08 C81.6973334,217.919999 81.7253331,217.808 81.7733334,217.744 C81.8693338,217.744 82.0333322,217.732 82.2653334,217.708 C82.4973345,217.684 82.7173323,217.64 82.9253334,217.576 C83.1333344,217.512 83.2453333,217.44 83.2613334,217.36 C83.3253337,217.167999 83.3613333,216.920002 83.3693334,216.616 C83.3773334,216.311998 83.3813334,215.984002 83.3813334,215.632 L83.3813334,211.264 C83.3813334,211.103999 83.3773334,210.896001 83.3693334,210.64 C83.3613333,210.383999 83.3253337,210.184001 83.2613334,210.04 C83.2133331,209.895999 83.0773345,209.796 82.8533334,209.74 C82.6293322,209.684 82.4053345,209.652 82.1813334,209.644 C81.9573322,209.636 81.8133337,209.632 81.7493334,209.632 C81.7333333,209.6 81.7173334,209.504001 81.7013334,209.344 C81.6853333,209.183999 81.7013331,209.072 81.7493334,209.008 C82.3573364,208.928 82.9493305,208.808001 83.5253334,208.648 C84.1013362,208.487999 84.621331,208.280001 85.0853334,208.024 C85.1493337,208.024 85.2093331,208.072 85.2653334,208.168 C85.3213336,208.264 85.3493334,208.344 85.3493334,208.408 C85.3493334,208.456 85.3333335,208.639998 85.3013334,208.96 C85.2693332,209.280002 85.2413335,209.603998 85.2173334,209.932 C85.1933332,210.260002 85.1813334,210.472 85.1813334,210.568 C85.1813334,210.616 85.1933332,210.64 85.2173334,210.64 C85.2413335,210.64 85.2613333,210.632 85.2773334,210.616 C85.4373342,210.279998 85.6653319,209.916002 85.9613334,209.524 C86.2573348,209.131998 86.5893315,208.796001 86.9573334,208.516 C87.3253352,208.235999 87.6853316,208.096 88.0373334,208.096 Z M97.3973334,208.072 C98.1013369,208.072 98.6733312,208.219999 99.1133334,208.516 C99.5533356,208.812001 99.8693324,209.311996 100.061333,210.016 C100.573336,209.551998 101.13733,209.112002 101.753333,208.696 C102.369336,208.279998 102.957331,208.072 103.517333,208.072 C104.365338,208.072 105.005331,208.247998 105.437333,208.6 C105.869336,208.952002 106.161333,209.495996 106.313333,210.232 C106.465334,210.968004 106.541333,211.903994 106.541333,213.04 L106.541333,215.632 C106.541333,215.984002 106.545333,216.311998 106.553333,216.616 C106.561333,216.920002 106.597333,217.167999 106.661333,217.36 C106.693334,217.44 106.809332,217.512 107.009333,217.576 C107.209334,217.64 107.421332,217.684 107.645333,217.708 C107.869334,217.732 108.029333,217.744 108.125333,217.744 C108.173334,217.808 108.201333,217.919999 108.209333,218.08 C108.217333,218.240001 108.189334,218.352 108.125333,218.416 L106.865333,218.332 C106.505332,218.308 106.093336,218.296 105.629333,218.296 C105.181331,218.296 104.773335,218.308 104.405333,218.332 C104.037332,218.356 103.613336,218.384 103.133333,218.416 C103.069333,218.352 103.041333,218.240001 103.049333,218.08 C103.057333,217.919999 103.085333,217.808 103.133333,217.744 C103.229334,217.744 103.393332,217.732 103.625333,217.708 C103.857335,217.684 104.077332,217.64 104.285333,217.576 C104.493334,217.512 104.605333,217.44 104.621333,217.36 C104.669334,217.199999 104.697333,216.996001 104.705333,216.748 C104.713333,216.499999 104.717333,216.224002 104.717333,215.92 L104.717333,213.112 C104.717333,212.327996 104.665334,211.664003 104.561333,211.12 C104.457333,210.575997 104.253335,210.160001 103.949333,209.872 C103.645332,209.583999 103.173337,209.44 102.533333,209.44 C102.149331,209.44 101.781335,209.539999 101.429333,209.74 C101.077332,209.940001 100.789334,210.147999 100.565333,210.364 C100.341332,210.580001 100.229333,210.72 100.229333,210.784 C100.229333,210.8 100.233333,210.844 100.241333,210.916 C100.249333,210.988 100.253333,211.04 100.253333,211.072 C100.285334,211.296001 100.309333,211.575998 100.325333,211.912 C100.341333,212.248002 100.349333,212.527999 100.349333,212.752 L100.349333,215.632 C100.349333,215.984002 100.353333,216.311998 100.361333,216.616 C100.369333,216.920002 100.405333,217.167999 100.469333,217.36 C100.501334,217.44 100.617332,217.512 100.817333,217.576 C101.017334,217.64 101.229332,217.684 101.453333,217.708 C101.677334,217.732 101.837333,217.744 101.933333,217.744 C101.981334,217.808 102.009333,217.919999 102.017333,218.08 C102.025333,218.240001 101.997334,218.352 101.933333,218.416 L100.673333,218.332 C100.313332,218.308 99.9013357,218.296 99.4373334,218.296 C98.9893311,218.296 98.5813352,218.308 98.2133334,218.332 C97.8453315,218.356 97.4213358,218.384 96.9413334,218.416 C96.877333,218.352 96.8493333,218.240001 96.8573334,218.08 C96.8653334,217.919999 96.8933331,217.808 96.9413334,217.744 C97.0373338,217.744 97.2013322,217.732 97.4333334,217.708 C97.6653345,217.684 97.8853323,217.64 98.0933334,217.576 C98.3013344,217.512 98.4133333,217.44 98.4293334,217.36 C98.4933337,217.167999 98.5293333,216.920002 98.5373334,216.616 C98.5453334,216.311998 98.5493334,215.984002 98.5493334,215.632 L98.5493334,213.232 C98.5493334,211.807993 98.3933349,210.820003 98.0813334,210.268 C97.7693318,209.715997 97.1893376,209.44 96.3413334,209.44 C95.9893316,209.44 95.645335,209.527999 95.3093334,209.704 C94.9733317,209.880001 94.6973344,210.067999 94.4813334,210.268 C94.2653323,210.468001 94.1573334,210.623999 94.1573334,210.736 L94.1573334,215.632 C94.1573334,215.984002 94.1613333,216.311998 94.1693334,216.616 C94.1773334,216.920002 94.213333,217.167999 94.2773334,217.36 C94.3093335,217.44 94.4253324,217.512 94.6253334,217.576 C94.8253344,217.64 95.0373322,217.684 95.2613334,217.708 C95.4853345,217.732 95.6453329,217.744 95.7413334,217.744 C95.7893336,217.808 95.8173333,217.919999 95.8253334,218.08 C95.8333334,218.240001 95.8053337,218.352 95.7413334,218.416 L94.4813334,218.332 C94.1213316,218.308 93.7093357,218.296 93.2453334,218.296 C92.7973311,218.296 92.3893352,218.308 92.0213334,218.332 C91.6533315,218.356 91.2293358,218.384 90.7493334,218.416 C90.685333,218.352 90.6573333,218.240001 90.6653334,218.08 C90.6733334,217.919999 90.7013331,217.808 90.7493334,217.744 C90.8453338,217.744 91.0093322,217.732 91.2413334,217.708 C91.4733345,217.684 91.6933323,217.64 91.9013334,217.576 C92.1093344,217.512 92.2213333,217.44 92.2373334,217.36 C92.3013337,217.167999 92.3373333,216.920002 92.3453334,216.616 C92.3533334,216.311998 92.3573334,215.984002 92.3573334,215.632 L92.3573334,211.36 C92.3573334,211.199999 92.3533334,210.976001 92.3453334,210.688 C92.3373333,210.399999 92.3013337,210.184001 92.2373334,210.04 C92.1893331,209.895999 92.0533345,209.796 91.8293334,209.74 C91.6053322,209.684 91.3813345,209.652 91.1573334,209.644 C90.9333322,209.636 90.7893337,209.632 90.7253334,209.632 C90.7093333,209.6 90.6933334,209.504001 90.6773334,209.344 C90.6613333,209.183999 90.6773331,209.072 90.7253334,209.008 C91.3333364,208.928 91.9253305,208.808001 92.5013334,208.648 C93.0773362,208.487999 93.597331,208.280001 94.0613334,208.024 C94.1253337,208.024 94.1853331,208.072 94.2413334,208.168 C94.2973336,208.264 94.3253334,208.344 94.3253334,208.408 C94.3253334,208.456 94.3133335,208.567999 94.2893334,208.744 L94.2173334,209.272 C94.1933332,209.448001 94.1813334,209.568 94.1813334,209.632 C94.1813334,209.696 94.1973332,209.728 94.2293334,209.728 C94.2453334,209.728 94.2693332,209.712 94.3013334,209.68 C94.4933343,209.503999 94.7493318,209.292001 95.0693334,209.044 C95.389335,208.795999 95.7533313,208.572001 96.1613334,208.372 C96.5693354,208.171999 96.9813313,208.072 97.3973334,208.072 Z M114.053333,208.12 C114.501336,208.12 114.921331,208.263999 115.313333,208.552 C115.705335,208.840001 116.021332,209.223998 116.261333,209.704 C116.501335,210.184002 116.621333,210.727997 116.621333,211.336 L116.621333,216.16 C116.621333,216.464002 116.677333,216.723999 116.789333,216.94 C116.901334,217.156001 117.085332,217.264 117.341333,217.264 C117.565334,217.264 117.741333,217.216 117.869333,217.12 C117.997334,217.024 118.077333,216.968 118.109333,216.952 C118.141334,216.952 118.165333,216.976 118.181333,217.024 C118.197333,217.072 118.205333,217.112 118.205333,217.144 C118.205333,217.320001 118.165334,217.471999 118.085333,217.6 C117.989333,217.68 117.833334,217.791999 117.617333,217.936 C117.401332,218.080001 117.177335,218.207999 116.945333,218.32 C116.713332,218.432001 116.509334,218.488 116.333333,218.488 C115.997332,218.488 115.697335,218.320002 115.433333,217.984 C115.169332,217.647998 114.997334,217.304002 114.917333,216.952 C114.853333,217.016 114.705335,217.135999 114.473333,217.312 C114.241332,217.488001 113.973335,217.667999 113.669333,217.852 C113.365332,218.036001 113.065335,218.195999 112.769333,218.332 C112.473332,218.468001 112.221334,218.536 112.013333,218.536 C111.24533,218.536 110.597336,218.276003 110.069333,217.756 C109.541331,217.235997 109.277333,216.600004 109.277333,215.848 C109.277333,215.367998 109.409332,214.956002 109.673333,214.612 C109.937335,214.267998 110.197332,214.048 110.453333,213.952 C110.901336,213.791999 111.401331,213.620001 111.953333,213.436 C112.505336,213.251999 113.021331,213.072001 113.501333,212.896 C113.981336,212.719999 114.333332,212.584 114.557333,212.488 C114.685334,212.44 114.765333,212.38 114.797333,212.308 C114.829334,212.236 114.845333,212.096001 114.845333,211.888 L114.845333,211.264 C114.845333,210.911998 114.757334,210.564002 114.581333,210.22 C114.405332,209.875998 114.165335,209.588001 113.861333,209.356 C113.557332,209.123999 113.213335,209.008 112.829333,209.008 C112.429331,209.008 112.133334,209.135999 111.941333,209.392 C111.749332,209.648001 111.613334,210.007998 111.533333,210.472 C111.389333,211.224004 111.021336,211.6 110.429333,211.6 C110.173332,211.6 109.977334,211.496001 109.841333,211.288 C109.705333,211.079999 109.637333,210.856001 109.637333,210.616 C109.637333,210.568 109.653333,210.476001 109.685333,210.34 C109.717334,210.203999 109.757333,210.104 109.805333,210.04 C110.045335,209.815999 110.389331,209.552002 110.837333,209.248 C111.285336,208.943998 111.793331,208.680001 112.361333,208.456 C112.929336,208.231999 113.493331,208.12 114.053333,208.12 Z M112.805333,217.264 C113.077335,217.264 113.373332,217.200001 113.693333,217.072 C114.013335,216.943999 114.285332,216.804001 114.509333,216.652 C114.733334,216.499999 114.845333,216.384 114.845333,216.304 L114.845333,213.112 C114.541332,213.208 114.157336,213.327999 113.693333,213.472 C113.229331,213.616001 112.885334,213.728 112.661333,213.808 C112.245331,213.968001 111.901335,214.199998 111.629333,214.504 C111.357332,214.808002 111.221333,215.183998 111.221333,215.632 C111.221333,216.064002 111.373332,216.443998 111.677333,216.772 C111.981335,217.100002 112.357331,217.264 112.805333,217.264 Z M122.237333,208.216 L125.261333,208.216 C125.341334,208.216 125.381333,208.303999 125.381333,208.48 C125.381333,208.720001 125.269334,208.951999 125.045333,209.176 L122.237333,209.176 L122.237333,215.32 C122.237333,216.600006 122.757328,217.24 123.797333,217.24 C124.149335,217.24 124.469332,217.168001 124.757333,217.024 C125.045335,216.879999 125.229333,216.776 125.309333,216.712 C125.357334,216.728 125.381333,216.776 125.381333,216.856 C125.381333,217.032001 125.349334,217.152 125.285333,217.216 C125.173333,217.344001 125.001335,217.511999 124.769333,217.72 C124.537332,217.928001 124.261335,218.111999 123.941333,218.272 C123.621332,218.432001 123.269335,218.512 122.885333,218.512 C122.485331,218.512 122.097335,218.440001 121.721333,218.296 C121.345331,218.151999 121.037335,217.896002 120.797333,217.528 C120.557332,217.159998 120.437333,216.640003 120.437333,215.968 L120.437333,209.176 L119.069333,209.176 C119.037333,209.176 119.013333,209.148 118.997333,209.092 C118.981333,209.036 118.973333,208.992 118.973333,208.96 C118.973333,208.928 119.021333,208.852001 119.117333,208.732 C119.213334,208.611999 119.313333,208.496001 119.417333,208.384 L119.573333,208.216 L120.437333,208.216 L120.437333,206.752 C120.597334,206.575999 120.785332,206.372001 121.001333,206.14 C121.217334,205.907999 121.413332,205.692001 121.589333,205.492 C121.765334,205.291999 121.861333,205.184 121.877333,205.168 C121.941334,205.104 122.017333,205.072 122.105333,205.072 C122.193334,205.072 122.237333,205.096 122.237333,205.144 L122.237333,208.216 Z M127.757333,204.448 C127.757333,204.127998 127.873332,203.852001 128.105333,203.62 C128.337335,203.387999 128.613332,203.272 128.933333,203.272 C129.253335,203.272 129.529332,203.387999 129.761333,203.62 C129.993335,203.852001 130.109333,204.127998 130.109333,204.448 C130.109333,204.768002 129.993335,205.043999 129.761333,205.276 C129.529332,205.508001 129.253335,205.624 128.933333,205.624 C128.613332,205.624 128.337335,205.508001 128.105333,205.276 C127.873332,205.043999 127.757333,204.768002 127.757333,204.448 Z M130.013333,215.632 C130.013333,215.984002 130.017333,216.311998 130.025333,216.616 C130.033333,216.920002 130.069333,217.167999 130.133333,217.36 C130.165334,217.44 130.281332,217.512 130.481333,217.576 C130.681334,217.64 130.893332,217.684 131.117333,217.708 C131.341334,217.732 131.501333,217.744 131.597333,217.744 C131.645334,217.808 131.673333,217.919999 131.681333,218.08 C131.689333,218.240001 131.661334,218.352 131.597333,218.416 L130.337333,218.332 C129.977332,218.308 129.565336,218.296 129.101333,218.296 C128.653331,218.296 128.245335,218.308 127.877333,218.332 C127.509332,218.356 127.085336,218.384 126.605333,218.416 C126.541333,218.352 126.513333,218.240001 126.521333,218.08 C126.529333,217.919999 126.557333,217.808 126.605333,217.744 C126.701334,217.744 126.865332,217.732 127.097333,217.708 C127.329335,217.684 127.549332,217.64 127.757333,217.576 C127.965334,217.512 128.077333,217.44 128.093333,217.36 C128.157334,217.167999 128.193333,216.920002 128.201333,216.616 C128.209333,216.311998 128.213333,215.984002 128.213333,215.632 L128.213333,211.264 C128.213333,211.103999 128.209333,210.896001 128.201333,210.64 C128.193333,210.383999 128.157334,210.184001 128.093333,210.04 C128.045333,209.895999 127.909334,209.796 127.685333,209.74 C127.461332,209.684 127.237334,209.652 127.013333,209.644 C126.789332,209.636 126.645334,209.632 126.581333,209.632 C126.565333,209.6 126.549333,209.504001 126.533333,209.344 C126.517333,209.183999 126.533333,209.072 126.581333,209.008 C127.189336,208.928 127.78133,208.808001 128.357333,208.648 C128.933336,208.487999 129.453331,208.280001 129.917333,208.024 C129.981334,208.024 130.041333,208.072 130.097333,208.168 C130.153334,208.264 130.181333,208.344 130.181333,208.408 C130.181333,208.456 130.165334,208.591999 130.133333,208.816 C130.101333,209.040001 130.073333,209.263999 130.049333,209.488 C130.025333,209.712001 130.013333,209.864 130.013333,209.944 L130.013333,215.632 Z M138.029333,208.048 C139.069339,208.048 139.96133,208.271998 140.705333,208.72 C141.449337,209.168002 142.025331,209.775996 142.433333,210.544 C142.841335,211.312004 143.045333,212.183995 143.045333,213.16 C143.045333,214.168005 142.829336,215.075996 142.397333,215.884 C141.965331,216.692004 141.373337,217.331998 140.621333,217.804 C139.86933,218.276002 139.021338,218.512 138.077333,218.512 C137.053328,218.512 136.161337,218.284002 135.401333,217.828 C134.64133,217.371998 134.057335,216.756004 133.649333,215.98 C133.241331,215.203996 133.037333,214.328005 133.037333,213.352 C133.037333,212.343995 133.257331,211.440004 133.697333,210.64 C134.137336,209.839996 134.73333,209.208002 135.485333,208.744 C136.237337,208.279998 137.085329,208.048 138.029333,208.048 Z M137.765333,208.84 C137.10933,208.84 136.581335,209.035998 136.181333,209.428 C135.781331,209.820002 135.493334,210.323997 135.317333,210.94 C135.141332,211.556003 135.053333,212.199997 135.053333,212.872 C135.053333,213.624004 135.177332,214.375996 135.425333,215.128 C135.673335,215.880004 136.041331,216.503998 136.529333,217 C137.017336,217.496002 137.61333,217.744 138.317333,217.744 C138.989337,217.744 139.521331,217.548002 139.913333,217.156 C140.305335,216.763998 140.589332,216.256003 140.765333,215.632 C140.941334,215.007997 141.029333,214.368003 141.029333,213.712 C141.029333,212.943996 140.901335,212.188004 140.645333,211.444 C140.389332,210.699996 140.021336,210.080002 139.541333,209.584 C139.061331,209.087998 138.469337,208.84 137.765333,208.84 Z M151.565333,208.072 C152.413338,208.072 153.053331,208.247998 153.485333,208.6 C153.917336,208.952002 154.209333,209.495996 154.361333,210.232 C154.513334,210.968004 154.589333,211.903994 154.589333,213.04 L154.589333,215.632 C154.589333,215.984002 154.593333,216.311998 154.601333,216.616 C154.609333,216.920002 154.645333,217.167999 154.709333,217.36 C154.741334,217.44 154.857332,217.512 155.057333,217.576 C155.257334,217.64 155.469332,217.684 155.693333,217.708 C155.917334,217.732 156.077333,217.744 156.173333,217.744 C156.221334,217.808 156.249333,217.919999 156.257333,218.08 C156.265333,218.240001 156.237334,218.352 156.173333,218.416 L154.913333,218.332 C154.553332,218.308 154.141336,218.296 153.677333,218.296 C153.229331,218.296 152.821335,218.308 152.453333,218.332 C152.085332,218.356 151.661336,218.384 151.181333,218.416 C151.117333,218.352 151.089333,218.240001 151.097333,218.08 C151.105333,217.919999 151.133333,217.808 151.181333,217.744 C151.277334,217.744 151.441332,217.732 151.673333,217.708 C151.905335,217.684 152.125332,217.64 152.333333,217.576 C152.541334,217.512 152.653333,217.44 152.669333,217.36 C152.733334,217.167999 152.769333,216.920002 152.777333,216.616 C152.785333,216.311998 152.789333,215.984002 152.789333,215.632 L152.789333,213.28 C152.789333,212.303995 152.725334,211.540003 152.597333,210.988 C152.469333,210.435997 152.237335,210.040001 151.901333,209.8 C151.565332,209.559999 151.093336,209.44 150.485333,209.44 C150.197332,209.44 149.881335,209.531999 149.537333,209.716 C149.193332,209.900001 148.893335,210.095999 148.637333,210.304 C148.381332,210.512001 148.253333,210.656 148.253333,210.736 L148.253333,215.632 C148.253333,215.984002 148.257333,216.311998 148.265333,216.616 C148.273333,216.920002 148.309333,217.167999 148.373333,217.36 C148.405334,217.44 148.521332,217.512 148.721333,217.576 C148.921334,217.64 149.133332,217.684 149.357333,217.708 C149.581334,217.732 149.741333,217.744 149.837333,217.744 C149.885334,217.808 149.913333,217.919999 149.921333,218.08 C149.929333,218.240001 149.901334,218.352 149.837333,218.416 L148.577333,218.332 C148.217332,218.308 147.805336,218.296 147.341333,218.296 C146.893331,218.296 146.485335,218.308 146.117333,218.332 C145.749332,218.356 145.325336,218.384 144.845333,218.416 C144.781333,218.352 144.753333,218.240001 144.761333,218.08 C144.769333,217.919999 144.797333,217.808 144.845333,217.744 C144.941334,217.744 145.105332,217.732 145.337333,217.708 C145.569335,217.684 145.789332,217.64 145.997333,217.576 C146.205334,217.512 146.317333,217.44 146.333333,217.36 C146.397334,217.167999 146.433333,216.920002 146.441333,216.616 C146.449333,216.311998 146.453333,215.984002 146.453333,215.632 L146.453333,211.36 C146.453333,211.199999 146.449333,210.976001 146.441333,210.688 C146.433333,210.399999 146.397334,210.184001 146.333333,210.04 C146.285333,209.895999 146.149334,209.796 145.925333,209.74 C145.701332,209.684 145.477334,209.652 145.253333,209.644 C145.029332,209.636 144.885334,209.632 144.821333,209.632 C144.805333,209.6 144.789333,209.504001 144.773333,209.344 C144.757333,209.183999 144.773333,209.072 144.821333,209.008 C145.429336,208.928 146.02133,208.808001 146.597333,208.648 C147.173336,208.487999 147.693331,208.280001 148.157333,208.024 C148.221334,208.024 148.281333,208.072 148.337333,208.168 C148.393334,208.264 148.421333,208.344 148.421333,208.408 C148.421333,208.456 148.409333,208.579999 148.385333,208.78 C148.361333,208.980001 148.337333,209.175999 148.313333,209.368 C148.289333,209.560001 148.277333,209.688 148.277333,209.752 C148.277333,209.816 148.293333,209.848 148.325333,209.848 C148.341333,209.848 148.365333,209.832 148.397333,209.8 C148.557334,209.623999 148.817332,209.400001 149.177333,209.128 C149.537335,208.855999 149.933331,208.612001 150.365333,208.396 C150.797336,208.179999 151.197332,208.072 151.565333,208.072 Z M66.7013334,226.744 C67.1973358,226.744 67.6093317,226.772 67.9373334,226.828 C68.265335,226.884 68.6013316,226.96 68.9453334,227.056 C69.2893351,227.152 69.7173308,227.263999 70.2293334,227.392 C70.3253338,228.000003 70.4013331,228.627997 70.4573334,229.276 C70.5133336,229.924003 70.5493333,230.407998 70.5653334,230.728 C70.5813334,230.808 70.525334,230.868 70.3973334,230.908 C70.2693327,230.948 70.1653338,230.968 70.0853334,230.968 C69.9733328,230.968 69.8853337,230.936 69.8213334,230.872 C69.7893332,230.583999 69.6933342,230.248002 69.5333334,229.864 C69.3733326,229.479998 69.1533348,229.112002 68.8733334,228.76 C68.593332,228.407998 68.2573353,228.116001 67.8653334,227.884 C67.4733314,227.651999 67.0293358,227.536 66.5333334,227.536 C65.8933302,227.536 65.3893352,227.671999 65.0213334,227.944 C64.6533315,228.216001 64.3893342,228.551998 64.2293334,228.952 C64.0693326,229.352002 63.9893334,229.743998 63.9893334,230.128 C63.9893334,230.752003 64.1533317,231.271998 64.4813334,231.688 C64.809335,232.104002 65.2253308,232.471998 65.7293334,232.792 C66.2333359,233.112002 66.7413308,233.439998 67.2533334,233.776 C67.6373353,234.016001 68.061331,234.279999 68.5253334,234.568 C68.9893357,234.856001 69.4373312,235.175998 69.8693334,235.528 C70.3013355,235.880002 70.653332,236.283998 70.9253334,236.74 C71.1973347,237.196002 71.3333334,237.711997 71.3333334,238.288 C71.3333334,239.136004 71.0973357,239.883997 70.6253334,240.532 C70.153331,241.180003 69.5453371,241.683998 68.8013334,242.044 C68.0573296,242.404002 67.2693375,242.584 66.4373334,242.584 C65.6533294,242.584 64.897337,242.496001 64.1693334,242.32 C63.4413297,242.143999 62.7893362,242.000001 62.2133334,241.888 C62.1173329,241.423998 62.0333337,240.928003 61.9613334,240.4 C61.889333,239.871997 61.8333336,239.408002 61.7933334,239.008 C61.7533332,238.607998 61.7333334,238.36 61.7333334,238.264 C61.8133338,238.184 61.9053328,238.116 62.0093334,238.06 C62.1133339,238.004 62.2213328,237.976 62.3333334,237.976 C62.4773341,237.976 62.5653332,238.047999 62.5973334,238.192 C62.6453336,238.416001 62.7453326,238.723998 62.8973334,239.116 C63.0493341,239.508002 63.2733319,239.911998 63.5693334,240.328 C63.8653348,240.744002 64.249331,241.091999 64.7213334,241.372 C65.1933357,241.652001 65.7813298,241.792 66.4853334,241.792 C67.2373371,241.792 67.8933306,241.540003 68.4533334,241.036 C69.0133362,240.531997 69.2933334,239.824005 69.2933334,238.912 C69.2933334,238.255997 69.1453348,237.744002 68.8493334,237.376 C68.5533319,237.007998 68.1693357,236.688001 67.6973334,236.416 C67.225331,236.143999 66.7173361,235.856002 66.1733334,235.552 C65.5813304,235.199998 64.9693365,234.812002 64.3373334,234.388 C63.7053302,233.963998 63.1733355,233.464003 62.7413334,232.888 C62.3093312,232.311997 62.0933334,231.632004 62.0933334,230.848 C62.0933334,230.015996 62.3133312,229.292003 62.7533334,228.676 C63.1933356,228.059997 63.7653298,227.584002 64.4693334,227.248 C65.1733369,226.911998 65.9173294,226.744 66.7013334,226.744 Z M74.9333334,236.536 C74.9173333,237.528005 75.0853316,238.359997 75.4373334,239.032 C75.7893351,239.704003 76.2613304,240.203998 76.8533334,240.532 C77.4453363,240.860002 78.0853299,241.024 78.7733334,241.024 C79.2053355,241.024 79.5973316,240.948001 79.9493334,240.796 C80.3013351,240.643999 80.5973322,240.468001 80.8373334,240.268 C81.0773346,240.067999 81.2453329,239.912001 81.3413334,239.8 C81.3573334,239.8 81.3933331,239.828 81.4493334,239.884 C81.5053336,239.94 81.5333334,240.016 81.5333334,240.112 C81.5333334,240.240001 81.4853338,240.383999 81.3893334,240.544 C81.2453326,240.768001 81.0213349,241.035998 80.7173334,241.348 C80.4133318,241.660002 80.0293357,241.935999 79.5653334,242.176 C79.101331,242.416001 78.5653364,242.536 77.9573334,242.536 C77.0453288,242.536 76.2373369,242.320002 75.5333334,241.888 C74.8293298,241.455998 74.2773354,240.872004 73.8773334,240.136 C73.4773314,239.399996 73.2773334,238.576005 73.2773334,237.664 C73.2773334,236.879996 73.417332,236.148003 73.6973334,235.468 C73.9773348,234.787997 74.3453311,234.196003 74.8013334,233.692 C75.2573356,233.187997 75.7573306,232.792001 76.3013334,232.504 C76.8453361,232.215999 77.3733308,232.072 77.8853334,232.072 C78.5893369,232.072 79.1693311,232.191999 79.6253334,232.432 C80.0813356,232.672001 80.441332,232.967998 80.7053334,233.32 C80.9693347,233.672002 81.1533328,234.023998 81.2573334,234.376 C81.3613339,234.728002 81.4133334,235.023999 81.4133334,235.264 C81.4133334,235.600002 81.3733338,235.863999 81.2933334,236.056 C81.213333,236.248001 81.0613345,236.352 80.8373334,236.368 C80.6933326,236.384 80.4093355,236.396 79.9853334,236.404 C79.5613312,236.412 79.0773361,236.424 78.5333334,236.44 C77.9893306,236.456 77.453336,236.472 76.9253334,236.488 C76.3973307,236.504 75.9493352,236.516 75.5813334,236.524 C75.2133315,236.532 74.9973337,236.536 74.9333334,236.536 Z M75.0533334,235.672 L78.8693334,235.672 C79.0133341,235.672 79.1373328,235.632 79.2413334,235.552 C79.3453339,235.472 79.4053333,235.328001 79.4213334,235.12 C79.4373334,234.927999 79.381334,234.656002 79.2533334,234.304 C79.1253327,233.951998 78.9213348,233.632001 78.6413334,233.344 C78.361332,233.055999 77.9813358,232.912 77.5013334,232.912 C77.0053309,232.912 76.597335,233.051999 76.2773334,233.332 C75.9573318,233.612001 75.7053343,233.931998 75.5213334,234.292 C75.3373324,234.652002 75.2093337,234.971999 75.1373334,235.252 C75.065333,235.532001 75.0373333,235.672 75.0533334,235.672 Z M91.3493334,233.296 C91.3493334,233.712002 91.2533343,234.003999 91.0613334,234.172 C90.8693324,234.340001 90.6693344,234.424 90.4613334,234.424 C90.2053321,234.424 89.9653345,234.312001 89.7413334,234.088 C89.5173322,233.863999 89.3013344,233.688001 89.0933334,233.56 C88.8373321,233.383999 88.6293342,233.264 88.4693334,233.2 C88.3093326,233.136 88.0773349,233.104 87.7733334,233.104 C87.3573313,233.104 86.9453354,233.259998 86.5373334,233.572 C86.1293313,233.884002 85.7933347,234.327997 85.5293334,234.904 C85.265332,235.480003 85.1333334,236.183996 85.1333334,237.016 C85.1333334,238.376007 85.5013297,239.375997 86.2373334,240.016 C86.973337,240.656003 87.8693281,240.976 88.9253334,240.976 C89.5813366,240.976 90.1213312,240.824002 90.5453334,240.52 C90.9693355,240.215998 91.2613326,239.976001 91.4213334,239.8 C91.4373334,239.8 91.4733331,239.828 91.5293334,239.884 C91.5853336,239.94 91.6133334,240.016 91.6133334,240.112 C91.6133334,240.240001 91.5653338,240.383999 91.4693334,240.544 C91.3253326,240.768001 91.1013349,241.035998 90.7973334,241.348 C90.4933318,241.660002 90.1093357,241.935999 89.6453334,242.176 C89.181331,242.416001 88.6453364,242.536 88.0373334,242.536 C87.0933286,242.536 86.2653369,242.312002 85.5533334,241.864 C84.8413298,241.415998 84.2893353,240.832004 83.8973334,240.112 C83.5053314,239.391996 83.3093334,238.624004 83.3093334,237.808 C83.3093334,236.943996 83.4893316,236.164003 83.8493334,235.468 C84.2093352,234.771997 84.6733305,234.168003 85.2413334,233.656 C85.8093362,233.143997 86.42533,232.752001 87.0893334,232.48 C87.7533367,232.207999 88.3893303,232.072 88.9973334,232.072 C89.8613377,232.072 90.5653306,232.263998 91.1093334,232.648 C91.1573336,232.696 91.2093331,232.783999 91.2653334,232.912 C91.3213336,233.040001 91.3493334,233.167999 91.3493334,233.296 Z M100.493333,239.896 L100.493333,234.76 C100.493333,234.599999 100.485333,234.404001 100.469333,234.172 C100.453333,233.939999 100.405334,233.744001 100.325333,233.584 C100.213333,233.359999 100.005335,233.224 99.7013334,233.176 C99.3973318,233.128 99.1653342,233.104 99.0053334,233.104 C98.9733332,233.072 98.9533334,232.980001 98.9453334,232.828 C98.9373333,232.675999 98.9573331,232.568 99.0053334,232.504 C99.6133364,232.472 100.197331,232.416 100.757333,232.336 C101.317336,232.256 101.805331,232.152001 102.221333,232.024 C102.285334,232.024 102.341333,232.103999 102.389333,232.264 C102.437334,232.424001 102.461333,232.536 102.461333,232.6 C102.413333,232.696 102.377333,232.887999 102.353333,233.176 C102.329333,233.464001 102.317333,233.775998 102.317333,234.112 L102.317333,239.032 C102.317333,239.160001 102.325333,239.411998 102.341333,239.788 C102.357333,240.164002 102.397333,240.511998 102.461333,240.832 C102.509334,241.024001 102.689332,241.136 103.001333,241.168 C103.313335,241.2 103.549333,241.224 103.709333,241.24 L103.853333,241.24 C103.885334,241.256 103.905333,241.296 103.913333,241.36 C103.921333,241.424 103.925333,241.472 103.925333,241.504 C103.925333,241.52 103.909334,241.583999 103.877333,241.696 C103.845333,241.808001 103.797334,241.864 103.733333,241.864 C103.333331,241.88 102.897336,241.943999 102.425333,242.056 C101.953331,242.168001 101.549335,242.275999 101.213333,242.38 C100.877332,242.484001 100.701333,242.536 100.685333,242.536 C100.621333,242.536 100.573334,242.492 100.541333,242.404 C100.509333,242.316 100.493333,242.232 100.493333,242.152 L100.493333,241.072 C100.493333,241.008 100.485333,240.972 100.469333,240.964 L100.445333,240.952 C100.237332,241.176001 99.9493352,241.411999 99.5813334,241.66 C99.2133315,241.908001 98.8133355,242.111999 98.3813334,242.272 C97.9493312,242.432001 97.5333354,242.512 97.1333334,242.512 C96.5093302,242.512 96.0053353,242.364001 95.6213334,242.068 C95.2373314,241.771999 94.9413344,241.388002 94.7333334,240.916 C94.5253323,240.443998 94.3853337,239.936003 94.3133334,239.392 C94.241333,238.847997 94.2053334,238.328002 94.2053334,237.832 L94.2053334,234.856 C94.2053334,234.695999 94.1973334,234.488001 94.1813334,234.232 C94.1653333,233.975999 94.1093338,233.760001 94.0133334,233.584 C93.9013328,233.359999 93.6933349,233.224 93.3893334,233.176 C93.0853318,233.128 92.8533342,233.104 92.6933334,233.104 C92.6613332,233.072 92.6413334,232.980001 92.6333334,232.828 C92.6253333,232.675999 92.6453331,232.568 92.6933334,232.504 C93.3013364,232.472 93.8853306,232.416 94.4453334,232.336 C95.0053362,232.256 95.4933313,232.152001 95.9093334,232.024 C95.9733337,232.024 96.0333331,232.087999 96.0893334,232.216 C96.1453336,232.344001 96.1733334,232.44 96.1733334,232.504 C96.1253331,232.6 96.0853335,232.807998 96.0533334,233.128 C96.0213332,233.448002 96.0053334,233.775998 96.0053334,234.112 L96.0053334,237.568 C96.0053334,238.816006 96.1933315,239.731997 96.5693334,240.316 C96.9453352,240.900003 97.5413293,241.192 98.3573334,241.192 C98.7093351,241.192 99.0453318,241.124001 99.3653334,240.988 C99.685335,240.851999 99.9533323,240.680001 100.169333,240.472 C100.385334,240.263999 100.493333,240.072001 100.493333,239.896 Z M111.461333,232.096 C111.765335,232.096 112.053332,232.163999 112.325333,232.3 C112.597335,232.436001 112.789333,232.599999 112.901333,232.792 C112.933334,232.856 112.957333,232.943999 112.973333,233.056 C112.989333,233.168001 112.997333,233.287999 112.997333,233.416 C112.997333,233.848002 112.897334,234.159999 112.697333,234.352 C112.497332,234.544001 112.333334,234.64 112.205333,234.64 C112.045333,234.64 111.893334,234.584001 111.749333,234.472 C111.605333,234.359999 111.469334,234.264 111.341333,234.184 C111.229333,234.104 111.113334,234.036 110.993333,233.98 C110.873333,233.924 110.701334,233.896 110.477333,233.896 C110.141332,233.896 109.833335,234.035999 109.553333,234.316 C109.273332,234.596001 109.045334,234.903998 108.869333,235.24 C108.693332,235.576002 108.605333,235.831999 108.605333,236.008 L108.605333,239.632 C108.605333,239.984002 108.609333,240.311998 108.617333,240.616 C108.625333,240.920002 108.661333,241.167999 108.725333,241.36 C108.757334,241.44 108.917332,241.512 109.205333,241.576 C109.493335,241.64 109.797332,241.684 110.117333,241.708 C110.437335,241.732 110.645333,241.744 110.741333,241.744 C110.789334,241.808 110.817333,241.919999 110.825333,242.08 C110.833333,242.240001 110.805334,242.352 110.741333,242.416 C110.261331,242.384 109.773336,242.356 109.277333,242.332 C108.781331,242.308 108.301336,242.296 107.837333,242.296 C107.389331,242.296 106.957335,242.308 106.541333,242.332 C106.125331,242.356 105.677336,242.384 105.197333,242.416 C105.133333,242.352 105.105333,242.240001 105.113333,242.08 C105.121333,241.919999 105.149333,241.808 105.197333,241.744 C105.293334,241.744 105.457332,241.732 105.689333,241.708 C105.921335,241.684 106.141332,241.64 106.349333,241.576 C106.557334,241.512 106.669333,241.44 106.685333,241.36 C106.749334,241.167999 106.785333,240.920002 106.793333,240.616 C106.801333,240.311998 106.805333,239.984002 106.805333,239.632 L106.805333,235.264 C106.805333,235.103999 106.801333,234.896001 106.793333,234.64 C106.785333,234.383999 106.749334,234.184001 106.685333,234.04 C106.637333,233.895999 106.501334,233.796 106.277333,233.74 C106.053332,233.684 105.829334,233.652 105.605333,233.644 C105.381332,233.636 105.237334,233.632 105.173333,233.632 C105.157333,233.6 105.141333,233.504001 105.125333,233.344 C105.109333,233.183999 105.125333,233.072 105.173333,233.008 C105.781336,232.928 106.37333,232.808001 106.949333,232.648 C107.525336,232.487999 108.045331,232.280001 108.509333,232.024 C108.573334,232.024 108.633333,232.072 108.689333,232.168 C108.745334,232.264 108.773333,232.344 108.773333,232.408 C108.773333,232.456 108.757334,232.639998 108.725333,232.96 C108.693333,233.280002 108.665333,233.603998 108.641333,233.932 C108.617333,234.260002 108.605333,234.472 108.605333,234.568 C108.605333,234.616 108.617333,234.64 108.641333,234.64 C108.665333,234.64 108.685333,234.632 108.701333,234.616 C108.861334,234.279998 109.089332,233.916002 109.385333,233.524 C109.681335,233.131998 110.013332,232.796001 110.381333,232.516 C110.749335,232.235999 111.109332,232.096 111.461333,232.096 Z M115.325333,228.448 C115.325333,228.127998 115.441332,227.852001 115.673333,227.62 C115.905335,227.387999 116.181332,227.272 116.501333,227.272 C116.821335,227.272 117.097332,227.387999 117.329333,227.62 C117.561335,227.852001 117.677333,228.127998 117.677333,228.448 C117.677333,228.768002 117.561335,229.043999 117.329333,229.276 C117.097332,229.508001 116.821335,229.624 116.501333,229.624 C116.181332,229.624 115.905335,229.508001 115.673333,229.276 C115.441332,229.043999 115.325333,228.768002 115.325333,228.448 Z M117.581333,239.632 C117.581333,239.984002 117.585333,240.311998 117.593333,240.616 C117.601333,240.920002 117.637333,241.167999 117.701333,241.36 C117.733334,241.44 117.849332,241.512 118.049333,241.576 C118.249334,241.64 118.461332,241.684 118.685333,241.708 C118.909334,241.732 119.069333,241.744 119.165333,241.744 C119.213334,241.808 119.241333,241.919999 119.249333,242.08 C119.257333,242.240001 119.229334,242.352 119.165333,242.416 L117.905333,242.332 C117.545332,242.308 117.133336,242.296 116.669333,242.296 C116.221331,242.296 115.813335,242.308 115.445333,242.332 C115.077332,242.356 114.653336,242.384 114.173333,242.416 C114.109333,242.352 114.081333,242.240001 114.089333,242.08 C114.097333,241.919999 114.125333,241.808 114.173333,241.744 C114.269334,241.744 114.433332,241.732 114.665333,241.708 C114.897335,241.684 115.117332,241.64 115.325333,241.576 C115.533334,241.512 115.645333,241.44 115.661333,241.36 C115.725334,241.167999 115.761333,240.920002 115.769333,240.616 C115.777333,240.311998 115.781333,239.984002 115.781333,239.632 L115.781333,235.264 C115.781333,235.103999 115.777333,234.896001 115.769333,234.64 C115.761333,234.383999 115.725334,234.184001 115.661333,234.04 C115.613333,233.895999 115.477334,233.796 115.253333,233.74 C115.029332,233.684 114.805334,233.652 114.581333,233.644 C114.357332,233.636 114.213334,233.632 114.149333,233.632 C114.133333,233.6 114.117333,233.504001 114.101333,233.344 C114.085333,233.183999 114.101333,233.072 114.149333,233.008 C114.757336,232.928 115.34933,232.808001 115.925333,232.648 C116.501336,232.487999 117.021331,232.280001 117.485333,232.024 C117.549334,232.024 117.609333,232.072 117.665333,232.168 C117.721334,232.264 117.749333,232.344 117.749333,232.408 C117.749333,232.456 117.733334,232.591999 117.701333,232.816 C117.669333,233.040001 117.641333,233.263999 117.617333,233.488 C117.593333,233.712001 117.581333,233.864 117.581333,233.944 L117.581333,239.632 Z M123.389333,232.216 L126.413333,232.216 C126.493334,232.216 126.533333,232.303999 126.533333,232.48 C126.533333,232.720001 126.421334,232.951999 126.197333,233.176 L123.389333,233.176 L123.389333,239.32 C123.389333,240.600006 123.909328,241.24 124.949333,241.24 C125.301335,241.24 125.621332,241.168001 125.909333,241.024 C126.197335,240.879999 126.381333,240.776 126.461333,240.712 C126.509334,240.728 126.533333,240.776 126.533333,240.856 C126.533333,241.032001 126.501334,241.152 126.437333,241.216 C126.325333,241.344001 126.153335,241.511999 125.921333,241.72 C125.689332,241.928001 125.413335,242.111999 125.093333,242.272 C124.773332,242.432001 124.421335,242.512 124.037333,242.512 C123.637331,242.512 123.249335,242.440001 122.873333,242.296 C122.497331,242.151999 122.189335,241.896002 121.949333,241.528 C121.709332,241.159998 121.589333,240.640003 121.589333,239.968 L121.589333,233.176 L120.221333,233.176 C120.189333,233.176 120.165333,233.148 120.149333,233.092 C120.133333,233.036 120.125333,232.992 120.125333,232.96 C120.125333,232.928 120.173333,232.852001 120.269333,232.732 C120.365334,232.611999 120.465333,232.496001 120.569333,232.384 L120.725333,232.216 L121.589333,232.216 L121.589333,230.752 C121.749334,230.575999 121.937332,230.372001 122.153333,230.14 C122.369334,229.907999 122.565332,229.692001 122.741333,229.492 C122.917334,229.291999 123.013333,229.184 123.029333,229.168 C123.093334,229.104 123.169333,229.072 123.257333,229.072 C123.345334,229.072 123.389333,229.096 123.389333,229.144 L123.389333,232.216 Z M129.293333,232.384 C129.741336,232.384 130.193331,232.368 130.649333,232.336 C131.105336,232.304 131.437332,232.28 131.645333,232.264 C131.677334,232.328 131.685333,232.455999 131.669333,232.648 C131.653333,232.840001 131.613334,232.936 131.549333,232.936 C131.501333,232.936 131.381334,232.944 131.189333,232.96 C130.997332,232.976 130.817334,233.012 130.649333,233.068 C130.481333,233.124 130.397333,233.215999 130.397333,233.344 C130.397333,233.376 130.405333,233.408 130.421333,233.44 L132.917333,239.776 L133.109333,239.26 C133.237334,238.915998 133.405332,238.476003 133.613333,237.94 C133.821334,237.403997 134.045332,236.824003 134.285333,236.2 C134.525335,235.575997 134.757332,234.992003 134.981333,234.448 C135.045334,234.303999 135.085333,234.164001 135.101333,234.028 C135.117333,233.891999 135.125333,233.784 135.125333,233.704 C135.125333,233.463999 135.001335,233.276001 134.753333,233.14 C134.505332,233.003999 134.181335,232.936 133.781333,232.936 C133.717333,232.936 133.685333,232.840001 133.685333,232.648 C133.685333,232.455999 133.717333,232.328 133.781333,232.264 C133.957334,232.28 134.233331,232.304 134.609333,232.336 C134.985335,232.368 135.413331,232.384 135.893333,232.384 C136.341336,232.384 136.721332,232.368 137.033333,232.336 C137.345335,232.304 137.621332,232.28 137.861333,232.264 C137.909334,232.328 137.921333,232.455999 137.897333,232.648 C137.873333,232.840001 137.837334,232.936 137.789333,232.936 C137.725333,232.936 137.593334,232.96 137.393333,233.008 C137.193332,233.056 136.985334,233.135999 136.769333,233.248 C136.553332,233.360001 136.397334,233.527999 136.301333,233.752 C135.949332,234.584004 135.633335,235.335997 135.353333,236.008 C135.073332,236.680003 134.801335,237.331997 134.537333,237.964 C134.273332,238.596003 134.001335,239.251997 133.721333,239.932 C133.441332,240.612003 133.133335,241.367996 132.797333,242.2 C132.509332,242.920004 132.229335,243.639996 131.957333,244.36 C131.685332,245.080004 131.341335,245.751997 130.925333,246.376 C130.669332,246.776002 130.361335,247.095999 130.001333,247.336 C129.641332,247.576001 129.269335,247.696 128.885333,247.696 C128.661332,247.696 128.437334,247.632001 128.213333,247.504 C127.989332,247.375999 127.877333,247.104002 127.877333,246.688 C127.877333,246.543999 127.905333,246.408001 127.961333,246.28 C128.017334,246.151999 128.077333,246.056 128.141333,245.992 C128.509335,245.992 128.833332,245.972 129.113333,245.932 C129.393335,245.892 129.665332,245.776001 129.929333,245.584 C130.193335,245.391999 130.485332,245.088002 130.805333,244.672 C130.933334,244.495999 131.077333,244.236002 131.237333,243.892 C131.397334,243.547998 131.545333,243.216002 131.681333,242.896 C131.817334,242.575998 131.893333,242.376 131.909333,242.296 C131.477331,241.175994 131.069335,240.132005 130.685333,239.164 C130.301331,238.195995 129.913335,237.244005 129.521333,236.308 C129.129331,235.371995 128.701336,234.408005 128.237333,233.416 C128.125333,233.175999 127.925335,233.036 127.637333,232.996 C127.349332,232.956 127.133334,232.936 126.989333,232.936 L126.941333,232.936 C126.925333,232.936 126.917333,232.828001 126.917333,232.612 C126.917333,232.395999 126.925333,232.28 126.941333,232.264 C127.165334,232.28 127.493331,232.304 127.925333,232.336 C128.357336,232.368 128.813331,232.384 129.293333,232.384 Z M56.3933334,250.72 C57.1613372,250.72 57.9653292,250.752 58.8053334,250.816 C59.6453376,250.88 60.497329,251.007999 61.3613334,251.2 L61.4453334,251.692 C61.5013336,252.020002 61.561333,252.403998 61.6253334,252.844 C61.6893337,253.284002 61.7493331,253.683998 61.8053334,254.044 C61.8613336,254.404002 61.8893334,254.616 61.8893334,254.68 C61.9053334,254.744 61.8573339,254.808 61.7453334,254.872 C61.6333328,254.936 61.513334,254.968 61.3853334,254.968 C61.2733328,254.968 61.1773338,254.944 61.0973334,254.896 C61.0653332,254.719999 60.989334,254.448002 60.8693334,254.08 C60.7493328,253.711998 60.5333349,253.328002 60.2213334,252.928 C59.9093318,252.527998 59.4573363,252.188001 58.8653334,251.908 C58.2733304,251.627999 57.4893382,251.488 56.5133334,251.488 C55.649329,251.488 54.8653369,251.683998 54.1613334,252.076 C53.4573298,252.468002 52.8533359,252.995997 52.3493334,253.66 C51.8453308,254.324003 51.4613347,255.059996 51.1973334,255.868 C50.933332,256.676004 50.8013334,257.487996 50.8013334,258.304 C50.8013334,259.216005 50.9253321,260.111996 51.1733334,260.992 C51.4213346,261.872004 51.7973308,262.667996 52.3013334,263.38 C52.8053359,264.092004 53.4373296,264.659998 54.1973334,265.084 C54.9573372,265.508002 55.8493282,265.72 56.8733334,265.72 C57.593337,265.72 58.2053308,265.608001 58.7093334,265.384 C59.2133359,265.159999 59.6333317,264.896002 59.9693334,264.592 C60.4333357,264.175998 60.7693323,263.712003 60.9773334,263.2 C61.1853344,262.687997 61.329333,262.240002 61.4093334,261.856 C61.6813347,261.824 61.9293322,261.887999 62.1533334,262.048 C62.1533334,262.160001 62.1253336,262.383998 62.0693334,262.72 C62.0133331,263.056002 61.9453338,263.419998 61.8653334,263.812 C61.785333,264.204002 61.6973338,264.551998 61.6013334,264.856 C61.5053329,265.160002 61.4173338,265.352 61.3373334,265.432 C60.6973302,265.784002 59.9693374,266.047999 59.1533334,266.224 C58.3373293,266.400001 57.3853388,266.488 56.2973334,266.488 C55.1453276,266.488 54.0893382,266.284002 53.1293334,265.876 C52.1693286,265.467998 51.3413368,264.908004 50.6453334,264.196 C49.9493299,263.483996 49.4133352,262.668005 49.0373334,261.748 C48.6613315,260.827995 48.4733334,259.848005 48.4733334,258.808 C48.4733334,257.703994 48.6693314,256.668005 49.0613334,255.7 C49.4533353,254.731995 50.0013298,253.872004 50.7053334,253.12 C51.4093369,252.367996 52.2453285,251.780002 53.2133334,251.356 C54.1813382,250.931998 55.2413276,250.72 56.3933334,250.72 Z M69.0893334,256.048 C70.1293386,256.048 71.0213296,256.271998 71.7653334,256.72 C72.5093371,257.168002 73.0853313,257.775996 73.4933334,258.544 C73.9013354,259.312004 74.1053334,260.183995 74.1053334,261.16 C74.1053334,262.168005 73.8893355,263.075996 73.4573334,263.884 C73.0253312,264.692004 72.4333371,265.331998 71.6813334,265.804 C70.9293296,266.276002 70.0813381,266.512 69.1373334,266.512 C68.1133282,266.512 67.2213372,266.284002 66.4613334,265.828 C65.7013296,265.371998 65.1173354,264.756004 64.7093334,263.98 C64.3013313,263.203996 64.0973334,262.328005 64.0973334,261.352 C64.0973334,260.343995 64.3173312,259.440004 64.7573334,258.64 C65.1973356,257.839996 65.7933296,257.208002 66.5453334,256.744 C67.2973371,256.279998 68.1453286,256.048 69.0893334,256.048 Z M68.8253334,256.84 C68.1693301,256.84 67.6413354,257.035998 67.2413334,257.428 C66.8413314,257.820002 66.5533342,258.323997 66.3773334,258.94 C66.2013325,259.556003 66.1133334,260.199997 66.1133334,260.872 C66.1133334,261.624004 66.2373321,262.375996 66.4853334,263.128 C66.7333346,263.880004 67.1013309,264.503998 67.5893334,265 C68.0773358,265.496002 68.6733298,265.744 69.3773334,265.744 C70.0493367,265.744 70.5813314,265.548002 70.9733334,265.156 C71.3653353,264.763998 71.6493325,264.256003 71.8253334,263.632 C72.0013342,263.007997 72.0893334,262.368003 72.0893334,261.712 C72.0893334,260.943996 71.9613346,260.188004 71.7053334,259.444 C71.4493321,258.699996 71.0813358,258.080002 70.6013334,257.584 C70.121331,257.087998 69.5293369,256.84 68.8253334,256.84 Z M82.6253334,256.072 C83.4733376,256.072 84.1133312,256.247998 84.5453334,256.6 C84.9773355,256.952002 85.2693326,257.495996 85.4213334,258.232 C85.5733341,258.968004 85.6493334,259.903994 85.6493334,261.04 L85.6493334,263.632 C85.6493334,263.984002 85.6533333,264.311998 85.6613334,264.616 C85.6693334,264.920002 85.705333,265.167999 85.7693334,265.36 C85.8013335,265.44 85.9173324,265.512 86.1173334,265.576 C86.3173344,265.64 86.5293322,265.684 86.7533334,265.708 C86.9773345,265.732 87.1373329,265.744 87.2333334,265.744 C87.2813336,265.808 87.3093333,265.919999 87.3173334,266.08 C87.3253334,266.240001 87.2973337,266.352 87.2333334,266.416 L85.9733334,266.332 C85.6133316,266.308 85.2013357,266.296 84.7373334,266.296 C84.2893311,266.296 83.8813352,266.308 83.5133334,266.332 C83.1453315,266.356 82.7213358,266.384 82.2413334,266.416 C82.177333,266.352 82.1493333,266.240001 82.1573334,266.08 C82.1653334,265.919999 82.1933331,265.808 82.2413334,265.744 C82.3373338,265.744 82.5013322,265.732 82.7333334,265.708 C82.9653345,265.684 83.1853323,265.64 83.3933334,265.576 C83.6013344,265.512 83.7133333,265.44 83.7293334,265.36 C83.7933337,265.167999 83.8293333,264.920002 83.8373334,264.616 C83.8453334,264.311998 83.8493334,263.984002 83.8493334,263.632 L83.8493334,261.28 C83.8493334,260.303995 83.785334,259.540003 83.6573334,258.988 C83.5293327,258.435997 83.297335,258.040001 82.9613334,257.8 C82.6253317,257.559999 82.1533364,257.44 81.5453334,257.44 C81.2573319,257.44 80.9413351,257.531999 80.5973334,257.716 C80.2533316,257.900001 79.9533346,258.095999 79.6973334,258.304 C79.4413321,258.512001 79.3133334,258.656 79.3133334,258.736 L79.3133334,263.632 C79.3133334,263.984002 79.3173333,264.311998 79.3253334,264.616 C79.3333334,264.920002 79.369333,265.167999 79.4333334,265.36 C79.4653335,265.44 79.5813324,265.512 79.7813334,265.576 C79.9813344,265.64 80.1933322,265.684 80.4173334,265.708 C80.6413345,265.732 80.8013329,265.744 80.8973334,265.744 C80.9453336,265.808 80.9733333,265.919999 80.9813334,266.08 C80.9893334,266.240001 80.9613337,266.352 80.8973334,266.416 L79.6373334,266.332 C79.2773316,266.308 78.8653357,266.296 78.4013334,266.296 C77.9533311,266.296 77.5453352,266.308 77.1773334,266.332 C76.8093315,266.356 76.3853358,266.384 75.9053334,266.416 C75.841333,266.352 75.8133333,266.240001 75.8213334,266.08 C75.8293334,265.919999 75.8573331,265.808 75.9053334,265.744 C76.0013338,265.744 76.1653322,265.732 76.3973334,265.708 C76.6293345,265.684 76.8493323,265.64 77.0573334,265.576 C77.2653344,265.512 77.3773333,265.44 77.3933334,265.36 C77.4573337,265.167999 77.4933333,264.920002 77.5013334,264.616 C77.5093334,264.311998 77.5133334,263.984002 77.5133334,263.632 L77.5133334,259.36 C77.5133334,259.199999 77.5093334,258.976001 77.5013334,258.688 C77.4933333,258.399999 77.4573337,258.184001 77.3933334,258.04 C77.3453331,257.895999 77.2093345,257.796 76.9853334,257.74 C76.7613322,257.684 76.5373345,257.652 76.3133334,257.644 C76.0893322,257.636 75.9453337,257.632 75.8813334,257.632 C75.8653333,257.6 75.8493334,257.504001 75.8333334,257.344 C75.8173333,257.183999 75.8333331,257.072 75.8813334,257.008 C76.4893364,256.928 77.0813305,256.808001 77.6573334,256.648 C78.2333362,256.487999 78.753331,256.280001 79.2173334,256.024 C79.2813337,256.024 79.3413331,256.072 79.3973334,256.168 C79.4533336,256.264 79.4813334,256.344 79.4813334,256.408 C79.4813334,256.456 79.4693335,256.579999 79.4453334,256.78 C79.4213332,256.980001 79.3973335,257.175999 79.3733334,257.368 C79.3493332,257.560001 79.3373334,257.688 79.3373334,257.752 C79.3373334,257.816 79.3533332,257.848 79.3853334,257.848 C79.4013334,257.848 79.4253332,257.832 79.4573334,257.8 C79.6173342,257.623999 79.8773316,257.400001 80.2373334,257.128 C80.5973352,256.855999 80.9933312,256.612001 81.4253334,256.396 C81.8573355,256.179999 82.2573315,256.072 82.6253334,256.072 Z M92.0813334,256.096 C92.5453357,256.096 92.9333318,256.132 93.2453334,256.204 C93.5573349,256.276 93.9693308,256.344 94.4813334,256.408 C94.5613338,256.760002 94.6253331,257.171998 94.6733334,257.644 C94.7213336,258.116002 94.7533333,258.559998 94.7693334,258.976 C94.7693334,259.056 94.6893342,259.096 94.5293334,259.096 C94.465333,259.096 94.3973337,259.088 94.3253334,259.072 C94.253333,259.056 94.1853337,259.024 94.1213334,258.976 C94.041333,258.687999 93.9093343,258.376002 93.7253334,258.04 C93.5413324,257.703998 93.3173347,257.420001 93.0533334,257.188 C92.789332,256.955999 92.489335,256.84 92.1533334,256.84 C91.5933306,256.84 91.1773347,256.979999 90.9053334,257.26 C90.633332,257.540001 90.4973334,257.887998 90.4973334,258.304 C90.4973334,258.704002 90.5933324,259.027999 90.7853334,259.276 C90.9773343,259.524001 91.2293318,259.739999 91.5413334,259.924 C91.8533349,260.108001 92.1853316,260.303999 92.5373334,260.512 C92.8893351,260.720001 93.2733313,260.951999 93.6893334,261.208 C94.1053354,261.464001 94.4653318,261.763998 94.7693334,262.108 C95.0733349,262.452002 95.2253334,262.871998 95.2253334,263.368 C95.2253334,263.992003 95.057335,264.547998 94.7213334,265.036 C94.3853317,265.524002 93.9453361,265.907999 93.4013334,266.188 C92.8573306,266.468001 92.2653366,266.608 91.6253334,266.608 C91.0813306,266.608 90.6173353,266.556001 90.2333334,266.452 C89.8493314,266.347999 89.4013359,266.248 88.8893334,266.152 C88.825333,265.975999 88.7613337,265.736002 88.6973334,265.432 C88.633333,265.127998 88.5813336,264.816002 88.5413334,264.496 C88.5013332,264.175998 88.4813334,263.920001 88.4813334,263.728 C88.609334,263.632 88.7533326,263.584 88.9133334,263.584 C88.9933338,263.584 89.0573331,263.6 89.1053334,263.632 C89.2013338,263.952002 89.3693322,264.283998 89.6093334,264.628 C89.8493346,264.972002 90.1453316,265.259999 90.4973334,265.492 C90.8493351,265.724001 91.2333313,265.84 91.6493334,265.84 C92.1293358,265.84 92.5293318,265.696001 92.8493334,265.408 C93.169335,265.119999 93.3293334,264.704003 93.3293334,264.16 C93.3293334,263.679998 93.1853348,263.292001 92.8973334,262.996 C92.6093319,262.699999 92.2493355,262.436001 91.8173334,262.204 C91.3853312,261.971999 90.9373357,261.728001 90.4733334,261.472 C90.009331,261.199999 89.5973352,260.868002 89.2373334,260.476 C88.8773316,260.083998 88.6973334,259.576003 88.6973334,258.952 C88.6973334,258.375997 88.8613317,257.872002 89.1893334,257.44 C89.517335,257.007998 89.9373308,256.676001 90.4493334,256.444 C90.9613359,256.211999 91.5053305,256.096 92.0813334,256.096 Z M104.345333,263.896 L104.345333,258.76 C104.345333,258.599999 104.337333,258.404001 104.321333,258.172 C104.305333,257.939999 104.257334,257.744001 104.177333,257.584 C104.065333,257.359999 103.857335,257.224 103.553333,257.176 C103.249332,257.128 103.017334,257.104 102.857333,257.104 C102.825333,257.072 102.805333,256.980001 102.797333,256.828 C102.789333,256.675999 102.809333,256.568 102.857333,256.504 C103.465336,256.472 104.049331,256.416 104.609333,256.336 C105.169336,256.256 105.657331,256.152001 106.073333,256.024 C106.137334,256.024 106.193333,256.103999 106.241333,256.264 C106.289334,256.424001 106.313333,256.536 106.313333,256.6 C106.265333,256.696 106.229333,256.887999 106.205333,257.176 C106.181333,257.464001 106.169333,257.775998 106.169333,258.112 L106.169333,263.032 C106.169333,263.160001 106.177333,263.411998 106.193333,263.788 C106.209333,264.164002 106.249333,264.511998 106.313333,264.832 C106.361334,265.024001 106.541332,265.136 106.853333,265.168 C107.165335,265.2 107.401333,265.224 107.561333,265.24 L107.705333,265.24 C107.737334,265.256 107.757333,265.296 107.765333,265.36 C107.773333,265.424 107.777333,265.472 107.777333,265.504 C107.777333,265.52 107.761334,265.583999 107.729333,265.696 C107.697333,265.808001 107.649334,265.864 107.585333,265.864 C107.185331,265.88 106.749336,265.943999 106.277333,266.056 C105.805331,266.168001 105.401335,266.275999 105.065333,266.38 C104.729332,266.484001 104.553333,266.536 104.537333,266.536 C104.473333,266.536 104.425334,266.492 104.393333,266.404 C104.361333,266.316 104.345333,266.232 104.345333,266.152 L104.345333,265.072 C104.345333,265.008 104.337333,264.972 104.321333,264.964 L104.297333,264.952 C104.089332,265.176001 103.801335,265.411999 103.433333,265.66 C103.065332,265.908001 102.665336,266.111999 102.233333,266.272 C101.801331,266.432001 101.385335,266.512 100.985333,266.512 C100.36133,266.512 99.8573353,266.364001 99.4733334,266.068 C99.0893314,265.771999 98.7933344,265.388002 98.5853334,264.916 C98.3773323,264.443998 98.2373337,263.936003 98.1653334,263.392 C98.093333,262.847997 98.0573334,262.328002 98.0573334,261.832 L98.0573334,258.856 C98.0573334,258.695999 98.0493334,258.488001 98.0333334,258.232 C98.0173333,257.975999 97.9613338,257.760001 97.8653334,257.584 C97.7533328,257.359999 97.5453349,257.224 97.2413334,257.176 C96.9373318,257.128 96.7053342,257.104 96.5453334,257.104 C96.5133332,257.072 96.4933334,256.980001 96.4853334,256.828 C96.4773333,256.675999 96.4973331,256.568 96.5453334,256.504 C97.1533364,256.472 97.7373306,256.416 98.2973334,256.336 C98.8573362,256.256 99.3453313,256.152001 99.7613334,256.024 C99.8253337,256.024 99.8853331,256.087999 99.9413334,256.216 C99.9973336,256.344001 100.025333,256.44 100.025333,256.504 C99.9773331,256.6 99.9373335,256.807998 99.9053334,257.128 C99.8733332,257.448002 99.8573334,257.775998 99.8573334,258.112 L99.8573334,261.568 C99.8573334,262.816006 100.045331,263.731997 100.421333,264.316 C100.797335,264.900003 101.393329,265.192 102.209333,265.192 C102.561335,265.192 102.897332,265.124001 103.217333,264.988 C103.537335,264.851999 103.805332,264.680001 104.021333,264.472 C104.237334,264.263999 104.345333,264.072001 104.345333,263.896 Z M110.297333,253.264 C110.297333,253.087999 110.293333,252.876001 110.285333,252.628 C110.277333,252.379999 110.241334,252.184001 110.177333,252.04 C110.113333,251.863999 109.941335,251.752 109.661333,251.704 C109.381332,251.656 109.081335,251.632 108.761333,251.632 C108.745333,251.632 108.733333,251.532001 108.725333,251.332 C108.717333,251.131999 108.737333,251.024 108.785333,251.008 C109.377336,250.944 109.953331,250.828001 110.513333,250.66 C111.073336,250.491999 111.601331,250.296001 112.097333,250.072 C112.161334,250.072 112.221333,250.116 112.277333,250.204 C112.333334,250.292 112.361333,250.376 112.361333,250.456 L112.229333,250.984 C112.141333,251.336002 112.097333,251.839997 112.097333,252.496 L112.097333,263.632 C112.097333,263.984002 112.101333,264.311998 112.109333,264.616 C112.117333,264.920002 112.153333,265.167999 112.217333,265.36 C112.249334,265.44 112.365332,265.512 112.565333,265.576 C112.765334,265.64 112.981332,265.684 113.213333,265.708 C113.445335,265.732 113.609333,265.744 113.705333,265.744 C113.753334,265.808 113.781333,265.919999 113.789333,266.08 C113.797333,266.240001 113.769334,266.352 113.705333,266.416 C113.225331,266.384 112.801335,266.356 112.433333,266.332 C112.065332,266.308 111.649336,266.296 111.185333,266.296 C110.737331,266.296 110.333335,266.308 109.973333,266.332 L108.713333,266.416 C108.649333,266.352 108.621333,266.240001 108.629333,266.08 C108.637333,265.919999 108.665333,265.808 108.713333,265.744 C108.809334,265.744 108.969332,265.732 109.193333,265.708 C109.417334,265.684 109.633332,265.64 109.841333,265.576 C110.049334,265.512 110.161333,265.44 110.177333,265.36 C110.241334,265.167999 110.277333,264.920002 110.285333,264.616 C110.293333,264.311998 110.297333,263.984002 110.297333,263.632 L110.297333,253.264 Z M117.929333,256.216 L120.953333,256.216 C121.033334,256.216 121.073333,256.303999 121.073333,256.48 C121.073333,256.720001 120.961334,256.951999 120.737333,257.176 L117.929333,257.176 L117.929333,263.32 C117.929333,264.600006 118.449328,265.24 119.489333,265.24 C119.841335,265.24 120.161332,265.168001 120.449333,265.024 C120.737335,264.879999 120.921333,264.776 121.001333,264.712 C121.049334,264.728 121.073333,264.776 121.073333,264.856 C121.073333,265.032001 121.041334,265.152 120.977333,265.216 C120.865333,265.344001 120.693335,265.511999 120.461333,265.72 C120.229332,265.928001 119.953335,266.111999 119.633333,266.272 C119.313332,266.432001 118.961335,266.512 118.577333,266.512 C118.177331,266.512 117.789335,266.440001 117.413333,266.296 C117.037331,266.151999 116.729335,265.896002 116.489333,265.528 C116.249332,265.159998 116.129333,264.640003 116.129333,263.968 L116.129333,257.176 L114.761333,257.176 C114.729333,257.176 114.705333,257.148 114.689333,257.092 C114.673333,257.036 114.665333,256.992 114.665333,256.96 C114.665333,256.928 114.713333,256.852001 114.809333,256.732 C114.905334,256.611999 115.005333,256.496001 115.109333,256.384 L115.265333,256.216 L116.129333,256.216 L116.129333,254.752 C116.289334,254.575999 116.477332,254.372001 116.693333,254.14 C116.909334,253.907999 117.105332,253.692001 117.281333,253.492 C117.457334,253.291999 117.553333,253.184 117.569333,253.168 C117.633334,253.104 117.709333,253.072 117.797333,253.072 C117.885334,253.072 117.929333,253.096 117.929333,253.144 L117.929333,256.216 Z M123.449333,252.448 C123.449333,252.127998 123.565332,251.852001 123.797333,251.62 C124.029335,251.387999 124.305332,251.272 124.625333,251.272 C124.945335,251.272 125.221332,251.387999 125.453333,251.62 C125.685335,251.852001 125.801333,252.127998 125.801333,252.448 C125.801333,252.768002 125.685335,253.043999 125.453333,253.276 C125.221332,253.508001 124.945335,253.624 124.625333,253.624 C124.305332,253.624 124.029335,253.508001 123.797333,253.276 C123.565332,253.043999 123.449333,252.768002 123.449333,252.448 Z M125.705333,263.632 C125.705333,263.984002 125.709333,264.311998 125.717333,264.616 C125.725333,264.920002 125.761333,265.167999 125.825333,265.36 C125.857334,265.44 125.973332,265.512 126.173333,265.576 C126.373334,265.64 126.585332,265.684 126.809333,265.708 C127.033334,265.732 127.193333,265.744 127.289333,265.744 C127.337334,265.808 127.365333,265.919999 127.373333,266.08 C127.381333,266.240001 127.353334,266.352 127.289333,266.416 L126.029333,266.332 C125.669332,266.308 125.257336,266.296 124.793333,266.296 C124.345331,266.296 123.937335,266.308 123.569333,266.332 C123.201332,266.356 122.777336,266.384 122.297333,266.416 C122.233333,266.352 122.205333,266.240001 122.213333,266.08 C122.221333,265.919999 122.249333,265.808 122.297333,265.744 C122.393334,265.744 122.557332,265.732 122.789333,265.708 C123.021335,265.684 123.241332,265.64 123.449333,265.576 C123.657334,265.512 123.769333,265.44 123.785333,265.36 C123.849334,265.167999 123.885333,264.920002 123.893333,264.616 C123.901333,264.311998 123.905333,263.984002 123.905333,263.632 L123.905333,259.264 C123.905333,259.103999 123.901333,258.896001 123.893333,258.64 C123.885333,258.383999 123.849334,258.184001 123.785333,258.04 C123.737333,257.895999 123.601334,257.796 123.377333,257.74 C123.153332,257.684 122.929334,257.652 122.705333,257.644 C122.481332,257.636 122.337334,257.632 122.273333,257.632 C122.257333,257.6 122.241333,257.504001 122.225333,257.344 C122.209333,257.183999 122.225333,257.072 122.273333,257.008 C122.881336,256.928 123.47333,256.808001 124.049333,256.648 C124.625336,256.487999 125.145331,256.280001 125.609333,256.024 C125.673334,256.024 125.733333,256.072 125.789333,256.168 C125.845334,256.264 125.873333,256.344 125.873333,256.408 C125.873333,256.456 125.857334,256.591999 125.825333,256.816 C125.793333,257.040001 125.765333,257.263999 125.741333,257.488 C125.717333,257.712001 125.705333,257.864 125.705333,257.944 L125.705333,263.632 Z M135.329333,256.072 C136.177338,256.072 136.817331,256.247998 137.249333,256.6 C137.681336,256.952002 137.973333,257.495996 138.125333,258.232 C138.277334,258.968004 138.353333,259.903994 138.353333,261.04 L138.353333,263.632 C138.353333,263.984002 138.357333,264.311998 138.365333,264.616 C138.373333,264.920002 138.409333,265.167999 138.473333,265.36 C138.505334,265.44 138.621332,265.512 138.821333,265.576 C139.021334,265.64 139.233332,265.684 139.457333,265.708 C139.681334,265.732 139.841333,265.744 139.937333,265.744 C139.985334,265.808 140.013333,265.919999 140.021333,266.08 C140.029333,266.240001 140.001334,266.352 139.937333,266.416 L138.677333,266.332 C138.317332,266.308 137.905336,266.296 137.441333,266.296 C136.993331,266.296 136.585335,266.308 136.217333,266.332 C135.849332,266.356 135.425336,266.384 134.945333,266.416 C134.881333,266.352 134.853333,266.240001 134.861333,266.08 C134.869333,265.919999 134.897333,265.808 134.945333,265.744 C135.041334,265.744 135.205332,265.732 135.437333,265.708 C135.669335,265.684 135.889332,265.64 136.097333,265.576 C136.305334,265.512 136.417333,265.44 136.433333,265.36 C136.497334,265.167999 136.533333,264.920002 136.541333,264.616 C136.549333,264.311998 136.553333,263.984002 136.553333,263.632 L136.553333,261.28 C136.553333,260.303995 136.489334,259.540003 136.361333,258.988 C136.233333,258.435997 136.001335,258.040001 135.665333,257.8 C135.329332,257.559999 134.857336,257.44 134.249333,257.44 C133.961332,257.44 133.645335,257.531999 133.301333,257.716 C132.957332,257.900001 132.657335,258.095999 132.401333,258.304 C132.145332,258.512001 132.017333,258.656 132.017333,258.736 L132.017333,263.632 C132.017333,263.984002 132.021333,264.311998 132.029333,264.616 C132.037333,264.920002 132.073333,265.167999 132.137333,265.36 C132.169334,265.44 132.285332,265.512 132.485333,265.576 C132.685334,265.64 132.897332,265.684 133.121333,265.708 C133.345334,265.732 133.505333,265.744 133.601333,265.744 C133.649334,265.808 133.677333,265.919999 133.685333,266.08 C133.693333,266.240001 133.665334,266.352 133.601333,266.416 L132.341333,266.332 C131.981332,266.308 131.569336,266.296 131.105333,266.296 C130.657331,266.296 130.249335,266.308 129.881333,266.332 C129.513332,266.356 129.089336,266.384 128.609333,266.416 C128.545333,266.352 128.517333,266.240001 128.525333,266.08 C128.533333,265.919999 128.561333,265.808 128.609333,265.744 C128.705334,265.744 128.869332,265.732 129.101333,265.708 C129.333335,265.684 129.553332,265.64 129.761333,265.576 C129.969334,265.512 130.081333,265.44 130.097333,265.36 C130.161334,265.167999 130.197333,264.920002 130.205333,264.616 C130.213333,264.311998 130.217333,263.984002 130.217333,263.632 L130.217333,259.36 C130.217333,259.199999 130.213333,258.976001 130.205333,258.688 C130.197333,258.399999 130.161334,258.184001 130.097333,258.04 C130.049333,257.895999 129.913334,257.796 129.689333,257.74 C129.465332,257.684 129.241334,257.652 129.017333,257.644 C128.793332,257.636 128.649334,257.632 128.585333,257.632 C128.569333,257.6 128.553333,257.504001 128.537333,257.344 C128.521333,257.183999 128.537333,257.072 128.585333,257.008 C129.193336,256.928 129.78533,256.808001 130.361333,256.648 C130.937336,256.487999 131.457331,256.280001 131.921333,256.024 C131.985334,256.024 132.045333,256.072 132.101333,256.168 C132.157334,256.264 132.185333,256.344 132.185333,256.408 C132.185333,256.456 132.173333,256.579999 132.149333,256.78 C132.125333,256.980001 132.101333,257.175999 132.077333,257.368 C132.053333,257.560001 132.041333,257.688 132.041333,257.752 C132.041333,257.816 132.057333,257.848 132.089333,257.848 C132.105333,257.848 132.129333,257.832 132.161333,257.8 C132.321334,257.623999 132.581332,257.400001 132.941333,257.128 C133.301335,256.855999 133.697331,256.612001 134.129333,256.396 C134.561336,256.179999 134.961332,256.072 135.329333,256.072 Z M147.281333,264.784 C147.905336,264.784 148.493331,264.895999 149.045333,265.12 C149.597336,265.344001 150.045332,265.639998 150.389333,266.008 C150.733335,266.376002 150.905333,266.783998 150.905333,267.232 C150.905333,267.712002 150.741335,268.207997 150.413333,268.72 C150.085332,269.232003 149.641336,269.711998 149.081333,270.16 C148.521331,270.608002 147.873337,270.971999 147.137333,271.252 C146.40133,271.532001 145.625337,271.672 144.809333,271.672 C144.18533,271.672 143.561336,271.568001 142.937333,271.36 C142.31333,271.151999 141.793335,270.836002 141.377333,270.412 C140.961331,269.987998 140.753333,269.456003 140.753333,268.816 C140.753333,268.463998 140.905332,268.128002 141.209333,267.808 C141.513335,267.487998 141.865331,267.200001 142.265333,266.944 C142.665335,266.687999 142.993332,266.496001 143.249333,266.368 C142.977332,266.272 142.693335,266.128001 142.397333,265.936 C142.101332,265.743999 141.849334,265.500001 141.641333,265.204 C141.433332,264.907999 141.329333,264.568002 141.329333,264.184 C141.473334,264.023999 141.677332,263.836001 141.941333,263.62 C142.205335,263.403999 142.469332,263.200001 142.733333,263.008 C142.997335,262.815999 143.201333,262.68 143.345333,262.6 C142.76933,262.279998 142.301335,261.844003 141.941333,261.292 C141.581332,260.739997 141.401333,260.176003 141.401333,259.6 C141.401333,258.975997 141.573332,258.396003 141.917333,257.86 C142.261335,257.323997 142.73333,256.888002 143.333333,256.552 C143.933336,256.215998 144.60933,256.048 145.361333,256.048 C145.873336,256.048 146.305332,256.115999 146.657333,256.252 C147.009335,256.388001 147.289332,256.496 147.497333,256.576 C147.721334,256.656 147.837333,256.696 147.845333,256.696 C147.853333,256.696 147.913333,256.712 148.025333,256.744 L150.545333,256.384 C150.689334,256.432 150.761333,256.511999 150.761333,256.624 C150.761333,256.72 150.705334,256.883999 150.593333,257.116 C150.481333,257.348001 150.361334,257.504 150.233333,257.584 C150.041332,257.568 149.825335,257.556 149.585333,257.548 C149.345332,257.54 149.137334,257.528 148.961333,257.512 L148.697333,257.488 C148.633333,257.488 148.601333,257.512 148.601333,257.56 C148.665334,257.624 148.789332,257.859998 148.973333,258.268 C149.157334,258.676002 149.249333,259.151997 149.249333,259.696 C149.249333,260.240003 149.077335,260.775997 148.733333,261.304 C148.389332,261.832003 147.917336,262.267998 147.317333,262.612 C146.71733,262.956002 146.041337,263.128 145.289333,263.128 C145.081332,263.128 144.841335,263.104 144.569333,263.056 C144.297332,263.008 144.097334,262.96 143.969333,262.912 C143.761332,263.024001 143.565334,263.175999 143.381333,263.368 C143.197332,263.560001 143.105333,263.751999 143.105333,263.944 C143.105333,264.056001 143.225332,264.223999 143.465333,264.448 C143.705335,264.672001 144.057331,264.784 144.521333,264.784 L147.281333,264.784 Z M146.201333,266.44 C146.057333,266.44 145.821335,266.444 145.493333,266.452 C145.165332,266.46 144.853335,266.472 144.557333,266.488 C144.261332,266.504 144.081334,266.528 144.017333,266.56 C143.761332,266.720001 143.465335,266.943999 143.129333,267.232 C142.793332,267.520001 142.625333,267.815998 142.625333,268.12 C142.625333,268.872004 142.897331,269.499997 143.441333,270.004 C143.985336,270.508003 144.753328,270.76 145.745333,270.76 C146.289336,270.76 146.833331,270.640001 147.377333,270.4 C147.921336,270.159999 148.377332,269.848002 148.745333,269.464 C149.113335,269.079998 149.297333,268.672002 149.297333,268.24 C149.297333,268.015999 149.193334,267.764001 148.985333,267.484 C148.777332,267.203999 148.449336,266.960001 148.001333,266.752 C147.553331,266.543999 146.953337,266.44 146.201333,266.44 Z M145.265333,256.768 C144.817331,256.768 144.441335,256.903999 144.137333,257.176 C143.833332,257.448001 143.601334,257.791998 143.441333,258.208 C143.281333,258.624002 143.201333,259.055998 143.201333,259.504 C143.201333,259.984002 143.289332,260.447998 143.465333,260.896 C143.641334,261.344002 143.897332,261.711999 144.233333,262 C144.569335,262.288001 144.977331,262.432 145.457333,262.432 C145.889336,262.432 146.253332,262.300001 146.549333,262.036 C146.845335,261.771999 147.069333,261.436002 147.221333,261.028 C147.373334,260.619998 147.449333,260.200002 147.449333,259.768 C147.449333,259.271998 147.369334,258.796002 147.209333,258.34 C147.049333,257.883998 146.809335,257.508001 146.489333,257.212 C146.169332,256.915999 145.761336,256.768 145.265333,256.768 Z" id="InformationSecurityConsulting" fill="#FFFFFF" fill-rule="nonzero"></path>
                <rect id="Rectangle" stroke="url(#linearGradient-1)" stroke-width="4" x="2" y="2" width="196" height="296"></rect>
                <path d="M116.06672,62.0320369 L98.1826576,81.8039427 C97.4682072,82.5918188 96.4815852,83 95.4844672,83 C94.7334618,83 93.9755798,82.7652598 93.3262768,82.2882071 L86.4680596,77.2223616 C84.8578317,76.033516 84.5205126,73.7715722 85.7137968,72.1673337 C86.907081,70.5663405 89.1771079,70.2306367 90.7876977,71.4155159 L94.9980329,74.5266352 L110.677215,57.19372 C112.019253,55.7120801 114.311358,55.5930874 115.802149,56.9297725 C117.288958,58.2668182 117.408395,60.550397 116.06672,62.0320369 Z M128.295366,38.8919713 C127.892965,38.9681785 127.487684,39.0389682 127.085283,39.1036179 C124.648202,39.4962116 122.182686,39.70533 119.71465,39.6771586 C117.645777,39.6544048 115.574743,39.4680402 113.539703,39.0895322 C111.842636,38.773507 110.167885,38.32132 108.543884,37.7311655 C107.224023,37.2482789 105.937996,36.6722101 104.705238,36.0000695 C103.771221,35.4890116 102.864559,34.9212497 102.003608,34.2913662 C101.68831,34.0598552 101.375891,33.819676 101.074631,33.5686617 C100.779129,33.3284825 100.500543,33.0232924 100.098142,33.0008998 C99.7209364,32.9839247 99.3862021,33.2100182 99.1101363,33.4357505 C98.617753,33.8341229 98.1224903,34.223466 97.604552,34.5878882 C96.6813332,35.228968 95.7163627,35.8050368 94.716839,36.3164559 C93.4250527,36.9799283 92.0828762,37.5390221 90.7065065,37.9995161 C89.0263564,38.5614992 87.2983357,38.9739573 85.5505189,39.2477254 C83.4593295,39.5781975 81.3429451,39.7111087 79.2294401,39.6742692 C76.7102948,39.6345403 74.1997877,39.3549934 71.723474,38.8919713 C70.9859788,38.7536426 70.2909553,39.2874543 70.2427247,40.0412197 C69.8435631,46.5932354 68.8076865,73.9870252 78.404842,86.0404083 C88.5030191,98.717896 97.2385038,103.756241 99.4650266,104.869011 C99.8112787,105.04129 100.21368,105.044179 100.559932,104.874429 C102.799772,103.778634 111.589246,98.7941032 121.617237,86.0404083 C131.135208,73.9306824 130.15872,46.5961248 129.773235,40.044109 C129.731124,39.2899825 129.032861,38.7536426 128.295366,38.8919713 Z" id="Fill-14" fill="#FFFFFF"></path>
            </g>
        </g>
    </g>
</svg>