<?xml version="1.0" encoding="UTF-8"?>
<svg width="200px" height="300px" viewBox="0 0 200 300" version="1.1" xmlns="http://www.w3.org/2000/svg" xmlns:xlink="http://www.w3.org/1999/xlink">
    <!-- Generator: Sketch 53.2 (72643) - https://sketchapp.com -->
    <title>Group 8</title>
    <desc>Created with Sketch.</desc>
    <defs>
        <linearGradient x1="27.7777778%" y1="0%" x2="72.2222222%" y2="100%" id="linearGradient-1">
            <stop stop-color="#612CB8" offset="0%"></stop>
            <stop stop-color="#11A8DB" offset="65.2100372%"></stop>
            <stop stop-color="#11DBB4" offset="100%"></stop>
        </linearGradient>
    </defs>
    <g id="WWW" stroke="none" stroke-width="1" fill="none" fill-rule="evenodd">
        <g id="Desktop-HD" transform="translate(-252.000000, -113.000000)">
            <g id="Group-8" transform="translate(252.000000, 113.000000)">
                <rect id="Rectangle" stroke="url(#linearGradient-1)" stroke-width="4" x="2" y="2" width="196" height="296"></rect>
                <path d="M57.148,202.376 C57.9160038,202.376 58.7199958,202.408 59.56,202.472 C60.4000042,202.536 61.2519957,202.663999 62.116,202.856 L62.2,203.348 C62.2560003,203.676002 62.3159997,204.059998 62.38,204.5 C62.4440003,204.940002 62.5039997,205.339998 62.56,205.7 C62.6160003,206.060002 62.644,206.272 62.644,206.336 C62.6600001,206.4 62.6120006,206.464 62.5,206.528 C62.3879994,206.592 62.2680006,206.624 62.14,206.624 C62.0279994,206.624 61.9320004,206.6 61.852,206.552 C61.8199998,206.375999 61.7440006,206.104002 61.624,205.736 C61.5039994,205.367998 61.2880016,204.984002 60.976,204.584 C60.6639984,204.183998 60.212003,203.844001 59.62,203.564 C59.027997,203.283999 58.2440049,203.144 57.268,203.144 C56.4039957,203.144 55.6200035,203.339998 54.916,203.732 C54.2119965,204.124002 53.6080025,204.651997 53.104,205.316 C52.5999975,205.980003 52.2160013,206.715996 51.952,207.524 C51.6879987,208.332004 51.556,209.143996 51.556,209.96 C51.556,210.872005 51.6799988,211.767996 51.928,212.648 C52.1760012,213.528004 52.5519975,214.323996 53.056,215.036 C53.5600025,215.748004 54.1919962,216.315998 54.952,216.74 C55.7120038,217.164002 56.6039949,217.376 57.628,217.376 C58.3480036,217.376 58.9599975,217.264001 59.464,217.04 C59.9680025,216.815999 60.3879983,216.552002 60.724,216.248 C61.1880023,215.831998 61.523999,215.368003 61.732,214.856 C61.940001,214.343997 62.0839996,213.896002 62.164,213.512 C62.4360014,213.48 62.6839989,213.543999 62.908,213.704 C62.908,213.816001 62.8800003,214.039998 62.824,214.376 C62.7679997,214.712002 62.7000004,215.075998 62.62,215.468 C62.5399996,215.860002 62.4520005,216.207998 62.356,216.512 C62.2599995,216.816002 62.1720004,217.008 62.092,217.088 C61.4519968,217.440002 60.7240041,217.703999 59.908,217.88 C59.0919959,218.056001 58.1400054,218.144 57.052,218.144 C55.8999942,218.144 54.8440048,217.940002 53.884,217.532 C52.9239952,217.123998 52.0960035,216.564004 51.4,215.852 C50.7039965,215.139996 50.1680019,214.324005 49.792,213.404 C49.4159981,212.483995 49.228,211.504005 49.228,210.464 C49.228,209.359994 49.423998,208.324005 49.816,207.356 C50.208002,206.387995 50.7559965,205.528004 51.46,204.776 C52.1640035,204.023996 52.9999952,203.436002 53.968,203.012 C54.9360048,202.587998 55.9959942,202.376 57.148,202.376 Z M69.844,207.704 C70.8840052,207.704 71.7759963,207.927998 72.52,208.376 C73.2640037,208.824002 73.839998,209.431996 74.248,210.2 C74.656002,210.968004 74.86,211.839995 74.86,212.816 C74.86,213.824005 74.6440022,214.731996 74.212,215.54 C73.7799978,216.348004 73.1880038,216.987998 72.436,217.46 C71.6839962,217.932002 70.8360047,218.168 69.892,218.168 C68.8679949,218.168 67.9760038,217.940002 67.216,217.484 C66.4559962,217.027998 65.872002,216.412004 65.464,215.636 C65.055998,214.859996 64.852,213.984005 64.852,213.008 C64.852,211.999995 65.0719978,211.096004 65.512,210.296 C65.9520022,209.495996 66.5479962,208.864002 67.3,208.4 C68.0520038,207.935998 68.8999953,207.704 69.844,207.704 Z M69.58,208.496 C68.9239967,208.496 68.396002,208.691998 67.996,209.084 C67.595998,209.476002 67.3080009,209.979997 67.132,210.596 C66.9559991,211.212003 66.868,211.855997 66.868,212.528 C66.868,213.280004 66.9919988,214.031996 67.24,214.784 C67.4880012,215.536004 67.8559976,216.159998 68.344,216.656 C68.8320024,217.152002 69.4279965,217.4 70.132,217.4 C70.8040034,217.4 71.335998,217.204002 71.728,216.812 C72.120002,216.419998 72.4039991,215.912003 72.58,215.288 C72.7560009,214.663997 72.844,214.024003 72.844,213.368 C72.844,212.599996 72.7160013,211.844004 72.46,211.1 C72.2039987,210.355996 71.8360024,209.736002 71.356,209.24 C70.8759976,208.743998 70.2840035,208.496 69.58,208.496 Z M83.38,207.728 C84.2280042,207.728 84.8679978,207.903998 85.3,208.256 C85.7320022,208.608002 86.0239992,209.151996 86.176,209.888 C86.3280008,210.624004 86.404,211.559994 86.404,212.696 L86.404,215.288 C86.404,215.640002 86.408,215.967998 86.416,216.272 C86.424,216.576002 86.4599997,216.823999 86.524,217.016 C86.5560002,217.096 86.671999,217.168 86.872,217.232 C87.072001,217.296 87.2839989,217.34 87.508,217.364 C87.7320011,217.388 87.8919995,217.4 87.988,217.4 C88.0360002,217.464 88.064,217.575999 88.072,217.736 C88.08,217.896001 88.0520003,218.008 87.988,218.072 L86.728,217.988 C86.3679982,217.964 85.9560023,217.952 85.492,217.952 C85.0439978,217.952 84.6360018,217.964 84.268,217.988 C83.8999982,218.012 83.4760024,218.04 82.996,218.072 C82.9319997,218.008 82.904,217.896001 82.912,217.736 C82.92,217.575999 82.9479998,217.464 82.996,217.4 C83.0920005,217.4 83.2559988,217.388 83.488,217.364 C83.7200012,217.34 83.939999,217.296 84.148,217.232 C84.356001,217.168 84.4679999,217.096 84.484,217.016 C84.5480003,216.823999 84.584,216.576002 84.592,216.272 C84.6,215.967998 84.604,215.640002 84.604,215.288 L84.604,212.936 C84.604,211.959995 84.5400006,211.196003 84.412,210.644 C84.2839994,210.091997 84.0520017,209.696001 83.716,209.456 C83.3799983,209.215999 82.908003,209.096 82.3,209.096 C82.0119986,209.096 81.6960017,209.187999 81.352,209.372 C81.0079983,209.556001 80.7080013,209.751999 80.452,209.96 C80.1959987,210.168001 80.068,210.312 80.068,210.392 L80.068,215.288 C80.068,215.640002 80.072,215.967998 80.08,216.272 C80.088,216.576002 80.1239997,216.823999 80.188,217.016 C80.2200002,217.096 80.335999,217.168 80.536,217.232 C80.736001,217.296 80.9479989,217.34 81.172,217.364 C81.3960011,217.388 81.5559995,217.4 81.652,217.4 C81.7000002,217.464 81.728,217.575999 81.736,217.736 C81.744,217.896001 81.7160003,218.008 81.652,218.072 L80.392,217.988 C80.0319982,217.964 79.6200023,217.952 79.156,217.952 C78.7079978,217.952 78.3000018,217.964 77.932,217.988 C77.5639982,218.012 77.1400024,218.04 76.66,218.072 C76.5959997,218.008 76.568,217.896001 76.576,217.736 C76.584,217.575999 76.6119998,217.464 76.66,217.4 C76.7560005,217.4 76.9199988,217.388 77.152,217.364 C77.3840012,217.34 77.603999,217.296 77.812,217.232 C78.020001,217.168 78.1319999,217.096 78.148,217.016 C78.2120003,216.823999 78.248,216.576002 78.256,216.272 C78.264,215.967998 78.268,215.640002 78.268,215.288 L78.268,211.016 C78.268,210.855999 78.264,210.632001 78.256,210.344 C78.248,210.055999 78.2120003,209.840001 78.148,209.696 C78.0999998,209.551999 77.9640011,209.452 77.74,209.396 C77.5159989,209.34 77.2920011,209.308 77.068,209.3 C76.8439989,209.292 76.7000003,209.288 76.636,209.288 C76.6199999,209.256 76.6040001,209.160001 76.588,209 C76.5719999,208.839999 76.5879998,208.728 76.636,208.664 C77.244003,208.584 77.8359971,208.464001 78.412,208.304 C78.9880029,208.143999 79.5079977,207.936001 79.972,207.68 C80.0360003,207.68 80.0959997,207.728 80.152,207.824 C80.2080003,207.92 80.236,208 80.236,208.064 C80.236,208.112 80.2240001,208.235999 80.2,208.436 C80.1759999,208.636001 80.1520001,208.831999 80.128,209.024 C80.1039999,209.216001 80.092,209.344 80.092,209.408 C80.092,209.472 80.1079998,209.504 80.14,209.504 C80.1560001,209.504 80.1799998,209.488 80.212,209.456 C80.3720008,209.279999 80.6319982,209.056001 80.992,208.784 C81.3520018,208.511999 81.7479978,208.268001 82.18,208.052 C82.6120022,207.835999 83.0119982,207.728 83.38,207.728 Z M92.836,207.752 C93.3000023,207.752 93.6879984,207.788 94,207.86 C94.3120016,207.932 94.7239974,208 95.236,208.064 C95.3160004,208.416002 95.3799998,208.827998 95.428,209.3 C95.4760002,209.772002 95.5079999,210.215998 95.524,210.632 C95.524,210.712 95.4440008,210.752 95.284,210.752 C95.2199997,210.752 95.1520004,210.744 95.08,210.728 C95.0079996,210.712 94.9400003,210.68 94.876,210.632 C94.7959996,210.343999 94.6640009,210.032002 94.48,209.696 C94.2959991,209.359998 94.0720013,209.076001 93.808,208.844 C93.5439987,208.611999 93.2440017,208.496 92.908,208.496 C92.3479972,208.496 91.9320014,208.635999 91.66,208.916 C91.3879986,209.196001 91.252,209.543998 91.252,209.96 C91.252,210.360002 91.347999,210.683999 91.54,210.932 C91.732001,211.180001 91.9839984,211.395999 92.296,211.58 C92.6080016,211.764001 92.9399982,211.959999 93.292,212.168 C93.6440018,212.376001 94.0279979,212.607999 94.444,212.864 C94.8600021,213.120001 95.2199985,213.419998 95.524,213.764 C95.8280015,214.108002 95.98,214.527998 95.98,215.024 C95.98,215.648003 95.8120017,216.203998 95.476,216.692 C95.1399983,217.180002 94.7000027,217.563999 94.156,217.844 C93.6119973,218.124001 93.0200032,218.264 92.38,218.264 C91.8359973,218.264 91.3720019,218.212001 90.988,218.108 C90.6039981,218.003999 90.1560026,217.904 89.644,217.808 C89.5799997,217.631999 89.5160003,217.392002 89.452,217.088 C89.3879997,216.783998 89.3360002,216.472002 89.296,216.152 C89.2559998,215.831998 89.236,215.576001 89.236,215.384 C89.3640006,215.288 89.5079992,215.24 89.668,215.24 C89.7480004,215.24 89.8119998,215.256 89.86,215.288 C89.9560005,215.608002 90.1239988,215.939998 90.364,216.284 C90.6040012,216.628002 90.8999982,216.915999 91.252,217.148 C91.6040018,217.380001 91.9879979,217.496 92.404,217.496 C92.8840024,217.496 93.2839984,217.352001 93.604,217.064 C93.9240016,216.775999 94.084,216.360003 94.084,215.816 C94.084,215.335998 93.9400014,214.948001 93.652,214.652 C93.3639986,214.355999 93.0040022,214.092001 92.572,213.86 C92.1399978,213.627999 91.6920023,213.384001 91.228,213.128 C90.7639977,212.855999 90.3520018,212.524002 89.992,212.132 C89.6319982,211.739998 89.452,211.232003 89.452,210.608 C89.452,210.031997 89.6159984,209.528002 89.944,209.096 C90.2720016,208.663998 90.6919974,208.332001 91.204,208.1 C91.7160026,207.867999 92.2599971,207.752 92.836,207.752 Z M105.1,215.552 L105.1,210.416 C105.1,210.255999 105.092,210.060001 105.076,209.828 C105.06,209.595999 105.012,209.400001 104.932,209.24 C104.819999,209.015999 104.612002,208.88 104.308,208.832 C104.003998,208.784 103.772001,208.76 103.612,208.76 C103.58,208.728 103.56,208.636001 103.552,208.484 C103.544,208.331999 103.564,208.224 103.612,208.16 C104.220003,208.128 104.803997,208.072 105.364,207.992 C105.924003,207.912 106.411998,207.808001 106.828,207.68 C106.892,207.68 106.948,207.759999 106.996,207.92 C107.044,208.080001 107.068,208.192 107.068,208.256 C107.02,208.352 106.984,208.543999 106.96,208.832 C106.936,209.120001 106.924,209.431998 106.924,209.768 L106.924,214.688 C106.924,214.816001 106.932,215.067998 106.948,215.444 C106.964,215.820002 107.004,216.167998 107.068,216.488 C107.116,216.680001 107.295998,216.792 107.608,216.824 C107.920002,216.856 108.155999,216.88 108.316,216.896 L108.46,216.896 C108.492,216.912 108.512,216.952 108.52,217.016 C108.528,217.08 108.532,217.128 108.532,217.16 C108.532,217.176 108.516,217.239999 108.484,217.352 C108.452,217.464001 108.404,217.52 108.34,217.52 C107.939998,217.536 107.504002,217.599999 107.032,217.712 C106.559998,217.824001 106.156002,217.931999 105.82,218.036 C105.483998,218.140001 105.308,218.192 105.292,218.192 C105.228,218.192 105.18,218.148 105.148,218.06 C105.116,217.972 105.1,217.888 105.1,217.808 L105.1,216.728 C105.1,216.664 105.092,216.628 105.076,216.62 L105.052,216.608 C104.843999,216.832001 104.556002,217.067999 104.188,217.316 C103.819998,217.564001 103.420002,217.767999 102.988,217.928 C102.555998,218.088001 102.140002,218.168 101.74,218.168 C101.115997,218.168 100.612002,218.020001 100.228,217.724 C99.8439981,217.427999 99.548001,217.044002 99.34,216.572 C99.131999,216.099998 98.9920004,215.592003 98.92,215.048 C98.8479996,214.503997 98.812,213.984002 98.812,213.488 L98.812,210.512 C98.812,210.351999 98.8040001,210.144001 98.788,209.888 C98.7719999,209.631999 98.7160005,209.416001 98.62,209.24 C98.5079994,209.015999 98.3000015,208.88 97.996,208.832 C97.6919985,208.784 97.4600008,208.76 97.3,208.76 C97.2679998,208.728 97.248,208.636001 97.24,208.484 C97.232,208.331999 97.2519998,208.224 97.3,208.16 C97.908003,208.128 98.4919972,208.072 99.052,207.992 C99.6120028,207.912 100.099998,207.808001 100.516,207.68 C100.58,207.68 100.64,207.743999 100.696,207.872 C100.752,208.000001 100.78,208.096 100.78,208.16 C100.732,208.256 100.692,208.463998 100.66,208.784 C100.628,209.104002 100.612,209.431998 100.612,209.768 L100.612,213.224 C100.612,214.472006 100.799998,215.387997 101.176,215.972 C101.552002,216.556003 102.147996,216.848 102.964,216.848 C103.316002,216.848 103.651998,216.780001 103.972,216.644 C104.292002,216.507999 104.559999,216.336001 104.776,216.128 C104.992001,215.919999 105.1,215.728001 105.1,215.552 Z M111.052,204.92 C111.052,204.743999 111.048,204.532001 111.04,204.284 C111.032,204.035999 110.996,203.840001 110.932,203.696 C110.868,203.519999 110.696001,203.408 110.416,203.36 C110.135999,203.312 109.836002,203.288 109.516,203.288 C109.5,203.288 109.488,203.188001 109.48,202.988 C109.472,202.787999 109.492,202.68 109.54,202.664 C110.132003,202.6 110.707997,202.484001 111.268,202.316 C111.828003,202.147999 112.355998,201.952001 112.852,201.728 C112.916,201.728 112.976,201.772 113.032,201.86 C113.088,201.948 113.116,202.032 113.116,202.112 L112.984,202.64 C112.896,202.992002 112.852,203.495997 112.852,204.152 L112.852,215.288 C112.852,215.640002 112.856,215.967998 112.864,216.272 C112.872,216.576002 112.908,216.823999 112.972,217.016 C113.004,217.096 113.119999,217.168 113.32,217.232 C113.520001,217.296 113.735999,217.34 113.968,217.364 C114.200001,217.388 114.364,217.4 114.46,217.4 C114.508,217.464 114.536,217.575999 114.544,217.736 C114.552,217.896001 114.524,218.008 114.46,218.072 C113.979998,218.04 113.556002,218.012 113.188,217.988 C112.819998,217.964 112.404002,217.952 111.94,217.952 C111.491998,217.952 111.088002,217.964 110.728,217.988 L109.468,218.072 C109.404,218.008 109.376,217.896001 109.384,217.736 C109.392,217.575999 109.42,217.464 109.468,217.4 C109.564,217.4 109.723999,217.388 109.948,217.364 C110.172001,217.34 110.387999,217.296 110.596,217.232 C110.804001,217.168 110.916,217.096 110.932,217.016 C110.996,216.823999 111.032,216.576002 111.04,216.272 C111.048,215.967998 111.052,215.640002 111.052,215.288 L111.052,204.92 Z M118.684,207.872 L121.708,207.872 C121.788,207.872 121.828,207.959999 121.828,208.136 C121.828,208.376001 121.716001,208.607999 121.492,208.832 L118.684,208.832 L118.684,214.976 C118.684,216.256006 119.203995,216.896 120.244,216.896 C120.596002,216.896 120.915999,216.824001 121.204,216.68 C121.492001,216.535999 121.676,216.432 121.756,216.368 C121.804,216.384 121.828,216.432 121.828,216.512 C121.828,216.688001 121.796,216.808 121.732,216.872 C121.619999,217.000001 121.448001,217.167999 121.216,217.376 C120.983999,217.584001 120.708002,217.767999 120.388,217.928 C120.067998,218.088001 119.716002,218.168 119.332,218.168 C118.931998,218.168 118.544002,218.096001 118.168,217.952 C117.791998,217.807999 117.484001,217.552002 117.244,217.184 C117.003999,216.815998 116.884,216.296003 116.884,215.624 L116.884,208.832 L115.516,208.832 C115.484,208.832 115.46,208.804 115.444,208.748 C115.428,208.692 115.42,208.648 115.42,208.616 C115.42,208.584 115.468,208.508001 115.564,208.388 C115.66,208.267999 115.759999,208.152001 115.864,208.04 L116.02,207.872 L116.884,207.872 L116.884,206.408 C117.044001,206.231999 117.231999,206.028001 117.448,205.796 C117.664001,205.563999 117.859999,205.348001 118.036,205.148 C118.212001,204.947999 118.308,204.84 118.324,204.824 C118.388,204.76 118.464,204.728 118.552,204.728 C118.64,204.728 118.684,204.752 118.684,204.8 L118.684,207.872 Z M124.204,204.104 C124.204,203.783998 124.319999,203.508001 124.552,203.276 C124.784001,203.043999 125.059998,202.928 125.38,202.928 C125.700002,202.928 125.975999,203.043999 126.208,203.276 C126.440001,203.508001 126.556,203.783998 126.556,204.104 C126.556,204.424002 126.440001,204.699999 126.208,204.932 C125.975999,205.164001 125.700002,205.28 125.38,205.28 C125.059998,205.28 124.784001,205.164001 124.552,204.932 C124.319999,204.699999 124.204,204.424002 124.204,204.104 Z M126.46,215.288 C126.46,215.640002 126.464,215.967998 126.472,216.272 C126.48,216.576002 126.516,216.823999 126.58,217.016 C126.612,217.096 126.727999,217.168 126.928,217.232 C127.128001,217.296 127.339999,217.34 127.564,217.364 C127.788001,217.388 127.948,217.4 128.044,217.4 C128.092,217.464 128.12,217.575999 128.128,217.736 C128.136,217.896001 128.108,218.008 128.044,218.072 L126.784,217.988 C126.423998,217.964 126.012002,217.952 125.548,217.952 C125.099998,217.952 124.692002,217.964 124.324,217.988 C123.955998,218.012 123.532002,218.04 123.052,218.072 C122.988,218.008 122.96,217.896001 122.968,217.736 C122.976,217.575999 123.004,217.464 123.052,217.4 C123.148,217.4 123.311999,217.388 123.544,217.364 C123.776001,217.34 123.995999,217.296 124.204,217.232 C124.412001,217.168 124.524,217.096 124.54,217.016 C124.604,216.823999 124.64,216.576002 124.648,216.272 C124.656,215.967998 124.66,215.640002 124.66,215.288 L124.66,210.92 C124.66,210.759999 124.656,210.552001 124.648,210.296 C124.64,210.039999 124.604,209.840001 124.54,209.696 C124.492,209.551999 124.356001,209.452 124.132,209.396 C123.907999,209.34 123.684001,209.308 123.46,209.3 C123.235999,209.292 123.092,209.288 123.028,209.288 C123.012,209.256 122.996,209.160001 122.98,209 C122.964,208.839999 122.98,208.728 123.028,208.664 C123.636003,208.584 124.227997,208.464001 124.804,208.304 C125.380003,208.143999 125.899998,207.936001 126.364,207.68 C126.428,207.68 126.488,207.728 126.544,207.824 C126.6,207.92 126.628,208 126.628,208.064 C126.628,208.112 126.612,208.247999 126.58,208.472 C126.548,208.696001 126.52,208.919999 126.496,209.144 C126.472,209.368001 126.46,209.52 126.46,209.6 L126.46,215.288 Z M136.084,207.728 C136.932004,207.728 137.571998,207.903998 138.004,208.256 C138.436002,208.608002 138.727999,209.151996 138.88,209.888 C139.032001,210.624004 139.108,211.559994 139.108,212.696 L139.108,215.288 C139.108,215.640002 139.112,215.967998 139.12,216.272 C139.128,216.576002 139.164,216.823999 139.228,217.016 C139.26,217.096 139.375999,217.168 139.576,217.232 C139.776001,217.296 139.987999,217.34 140.212,217.364 C140.436001,217.388 140.596,217.4 140.692,217.4 C140.74,217.464 140.768,217.575999 140.776,217.736 C140.784,217.896001 140.756,218.008 140.692,218.072 L139.432,217.988 C139.071998,217.964 138.660002,217.952 138.196,217.952 C137.747998,217.952 137.340002,217.964 136.972,217.988 C136.603998,218.012 136.180002,218.04 135.7,218.072 C135.636,218.008 135.608,217.896001 135.616,217.736 C135.624,217.575999 135.652,217.464 135.7,217.4 C135.796,217.4 135.959999,217.388 136.192,217.364 C136.424001,217.34 136.643999,217.296 136.852,217.232 C137.060001,217.168 137.172,217.096 137.188,217.016 C137.252,216.823999 137.288,216.576002 137.296,216.272 C137.304,215.967998 137.308,215.640002 137.308,215.288 L137.308,212.936 C137.308,211.959995 137.244001,211.196003 137.116,210.644 C136.987999,210.091997 136.756002,209.696001 136.42,209.456 C136.083998,209.215999 135.612003,209.096 135.004,209.096 C134.715999,209.096 134.400002,209.187999 134.056,209.372 C133.711998,209.556001 133.412001,209.751999 133.156,209.96 C132.899999,210.168001 132.772,210.312 132.772,210.392 L132.772,215.288 C132.772,215.640002 132.776,215.967998 132.784,216.272 C132.792,216.576002 132.828,216.823999 132.892,217.016 C132.924,217.096 133.039999,217.168 133.24,217.232 C133.440001,217.296 133.651999,217.34 133.876,217.364 C134.100001,217.388 134.26,217.4 134.356,217.4 C134.404,217.464 134.432,217.575999 134.44,217.736 C134.448,217.896001 134.42,218.008 134.356,218.072 L133.096,217.988 C132.735998,217.964 132.324002,217.952 131.86,217.952 C131.411998,217.952 131.004002,217.964 130.636,217.988 C130.267998,218.012 129.844002,218.04 129.364,218.072 C129.3,218.008 129.272,217.896001 129.28,217.736 C129.288,217.575999 129.316,217.464 129.364,217.4 C129.46,217.4 129.623999,217.388 129.856,217.364 C130.088001,217.34 130.307999,217.296 130.516,217.232 C130.724001,217.168 130.836,217.096 130.852,217.016 C130.916,216.823999 130.952,216.576002 130.96,216.272 C130.968,215.967998 130.972,215.640002 130.972,215.288 L130.972,211.016 C130.972,210.855999 130.968,210.632001 130.96,210.344 C130.952,210.055999 130.916,209.840001 130.852,209.696 C130.804,209.551999 130.668001,209.452 130.444,209.396 C130.219999,209.34 129.996001,209.308 129.772,209.3 C129.547999,209.292 129.404,209.288 129.34,209.288 C129.324,209.256 129.308,209.160001 129.292,209 C129.276,208.839999 129.292,208.728 129.34,208.664 C129.948003,208.584 130.539997,208.464001 131.116,208.304 C131.692003,208.143999 132.211998,207.936001 132.676,207.68 C132.74,207.68 132.8,207.728 132.856,207.824 C132.912,207.92 132.94,208 132.94,208.064 C132.94,208.112 132.928,208.235999 132.904,208.436 C132.88,208.636001 132.856,208.831999 132.832,209.024 C132.808,209.216001 132.796,209.344 132.796,209.408 C132.796,209.472 132.812,209.504 132.844,209.504 C132.86,209.504 132.884,209.488 132.916,209.456 C133.076001,209.279999 133.335998,209.056001 133.696,208.784 C134.056002,208.511999 134.451998,208.268001 134.884,208.052 C135.316002,207.835999 135.715998,207.728 136.084,207.728 Z M148.036,216.44 C148.660003,216.44 149.247997,216.551999 149.8,216.776 C150.352003,217.000001 150.799998,217.295998 151.144,217.664 C151.488002,218.032002 151.66,218.439998 151.66,218.888 C151.66,219.368002 151.496002,219.863997 151.168,220.376 C150.839998,220.888003 150.396003,221.367998 149.836,221.816 C149.275997,222.264002 148.628004,222.627999 147.892,222.908 C147.155996,223.188001 146.380004,223.328 145.564,223.328 C144.939997,223.328 144.316003,223.224001 143.692,223.016 C143.067997,222.807999 142.548002,222.492002 142.132,222.068 C141.715998,221.643998 141.508,221.112003 141.508,220.472 C141.508,220.119998 141.659998,219.784002 141.964,219.464 C142.268002,219.143998 142.619998,218.856001 143.02,218.6 C143.420002,218.343999 143.747999,218.152001 144.004,218.024 C143.731999,217.928 143.448001,217.784001 143.152,217.592 C142.855999,217.399999 142.604001,217.156001 142.396,216.86 C142.187999,216.563999 142.084,216.224002 142.084,215.84 C142.228001,215.679999 142.431999,215.492001 142.696,215.276 C142.960001,215.059999 143.223999,214.856001 143.488,214.664 C143.752001,214.471999 143.955999,214.336 144.1,214.256 C143.523997,213.935998 143.056002,213.500003 142.696,212.948 C142.335998,212.395997 142.156,211.832003 142.156,211.256 C142.156,210.631997 142.327998,210.052003 142.672,209.516 C143.016002,208.979997 143.487997,208.544002 144.088,208.208 C144.688003,207.871998 145.363996,207.704 146.116,207.704 C146.628003,207.704 147.059998,207.771999 147.412,207.908 C147.764002,208.044001 148.043999,208.152 148.252,208.232 C148.476001,208.312 148.592,208.352 148.6,208.352 C148.608,208.352 148.667999,208.368 148.78,208.4 L151.3,208.04 C151.444001,208.088 151.516,208.167999 151.516,208.28 C151.516,208.376 151.460001,208.539999 151.348,208.772 C151.235999,209.004001 151.116001,209.16 150.988,209.24 C150.795999,209.224 150.580001,209.212 150.34,209.204 C150.099999,209.196 149.892001,209.184 149.716,209.168 L149.452,209.144 C149.388,209.144 149.356,209.168 149.356,209.216 C149.42,209.28 149.543999,209.515998 149.728,209.924 C149.912001,210.332002 150.004,210.807997 150.004,211.352 C150.004,211.896003 149.832002,212.431997 149.488,212.96 C149.143998,213.488003 148.672003,213.923998 148.072,214.268 C147.471997,214.612002 146.796004,214.784 146.044,214.784 C145.835999,214.784 145.596001,214.76 145.324,214.712 C145.051999,214.664 144.852001,214.616 144.724,214.568 C144.515999,214.680001 144.320001,214.831999 144.136,215.024 C143.951999,215.216001 143.86,215.407999 143.86,215.6 C143.86,215.712001 143.979999,215.879999 144.22,216.104 C144.460001,216.328001 144.811998,216.44 145.276,216.44 L148.036,216.44 Z M146.956,218.096 C146.811999,218.096 146.576002,218.1 146.248,218.108 C145.919998,218.116 145.608001,218.128 145.312,218.144 C145.015999,218.16 144.836,218.184 144.772,218.216 C144.515999,218.376001 144.220002,218.599999 143.884,218.888 C143.547998,219.176001 143.38,219.471998 143.38,219.776 C143.38,220.528004 143.651997,221.155997 144.196,221.66 C144.740003,222.164003 145.507995,222.416 146.5,222.416 C147.044003,222.416 147.587997,222.296001 148.132,222.056 C148.676003,221.815999 149.131998,221.504002 149.5,221.12 C149.868002,220.735998 150.052,220.328002 150.052,219.896 C150.052,219.671999 149.948001,219.420001 149.74,219.14 C149.531999,218.859999 149.204002,218.616001 148.756,218.408 C148.307998,218.199999 147.708004,218.096 146.956,218.096 Z M146.02,208.424 C145.571998,208.424 145.196002,208.559999 144.892,208.832 C144.587998,209.104001 144.356001,209.447998 144.196,209.864 C144.035999,210.280002 143.956,210.711998 143.956,211.16 C143.956,211.640002 144.043999,212.103998 144.22,212.552 C144.396001,213.000002 144.651998,213.367999 144.988,213.656 C145.324002,213.944001 145.731998,214.088 146.212,214.088 C146.644002,214.088 147.007999,213.956001 147.304,213.692 C147.600001,213.427999 147.823999,213.092002 147.976,212.684 C148.128001,212.275998 148.204,211.856002 148.204,211.424 C148.204,210.927998 148.124001,210.452002 147.964,209.996 C147.803999,209.539998 147.564002,209.164001 147.244,208.868 C146.923998,208.571999 146.516002,208.424 146.02,208.424 Z M99.232,226.616 C100.272005,226.616 101.095997,226.843998 101.704,227.3 C102.312003,227.756002 102.616,228.407996 102.616,229.256 C102.616,229.960004 102.448002,230.579997 102.112,231.116 C101.775998,231.652003 101.344003,232.127998 100.816,232.544 C100.287997,232.960002 99.728003,233.351998 99.136,233.72 C99.6320025,234.552004 100.183997,235.375996 100.792,236.192 C101.400003,237.008004 101.999997,237.743997 102.592,238.4 C103.024002,237.743997 103.355999,237.148003 103.588,236.612 C103.820001,236.075997 103.936,235.752001 103.936,235.64 C103.936,235.447999 103.836001,235.336 103.636,235.304 C103.435999,235.272 103.256001,235.256 103.096,235.256 C102.983999,235.24 102.912,235.232 102.88,235.232 C102.848,235.152 102.832,235.052001 102.832,234.932 C102.832,234.811999 102.856,234.728 102.904,234.68 L104.752,234.68 C105.168002,234.68 105.567998,234.664 105.952,234.632 C106.336002,234.6 106.799997,234.576 107.344,234.56 C107.376,234.576 107.388,234.691999 107.38,234.908 C107.372,235.124001 107.352,235.232 107.32,235.232 C107.111999,235.232 106.820002,235.276 106.444,235.364 C106.067998,235.452 105.816001,235.536 105.688,235.616 C105.656,235.632 105.536001,235.815998 105.328,236.168 C105.119999,236.520002 104.844002,236.959997 104.5,237.488 C104.155998,238.016003 103.744002,238.559997 103.264,239.12 C103.792003,239.664003 104.235998,240.103998 104.596,240.44 C104.956002,240.776002 105.271999,240.944 105.544,240.944 C105.720001,240.944 105.891999,240.876001 106.06,240.74 C106.228001,240.603999 106.379999,240.448001 106.516,240.272 C106.652001,240.095999 106.736,239.96 106.768,239.864 C106.896001,239.864 107.019999,239.915999 107.14,240.02 C107.260001,240.124001 107.32,240.216 107.32,240.296 C107.288,240.36 107.184001,240.531999 107.008,240.812 C106.831999,241.092001 106.564002,241.359999 106.204,241.616 C105.843998,241.872001 105.360003,242 104.752,242 C104.399998,242 104.064002,241.916001 103.744,241.748 C103.423998,241.579999 103.136001,241.384001 102.88,241.16 C102.623999,240.935999 102.424001,240.740001 102.28,240.572 L102.064,240.32 C101.503997,240.816002 100.844004,241.231998 100.084,241.568 C99.3239962,241.904002 98.5600038,242.072 97.792,242.072 C96.4319932,242.072 95.3360042,241.740003 94.504,241.076 C93.6719958,240.411997 93.256,239.488006 93.256,238.304 C93.256,237.551996 93.4439981,236.900003 93.82,236.348 C94.1960019,235.795997 94.679997,235.316002 95.272,234.908 C95.864003,234.499998 96.4879967,234.128002 97.144,233.792 C96.8239984,233.231997 96.5160015,232.632003 96.22,231.992 C95.9239985,231.351997 95.776,230.632004 95.776,229.832 C95.776,229.239997 95.9279985,228.700002 96.232,228.212 C96.5360015,227.723998 96.9479974,227.336001 97.468,227.048 C97.9880026,226.759999 98.5759967,226.616 99.232,226.616 Z M101.512,239.768 C101.127998,239.383998 100.716002,238.904003 100.276,238.328 C99.8359978,237.751997 99.420002,237.184003 99.028,236.624 C98.635998,236.063997 98.3120013,235.592002 98.056,235.208 L97.672,234.632 C97.2559979,234.920001 96.8640018,235.211999 96.496,235.508 C96.1279982,235.804001 95.8320011,236.147998 95.608,236.54 C95.3839989,236.932002 95.272,237.407997 95.272,237.968 C95.272,238.704004 95.4279984,239.299998 95.74,239.756 C96.0520016,240.212002 96.4639974,240.543999 96.976,240.752 C97.4880026,240.960001 98.0239972,241.064 98.584,241.064 C99.0480023,241.064 99.5599972,240.948001 100.12,240.716 C100.680003,240.483999 101.143998,240.168002 101.512,239.768 Z M99.352,227.48 C98.8559975,227.48 98.4240018,227.643998 98.056,227.972 C97.6879982,228.300002 97.504,228.735997 97.504,229.28 C97.504,229.856003 97.6119989,230.443997 97.828,231.044 C98.0440011,231.644003 98.3359982,232.287997 98.704,232.976 C99.4400037,232.559998 100.011998,232.112002 100.42,231.632 C100.828002,231.151998 101.032,230.464004 101.032,229.568 C101.032,229.039997 100.884001,228.560002 100.588,228.128 C100.291999,227.695998 99.8800026,227.48 99.352,227.48 Z M44.404,250.568 C46.1160086,250.568 47.5879938,250.899997 48.82,251.564 C50.0520062,252.228003 50.9959967,253.131994 51.652,254.276 C52.3080033,255.420006 52.636,256.719993 52.636,258.176 C52.636,259.168005 52.5000014,260.135995 52.228,261.08 C51.9559986,262.024005 51.4960032,262.871996 50.848,263.624 C50.1999968,264.376004 49.3240055,264.971998 48.22,265.412 C47.1159945,265.852002 45.7400082,266.072 44.092,266.072 L38.236,266.072 C38.1719997,266.008 38.144,265.896001 38.152,265.736 C38.16,265.575999 38.1879998,265.464 38.236,265.4 C38.3320005,265.4 38.5079987,265.388 38.764,265.364 C39.0200013,265.34 39.2639988,265.296 39.496,265.232 C39.7280012,265.168 39.8519999,265.096 39.868,265.016 C39.9320003,264.823999 39.968,264.576002 39.976,264.272 C39.984,263.967998 39.988,263.640002 39.988,263.288 L39.988,253.28 C39.988,252.927998 39.984,252.596002 39.976,252.284 C39.968,251.971998 39.9320003,251.720001 39.868,251.528 C39.8519999,251.432 39.7280012,251.36 39.496,251.312 C39.2639988,251.264 39.0200013,251.228 38.764,251.204 C38.5079987,251.18 38.3320005,251.168 38.236,251.168 C38.1879998,251.104 38.16,250.992001 38.152,250.832 C38.144,250.671999 38.1719997,250.56 38.236,250.496 C38.7160024,250.512 39.1879977,250.532 39.652,250.556 C40.1160023,250.58 40.5719978,250.592 41.02,250.592 C41.4840023,250.592 42.0359968,250.588 42.676,250.58 C43.3160032,250.572 43.8919974,250.568 44.404,250.568 Z M42.052,253.04 L42.052,263.852 C42.052,264.100001 42.0639999,264.339999 42.088,264.572 C42.1120001,264.804001 42.1399998,264.944 42.172,264.992 C42.2680005,265.120001 42.5039981,265.208 42.88,265.256 C43.2560019,265.304 43.6599978,265.328 44.092,265.328 C45.2120056,265.328 46.2399953,265.088002 47.176,264.608 C48.1120047,264.127998 48.8679971,263.396005 49.444,262.412 C50.0200029,261.427995 50.308,260.176008 50.308,258.656 C50.308,257.327993 50.1280018,256.200005 49.768,255.272 C49.4079982,254.343995 48.9200031,253.588003 48.304,253.004 C47.6879969,252.419997 46.9920039,251.996001 46.216,251.732 C45.4399961,251.467999 44.6280042,251.336 43.78,251.336 C43.6839995,251.336 43.5080013,251.34 43.252,251.348 C42.9959987,251.356 42.7560011,251.376 42.532,251.408 C42.3079989,251.44 42.1800002,251.496 42.148,251.576 C42.0999998,251.736001 42.072,251.947999 42.064,252.212 C42.056,252.476001 42.052,252.751999 42.052,253.04 Z M56.404,260.192 C56.3879999,261.184005 56.5559982,262.015997 56.908,262.688 C57.2600018,263.360003 57.731997,263.859998 58.324,264.188 C58.916003,264.516002 59.5559966,264.68 60.244,264.68 C60.6760022,264.68 61.0679982,264.604001 61.42,264.452 C61.7720018,264.299999 62.0679988,264.124001 62.308,263.924 C62.5480012,263.723999 62.7159995,263.568001 62.812,263.456 C62.8280001,263.456 62.8639997,263.484 62.92,263.54 C62.9760003,263.596 63.004,263.672 63.004,263.768 C63.004,263.896001 62.9560005,264.039999 62.86,264.2 C62.7159993,264.424001 62.4920015,264.691998 62.188,265.004 C61.8839985,265.316002 61.5000023,265.591999 61.036,265.832 C60.5719977,266.072001 60.036003,266.192 59.428,266.192 C58.5159954,266.192 57.7080035,265.976002 57.004,265.544 C56.2999965,265.111998 55.748002,264.528004 55.348,263.792 C54.947998,263.055996 54.748,262.232005 54.748,261.32 C54.748,260.535996 54.8879986,259.804003 55.168,259.124 C55.4480014,258.443997 55.8159977,257.852003 56.272,257.348 C56.7280023,256.843997 57.2279973,256.448001 57.772,256.16 C58.3160027,255.871999 58.8439974,255.728 59.356,255.728 C60.0600035,255.728 60.6399977,255.847999 61.096,256.088 C61.5520023,256.328001 61.9119987,256.623998 62.176,256.976 C62.4400013,257.328002 62.6239995,257.679998 62.728,258.032 C62.8320005,258.384002 62.884,258.679999 62.884,258.92 C62.884,259.256002 62.8440004,259.519999 62.764,259.712 C62.6839996,259.904001 62.5320011,260.008 62.308,260.024 C62.1639993,260.04 61.8800021,260.052 61.456,260.06 C61.0319979,260.068 60.5480027,260.08 60.004,260.096 C59.4599973,260.112 58.9240026,260.128 58.396,260.144 C57.8679974,260.16 57.4200018,260.172 57.052,260.18 C56.6839982,260.188 56.4680003,260.192 56.404,260.192 Z M56.524,259.328 L60.34,259.328 C60.4840007,259.328 60.6079995,259.288 60.712,259.208 C60.8160005,259.128 60.8759999,258.984001 60.892,258.776 C60.9080001,258.583999 60.8520006,258.312002 60.724,257.96 C60.5959994,257.607998 60.3920014,257.288001 60.112,257 C59.8319986,256.711999 59.4520024,256.568 58.972,256.568 C58.4759975,256.568 58.0680016,256.707999 57.748,256.988 C57.4279984,257.268001 57.1760009,257.587998 56.992,257.948 C56.8079991,258.308002 56.6800004,258.627999 56.608,258.908 C56.5359996,259.188001 56.5079999,259.328 56.524,259.328 Z M66.268,256.04 C66.7160022,256.04 67.1039984,256.024 67.432,255.992 C67.7600016,255.96 68.1559977,255.936 68.62,255.92 C68.6520002,255.984 68.6600001,256.111999 68.644,256.304 C68.6279999,256.496001 68.5880003,256.592 68.524,256.592 C68.4759998,256.592 68.356001,256.6 68.164,256.616 C67.971999,256.632 67.7920008,256.668 67.624,256.724 C67.4559992,256.78 67.372,256.871999 67.372,257 C67.372,257.032 67.3799999,257.064 67.396,257.096 L69.964,263.432 L70.156,262.916 C70.2840006,262.571998 70.4559989,262.132003 70.672,261.596 C70.8880011,261.059997 71.1159988,260.480003 71.356,259.856 C71.5960012,259.231997 71.8279989,258.648003 72.052,258.104 C72.1160003,257.959999 72.1559999,257.820001 72.172,257.684 C72.1880001,257.547999 72.196,257.44 72.196,257.36 C72.196,257.119999 72.0680013,256.932001 71.812,256.796 C71.5559987,256.659999 71.228002,256.592 70.828,256.592 C70.7639997,256.592 70.732,256.496001 70.732,256.304 C70.732,256.111999 70.7639997,255.984 70.828,255.92 C71.1960018,255.936 71.483999,255.96 71.692,255.992 C71.900001,256.024 72.2439976,256.04 72.724,256.04 C73.1720022,256.04 73.5319986,256.024 73.804,255.992 C74.0760014,255.96 74.4439977,255.936 74.908,255.92 C74.9560002,255.984 74.9680001,256.111999 74.944,256.304 C74.9199999,256.496001 74.8840002,256.592 74.836,256.592 C74.7719997,256.592 74.640001,256.616 74.44,256.664 C74.239999,256.712 74.036001,256.791999 73.828,256.904 C73.619999,257.016001 73.4680005,257.183999 73.372,257.408 C73.0199982,258.240004 72.7040014,258.991997 72.424,259.664 C72.1439986,260.336003 71.8720013,260.987997 71.608,261.62 C71.3439987,262.252003 71.0680014,262.907997 70.78,263.588 C70.4919986,264.268003 70.1800017,265.023996 69.844,265.856 C69.8119998,265.952 69.7240007,266.044 69.58,266.132 C69.4359993,266.22 69.3240004,266.264 69.244,266.264 C69.1319994,266.264 69.0600002,266.232 69.028,266.168 C68.2759962,264.359991 67.6160028,262.720007 67.048,261.248 C66.4799972,259.775993 65.8680033,258.384007 65.212,257.072 C65.0999994,256.831999 64.9000014,256.692 64.612,256.652 C64.3239986,256.612 64.1080007,256.592 63.964,256.592 L63.916,256.592 C63.8999999,256.528 63.8840001,256.428001 63.868,256.292 C63.8519999,256.155999 63.8679998,256.032001 63.916,255.92 C64.3960024,255.936 64.7879985,255.96 65.092,255.992 C65.3960015,256.024 65.7879976,256.04 66.268,256.04 Z M77.212,260.192 C77.1959999,261.184005 77.3639982,262.015997 77.716,262.688 C78.0680018,263.360003 78.539997,263.859998 79.132,264.188 C79.724003,264.516002 80.3639966,264.68 81.052,264.68 C81.4840022,264.68 81.8759982,264.604001 82.228,264.452 C82.5800018,264.299999 82.8759988,264.124001 83.116,263.924 C83.3560012,263.723999 83.5239995,263.568001 83.62,263.456 C83.6360001,263.456 83.6719997,263.484 83.728,263.54 C83.7840003,263.596 83.812,263.672 83.812,263.768 C83.812,263.896001 83.7640005,264.039999 83.668,264.2 C83.5239993,264.424001 83.3000015,264.691998 82.996,265.004 C82.6919985,265.316002 82.3080023,265.591999 81.844,265.832 C81.3799977,266.072001 80.844003,266.192 80.236,266.192 C79.3239954,266.192 78.5160035,265.976002 77.812,265.544 C77.1079965,265.111998 76.556002,264.528004 76.156,263.792 C75.755998,263.055996 75.556,262.232005 75.556,261.32 C75.556,260.535996 75.6959986,259.804003 75.976,259.124 C76.2560014,258.443997 76.6239977,257.852003 77.08,257.348 C77.5360023,256.843997 78.0359973,256.448001 78.58,256.16 C79.1240027,255.871999 79.6519974,255.728 80.164,255.728 C80.8680035,255.728 81.4479977,255.847999 81.904,256.088 C82.3600023,256.328001 82.7199987,256.623998 82.984,256.976 C83.2480013,257.328002 83.4319995,257.679998 83.536,258.032 C83.6400005,258.384002 83.692,258.679999 83.692,258.92 C83.692,259.256002 83.6520004,259.519999 83.572,259.712 C83.4919996,259.904001 83.3400011,260.008 83.116,260.024 C82.9719993,260.04 82.6880021,260.052 82.264,260.06 C81.8399979,260.068 81.3560027,260.08 80.812,260.096 C80.2679973,260.112 79.7320026,260.128 79.204,260.144 C78.6759974,260.16 78.2280018,260.172 77.86,260.18 C77.4919982,260.188 77.2760003,260.192 77.212,260.192 Z M77.332,259.328 L81.148,259.328 C81.2920007,259.328 81.4159995,259.288 81.52,259.208 C81.6240005,259.128 81.6839999,258.984001 81.7,258.776 C81.7160001,258.583999 81.6600006,258.312002 81.532,257.96 C81.4039994,257.607998 81.2000014,257.288001 80.92,257 C80.6399986,256.711999 80.2600024,256.568 79.78,256.568 C79.2839975,256.568 78.8760016,256.707999 78.556,256.988 C78.2359984,257.268001 77.9840009,257.587998 77.8,257.948 C77.6159991,258.308002 77.4880004,258.627999 77.416,258.908 C77.3439996,259.188001 77.3159999,259.328 77.332,259.328 Z M86.764,252.92 C86.764,252.743999 86.76,252.532001 86.752,252.284 C86.744,252.035999 86.7080003,251.840001 86.644,251.696 C86.5799997,251.519999 86.4080014,251.408 86.128,251.36 C85.8479986,251.312 85.5480016,251.288 85.228,251.288 C85.2119999,251.288 85.2,251.188001 85.192,250.988 C85.184,250.787999 85.2039998,250.68 85.252,250.664 C85.844003,250.6 86.4199972,250.484001 86.98,250.316 C87.5400028,250.147999 88.0679975,249.952001 88.564,249.728 C88.6280003,249.728 88.6879997,249.772 88.744,249.86 C88.8000003,249.948 88.828,250.032 88.828,250.112 L88.696,250.64 C88.6079996,250.992002 88.564,251.495997 88.564,252.152 L88.564,263.288 C88.564,263.640002 88.568,263.967998 88.576,264.272 C88.584,264.576002 88.6199997,264.823999 88.684,265.016 C88.7160002,265.096 88.831999,265.168 89.032,265.232 C89.232001,265.296 89.4479988,265.34 89.68,265.364 C89.9120012,265.388 90.0759995,265.4 90.172,265.4 C90.2200002,265.464 90.248,265.575999 90.256,265.736 C90.264,265.896001 90.2360003,266.008 90.172,266.072 C89.6919976,266.04 89.2680018,266.012 88.9,265.988 C88.5319982,265.964 88.1160023,265.952 87.652,265.952 C87.2039978,265.952 86.8000018,265.964 86.44,265.988 L85.18,266.072 C85.1159997,266.008 85.088,265.896001 85.096,265.736 C85.104,265.575999 85.1319998,265.464 85.18,265.4 C85.2760005,265.4 85.4359989,265.388 85.66,265.364 C85.8840011,265.34 86.099999,265.296 86.308,265.232 C86.516001,265.168 86.6279999,265.096 86.644,265.016 C86.7080003,264.823999 86.744,264.576002 86.752,264.272 C86.76,263.967998 86.764,263.640002 86.764,263.288 L86.764,252.92 Z M96.604,255.704 C97.6440052,255.704 98.5359963,255.927998 99.28,256.376 C100.024004,256.824002 100.599998,257.431996 101.008,258.2 C101.416002,258.968004 101.62,259.839995 101.62,260.816 C101.62,261.824005 101.404002,262.731996 100.972,263.54 C100.539998,264.348004 99.9480038,264.987998 99.196,265.46 C98.4439962,265.932002 97.5960047,266.168 96.652,266.168 C95.6279949,266.168 94.7360038,265.940002 93.976,265.484 C93.2159962,265.027998 92.632002,264.412004 92.224,263.636 C91.815998,262.859996 91.612,261.984005 91.612,261.008 C91.612,259.999995 91.8319978,259.096004 92.272,258.296 C92.7120022,257.495996 93.3079962,256.864002 94.06,256.4 C94.8120038,255.935998 95.6599953,255.704 96.604,255.704 Z M96.34,256.496 C95.6839967,256.496 95.156002,256.691998 94.756,257.084 C94.355998,257.476002 94.0680009,257.979997 93.892,258.596 C93.7159991,259.212003 93.628,259.855997 93.628,260.528 C93.628,261.280004 93.7519988,262.031996 94,262.784 C94.2480012,263.536004 94.6159976,264.159998 95.104,264.656 C95.5920024,265.152002 96.1879965,265.4 96.892,265.4 C97.5640034,265.4 98.095998,265.204002 98.488,264.812 C98.880002,264.419998 99.1639991,263.912003 99.34,263.288 C99.5160009,262.663997 99.604,262.024003 99.604,261.368 C99.604,260.599996 99.4760013,259.844004 99.22,259.1 C98.9639987,258.355996 98.5960024,257.736002 98.116,257.24 C97.6359976,256.743998 97.0440035,256.496 96.34,256.496 Z M109.396,255.728 C110.116004,255.728 110.743997,255.879998 111.28,256.184 C111.816003,256.488002 112.255998,256.887998 112.6,257.384 C112.944002,257.880002 113.199999,258.403997 113.368,258.956 C113.536001,259.508003 113.62,260.039997 113.62,260.552 C113.62,261.304004 113.460002,262.019997 113.14,262.7 C112.819998,263.380003 112.396003,263.979997 111.868,264.5 C111.339997,265.020003 110.752003,265.431998 110.104,265.736 C109.455997,266.040002 108.804003,266.192 108.148,266.192 C107.843998,266.192 107.540002,266.164 107.236,266.108 C106.931998,266.052 106.684001,265.992 106.492,265.928 L106.444,266.012 C106.412,266.068 106.396,266.144 106.396,266.24 L106.396,268.496 C106.396,268.848002 106.4,269.179998 106.408,269.492 C106.416,269.804002 106.452,270.055999 106.516,270.248 C106.548,270.328 106.663999,270.396 106.864,270.452 C107.064001,270.508 107.279999,270.548 107.512,270.572 C107.744001,270.596 107.908,270.608 108.004,270.608 C108.052,270.672 108.08,270.787999 108.088,270.956 C108.096,271.124001 108.068,271.24 108.004,271.304 C107.523998,271.272 107.100002,271.244 106.732,271.22 C106.363998,271.196 105.948002,271.184 105.484,271.184 C105.035998,271.184 104.632002,271.196 104.272,271.22 L103.012,271.304 C102.948,271.24 102.92,271.124001 102.928,270.956 C102.936,270.787999 102.964,270.672 103.012,270.608 C103.108,270.608 103.267999,270.596 103.492,270.572 C103.716001,270.548 103.931999,270.508 104.14,270.452 C104.348001,270.396 104.46,270.328 104.476,270.248 C104.54,270.055999 104.576,269.804002 104.584,269.492 C104.592,269.179998 104.596,268.848002 104.596,268.496 L104.596,258.92 C104.596,258.759999 104.592,258.552001 104.584,258.296 C104.576,258.039999 104.54,257.840001 104.476,257.696 C104.428,257.551999 104.292001,257.452 104.068,257.396 C103.843999,257.34 103.620001,257.308 103.396,257.3 C103.171999,257.292 103.028,257.288 102.964,257.288 C102.948,257.256 102.932,257.160001 102.916,257 C102.9,256.839999 102.916,256.728 102.964,256.664 C103.572003,256.584 104.167997,256.464001 104.752,256.304 C105.336003,256.143999 105.859998,255.936001 106.324,255.68 C106.388,255.68 106.444,255.728 106.492,255.824 C106.54,255.92 106.564,256 106.564,256.064 C106.548,256.144 106.516,256.299999 106.468,256.532 C106.42,256.764001 106.396,256.928 106.396,257.024 C106.396,257.088 106.412,257.12 106.444,257.12 C106.46,257.12 106.484,257.104 106.516,257.072 C106.708001,256.895999 106.971998,256.704001 107.308,256.496 C107.644002,256.287999 107.999998,256.108001 108.376,255.956 C108.752002,255.803999 109.091998,255.728 109.396,255.728 Z M108.388,257.12 C108.067998,257.12 107.756002,257.171999 107.452,257.276 C107.147998,257.380001 106.896001,257.503999 106.696,257.648 C106.495999,257.792001 106.396,257.919999 106.396,258.032 L106.396,263.648 C106.396,264.048002 106.519999,264.375999 106.768,264.632 C107.016001,264.888001 107.311998,265.075999 107.656,265.196 C108.000002,265.316001 108.307999,265.376 108.58,265.376 C109.236003,265.376 109.791998,265.180002 110.248,264.788 C110.704002,264.395998 111.051999,263.896003 111.292,263.288 C111.532001,262.679997 111.652,262.064003 111.652,261.44 C111.652,260.047993 111.332003,258.980004 110.692,258.236 C110.051997,257.491996 109.284004,257.12 108.388,257.12 Z M122.02,255.728 C122.724004,255.728 123.295998,255.875999 123.736,256.172 C124.176002,256.468001 124.491999,256.967996 124.684,257.672 C125.196003,257.207998 125.759997,256.768002 126.376,256.352 C126.992003,255.935998 127.579997,255.728 128.14,255.728 C128.988004,255.728 129.627998,255.903998 130.06,256.256 C130.492002,256.608002 130.783999,257.151996 130.936,257.888 C131.088001,258.624004 131.164,259.559994 131.164,260.696 L131.164,263.288 C131.164,263.640002 131.168,263.967998 131.176,264.272 C131.184,264.576002 131.22,264.823999 131.284,265.016 C131.316,265.096 131.431999,265.168 131.632,265.232 C131.832001,265.296 132.043999,265.34 132.268,265.364 C132.492001,265.388 132.652,265.4 132.748,265.4 C132.796,265.464 132.824,265.575999 132.832,265.736 C132.84,265.896001 132.812,266.008 132.748,266.072 L131.488,265.988 C131.127998,265.964 130.716002,265.952 130.252,265.952 C129.803998,265.952 129.396002,265.964 129.028,265.988 C128.659998,266.012 128.236002,266.04 127.756,266.072 C127.692,266.008 127.664,265.896001 127.672,265.736 C127.68,265.575999 127.708,265.464 127.756,265.4 C127.852,265.4 128.015999,265.388 128.248,265.364 C128.480001,265.34 128.699999,265.296 128.908,265.232 C129.116001,265.168 129.228,265.096 129.244,265.016 C129.292,264.855999 129.32,264.652001 129.328,264.404 C129.336,264.155999 129.34,263.880002 129.34,263.576 L129.34,260.768 C129.34,259.983996 129.288001,259.320003 129.184,258.776 C129.079999,258.231997 128.876002,257.816001 128.572,257.528 C128.267998,257.239999 127.796003,257.096 127.156,257.096 C126.771998,257.096 126.404002,257.195999 126.052,257.396 C125.699998,257.596001 125.412001,257.803999 125.188,258.02 C124.963999,258.236001 124.852,258.376 124.852,258.44 C124.852,258.456 124.856,258.5 124.864,258.572 C124.872,258.644 124.876,258.696 124.876,258.728 C124.908,258.952001 124.932,259.231998 124.948,259.568 C124.964,259.904002 124.972,260.183999 124.972,260.408 L124.972,263.288 C124.972,263.640002 124.976,263.967998 124.984,264.272 C124.992,264.576002 125.028,264.823999 125.092,265.016 C125.124,265.096 125.239999,265.168 125.44,265.232 C125.640001,265.296 125.851999,265.34 126.076,265.364 C126.300001,265.388 126.46,265.4 126.556,265.4 C126.604,265.464 126.632,265.575999 126.64,265.736 C126.648,265.896001 126.62,266.008 126.556,266.072 L125.296,265.988 C124.935998,265.964 124.524002,265.952 124.06,265.952 C123.611998,265.952 123.204002,265.964 122.836,265.988 C122.467998,266.012 122.044002,266.04 121.564,266.072 C121.5,266.008 121.472,265.896001 121.48,265.736 C121.488,265.575999 121.516,265.464 121.564,265.4 C121.66,265.4 121.823999,265.388 122.056,265.364 C122.288001,265.34 122.507999,265.296 122.716,265.232 C122.924001,265.168 123.036,265.096 123.052,265.016 C123.116,264.823999 123.152,264.576002 123.16,264.272 C123.168,263.967998 123.172,263.640002 123.172,263.288 L123.172,260.888 C123.172,259.463993 123.016002,258.476003 122.704,257.924 C122.391998,257.371997 121.812004,257.096 120.964,257.096 C120.611998,257.096 120.268002,257.183999 119.932,257.36 C119.595998,257.536001 119.320001,257.723999 119.104,257.924 C118.887999,258.124001 118.78,258.279999 118.78,258.392 L118.78,263.288 C118.78,263.640002 118.784,263.967998 118.792,264.272 C118.8,264.576002 118.836,264.823999 118.9,265.016 C118.932,265.096 119.047999,265.168 119.248,265.232 C119.448001,265.296 119.659999,265.34 119.884,265.364 C120.108001,265.388 120.268,265.4 120.364,265.4 C120.412,265.464 120.44,265.575999 120.448,265.736 C120.456,265.896001 120.428,266.008 120.364,266.072 L119.104,265.988 C118.743998,265.964 118.332002,265.952 117.868,265.952 C117.419998,265.952 117.012002,265.964 116.644,265.988 C116.275998,266.012 115.852002,266.04 115.372,266.072 C115.308,266.008 115.28,265.896001 115.288,265.736 C115.296,265.575999 115.324,265.464 115.372,265.4 C115.468,265.4 115.631999,265.388 115.864,265.364 C116.096001,265.34 116.315999,265.296 116.524,265.232 C116.732001,265.168 116.844,265.096 116.86,265.016 C116.924,264.823999 116.96,264.576002 116.968,264.272 C116.976,263.967998 116.98,263.640002 116.98,263.288 L116.98,259.016 C116.98,258.855999 116.976,258.632001 116.968,258.344 C116.96,258.055999 116.924,257.840001 116.86,257.696 C116.812,257.551999 116.676001,257.452 116.452,257.396 C116.227999,257.34 116.004001,257.308 115.78,257.3 C115.555999,257.292 115.412,257.288 115.348,257.288 C115.332,257.256 115.316,257.160001 115.3,257 C115.284,256.839999 115.3,256.728 115.348,256.664 C115.956003,256.584 116.547997,256.464001 117.124,256.304 C117.700003,256.143999 118.219998,255.936001 118.684,255.68 C118.748,255.68 118.808,255.728 118.864,255.824 C118.92,255.92 118.948,256 118.948,256.064 C118.948,256.112 118.936,256.223999 118.912,256.4 L118.84,256.928 C118.816,257.104001 118.804,257.224 118.804,257.288 C118.804,257.352 118.82,257.384 118.852,257.384 C118.868,257.384 118.892,257.368 118.924,257.336 C119.116001,257.159999 119.371998,256.948001 119.692,256.7 C120.012002,256.451999 120.375998,256.228001 120.784,256.028 C121.192002,255.827999 121.603998,255.728 122.02,255.728 Z M135.628,260.192 C135.612,261.184005 135.779998,262.015997 136.132,262.688 C136.484002,263.360003 136.955997,263.859998 137.548,264.188 C138.140003,264.516002 138.779997,264.68 139.468,264.68 C139.900002,264.68 140.291998,264.604001 140.644,264.452 C140.996002,264.299999 141.291999,264.124001 141.532,263.924 C141.772001,263.723999 141.94,263.568001 142.036,263.456 C142.052,263.456 142.088,263.484 142.144,263.54 C142.2,263.596 142.228,263.672 142.228,263.768 C142.228,263.896001 142.18,264.039999 142.084,264.2 C141.939999,264.424001 141.716002,264.691998 141.412,265.004 C141.107998,265.316002 140.724002,265.591999 140.26,265.832 C139.795998,266.072001 139.260003,266.192 138.652,266.192 C137.739995,266.192 136.932004,265.976002 136.228,265.544 C135.523996,265.111998 134.972002,264.528004 134.572,263.792 C134.171998,263.055996 133.972,262.232005 133.972,261.32 C133.972,260.535996 134.111999,259.804003 134.392,259.124 C134.672001,258.443997 135.039998,257.852003 135.496,257.348 C135.952002,256.843997 136.451997,256.448001 136.996,256.16 C137.540003,255.871999 138.067997,255.728 138.58,255.728 C139.284004,255.728 139.863998,255.847999 140.32,256.088 C140.776002,256.328001 141.135999,256.623998 141.4,256.976 C141.664001,257.328002 141.847999,257.679998 141.952,258.032 C142.056001,258.384002 142.108,258.679999 142.108,258.92 C142.108,259.256002 142.068,259.519999 141.988,259.712 C141.908,259.904001 141.756001,260.008 141.532,260.024 C141.387999,260.04 141.104002,260.052 140.68,260.06 C140.255998,260.068 139.772003,260.08 139.228,260.096 C138.683997,260.112 138.148003,260.128 137.62,260.144 C137.091997,260.16 136.644002,260.172 136.276,260.18 C135.907998,260.188 135.692,260.192 135.628,260.192 Z M135.748,259.328 L139.564,259.328 C139.708001,259.328 139.831999,259.288 139.936,259.208 C140.040001,259.128 140.1,258.984001 140.116,258.776 C140.132,258.583999 140.076001,258.312002 139.948,257.96 C139.819999,257.607998 139.616001,257.288001 139.336,257 C139.055999,256.711999 138.676002,256.568 138.196,256.568 C137.699998,256.568 137.292002,256.707999 136.972,256.988 C136.651998,257.268001 136.400001,257.587998 136.216,257.948 C136.031999,258.308002 135.904,258.627999 135.832,258.908 C135.76,259.188001 135.732,259.328 135.748,259.328 Z M150.652,255.728 C151.500004,255.728 152.139998,255.903998 152.572,256.256 C153.004002,256.608002 153.295999,257.151996 153.448,257.888 C153.600001,258.624004 153.676,259.559994 153.676,260.696 L153.676,263.288 C153.676,263.640002 153.68,263.967998 153.688,264.272 C153.696,264.576002 153.732,264.823999 153.796,265.016 C153.828,265.096 153.943999,265.168 154.144,265.232 C154.344001,265.296 154.555999,265.34 154.78,265.364 C155.004001,265.388 155.164,265.4 155.26,265.4 C155.308,265.464 155.336,265.575999 155.344,265.736 C155.352,265.896001 155.324,266.008 155.26,266.072 L154,265.988 C153.639998,265.964 153.228002,265.952 152.764,265.952 C152.315998,265.952 151.908002,265.964 151.54,265.988 C151.171998,266.012 150.748002,266.04 150.268,266.072 C150.204,266.008 150.176,265.896001 150.184,265.736 C150.192,265.575999 150.22,265.464 150.268,265.4 C150.364,265.4 150.527999,265.388 150.76,265.364 C150.992001,265.34 151.211999,265.296 151.42,265.232 C151.628001,265.168 151.74,265.096 151.756,265.016 C151.82,264.823999 151.856,264.576002 151.864,264.272 C151.872,263.967998 151.876,263.640002 151.876,263.288 L151.876,260.936 C151.876,259.959995 151.812001,259.196003 151.684,258.644 C151.555999,258.091997 151.324002,257.696001 150.988,257.456 C150.651998,257.215999 150.180003,257.096 149.572,257.096 C149.283999,257.096 148.968002,257.187999 148.624,257.372 C148.279998,257.556001 147.980001,257.751999 147.724,257.96 C147.467999,258.168001 147.34,258.312 147.34,258.392 L147.34,263.288 C147.34,263.640002 147.344,263.967998 147.352,264.272 C147.36,264.576002 147.396,264.823999 147.46,265.016 C147.492,265.096 147.607999,265.168 147.808,265.232 C148.008001,265.296 148.219999,265.34 148.444,265.364 C148.668001,265.388 148.828,265.4 148.924,265.4 C148.972,265.464 149,265.575999 149.008,265.736 C149.016,265.896001 148.988,266.008 148.924,266.072 L147.664,265.988 C147.303998,265.964 146.892002,265.952 146.428,265.952 C145.979998,265.952 145.572002,265.964 145.204,265.988 C144.835998,266.012 144.412002,266.04 143.932,266.072 C143.868,266.008 143.84,265.896001 143.848,265.736 C143.856,265.575999 143.884,265.464 143.932,265.4 C144.028,265.4 144.191999,265.388 144.424,265.364 C144.656001,265.34 144.875999,265.296 145.084,265.232 C145.292001,265.168 145.404,265.096 145.42,265.016 C145.484,264.823999 145.52,264.576002 145.528,264.272 C145.536,263.967998 145.54,263.640002 145.54,263.288 L145.54,259.016 C145.54,258.855999 145.536,258.632001 145.528,258.344 C145.52,258.055999 145.484,257.840001 145.42,257.696 C145.372,257.551999 145.236001,257.452 145.012,257.396 C144.787999,257.34 144.564001,257.308 144.34,257.3 C144.115999,257.292 143.972,257.288 143.908,257.288 C143.892,257.256 143.876,257.160001 143.86,257 C143.844,256.839999 143.86,256.728 143.908,256.664 C144.516003,256.584 145.107997,256.464001 145.684,256.304 C146.260003,256.143999 146.779998,255.936001 147.244,255.68 C147.308,255.68 147.368,255.728 147.424,255.824 C147.48,255.92 147.508,256 147.508,256.064 C147.508,256.112 147.496,256.235999 147.472,256.436 C147.448,256.636001 147.424,256.831999 147.4,257.024 C147.376,257.216001 147.364,257.344 147.364,257.408 C147.364,257.472 147.38,257.504 147.412,257.504 C147.428,257.504 147.452,257.488 147.484,257.456 C147.644001,257.279999 147.903998,257.056001 148.264,256.784 C148.624002,256.511999 149.019998,256.268001 149.452,256.052 C149.884002,255.835999 150.283998,255.728 150.652,255.728 Z M159.292,255.872 L162.316,255.872 C162.396,255.872 162.436,255.959999 162.436,256.136 C162.436,256.376001 162.324001,256.607999 162.1,256.832 L159.292,256.832 L159.292,262.976 C159.292,264.256006 159.811995,264.896 160.852,264.896 C161.204002,264.896 161.523999,264.824001 161.812,264.68 C162.100001,264.535999 162.284,264.432 162.364,264.368 C162.412,264.384 162.436,264.432 162.436,264.512 C162.436,264.688001 162.404,264.808 162.34,264.872 C162.227999,265.000001 162.056001,265.167999 161.824,265.376 C161.591999,265.584001 161.316002,265.767999 160.996,265.928 C160.675998,266.088001 160.324002,266.168 159.94,266.168 C159.539998,266.168 159.152002,266.096001 158.776,265.952 C158.399998,265.807999 158.092001,265.552002 157.852,265.184 C157.611999,264.815998 157.492,264.296003 157.492,263.624 L157.492,256.832 L156.124,256.832 C156.092,256.832 156.068,256.804 156.052,256.748 C156.036,256.692 156.028,256.648 156.028,256.616 C156.028,256.584 156.076,256.508001 156.172,256.388 C156.268,256.267999 156.367999,256.152001 156.472,256.04 L156.628,255.872 L157.492,255.872 L157.492,254.408 C157.652001,254.231999 157.839999,254.028001 158.056,253.796 C158.272001,253.563999 158.467999,253.348001 158.644,253.148 C158.820001,252.947999 158.916,252.84 158.932,252.824 C158.996,252.76 159.072,252.728 159.16,252.728 C159.248,252.728 159.292,252.752 159.292,252.8 L159.292,255.872 Z" id="Consulting&amp;Development" fill="#FFFFFF" fill-rule="nonzero"></path>
                <g id="Group-5" transform="translate(31.000000, 29.000000)" fill="#FFFFFF">
                    <g id="Group-2" transform="translate(45.000000, 0.000000)">
                        <rect id="Rectangle" x="0" y="0" width="24" height="24"></rect>
                        <rect id="Rectangle-Copy" x="26" y="0" width="24" height="24"></rect>
                        <rect id="Rectangle-Copy-2" x="0" y="26" width="24" height="24"></rect>
                        <rect id="Rectangle-Copy-3" x="26" y="26" width="24" height="24"></rect>
                    </g>
                    <path d="M18.7109375,74 L16.1757812,74 L16.1757812,64.03125 C16.1757812,63.2148397 16.225911,62.2158262 16.3261719,61.0341797 L16.2832031,61.0341797 C16.1256503,61.7073601 15.9860032,62.1907537 15.8642578,62.484375 L11.2666016,74 L9.50488281,74 L4.89648438,62.5703125 C4.76757748,62.2337223 4.63151113,61.7216831 4.48828125,61.0341797 L4.4453125,61.0341797 C4.50260445,61.6500682 4.53125,62.656243 4.53125,64.0527344 L4.53125,74 L2.16796875,74 L2.16796875,58.5957031 L5.76660156,58.5957031 L9.81640625,68.8544922 C10.1243505,69.6422565 10.3248693,70.2294903 10.4179688,70.6162109 L10.4716797,70.6162109 C10.736655,69.8069621 10.9514966,69.2054056 11.1162109,68.8115234 L15.2412109,58.5957031 L18.7109375,58.5957031 L18.7109375,74 Z M23.4804688,60.6904297 C23.0722636,60.6904297 22.723146,60.557944 22.4331055,60.2929688 C22.143065,60.0279935 21.9980469,59.6914083 21.9980469,59.2832031 C21.9980469,58.874998 22.143065,58.5348321 22.4331055,58.2626953 C22.723146,57.9905585 23.0722636,57.8544922 23.4804688,57.8544922 C23.9029969,57.8544922 24.2610662,57.9905585 24.5546875,58.2626953 C24.8483088,58.5348321 24.9951172,58.874998 24.9951172,59.2832031 C24.9951172,59.6699238 24.8483088,60.0011379 24.5546875,60.2768555 C24.2610662,60.552573 23.9029969,60.6904297 23.4804688,60.6904297 Z M24.7158203,74 L22.2236328,74 L22.2236328,63 L24.7158203,63 L24.7158203,74 Z M35.8447266,73.4951172 C34.9638628,74.0035833 33.921881,74.2578125 32.71875,74.2578125 C31.0859293,74.2578125 29.7682342,73.7475637 28.765625,72.7270508 C27.7630158,71.7065379 27.2617188,70.3834717 27.2617188,68.7578125 C27.2617188,66.9459545 27.8006131,65.4904026 28.878418,64.3911133 C29.9562228,63.2918239 31.3974519,62.7421875 33.2021484,62.7421875 C34.2047576,62.7421875 35.0891889,62.9176415 35.8554688,63.2685547 L35.8554688,65.5888672 C35.0891889,65.0159477 34.2727908,64.7294922 33.40625,64.7294922 C32.3535104,64.7294922 31.4905633,65.0857712 30.8173828,65.7983398 C30.1442024,66.5109085 29.8076172,67.4436791 29.8076172,68.5966797 C29.8076172,69.7353573 30.1245085,70.6341113 30.7583008,71.2929688 C31.392093,71.9518262 32.2425077,72.28125 33.3095703,72.28125 C34.2047571,72.28125 35.0498007,71.9625683 35.8447266,71.3251953 L35.8447266,73.4951172 Z M44.6962891,65.3740234 C44.3955063,65.1376941 43.9622424,65.0195312 43.3964844,65.0195312 C42.6588505,65.0195312 42.0429712,65.3525357 41.5488281,66.0185547 C41.054685,66.6845736 40.8076172,67.5904891 40.8076172,68.7363281 L40.8076172,74 L38.3154297,74 L38.3154297,63 L40.8076172,63 L40.8076172,65.2666016 L40.8505859,65.2666016 C41.0940767,64.4931602 41.4682592,63.8898134 41.9731445,63.456543 C42.4780299,63.0232726 43.0419891,62.8066406 43.6650391,62.8066406 C44.1162132,62.8066406 44.4599598,62.8746738 44.6962891,63.0107422 L44.6962891,65.3740234 Z M51.1416016,74.2578125 C49.4443275,74.2578125 48.089035,73.743983 47.0756836,72.7163086 C46.0623322,71.6886342 45.5556641,70.3261804 45.5556641,68.6289062 C45.5556641,66.7812408 46.0838163,65.3382213 47.1401367,64.2998047 C48.1964571,63.261388 49.6197827,62.7421875 51.4101562,62.7421875 C53.1289148,62.7421875 54.4680942,63.2470653 55.4277344,64.2568359 C56.3873746,65.2666066 56.8671875,66.6666577 56.8671875,68.4570312 C56.8671875,70.2115973 56.3497773,71.6170195 55.3149414,72.6733398 C54.2801055,73.7296602 52.8890061,74.2578125 51.1416016,74.2578125 Z M51.2597656,64.7294922 C50.2858024,64.7294922 49.5159533,65.0696581 48.9501953,65.75 C48.3844373,66.4303419 48.1015625,67.3684836 48.1015625,68.5644531 C48.1015625,69.7174537 48.388018,70.6251594 48.9609375,71.2875977 C49.533857,71.9500359 50.3001254,72.28125 51.2597656,72.28125 C52.2408903,72.28125 52.9946263,71.9554069 53.5209961,71.3037109 C54.0473659,70.652015 54.3105469,69.7246154 54.3105469,68.5214844 C54.3105469,67.3111919 54.0473659,66.3766309 53.5209961,65.7177734 C52.9946263,65.058916 52.2408903,64.7294922 51.2597656,64.7294922 Z M58.7148438,73.65625 L58.7148438,71.3466797 C59.645838,72.0556676 60.673497,72.4101562 61.7978516,72.4101562 C63.3017653,72.4101562 64.0537109,71.9661503 64.0537109,71.078125 C64.0537109,70.8274727 63.9892585,70.6144215 63.8603516,70.4389648 C63.7314447,70.2635082 63.557781,70.1077481 63.3393555,69.9716797 C63.1209299,69.8356113 62.86312,69.7138677 62.565918,69.6064453 C62.268716,69.4990229 61.9375018,69.3772793 61.5722656,69.2412109 C61.1210915,69.0621736 60.7146828,68.8723968 60.3530273,68.671875 C59.9913719,68.4713532 59.6905936,68.2439791 59.4506836,67.9897461 C59.2107735,67.7355131 59.0299485,67.4472672 58.9082031,67.125 C58.7864577,66.8027328 58.7255859,66.42676 58.7255859,65.9970703 C58.7255859,65.4671197 58.8509102,64.9998393 59.1015625,64.5952148 C59.3522148,64.1905904 59.6888,63.8504246 60.1113281,63.574707 C60.5338563,63.2989895 61.0136692,63.0913093 61.5507812,62.9516602 C62.0878933,62.812011 62.6429008,62.7421875 63.2158203,62.7421875 C64.2327525,62.7421875 65.1422486,62.8961573 65.9443359,63.2041016 L65.9443359,65.3847656 C65.1708946,64.8548151 64.2828826,64.5898438 63.2802734,64.5898438 C62.9651677,64.5898438 62.6805026,64.62207 62.4262695,64.6865234 C62.1720365,64.7509769 61.9554045,64.8404942 61.7763672,64.9550781 C61.5973298,65.069662 61.4576828,65.2075187 61.3574219,65.3686523 C61.257161,65.529786 61.2070312,65.7070303 61.2070312,65.9003906 C61.2070312,66.1367199 61.257161,66.3372388 61.3574219,66.5019531 C61.4576828,66.6666675 61.6062816,66.8116856 61.8032227,66.9370117 C62.0001637,67.0623379 62.2364895,67.1769201 62.512207,67.2807617 C62.7879246,67.3846034 63.1048159,67.4973952 63.4628906,67.6191406 C63.9355492,67.812501 64.3598614,68.0094391 64.7358398,68.2099609 C65.1118183,68.4104828 65.4322903,68.6378568 65.6972656,68.8920898 C65.9622409,69.1463229 66.1663404,69.4399397 66.3095703,69.7729492 C66.4528002,70.1059587 66.5244141,70.5016253 66.5244141,70.9599609 C66.5244141,71.5185575 66.3955091,72.0055318 66.1376953,72.4208984 C65.8798815,72.8362651 65.536135,73.1800117 65.1064453,73.4521484 C64.6767557,73.7242852 64.1808296,73.9265944 63.6186523,74.059082 C63.0564751,74.1915697 62.4638703,74.2578125 61.8408203,74.2578125 C60.6376893,74.2578125 59.5957075,74.0572937 58.7148438,73.65625 Z M73.7646484,74.2578125 C72.0673743,74.2578125 70.7120819,73.743983 69.6987305,72.7163086 C68.685379,71.6886342 68.1787109,70.3261804 68.1787109,68.6289062 C68.1787109,66.7812408 68.7068632,65.3382213 69.7631836,64.2998047 C70.819504,63.261388 72.2428296,62.7421875 74.0332031,62.7421875 C75.7519617,62.7421875 77.091141,63.2470653 78.0507812,64.2568359 C79.0104215,65.2666066 79.4902344,66.6666577 79.4902344,68.4570312 C79.4902344,70.2115973 78.9728242,71.6170195 77.9379883,72.6733398 C76.9031524,73.7296602 75.512053,74.2578125 73.7646484,74.2578125 Z M73.8828125,64.7294922 C72.9088493,64.7294922 72.1390002,65.0696581 71.5732422,65.75 C71.0074842,66.4303419 70.7246094,67.3684836 70.7246094,68.5644531 C70.7246094,69.7174537 71.0110648,70.6251594 71.5839844,71.2875977 C72.1569039,71.9500359 72.9231723,72.28125 73.8828125,72.28125 C74.8639372,72.28125 75.6176731,71.9554069 76.144043,71.3037109 C76.6704128,70.652015 76.9335938,69.7246154 76.9335938,68.5214844 C76.9335938,67.3111919 76.6704128,66.3766309 76.144043,65.7177734 C75.6176731,65.058916 74.8639372,64.7294922 73.8828125,64.7294922 Z M87.8798828,59.7451172 C87.5432926,59.5517568 87.1601584,59.4550781 86.7304688,59.4550781 C85.5201762,59.4550781 84.9150391,60.1389906 84.9150391,61.5068359 L84.9150391,63 L87.4716797,63 L87.4716797,64.9550781 L84.9257812,64.9550781 L84.9257812,74 L82.4335938,74 L82.4335938,64.9550781 L80.5537109,64.9550781 L80.5537109,63 L82.4335938,63 L82.4335938,61.2167969 C82.4335938,60.0566348 82.8131472,59.1417677 83.5722656,58.472168 C84.331384,57.8025683 85.2802677,57.4677734 86.4189453,57.4677734 C87.0348338,57.4677734 87.5218081,57.5358066 87.8798828,57.671875 L87.8798828,59.7451172 Z M95.453125,73.8818359 C94.9661434,74.1253267 94.3251993,74.2470703 93.5302734,74.2470703 C91.3961482,74.2470703 90.3291016,73.222992 90.3291016,71.1748047 L90.3291016,64.9550781 L88.4921875,64.9550781 L88.4921875,63 L90.3291016,63 L90.3291016,60.4541016 L92.8212891,59.7451172 L92.8212891,63 L95.453125,63 L95.453125,64.9550781 L92.8212891,64.9550781 L92.8212891,70.4550781 C92.8212891,71.1067741 92.9394519,71.5722642 93.1757812,71.8515625 C93.4121106,72.1308608 93.8059868,72.2705078 94.3574219,72.2705078 C94.77995,72.2705078 95.1451808,72.1487642 95.453125,71.9052734 L95.453125,73.8818359 Z M103.348633,73.4306641 L103.348633,71.0888672 C104.351242,71.883793 105.482741,72.28125 106.743164,72.28125 C107.767258,72.28125 108.585446,72.0485049 109.197754,71.5830078 C109.810062,71.1175107 110.116211,70.4873087 110.116211,69.6923828 C110.116211,67.9449782 108.780612,67.0712891 106.109375,67.0712891 L104.916992,67.0712891 L104.916992,65.0732422 L106.055664,65.0732422 C108.426119,65.0732422 109.611328,64.2496827 109.611328,62.6025391 C109.611328,61.0843023 108.687509,60.3251953 106.839844,60.3251953 C105.808589,60.3251953 104.838221,60.6940067 103.928711,61.4316406 L103.928711,59.21875 C104.974289,58.6315075 106.209628,58.3378906 107.634766,58.3378906 C109.002611,58.3378906 110.098303,58.6816372 110.921875,59.3691406 C111.745447,60.0566441 112.157227,60.9374946 112.157227,62.0117188 C112.157227,64.0384216 111.125987,65.341794 109.063477,65.921875 L109.063477,65.9648438 C110.173508,66.0722662 111.050778,66.4607714 111.695312,67.1303711 C112.339847,67.7999708 112.662109,68.6360627 112.662109,69.6386719 C112.662109,71.0208402 112.142909,72.1362262 111.104492,72.9848633 C110.066076,73.8335003 108.698251,74.2578125 107.000977,74.2578125 C105.475578,74.2578125 104.258143,73.9820991 103.348633,73.4306641 Z M125.681641,69.0478516 C125.681641,69.8212929 125.554526,70.5266895 125.300293,71.1640625 C125.04606,71.8014355 124.693362,72.3510719 124.242188,72.8129883 C123.791013,73.2749047 123.2557,73.632974 122.63623,73.887207 C122.016761,74.1414401 121.345381,74.2685547 120.62207,74.2685547 C119.848629,74.2685547 119.137861,74.1181656 118.489746,73.8173828 C117.841631,73.5166001 117.283043,73.0690134 116.813965,72.4746094 C116.344887,71.8802054 115.981447,71.1407922 115.723633,70.2563477 C115.465819,69.3719031 115.336914,68.3460345 115.336914,67.1787109 C115.336914,65.7535736 115.506997,64.4895888 115.847168,63.3867188 C116.187339,62.2838487 116.654619,61.3600298 117.249023,60.6152344 C117.843427,59.870439 118.541663,59.3046894 119.34375,58.9179688 C120.145837,58.5312481 121.012365,58.3378906 121.943359,58.3378906 C122.52344,58.3378906 123.051593,58.3772783 123.527832,58.4560547 C124.004071,58.5348311 124.385415,58.6422519 124.671875,58.7783203 L124.671875,61.0234375 C124.306639,60.8372387 123.916343,60.6796881 123.500977,60.5507812 C123.08561,60.4218744 122.609378,60.3574219 122.072266,60.3574219 C121.4707,60.3574219 120.915693,60.4791654 120.407227,60.7226562 C119.89876,60.9661471 119.460126,61.322426 119.091309,61.7915039 C118.722492,62.2605818 118.432455,62.8406541 118.221191,63.5317383 C118.009927,64.2228225 117.900716,65.0195267 117.893555,65.921875 L117.958008,65.921875 C118.287437,65.4134089 118.733233,65.0123713 119.29541,64.71875 C119.857587,64.4251287 120.518225,64.2783203 121.277344,64.2783203 C121.950524,64.2783203 122.557452,64.3875315 123.098145,64.605957 C123.638837,64.8243826 124.100747,65.1394836 124.483887,65.5512695 C124.867027,65.9630554 125.162434,66.4643525 125.370117,67.0551758 C125.577801,67.645999 125.681641,68.3102177 125.681641,69.0478516 Z M123.167969,69.2519531 C123.167969,68.8079405 123.116049,68.4033221 123.012207,68.0380859 C122.908365,67.6728497 122.750815,67.3595391 122.539551,67.0981445 C122.328287,66.83675 122.063315,66.6344408 121.744629,66.4912109 C121.425942,66.3479811 121.05176,66.2763672 120.62207,66.2763672 C120.192381,66.2763672 119.814618,66.3533521 119.48877,66.5073242 C119.162922,66.6612963 118.888999,66.8636055 118.666992,67.1142578 C118.444986,67.3649101 118.278484,67.6513656 118.16748,67.9736328 C118.056477,68.2959 118.000977,68.6253238 118.000977,68.9619141 C118.000977,69.3271503 118.052897,69.7013327 118.156738,70.0844727 C118.26058,70.4676126 118.419921,70.8167302 118.634766,71.1318359 C118.84961,71.4469417 119.123533,71.7065419 119.456543,71.9106445 C119.789552,72.1147471 120.185219,72.2167969 120.643555,72.2167969 C121.05176,72.2167969 121.41341,72.1416023 121.728516,71.9912109 C122.043621,71.8408196 122.306802,71.6331393 122.518066,71.3681641 C122.72933,71.1031888 122.890462,70.7898781 123.001465,70.4282227 C123.112468,70.0665672 123.167969,69.6744813 123.167969,69.2519531 Z M128.18457,73.6455078 L128.18457,71.25 C129.194341,71.9303419 130.218419,72.2705078 131.256836,72.2705078 C132.302414,72.2705078 133.143877,72.0037462 133.78125,71.4702148 C134.418623,70.9366835 134.737305,70.2259159 134.737305,69.3378906 C134.737305,68.4641883 134.413252,67.7838566 133.765137,67.296875 C133.117021,66.8098934 132.187832,66.5664062 130.977539,66.5664062 C130.562172,66.5664062 129.720709,66.6093746 128.453125,66.6953125 L129.000977,58.5957031 L136.584961,58.5957031 L136.584961,60.7226562 L131.074219,60.7226562 L130.816406,64.5791016 C131.310549,64.5504556 131.758136,64.5361328 132.15918,64.5361328 C133.792,64.5361328 135.054195,64.9550739 135.945801,65.7929688 C136.837407,66.6308636 137.283203,67.7766854 137.283203,69.2304688 C137.283203,70.755867 136.772954,71.9786738 135.752441,72.8989258 C134.731928,73.8191778 133.330087,74.2792969 131.546875,74.2792969 C130.042961,74.2792969 128.922204,74.068036 128.18457,73.6455078 Z" id="Microsoft365" fill-rule="nonzero"></path>
                </g>
            </g>
        </g>
    </g>
</svg>