<?xml version="1.0" encoding="UTF-8"?>
<svg width="278px" height="80px" viewBox="0 0 278 80" version="1.1" xmlns="http://www.w3.org/2000/svg" xmlns:xlink="http://www.w3.org/1999/xlink">
    <!-- Generator: Sketch 53.2 (72643) - https://sketchapp.com -->
    <title>Work</title>
    <desc>Created with Sketch.</desc>
    <g id="WWW" stroke="none" stroke-width="1" fill="none" fill-rule="evenodd" opacity="0.497922625">
        <g id="WebServices-Copy" transform="translate(-581.000000, -39.000000)" fill="#FFFFFF" fill-rule="nonzero">
            <path d="M597.52818,43.5217391 C599.924328,43.5217391 602.648938,43.4637687 605.702093,43.3478261 C608.755249,43.2318835 611.363918,43.0579722 613.52818,42.826087 C613.760066,43.1352672 613.89533,43.811589 613.933978,44.8550725 C613.972625,45.8985559 613.837361,46.6135246 613.52818,47 C613.06441,47 612.272147,47.0579704 611.151369,47.173913 C610.03059,47.2898557 609.006446,47.5603843 608.078905,47.9855072 C607.151364,48.4106301 606.687601,49.0869519 606.687601,50.0144928 C606.687601,50.9420336 606.977453,52.1787362 607.557166,53.7246377 C608.136879,55.2705391 608.735907,56.8550643 609.354267,58.4782609 C610.590989,61.9565391 611.866338,65.4927357 613.180354,69.0869565 C614.494371,72.6811774 615.692426,76.0048157 616.774557,79.057971 C617.856688,82.1111264 618.745568,84.5845316 619.441224,86.4782609 L620.484702,89.3188406 L621.412238,86.7681159 C622.030599,85.0676243 622.822862,82.8261009 623.78905,80.0434783 C624.755238,77.2608557 625.81803,74.2270696 626.977456,70.942029 C628.136882,67.6569884 629.296291,64.4106441 630.455717,61.2028986 C631.615143,57.995153 632.639287,55.1352783 633.52818,52.6231884 C634.417074,50.1110986 635.093396,48.2367212 635.557166,47 C635.943641,45.917869 636.465375,44.9516951 637.122383,44.1014493 C637.779391,43.2512035 638.417066,42.826087 639.035427,42.826087 C639.576492,42.826087 640.040256,43.4057913 640.426731,44.5652174 C641.895338,48.3526759 643.499186,52.4492533 645.238325,56.8550725 C646.977465,61.2608916 648.697254,65.6279977 650.397746,69.9565217 C652.098237,74.2850458 653.663439,78.2270354 655.093398,81.7826087 C656.523357,85.338182 657.663442,88.1787333 658.513688,90.3043478 L659.78905,93.4927536 L660.484702,91.2318841 C660.948473,89.7246301 661.566824,87.7536354 662.339775,85.3188406 C663.112725,82.8840458 663.943635,80.2560528 664.832528,77.4347826 C665.721422,74.6135125 666.590978,71.888902 667.441224,69.2608696 C668.29147,66.6328371 669.025762,64.3719901 669.644122,62.4782609 C670.262483,60.5845316 670.648953,59.3285055 670.803543,58.7101449 C671.267313,57.2415386 671.769724,55.6763368 672.310789,54.0144928 C672.851855,52.3526487 673.122383,50.9033878 673.122383,49.6666667 C673.122383,48.971011 672.484709,48.4299536 671.20934,48.0434783 C669.933971,47.6570029 668.600651,47.3864742 667.20934,47.2318841 C665.818029,47.0772939 664.851855,47 664.310789,47 C664.001609,46.6135246 663.866345,45.8985559 663.904992,44.8550725 C663.94364,43.811589 664.078904,43.1352672 664.310789,42.826087 C667.016117,43.0579722 669.276964,43.2318835 671.093398,43.3478261 C672.909832,43.4637687 675.132032,43.5217391 677.760065,43.5217391 C680.233507,43.5217391 682.378413,43.4251217 684.194847,43.2318841 C686.011281,43.0386464 688.078893,42.903382 690.397746,42.826087 C690.629631,43.1352672 690.764895,43.811589 690.803543,44.8550725 C690.84219,45.8985559 690.706926,46.6135246 690.397746,47 C689.933975,47 689.161036,47.038647 688.078905,47.115942 C686.996774,47.1932371 685.914659,47.3671484 684.832528,47.6376812 C683.750397,47.9082139 682.977458,48.3526539 682.513688,48.9710145 C681.663442,50.1304406 680.832532,51.4830841 680.020934,53.0289855 C679.209336,54.574887 678.494367,56.352647 677.876007,58.3623188 C676.09822,63.6956788 674.475048,68.5845188 673.006441,73.0289855 C671.537835,77.4734522 670.088574,81.7825878 668.658615,85.9565217 C667.228656,90.1304557 665.760072,94.4009443 664.252818,98.7681159 C662.745564,103.135288 661.103069,107.946834 659.325282,113.202899 C658.784216,114.59421 658.069248,115.908206 657.180354,117.144928 C656.291461,118.381649 655.499198,119 654.803543,119 C654.262477,119 653.837361,118.826089 653.52818,118.478261 C653.219,118.130433 652.909825,117.763287 652.600644,117.376812 L633.933978,70.4202899 L633.006441,73.2028986 C632.388081,75.0579803 631.557171,77.5313855 630.513688,80.6231884 C629.470204,83.7149913 628.310796,87.1159235 627.035427,90.826087 C625.760058,94.5362504 624.465385,98.3043287 623.151369,102.130435 C621.837353,105.956541 620.639297,109.492737 619.557166,112.73913 C619.402576,113.125606 619.0934,113.840574 618.62963,114.884058 C618.165859,115.927541 617.663449,116.874392 617.122383,117.724638 C616.581318,118.574883 616.078907,119 615.615137,119 C615.074071,119 614.648955,118.826089 614.339775,118.478261 C614.030594,118.130433 613.721419,117.763287 613.412238,117.376812 L593.006441,59.9855072 C592.465376,58.2850157 591.808378,56.603873 591.035427,54.942029 C590.262476,53.2801849 589.605478,51.869571 589.064412,50.7101449 C588.600642,49.705309 587.847026,48.9516933 586.803543,48.4492754 C585.760059,47.9468574 584.735915,47.5797113 583.731079,47.3478261 C582.726243,47.1159409 581.953304,47 581.412238,47 C581.103058,46.6135246 580.967794,45.8985559 581.006441,44.8550725 C581.045089,43.811589 581.180353,43.1352672 581.412238,42.826087 C583.653796,43.0579722 586.301112,43.2318835 589.354267,43.3478261 C592.407423,43.4637687 595.132033,43.5217391 597.52818,43.5217391 Z M711.383253,67.057971 C716.639318,67.057971 721.257629,68.1594093 725.238325,70.3623188 C729.219022,72.5652284 732.330102,75.5603675 734.571659,79.3478261 C736.813216,83.1352846 737.933978,87.4250968 737.933978,92.2173913 C737.933978,96.9323907 736.774569,101.299497 734.455717,105.318841 C732.136865,109.338184 729.006461,112.545882 725.064412,114.942029 C721.122364,117.338176 716.639317,118.536232 711.615137,118.536232 C706.359072,118.536232 701.721437,117.41547 697.702093,115.173913 C693.68275,112.932356 690.552346,109.879246 688.310789,106.014493 C686.069232,102.149739 684.94847,97.859927 684.94847,93.1449275 C684.94847,88.352633 686.127202,83.985527 688.484702,80.0434783 C690.842202,76.1014296 694.011252,72.9517026 697.991949,70.5942029 C701.972645,68.2367032 706.436368,67.057971 711.383253,67.057971 Z M710.107891,71.8115942 C708.020924,71.8115942 706.378428,72.410622 705.180354,73.6086957 C703.982281,74.8067693 703.093401,76.371971 702.513688,78.3043478 C701.933975,80.2367246 701.547505,82.3043368 701.354267,84.5072464 C701.16103,86.7101559 701.064412,88.855062 701.064412,90.942029 C701.064412,93.4154713 701.296294,95.9854939 701.760065,98.6521739 C702.223835,101.318854 702.91948,103.792259 703.847021,106.072464 C704.774562,108.352668 705.972618,110.207722 707.441224,111.637681 C708.90983,113.06764 710.68759,113.782609 712.774557,113.782609 C714.861524,113.782609 716.50402,113.183581 717.702093,111.985507 C718.900167,110.787434 719.808371,109.241555 720.426731,107.347826 C721.045092,105.454097 721.450885,103.405808 721.644122,101.202899 C721.83736,98.999989 721.933978,96.8937299 721.933978,94.884058 C721.933978,92.3333206 721.702096,89.724651 721.238325,87.057971 C720.774555,84.391291 720.059586,81.8985623 719.093398,79.5797101 C718.127209,77.260858 716.90983,75.3864806 715.441224,73.9565217 C713.972618,72.5265629 712.194858,71.8115942 710.107891,71.8115942 Z M782.687601,67.057971 C784.156207,67.057971 785.508851,67.2125588 786.745572,67.5217391 C787.982293,67.8309194 788.987114,68.3333299 789.760065,69.0289855 C789.99195,69.3381658 790.262478,70.033811 790.571659,71.115942 C790.880839,72.198073 791.035427,73.3574817 791.035427,74.5942029 C791.035427,75.8309241 790.745575,77.1449206 790.165862,78.5362319 C789.586149,79.9275432 788.793886,81.1062754 787.78905,82.0724638 C786.784214,83.0386522 785.624805,83.5217391 784.310789,83.5217391 C783.305953,83.5217391 782.417073,83.19324 781.644122,82.5362319 C780.871172,81.8792238 780.13688,81.2801959 779.441224,80.7391304 C778.822863,80.1207699 778.223836,79.560389 777.644122,79.057971 C777.064409,78.555553 776.272147,78.3043478 775.267311,78.3043478 C773.721409,78.3043478 772.388089,78.9033757 771.267311,80.1014493 C770.146532,81.2995229 769.276976,82.6135194 768.658615,84.0434783 C768.040255,85.4734371 767.731079,86.6135223 767.731079,87.4637681 L767.731079,101.26087 C767.731079,103.347837 767.769726,105.357478 767.847021,107.289855 C767.924316,109.222232 768.194845,110.76811 768.658615,111.927536 C768.8905,112.391307 769.586146,112.777776 770.745572,113.086957 C771.904998,113.396137 773.122377,113.608695 774.397746,113.724638 C775.673114,113.84058 776.542671,113.937198 777.006441,114.014493 C777.315622,114.400968 777.450886,115.096613 777.412238,116.101449 C777.373591,117.106285 777.238327,117.80193 777.006441,118.188406 C774.842179,117.956521 772.117569,117.763286 768.832528,117.608696 C765.547488,117.454106 762.706936,117.376812 760.310789,117.376812 C757.914642,117.376812 755.305972,117.454106 752.484702,117.608696 C749.663432,117.763286 747.132056,117.956521 744.890499,118.188406 C744.658614,117.80193 744.52335,117.106285 744.484702,116.101449 C744.446055,115.096613 744.581319,114.400968 744.890499,114.014493 C745.431565,113.937198 746.223827,113.84058 747.267311,113.724638 C748.310794,113.608695 749.334939,113.396137 750.339775,113.086957 C751.344611,112.777776 751.924315,112.391307 752.078905,111.927536 C752.542676,110.76811 752.813204,109.299526 752.890499,107.521739 C752.967794,105.743952 753.006441,103.657017 753.006441,101.26087 L753.006441,88.2753623 C753.006441,87.888887 752.987118,87.0579774 752.94847,85.7826087 C752.909823,84.50724 752.813205,83.1932435 752.658615,81.8405797 C752.504025,80.4879159 752.272143,79.5410655 751.962963,79 C751.653783,78.3816394 750.977461,77.9178759 749.933978,77.6086957 C748.890494,77.2995154 747.86635,77.0676336 746.861514,76.9130435 C745.856678,76.7584533 745.19968,76.6811594 744.890499,76.6811594 C744.813204,76.6038643 744.73591,76.2753652 744.658615,75.6956522 C744.58132,75.1159391 744.58132,74.5555583 744.658615,74.0144928 C744.73591,73.4734272 744.851851,73.2028986 745.006441,73.2028986 C747.866359,72.9710133 750.70691,72.5072499 753.52818,71.8115942 C756.349451,71.1159386 758.95812,70.3429994 761.354267,69.4927536 C763.750415,68.6425078 765.644116,67.8695687 767.035427,67.173913 C767.421902,67.2512081 767.847019,67.5603838 768.310789,68.1014493 C768.77456,68.6425148 769.006441,68.9903374 769.006441,69.1449275 C768.929146,69.4541078 768.793882,70.227047 768.600644,71.4637681 C768.407407,72.7004893 768.233495,73.9758388 768.078905,75.2898551 C767.924315,76.6038713 767.847021,77.5313983 767.847021,78.0724638 C767.847021,78.3816441 767.943638,78.5362319 768.136876,78.5362319 C768.330114,78.5362319 768.465378,78.4975849 768.542673,78.4202899 C769.470214,76.7970933 770.571652,75.0966272 771.847021,73.3188406 C773.12239,71.5410539 774.648945,70.0531461 776.426731,68.8550725 C778.204518,67.6569988 780.291453,67.057971 782.687601,67.057971 Z M815.962963,101.26087 C815.962963,103.657017 816.00161,105.743952 816.078905,107.521739 C816.1562,109.299526 816.426729,110.76811 816.890499,111.927536 C817.122385,112.391307 817.721412,112.777776 818.687601,113.086957 C819.653789,113.396137 820.697257,113.608695 821.818036,113.724638 C822.938814,113.84058 823.731077,113.937198 824.194847,114.014493 C824.504027,114.400968 824.639292,115.096613 824.600644,116.101449 C824.561997,117.106285 824.426732,117.80193 824.194847,118.188406 C822.030585,117.956521 819.499209,117.763286 816.600644,117.608696 C813.702079,117.454106 811.054762,117.376812 808.658615,117.376812 C806.262468,117.376812 803.634475,117.454106 800.774557,117.608696 C797.91464,117.763286 795.36394,117.956521 793.122383,118.188406 C792.890498,117.80193 792.755234,117.106285 792.716586,116.101449 C792.677939,115.096613 792.813203,114.400968 793.122383,114.014493 C793.663449,113.937198 794.475035,113.84058 795.557166,113.724638 C796.639297,113.608695 797.682765,113.396137 798.687601,113.086957 C799.692437,112.777776 800.272141,112.391307 800.426731,111.927536 C800.813207,110.9227 801.045088,109.647351 801.122383,108.101449 C801.199678,106.555548 801.238325,104.777788 801.238325,102.768116 L801.238325,54.5362319 C801.238325,53.5313959 801.199678,52.6231925 801.122383,51.8115942 C801.045088,50.9999959 800.813207,50.0917925 800.426731,49.0869565 C800.272141,48.6231861 799.731084,48.2367165 798.803543,47.9275362 C797.876002,47.6183559 796.909828,47.4057977 795.904992,47.2898551 C794.900156,47.1739125 794.165864,47.115942 793.702093,47.115942 C793.470208,47.115942 793.334944,46.5555612 793.296296,45.4347826 C793.257649,44.3140041 793.392913,43.6376823 793.702093,43.4057971 C797.953322,43.0193217 801.682754,42.4782643 804.890499,41.7826087 C808.098245,41.086953 810.648944,40.4492783 812.542673,39.8695652 C814.436402,39.2898522 815.4219,39 815.499195,39 C815.88567,39.0772951 816.252816,39.3478238 816.600644,39.8115942 C816.948472,40.2753646 817.16103,40.6618342 817.238325,40.9710145 L816.94847,42.942029 C816.755233,44.2560452 816.542674,45.8019235 816.310789,47.5797101 C816.078904,49.3574968 815.962963,51.0193159 815.962963,52.5652174 L815.847021,91.057971 C816.851857,90.6714957 818.049913,90.0338209 819.441224,89.1449275 C820.832535,88.2560342 822.494354,86.9613612 824.426731,85.2608696 C828.36878,81.8598864 830.996773,79.4058046 832.310789,77.8985507 C833.624805,76.3912968 834.281804,75.2125646 834.281804,74.3623188 C834.281804,73.8985484 833.837364,73.4734319 832.94847,73.0869565 C832.059577,72.7004812 831.035433,72.3913055 829.876007,72.1594203 C828.71658,71.9275351 827.789053,71.8115942 827.093398,71.8115942 C826.938808,71.2705287 826.861514,70.516913 826.861514,69.5507246 C826.861514,68.5845362 827.016102,68.0628023 827.325282,67.9855072 L828.94847,68.0434783 C830.030601,68.0821258 831.363921,68.1400962 832.94847,68.2173913 C834.533019,68.2946864 836.175515,68.3526568 837.876007,68.3913043 C839.576498,68.4299519 841.006436,68.4492754 842.165862,68.4492754 C844.175533,68.4492754 846.127205,68.3719814 848.020934,68.2173913 C849.914663,68.0628012 852.136863,67.9468603 854.687601,67.8695652 C855.074076,68.4106307 855.20934,69.1642464 855.093398,70.1304348 C854.977455,71.0966232 854.72625,71.6570041 854.339775,71.8115942 C852.639283,71.9661843 850.726259,72.3333304 848.600644,72.9130435 C846.47503,73.4927565 844.677946,74.3236661 843.20934,75.4057971 C841.972619,76.2560429 840.040271,77.917862 837.412238,80.3913043 C834.784206,82.8647467 831.731096,85.6473275 828.252818,88.7391304 C830.26249,91.0579826 831.943633,92.971007 833.296296,94.4782609 C834.64896,95.9855148 835.847016,97.3188348 836.890499,98.4782609 C837.933983,99.637687 839.016098,100.835743 840.136876,102.072464 C841.257655,103.309185 842.629622,104.816416 844.252818,106.594203 C846.339785,108.913055 848.175516,110.555551 849.760065,111.521739 C851.344613,112.487928 852.793874,113.086955 854.107891,113.318841 C855.421907,113.550726 856.658609,113.666667 857.818036,113.666667 C858.204511,114.285027 858.320452,114.961349 858.165862,115.695652 C858.011271,116.429955 857.895331,116.874395 857.818036,117.028986 C856.890495,117.338166 855.286646,117.647341 853.006441,117.956522 C850.726237,118.265702 848.504037,118.42029 846.339775,118.42029 C843.016087,118.42029 840.020947,117.782615 837.354267,116.507246 C834.687587,115.231878 832.504034,113.628029 830.803543,111.695652 L828.658615,109.318841 C827.228656,107.734292 825.47022,105.763297 823.383253,103.405797 C821.296286,101.048297 819.325291,98.7101565 817.470209,96.3913043 C817.238324,96.004829 816.929149,95.6763299 816.542673,95.4057971 L815.962963,95 L815.962963,101.26087 Z" id="Work"></path>
        </g>
    </g>
</svg>