<?xml version="1.0" encoding="UTF-8"?>
<svg width="446px" height="130px" viewBox="0 0 446 130" version="1.1" xmlns="http://www.w3.org/2000/svg" xmlns:xlink="http://www.w3.org/1999/xlink">
    <!-- Generator: Sketch 53.2 (72643) - https://sketchapp.com -->
    <title>Work</title>
    <desc>Created with Sketch.</desc>
    <g id="WWW" stroke="none" stroke-width="1" fill="none" fill-rule="evenodd" opacity="0.4">
        <path d="M34.0839844,127 L0.94921875,0.173828125 L34.2597656,0.173828125 L51.4863281,84.0214844 L52.1015625,84.0214844 L72.6679688,0.173828125 L99.7382813,0.173828125 L120.304687,84.0214844 L120.919922,84.0214844 L138.146484,0.173828125 L171.457031,0.173828125 L138.322266,127 L106.59375,127 L86.4667969,50.8867188 L85.8515625,50.8867188 L65.8125,127 L34.0839844,127 Z M217.599609,129.021484 C187.277344,129.021484 168.644531,110.740234 168.644531,79.1875 L168.644531,79.0117188 C168.644531,47.9863281 187.892578,29.265625 217.599609,29.265625 C247.394531,29.265625 266.554688,47.8105469 266.554688,79.0117188 L266.554688,79.1875 C266.554688,110.828125 247.746094,129.021484 217.599609,129.021484 Z M217.6875,105.378906 C228.322266,105.378906 235.001953,95.9746094 235.001953,79.1875 L235.001953,79.0117188 C235.001953,62.4882812 228.146484,52.9082031 217.599609,52.9082031 C207.052734,52.9082031 200.285156,62.4882812 200.285156,79.0117188 L200.285156,79.1875 C200.285156,96.0625 206.876953,105.378906 217.6875,105.378906 Z M278.595703,127 L278.595703,31.2871094 L309.796875,31.2871094 L309.796875,48.25 L310.412109,48.25 C313.048828,36.1210938 320.607422,29.265625 331.857422,29.265625 C334.845703,29.265625 337.570312,29.7050781 339.943359,30.4960938 L339.943359,57.1269531 C337.306641,56.0722656 333.703125,55.3691406 330.011719,55.3691406 C316.916016,55.3691406 309.796875,62.5761719 309.796875,76.1992188 L309.796875,127 L278.595703,127 Z M350.050781,127 L350.050781,0.173828125 L381.164062,0.173828125 L381.164062,67.5859375 L381.779297,67.5859375 L409.201172,31.2871094 L443.917969,31.2871094 L410.167969,72.2441406 L445.939453,127 L410.080078,127 L386.789062,90.7890625 L381.164062,97.5566406 L381.164062,127 L350.050781,127 Z" id="Work" fill="#FFFFFF" fill-rule="nonzero"></path>
    </g>
</svg>